<svg id="_2108.i201.041.F.m004.c9.customer_experience_isometric_Convertido_" data-name="2108.i201.041.F.m004.c9.customer experience isometric [Convertido]" xmlns="http://www.w3.org/2000/svg" xmlns:xlink="http://www.w3.org/1999/xlink" width="391.297" height="425.292" viewBox="0 0 391.297 425.292">
  <defs>
    <linearGradient id="linear-gradient" x1="0.582" y1="0.822" x2="0.192" y2="0.022" gradientUnits="objectBoundingBox">
      <stop offset="0.311" stop-color="#c2e6b0"/>
      <stop offset="1" stop-color="#016f3a"/>
    </linearGradient>
    <linearGradient id="linear-gradient-2" x1="0.507" y1="0.521" x2="0.493" y2="0.479" gradientUnits="objectBoundingBox">
      <stop offset="0" stop-color="#c3d2f6"/>
      <stop offset="0.819" stop-color="#ebefff"/>
    </linearGradient>
    <linearGradient id="linear-gradient-3" x1="0.538" y1="0.578" x2="0.475" y2="0.411" gradientUnits="objectBoundingBox">
      <stop offset="0.181" stop-color="#ebefff"/>
      <stop offset="1" stop-color="#c3d2f6"/>
    </linearGradient>
  </defs>
  <path id="Trazado_771852" data-name="Trazado 771852" d="M281.169,221.772c-4.7-2.722-12.31-2.722-16.99,0l-14.745,8.573L77.123,330.481l-14.745,8.573c-4.68,2.722-4.656,7.128.06,9.838L227.9,445.841c4.7,2.722,12.31,2.722,16.99,0l201.8-117.282c4.68-2.722,4.656-7.128-.06-9.838Z" transform="translate(-58.884 -22.591)" fill="#f3f9ff"/>
  <g id="Grupo_1054545" data-name="Grupo 1054545" transform="translate(20.352 28.131)">
    <path id="Trazado_771853" data-name="Trazado 771853" d="M200.79,225.6l.024,7.725,4.25,2.471-.012-7.725Z" transform="translate(-3.549 -49.583)" fill="#282736"/>
    <path id="Trazado_771854" data-name="Trazado 771854" d="M401.371,78.764a4.561,4.561,0,0,0-2.507-.573,7.954,7.954,0,0,0-3.558,1.158L192.179,196.619a16.515,16.515,0,0,0-5.146,4.967,17.934,17.934,0,0,0-3.343,9.743l.442,154.4c.012,2.686.955,4.573,2.483,5.468l4.25,2.472c-1.528-.884-2.483-2.782-2.483-5.468l-.442-154.4a17.934,17.934,0,0,1,3.343-9.743,16.509,16.509,0,0,1,5.146-4.967L399.556,81.832a8,8,0,0,1,3.558-1.158,4.484,4.484,0,0,1,2.507.573Z" transform="translate(-183.69 -78.175)" fill="#282736"/>
    <path id="Trazado_771855" data-name="Trazado 771855" d="M190.793,372.825c-1.528-.884-2.483-2.782-2.483-5.468l-.442-154.4a17.933,17.933,0,0,1,3.343-9.743,16.509,16.509,0,0,1,5.146-4.967L399.5,80.951a8,8,0,0,1,3.558-1.158,4.645,4.645,0,0,1,2.292.454l-2.555-1.492a4.561,4.561,0,0,0-2.507-.573,7.953,7.953,0,0,0-3.558,1.158L193.6,196.609a16.515,16.515,0,0,0-5.146,4.967,17.934,17.934,0,0,0-3.343,9.743l.442,154.4c.012,2.686.955,4.573,2.483,5.468l4.25,2.472c-.06-.036-.131-.084-.191-.119Z" transform="translate(-185.11 -78.176)" fill="#aab3be"/>
    <path id="Trazado_771856" data-name="Trazado 771856" d="M329.05,299.65l.024,7.737,4.25,2.471-.024-7.737Z" transform="translate(-284.945 -35.221)" fill="#282736"/>
  </g>
  <path id="Trazado_771857" data-name="Trazado 771857" d="M401.417,86.3c-.012-5.409-3.845-7.594-8.549-4.871L189.741,198.7c-4.7,2.722-8.513,9.3-8.5,14.71l.43,152.122,220.177-127.12Z" transform="translate(-156.637 -49.642)" fill="#202a54"/>
  <path id="Trazado_771858" data-name="Trazado 771858" d="M396.806,227.58l-61.62,35.592-85.941,49.621L185.3,349.71l-.418-142.964L396.389,84.64Z" transform="translate(-155.943 -48.792)" fill="#33ab00"/>
  <g id="Grupo_1054546" data-name="Grupo 1054546" transform="translate(25.021 188.77)">
    <path id="Trazado_771859" data-name="Trazado 771859" d="M189.813,347l14.841-8.573-.024-7.737,20.3-11.713.024,7.737,132.839-76.7-.024-7.737,20.3-11.725.024,7.737,14.841-8.573c4.7-2.722,8.513-9.3,8.5-14.71l-.012-2.292L181.24,339.84l.012,2.292C181.276,347.541,185.1,349.726,189.813,347Z" transform="translate(-181.24 -212.72)" fill="#aab3be"/>
  </g>
  <g id="Grupo_1054551" data-name="Grupo 1054551" transform="translate(31.086 199.718)">
    <g id="Grupo_1054547" data-name="Grupo 1054547" transform="translate(0)">
      <path id="Trazado_771860" data-name="Trazado 771860" d="M202.412,235.785l-.012,5.528-8.68-5,.024-5.54Z" transform="translate(-3.189 -220.168)" fill="#3f4b7d"/>
      <path id="Trazado_771861" data-name="Trazado 771861" d="M329.842,309.833l-.012,5.54-8.68-5,.024-5.54Z" transform="translate(-282.764 -205.803)" fill="#707392"/>
      <path id="Trazado_771862" data-name="Trazado 771862" d="M281.169,223.932c-4.7-2.722-12.31-2.722-16.99,0L249.434,232.5l8.668,5L237.936,249.22l-8.668-5-131.979,76.7,8.668,5L85.791,337.632l-8.668-5L62.378,341.2c-4.68,2.722-4.656,7.128.06,9.838L196.8,428.623c4.7,2.722,12.31,2.722,16.99,0l201.8-117.27c4.68-2.722,4.656-7.128-.06-9.838Z" transform="translate(-58.879 -221.89)" fill="#ccd6e3"/>
      <path id="Trazado_771863" data-name="Trazado 771863" d="M121.19,343.487l69.261,39.985L362.762,283.336,293.5,243.35Z" transform="translate(-76.942 -217.728)" fill="#bfccda"/>
      <path id="Trazado_771864" data-name="Trazado 771864" d="M359.082,242.621a.863.863,0,0,1,.012,1.636L191.248,341.8a3.111,3.111,0,0,1-2.83,0l-5.492-3.176a.864.864,0,0,1-.012-1.636L350.76,239.445a3.111,3.111,0,0,1,2.83,0Z" transform="translate(-146.857 -218.551)" fill="#bfccda"/>
      <path id="Trazado_771865" data-name="Trazado 771865" d="M415.607,297.615,213.805,414.9c-4.68,2.722-12.286,2.722-16.99,0L62.448,337.314c-2.364-1.373-3.558-3.164-3.546-4.955l-.012,5.54c0,1.791,1.182,3.582,3.546,4.955L196.8,420.437c4.7,2.722,12.31,2.722,16.99,0L415.6,303.143c2.328-1.349,3.486-3.116,3.486-4.883l.012-5.54C419.093,294.5,417.935,296.266,415.607,297.615Z" transform="translate(-58.89 -208.152)" fill="#aab3be"/>
    </g>
    <g id="Grupo_1054550" data-name="Grupo 1054550" transform="translate(47.4 26.416)">
      <g id="Grupo_1054548" data-name="Grupo 1054548" transform="translate(0.004)">
        <path id="Trazado_771866" data-name="Trazado 771866" d="M188.456,245.573a.864.864,0,0,1,.012,1.636l-7.761,4.513a3.111,3.111,0,0,1-2.83,0l-2.1-1.218a.863.863,0,0,1-.012-1.636l7.761-4.513a3.111,3.111,0,0,1,2.83,0Z" transform="translate(-15.099 -244.015)" fill="#3f4b7d"/>
        <path id="Trazado_771867" data-name="Trazado 771867" d="M185.8,252.028a.864.864,0,0,1,.012,1.636l-9.647,5.6a3.111,3.111,0,0,1-2.83,0l-7.82-4.513a.864.864,0,0,1-.012-1.636l9.647-5.6a3.111,3.111,0,0,1,2.83,0Z" transform="translate(-0.194 -243.402)" fill="#3f4b7d"/>
        <path id="Trazado_771868" data-name="Trazado 771868" d="M198.646,251.493a.864.864,0,0,1,.012,1.636l-7.761,4.513a3.111,3.111,0,0,1-2.83,0l-2.1-1.218a.864.864,0,0,1-.012-1.636l7.761-4.513a3.111,3.111,0,0,1,2.83,0Z" transform="translate(-37.455 -242.867)" fill="#3f4b7d"/>
        <path id="Trazado_771869" data-name="Trazado 771869" d="M195.685,258.868a.864.864,0,0,1,.012,1.636l-7.761,4.513a3.111,3.111,0,0,1-2.83,0l-7.82-4.513a.864.864,0,0,1-.012-1.636l7.761-4.513a3.111,3.111,0,0,1,2.83,0Z" transform="translate(-24.131 -242.075)" fill="#3f4b7d"/>
        <path id="Trazado_771870" data-name="Trazado 771870" d="M208.846,257.413a.864.864,0,0,1,.012,1.636l-7.761,4.513a3.111,3.111,0,0,1-2.83,0l-2.1-1.218a.864.864,0,0,1-.012-1.636l7.761-4.513a3.111,3.111,0,0,1,2.83,0Z" transform="translate(-59.833 -241.719)" fill="#3f4b7d"/>
        <path id="Trazado_771871" data-name="Trazado 771871" d="M205.875,264.788a.864.864,0,0,1,.012,1.636l-7.761,4.513a3.111,3.111,0,0,1-2.83,0l-7.82-4.513a.864.864,0,0,1-.012-1.636l7.761-4.513a3.111,3.111,0,0,1,2.83,0Z" transform="translate(-46.487 -240.927)" fill="#3f4b7d"/>
        <path id="Trazado_771872" data-name="Trazado 771872" d="M219.036,263.343a.863.863,0,0,1,.012,1.636l-7.761,4.513a3.111,3.111,0,0,1-2.83,0l-2.1-1.218a.863.863,0,0,1-.012-1.636l7.761-4.513a3.111,3.111,0,0,1,2.83,0Z" transform="translate(-82.19 -240.568)" fill="#3f4b7d"/>
        <path id="Trazado_771873" data-name="Trazado 771873" d="M216.075,270.718a.864.864,0,0,1,.012,1.636l-7.761,4.513a3.111,3.111,0,0,1-2.83,0l-7.82-4.513a.864.864,0,0,1-.012-1.636l7.761-4.513a3.111,3.111,0,0,1,2.83,0Z" transform="translate(-68.865 -239.777)" fill="#3f4b7d"/>
        <path id="Trazado_771874" data-name="Trazado 771874" d="M229.226,269.263a.863.863,0,0,1,.012,1.636l-7.761,4.513a3.111,3.111,0,0,1-2.83,0l-2.1-1.218a.864.864,0,0,1-.012-1.636l7.761-4.513a3.111,3.111,0,0,1,2.83,0Z" transform="translate(-104.546 -239.42)" fill="#3f4b7d"/>
        <path id="Trazado_771875" data-name="Trazado 771875" d="M226.265,276.638a.864.864,0,0,1,.012,1.636l-7.761,4.513a3.111,3.111,0,0,1-2.83,0l-7.82-4.513a.864.864,0,0,1-.012-1.636l7.761-4.513a3.111,3.111,0,0,1,2.83,0Z" transform="translate(-91.222 -238.629)" fill="#3f4b7d"/>
        <path id="Trazado_771876" data-name="Trazado 771876" d="M239.416,275.183a.864.864,0,0,1,.012,1.636l-7.761,4.513a3.111,3.111,0,0,1-2.83,0l-2.1-1.218a.863.863,0,0,1-.012-1.636l7.761-4.513a3.111,3.111,0,0,1,2.83,0Z" transform="translate(-126.903 -238.272)" fill="#3f4b7d"/>
        <path id="Trazado_771877" data-name="Trazado 771877" d="M236.455,282.558a.864.864,0,0,1,.012,1.636l-7.761,4.513a3.111,3.111,0,0,1-2.83,0l-7.82-4.513a.863.863,0,0,1-.012-1.636l7.761-4.513a3.111,3.111,0,0,1,2.83,0Z" transform="translate(-113.578 -237.481)" fill="#3f4b7d"/>
        <path id="Trazado_771878" data-name="Trazado 771878" d="M249.616,281.113a.864.864,0,0,1,.012,1.636l-7.761,4.513a3.111,3.111,0,0,1-2.83,0l-2.1-1.218a.863.863,0,0,1-.012-1.636l7.761-4.513a3.111,3.111,0,0,1,2.83,0Z" transform="translate(-149.281 -237.122)" fill="#3f4b7d"/>
        <path id="Trazado_771879" data-name="Trazado 771879" d="M246.645,288.488a.863.863,0,0,1,.012,1.636l-7.761,4.513a3.111,3.111,0,0,1-2.83,0l-7.82-4.513a.864.864,0,0,1-.012-1.636L236,283.975a3.111,3.111,0,0,1,2.83,0Z" transform="translate(-135.934 -236.331)" fill="#3f4b7d"/>
        <path id="Trazado_771880" data-name="Trazado 771880" d="M259.806,287.033a.863.863,0,0,1,.012,1.636l-7.761,4.513a3.111,3.111,0,0,1-2.83,0l-2.1-1.218a.864.864,0,0,1-.012-1.636l7.761-4.513a3.111,3.111,0,0,1,2.83,0Z" transform="translate(-171.637 -235.974)" fill="#3f4b7d"/>
        <path id="Trazado_771881" data-name="Trazado 771881" d="M256.845,294.408a.863.863,0,0,1,.012,1.636l-7.761,4.513a3.111,3.111,0,0,1-2.83,0l-7.82-4.513a.864.864,0,0,1-.012-1.636L246.2,289.9a3.111,3.111,0,0,1,2.83,0Z" transform="translate(-158.313 -235.182)" fill="#3f4b7d"/>
        <path id="Trazado_771882" data-name="Trazado 771882" d="M270,292.953a.864.864,0,0,1,.012,1.636l-7.761,4.513a3.112,3.112,0,0,1-2.83,0l-2.1-1.218a.864.864,0,0,1-.012-1.636l7.761-4.513a3.111,3.111,0,0,1,2.83,0Z" transform="translate(-193.994 -234.825)" fill="#3f4b7d"/>
        <path id="Trazado_771883" data-name="Trazado 771883" d="M267.035,300.328a.864.864,0,0,1,.012,1.636l-7.761,4.513a3.111,3.111,0,0,1-2.83,0l-7.82-4.513a.864.864,0,0,1-.012-1.636l7.761-4.513a3.111,3.111,0,0,1,2.83,0Z" transform="translate(-180.669 -234.034)" fill="#3f4b7d"/>
        <path id="Trazado_771884" data-name="Trazado 771884" d="M280.186,298.883a.864.864,0,0,1,.012,1.636l-7.761,4.513a3.111,3.111,0,0,1-2.83,0l-2.1-1.218a.864.864,0,0,1-.012-1.636l7.761-4.513a3.111,3.111,0,0,1,2.83,0Z" transform="translate(-216.35 -233.675)" fill="#3f4b7d"/>
        <path id="Trazado_771885" data-name="Trazado 771885" d="M277.225,306.258a.864.864,0,0,1,.012,1.636l-7.761,4.513a3.111,3.111,0,0,1-2.83,0l-7.82-4.513a.864.864,0,0,1-.012-1.636l7.761-4.513a3.111,3.111,0,0,1,2.83,0Z" transform="translate(-203.025 -232.884)" fill="#3f4b7d"/>
        <path id="Trazado_771886" data-name="Trazado 771886" d="M290.386,304.8a.864.864,0,0,1,.012,1.636l-7.761,4.513a3.111,3.111,0,0,1-2.83,0l-2.1-1.218a.864.864,0,0,1-.012-1.636l7.761-4.513a3.111,3.111,0,0,1,2.83,0Z" transform="translate(-238.728 -232.527)" fill="#3f4b7d"/>
        <path id="Trazado_771887" data-name="Trazado 771887" d="M287.415,312.178a.864.864,0,0,1,.012,1.636l-7.761,4.513a3.111,3.111,0,0,1-2.83,0l-7.82-4.513a.864.864,0,0,1-.012-1.636l7.761-4.513a3.111,3.111,0,0,1,2.83,0Z" transform="translate(-225.382 -231.736)" fill="#3f4b7d"/>
        <path id="Trazado_771888" data-name="Trazado 771888" d="M300.576,310.723a.864.864,0,0,1,.012,1.636l-7.761,4.513a3.111,3.111,0,0,1-2.83,0l-2.1-1.218a.864.864,0,0,1-.012-1.636l7.761-4.513a3.111,3.111,0,0,1,2.83,0Z" transform="translate(-261.085 -231.379)" fill="#3f4b7d"/>
        <path id="Trazado_771889" data-name="Trazado 771889" d="M297.615,318.1a.864.864,0,0,1,.012,1.636l-7.761,4.513a3.111,3.111,0,0,1-2.83,0l-7.82-4.513a.864.864,0,0,1-.012-1.636l7.761-4.513a3.111,3.111,0,0,1,2.83,0Z" transform="translate(-247.76 -230.588)" fill="#3f4b7d"/>
        <path id="Trazado_771890" data-name="Trazado 771890" d="M310.766,316.653a.864.864,0,0,1,.012,1.636l-7.761,4.513a3.111,3.111,0,0,1-2.83,0l-2.1-1.218a.864.864,0,0,1-.012-1.636l7.761-4.513a3.111,3.111,0,0,1,2.83,0Z" transform="translate(-283.441 -230.229)" fill="#3f4b7d"/>
        <path id="Trazado_771891" data-name="Trazado 771891" d="M307.805,324.028a.864.864,0,0,1,.012,1.636l-7.761,4.513a3.111,3.111,0,0,1-2.83,0l-7.82-4.513a.864.864,0,0,1-.012-1.636l7.761-4.513a3.111,3.111,0,0,1,2.83,0Z" transform="translate(-270.116 -229.437)" fill="#3f4b7d"/>
        <path id="Trazado_771892" data-name="Trazado 771892" d="M322.842,322.573a.864.864,0,0,1,.012,1.636l-9.647,5.6a3.111,3.111,0,0,1-2.83,0l-2.1-1.218a.864.864,0,0,1-.012-1.636l9.647-5.6a3.111,3.111,0,0,1,2.83,0Z" transform="translate(-307.684 -229.081)" fill="#3f4b7d"/>
        <path id="Trazado_771893" data-name="Trazado 771893" d="M318,329.948a.864.864,0,0,1,.012,1.636l-7.761,4.513a3.111,3.111,0,0,1-2.83,0l-7.82-4.513a.864.864,0,0,1-.012-1.636l7.761-4.513a3.111,3.111,0,0,1,2.83,0Z" transform="translate(-292.473 -228.289)" fill="#3f4b7d"/>
        <path id="Trazado_771894" data-name="Trazado 771894" d="M180.771,257.988a.864.864,0,0,1,.012,1.636l-14.936,8.68a3.111,3.111,0,0,1-2.83,0l-7.82-4.513a.863.863,0,0,1-.012-1.636l14.936-8.68a3.111,3.111,0,0,1,2.83,0Z" transform="translate(17.158 -242.246)" fill="#3f4b7d"/>
        <path id="Trazado_771895" data-name="Trazado 771895" d="M189.865,267.368a.863.863,0,0,1,.012,1.636l-7.761,4.513a3.111,3.111,0,0,1-2.83,0L171.466,269a.863.863,0,0,1-.012-1.636l7.761-4.513a3.111,3.111,0,0,1,2.83,0Z" transform="translate(-11.362 -240.427)" fill="#3f4b7d"/>
        <path id="Trazado_771896" data-name="Trazado 771896" d="M200.055,273.288a.863.863,0,0,1,.012,1.636l-7.761,4.513a3.111,3.111,0,0,1-2.83,0l-7.82-4.513a.863.863,0,0,1-.012-1.636l7.761-4.513a3.112,3.112,0,0,1,2.83,0Z" transform="translate(-33.718 -239.279)" fill="#3f4b7d"/>
        <path id="Trazado_771897" data-name="Trazado 771897" d="M210.245,279.218a.864.864,0,0,1,.012,1.636l-7.761,4.513a3.111,3.111,0,0,1-2.83,0l-7.82-4.513a.864.864,0,0,1-.012-1.636l7.761-4.513a3.111,3.111,0,0,1,2.83,0Z" transform="translate(-56.075 -238.129)" fill="#3f4b7d"/>
        <path id="Trazado_771898" data-name="Trazado 771898" d="M220.435,285.138a.864.864,0,0,1,.012,1.636l-7.761,4.513a3.111,3.111,0,0,1-2.83,0l-7.82-4.513a.864.864,0,0,1-.012-1.636l7.761-4.513a3.111,3.111,0,0,1,2.83,0Z" transform="translate(-78.431 -236.98)" fill="#3f4b7d"/>
        <path id="Trazado_771899" data-name="Trazado 771899" d="M230.635,291.058a.863.863,0,0,1,.012,1.636l-7.761,4.513a3.111,3.111,0,0,1-2.83,0l-7.82-4.513a.863.863,0,0,1-.012-1.636l7.761-4.513a3.112,3.112,0,0,1,2.83,0Z" transform="translate(-100.809 -235.832)" fill="#3f4b7d"/>
        <path id="Trazado_771900" data-name="Trazado 771900" d="M240.825,296.988a.863.863,0,0,1,.012,1.636l-7.761,4.513a3.111,3.111,0,0,1-2.83,0l-7.82-4.513a.864.864,0,0,1-.012-1.636l7.761-4.513a3.112,3.112,0,0,1,2.83,0Z" transform="translate(-123.166 -234.682)" fill="#3f4b7d"/>
        <path id="Trazado_771901" data-name="Trazado 771901" d="M251.015,302.908a.863.863,0,0,1,.012,1.636l-7.761,4.513a3.111,3.111,0,0,1-2.83,0l-7.82-4.513a.863.863,0,0,1-.012-1.636l7.761-4.513a3.111,3.111,0,0,1,2.83,0Z" transform="translate(-145.522 -233.534)" fill="#3f4b7d"/>
        <path id="Trazado_771902" data-name="Trazado 771902" d="M261.2,308.828a.863.863,0,0,1,.012,1.636l-7.761,4.513a3.111,3.111,0,0,1-2.83,0l-7.82-4.513a.863.863,0,0,1-.012-1.636l7.761-4.513a3.111,3.111,0,0,1,2.83,0Z" transform="translate(-167.878 -232.386)" fill="#3f4b7d"/>
        <path id="Trazado_771903" data-name="Trazado 771903" d="M271.395,314.748a.864.864,0,0,1,.012,1.636l-7.761,4.513a3.112,3.112,0,0,1-2.83,0L253,316.384a.864.864,0,0,1-.012-1.636l7.761-4.513a3.111,3.111,0,0,1,2.83,0Z" transform="translate(-190.235 -231.237)" fill="#3f4b7d"/>
        <path id="Trazado_771904" data-name="Trazado 771904" d="M281.6,320.678a.864.864,0,0,1,.012,1.636l-7.761,4.513a3.111,3.111,0,0,1-2.83,0l-7.82-4.513a.864.864,0,0,1-.012-1.636l7.761-4.513a3.111,3.111,0,0,1,2.83,0Z" transform="translate(-212.613 -230.087)" fill="#3f4b7d"/>
        <path id="Trazado_771905" data-name="Trazado 771905" d="M176.53,263.958a.863.863,0,0,1,.012,1.636l-21.025,12.214a3.111,3.111,0,0,1-2.83,0l-7.82-4.513a.864.864,0,0,1-.012-1.636l21.025-12.214a3.111,3.111,0,0,1,2.83,0Z" transform="translate(33.732 -241.088)" fill="#3f4b7d"/>
        <path id="Trazado_771906" data-name="Trazado 771906" d="M184.555,276.328a.864.864,0,0,1,.012,1.636l-7.761,4.513a3.111,3.111,0,0,1-2.83,0l-7.82-4.513a.864.864,0,0,1-.012-1.636l7.761-4.513a3.111,3.111,0,0,1,2.83,0Z" transform="translate(0.288 -238.689)" fill="#3f4b7d"/>
        <path id="Trazado_771907" data-name="Trazado 771907" d="M194.755,282.258a.863.863,0,0,1,.012,1.636l-7.761,4.513a3.111,3.111,0,0,1-2.83,0l-7.82-4.513a.864.864,0,0,1-.012-1.636l7.761-4.513a3.111,3.111,0,0,1,2.83,0Z" transform="translate(-22.09 -237.539)" fill="#3f4b7d"/>
        <path id="Trazado_771908" data-name="Trazado 771908" d="M204.945,288.178a.864.864,0,0,1,.012,1.636l-7.761,4.513a3.112,3.112,0,0,1-2.83,0l-7.82-4.513a.864.864,0,0,1-.012-1.636l7.761-4.513a3.111,3.111,0,0,1,2.83,0Z" transform="translate(-44.447 -236.391)" fill="#3f4b7d"/>
        <path id="Trazado_771909" data-name="Trazado 771909" d="M215.135,294.1a.863.863,0,0,1,.012,1.636l-7.761,4.513a3.111,3.111,0,0,1-2.83,0l-7.82-4.513a.864.864,0,0,1-.012-1.636l7.761-4.513a3.111,3.111,0,0,1,2.83,0Z" transform="translate(-66.803 -235.242)" fill="#3f4b7d"/>
        <path id="Trazado_771910" data-name="Trazado 771910" d="M153.94,269.958a.864.864,0,0,1,.012,1.636L145.1,276.74a3.111,3.111,0,0,1-2.83,0l-7.808-4.513a.864.864,0,0,1-.012-1.636l8.847-5.146a3.111,3.111,0,0,1,2.83,0Z" transform="translate(68.74 -239.924)" fill="#3f4b7d"/>
        <path id="Trazado_771911" data-name="Trazado 771911" d="M163.963,276.408a.864.864,0,0,1,.012,1.636l-7.761,4.513a3.111,3.111,0,0,1-2.83,0l-7.808-4.513a.864.864,0,0,1-.012-1.636l7.761-4.513a3.111,3.111,0,0,1,2.83,0Z" transform="translate(45.451 -238.674)" fill="#3f4b7d"/>
        <path id="Trazado_771912" data-name="Trazado 771912" d="M174.153,282.328a.863.863,0,0,1,.012,1.636l-7.761,4.513a3.111,3.111,0,0,1-2.83,0l-7.808-4.513a.864.864,0,0,1-.012-1.636l7.761-4.513a3.111,3.111,0,0,1,2.83,0Z" transform="translate(23.095 -237.525)" fill="#3f4b7d"/>
        <path id="Trazado_771913" data-name="Trazado 771913" d="M184.343,288.258a.863.863,0,0,1,.012,1.636l-7.761,4.513a3.111,3.111,0,0,1-2.83,0l-7.808-4.513a.863.863,0,0,1-.012-1.636l7.761-4.513a3.111,3.111,0,0,1,2.83,0Z" transform="translate(0.739 -236.375)" fill="#3f4b7d"/>
        <path id="Trazado_771914" data-name="Trazado 771914" d="M194.543,294.178a.863.863,0,0,1,.012,1.636l-7.761,4.513a3.111,3.111,0,0,1-2.83,0l-7.808-4.513a.863.863,0,0,1-.012-1.636l7.761-4.513a3.112,3.112,0,0,1,2.83,0Z" transform="translate(-21.64 -235.227)" fill="#3f4b7d"/>
        <path id="Trazado_771915" data-name="Trazado 771915" d="M204.733,300.1a.863.863,0,0,1,.012,1.636l-7.761,4.513a3.111,3.111,0,0,1-2.83,0l-7.808-4.513a.863.863,0,0,1-.012-1.636l7.761-4.513a3.112,3.112,0,0,1,2.83,0Z" transform="translate(-43.996 -234.079)" fill="#3f4b7d"/>
        <path id="Trazado_771916" data-name="Trazado 771916" d="M225.335,300.028a.863.863,0,0,1,.012,1.636l-7.761,4.513a3.111,3.111,0,0,1-2.83,0l-7.82-4.513a.863.863,0,0,1-.012-1.636l7.761-4.513a3.112,3.112,0,0,1,2.83,0Z" transform="translate(-89.181 -234.092)" fill="#3f4b7d"/>
        <path id="Trazado_771917" data-name="Trazado 771917" d="M235.525,305.948a.864.864,0,0,1,.012,1.636l-7.761,4.513a3.111,3.111,0,0,1-2.83,0l-7.82-4.513a.864.864,0,0,1-.012-1.636l7.761-4.513a3.111,3.111,0,0,1,2.83,0Z" transform="translate(-111.538 -232.944)" fill="#3f4b7d"/>
        <path id="Trazado_771918" data-name="Trazado 771918" d="M214.923,306.028a.864.864,0,0,1,.012,1.636l-7.761,4.513a3.111,3.111,0,0,1-2.83,0l-7.808-4.513a.864.864,0,0,1-.012-1.636l7.761-4.513a3.111,3.111,0,0,1,2.83,0Z" transform="translate(-66.352 -232.929)" fill="#3f4b7d"/>
        <path id="Trazado_771919" data-name="Trazado 771919" d="M225.113,311.948a.863.863,0,0,1,.012,1.636l-7.761,4.513a3.111,3.111,0,0,1-2.83,0l-7.808-4.513a.863.863,0,0,1-.012-1.636l7.761-4.513a3.111,3.111,0,0,1,2.83,0Z" transform="translate(-88.709 -231.78)" fill="#3f4b7d"/>
        <path id="Trazado_771920" data-name="Trazado 771920" d="M245.715,311.868a.863.863,0,0,1,.012,1.636l-7.761,4.513a3.111,3.111,0,0,1-2.83,0l-7.82-4.513a.863.863,0,0,1-.012-1.636l7.761-4.513a3.111,3.111,0,0,1,2.83,0Z" transform="translate(-133.894 -231.796)" fill="#3f4b7d"/>
        <path id="Trazado_771921" data-name="Trazado 771921" d="M255.905,317.8a.864.864,0,0,1,.012,1.636l-7.761,4.513a3.111,3.111,0,0,1-2.83,0l-7.82-4.513a.864.864,0,0,1-.012-1.636l7.761-4.513a3.111,3.111,0,0,1,2.83,0Z" transform="translate(-156.25 -230.646)" fill="#3f4b7d"/>
        <path id="Trazado_771922" data-name="Trazado 771922" d="M235.313,317.868a.863.863,0,0,1,.012,1.636l-7.761,4.513a3.111,3.111,0,0,1-2.83,0l-7.808-4.513a.863.863,0,0,1-.012-1.636l7.761-4.513a3.111,3.111,0,0,1,2.83,0Z" transform="translate(-111.087 -230.632)" fill="#3f4b7d"/>
        <path id="Trazado_771923" data-name="Trazado 771923" d="M245.5,323.8a.864.864,0,0,1,.012,1.636l-7.761,4.513a3.111,3.111,0,0,1-2.83,0l-7.808-4.513a.864.864,0,0,1-.012-1.636l7.761-4.513a3.111,3.111,0,0,1,2.83,0Z" transform="translate(-133.443 -229.482)" fill="#3f4b7d"/>
        <path id="Trazado_771924" data-name="Trazado 771924" d="M142.593,275.878a.864.864,0,0,1,.012,1.636l-7.761,4.513a3.111,3.111,0,0,1-2.83,0l-7.808-4.513a.864.864,0,0,1-.012-1.636l7.761-4.513a3.111,3.111,0,0,1,2.83,0Z" transform="translate(92.336 -238.776)" fill="#3f4b7d"/>
        <path id="Trazado_771925" data-name="Trazado 771925" d="M152.106,278.653a.863.863,0,0,1,.012,1.636l-7.761,4.513a3.111,3.111,0,0,1-2.83,0l-2.1-1.218a.864.864,0,0,1-.012-1.636l7.761-4.513a3.111,3.111,0,0,1,2.83,0Z" transform="translate(64.651 -237.599)" fill="#3f4b7d"/>
        <path id="Trazado_771926" data-name="Trazado 771926" d="M147.326,281.413a.863.863,0,0,1,.012,1.636l-7.761,4.513a3.112,3.112,0,0,1-2.83,0l-2.1-1.218a.864.864,0,0,1-.012-1.636L142.4,280.2a3.111,3.111,0,0,1,2.83,0Z" transform="translate(75.138 -237.064)" fill="#3f4b7d"/>
        <path id="Trazado_771927" data-name="Trazado 771927" d="M163.233,287.868a.863.863,0,0,1,.012,1.636l-7.761,4.513a3.111,3.111,0,0,1-2.83,0l-7.808-4.513a.863.863,0,0,1-.012-1.636l7.761-4.513a3.111,3.111,0,0,1,2.83,0Z" transform="translate(47.053 -236.451)" fill="#3f4b7d"/>
        <path id="Trazado_771928" data-name="Trazado 771928" d="M173.423,293.8a.863.863,0,0,1,.012,1.636l-7.761,4.513a3.111,3.111,0,0,1-2.83,0l-7.808-4.513a.863.863,0,0,1-.012-1.636l7.761-4.513a3.111,3.111,0,0,1,2.83,0Z" transform="translate(24.697 -235.301)" fill="#3f4b7d"/>
        <path id="Trazado_771929" data-name="Trazado 771929" d="M246.045,299.718a.863.863,0,0,1,.012,1.636l-70.192,40.8a3.111,3.111,0,0,1-2.83,0l-7.808-4.513a.864.864,0,0,1-.012-1.636l70.192-40.8a3.111,3.111,0,0,1,2.83,0Z" transform="translate(-60.091 -234.152)" fill="#3f4b7d"/>
        <path id="Trazado_771930" data-name="Trazado 771930" d="M266.105,323.718a.864.864,0,0,1,.012,1.636l-7.761,4.513a3.111,3.111,0,0,1-2.83,0l-7.82-4.513a.864.864,0,0,1-.012-1.636l7.761-4.513a3.111,3.111,0,0,1,2.83,0Z" transform="translate(-178.629 -229.498)" fill="#3f4b7d"/>
        <path id="Trazado_771931" data-name="Trazado 771931" d="M255.693,329.718a.864.864,0,0,1,.012,1.636l-7.761,4.513a3.111,3.111,0,0,1-2.83,0l-7.808-4.513a.863.863,0,0,1-.012-1.636l7.761-4.513a3.111,3.111,0,0,1,2.83,0Z" transform="translate(-155.8 -228.334)" fill="#3f4b7d"/>
        <path id="Trazado_771932" data-name="Trazado 771932" d="M246.093,336.028a.863.863,0,0,1,.012,1.636l-7.761,4.513a3.111,3.111,0,0,1-2.83,0l-7.808-4.513a.863.863,0,0,1-.012-1.636l7.761-4.513a3.111,3.111,0,0,1,2.83,0Z" transform="translate(-134.738 -227.11)" fill="#3f4b7d"/>
        <path id="Trazado_771933" data-name="Trazado 771933" d="M291.785,326.6a.864.864,0,0,1,.012,1.636l-7.761,4.513a3.111,3.111,0,0,1-2.83,0l-7.82-4.513a.864.864,0,0,1-.012-1.636l7.761-4.513a3.111,3.111,0,0,1,2.83,0Z" transform="translate(-234.969 -228.939)" fill="#3f4b7d"/>
        <path id="Trazado_771934" data-name="Trazado 771934" d="M276.3,329.638a.864.864,0,0,1,.012,1.636l-7.761,4.513a3.111,3.111,0,0,1-2.83,0l-7.82-4.513a.864.864,0,0,1-.012-1.636l7.761-4.513a3.111,3.111,0,0,1,2.83,0Z" transform="translate(-200.985 -228.349)" fill="#3f4b7d"/>
        <path id="Trazado_771935" data-name="Trazado 771935" d="M265.883,335.638a.864.864,0,0,1,.012,1.636l-7.761,4.513a3.112,3.112,0,0,1-2.83,0l-7.808-4.513a.864.864,0,0,1-.012-1.636l7.761-4.513a3.111,3.111,0,0,1,2.83,0Z" transform="translate(-178.156 -227.186)" fill="#3f4b7d"/>
        <path id="Trazado_771936" data-name="Trazado 771936" d="M256.293,341.948a.863.863,0,0,1,.012,1.636l-7.761,4.513a3.111,3.111,0,0,1-2.83,0l-7.808-4.513a.864.864,0,0,1-.012-1.636l7.761-4.513a3.111,3.111,0,0,1,2.83,0Z" transform="translate(-157.116 -225.962)" fill="#3f4b7d"/>
        <path id="Trazado_771937" data-name="Trazado 771937" d="M308.782,332.558a.864.864,0,0,1,.012,1.636l-14.638,8.513a3.111,3.111,0,0,1-2.83,0l-7.82-4.513a.863.863,0,0,1-.012-1.636l14.638-8.513a3.111,3.111,0,0,1,2.83,0Z" transform="translate(-264.049 -227.783)" fill="#3f4b7d"/>
        <path id="Trazado_771938" data-name="Trazado 771938" d="M299.451,335.568a.864.864,0,0,1,.012,1.636l-20.727,12.047a3.112,3.112,0,0,1-2.83,0l-7.82-4.513a.864.864,0,0,1-.012-1.636L288.8,331.055a3.111,3.111,0,0,1,2.83,0Z" transform="translate(-236.308 -227.199)" fill="#3f4b7d"/>
        <path id="Trazado_771939" data-name="Trazado 771939" d="M289.039,341.568a.864.864,0,0,1,.012,1.636l-20.727,12.047a3.111,3.111,0,0,1-2.83,0l-7.808-4.513a.864.864,0,0,1-.012-1.636l20.715-12.047a3.111,3.111,0,0,1,2.83,0Z" transform="translate(-213.479 -226.035)" fill="#3f4b7d"/>
        <path id="Trazado_771940" data-name="Trazado 771940" d="M266.483,347.878a.864.864,0,0,1,.012,1.636l-7.761,4.513a3.111,3.111,0,0,1-2.83,0l-7.808-4.513a.864.864,0,0,1-.012-1.636l7.761-4.513a3.111,3.111,0,0,1,2.83,0Z" transform="translate(-179.472 -224.812)" fill="#3f4b7d"/>
        <path id="Trazado_771941" data-name="Trazado 771941" d="M276.673,353.8a.864.864,0,0,1,.012,1.636l-7.761,4.513a3.112,3.112,0,0,1-2.83,0l-7.808-4.513a.864.864,0,0,1-.012-1.636l7.761-4.513a3.111,3.111,0,0,1,2.83,0Z" transform="translate(-201.829 -223.663)" fill="#3f4b7d"/>
      </g>
      <g id="Grupo_1054549" data-name="Grupo 1054549" transform="translate(0 2.382)">
        <path id="Trazado_771942" data-name="Trazado 771942" d="M175.787,251.144l2.1,1.218a3.111,3.111,0,0,0,2.83,0l7.761-4.513a1,1,0,0,0,.585-.812V246.01a.978.978,0,0,1-.585.812l-7.761,4.513a3.111,3.111,0,0,1-2.83,0l-2.1-1.218a1.01,1.01,0,0,1-.6-.824v1.027A1.01,1.01,0,0,0,175.787,251.144Z" transform="translate(-15.117 -246.01)" fill="#202a54"/>
        <path id="Trazado_771943" data-name="Trazado 771943" d="M165.506,253.838a.97.97,0,0,1-.585-.824v1.027a.993.993,0,0,0,.585.824l7.82,4.513a3.111,3.111,0,0,0,2.83,0l9.647-5.6a1,1,0,0,0,.585-.812V251.94a.978.978,0,0,1-.585.812l-9.647,5.612a3.111,3.111,0,0,1-2.83,0Z" transform="translate(-0.179 -244.86)" fill="#202a54"/>
        <path id="Trazado_771944" data-name="Trazado 771944" d="M185.976,257.064l2.1,1.218a3.111,3.111,0,0,0,2.83,0l7.761-4.513a1,1,0,0,0,.585-.812V251.93a.978.978,0,0,1-.585.812l-7.761,4.513a3.111,3.111,0,0,1-2.83,0l-2.1-1.218a.97.97,0,0,1-.585-.824v1.027A.993.993,0,0,0,185.976,257.064Z" transform="translate(-37.484 -244.862)" fill="#202a54"/>
        <path id="Trazado_771945" data-name="Trazado 771945" d="M196.281,259.8v-1.027a.978.978,0,0,1-.585.812l-7.761,4.513a3.111,3.111,0,0,1-2.83,0l-7.82-4.513a.97.97,0,0,1-.585-.824v1.027a.993.993,0,0,0,.585.824l7.82,4.513a3.111,3.111,0,0,0,2.83,0l7.761-4.513A.978.978,0,0,0,196.281,259.8Z" transform="translate(-24.137 -243.537)" fill="#202a54"/>
        <path id="Trazado_771946" data-name="Trazado 771946" d="M196.166,262.994l2.1,1.218a3.111,3.111,0,0,0,2.83,0l7.761-4.513a1,1,0,0,0,.585-.812V257.86a.978.978,0,0,1-.585.812l-7.761,4.513a3.111,3.111,0,0,1-2.83,0l-2.1-1.218a.97.97,0,0,1-.585-.824v1.027A.993.993,0,0,0,196.166,262.994Z" transform="translate(-59.84 -243.712)" fill="#202a54"/>
        <path id="Trazado_771947" data-name="Trazado 771947" d="M195.3,270.027l-7.82-4.513a.97.97,0,0,1-.585-.824v1.027a.994.994,0,0,0,.585.824l7.82,4.513a3.111,3.111,0,0,0,2.83,0l7.761-4.513a1,1,0,0,0,.585-.812V264.7a.978.978,0,0,1-.585.812l-7.761,4.513A3.187,3.187,0,0,1,195.3,270.027Z" transform="translate(-46.494 -242.387)" fill="#202a54"/>
        <path id="Trazado_771948" data-name="Trazado 771948" d="M206.367,268.914l2.1,1.218a3.111,3.111,0,0,0,2.83,0l7.761-4.513a1,1,0,0,0,.585-.812V263.78a.978.978,0,0,1-.585.812l-7.761,4.513a3.111,3.111,0,0,1-2.83,0l-2.1-1.218a1.01,1.01,0,0,1-.6-.824v1.027A1.01,1.01,0,0,0,206.367,268.914Z" transform="translate(-82.208 -242.563)" fill="#202a54"/>
        <path id="Trazado_771949" data-name="Trazado 771949" d="M205.486,275.947l-7.82-4.513a.97.97,0,0,1-.585-.824v1.027a.993.993,0,0,0,.585.824l7.82,4.513a3.111,3.111,0,0,0,2.83,0l7.761-4.513a1,1,0,0,0,.585-.812v-1.027a.978.978,0,0,1-.585.812l-7.761,4.513A3.111,3.111,0,0,1,205.486,275.947Z" transform="translate(-68.85 -241.239)" fill="#202a54"/>
        <path id="Trazado_771950" data-name="Trazado 771950" d="M216.556,274.834l2.1,1.218a3.111,3.111,0,0,0,2.83,0l7.761-4.513a1.018,1.018,0,0,0,.585-.812V269.7a.978.978,0,0,1-.585.812l-7.761,4.513a3.111,3.111,0,0,1-2.83,0l-2.1-1.218a.97.97,0,0,1-.585-.824v1.027A1.018,1.018,0,0,0,216.556,274.834Z" transform="translate(-104.575 -241.415)" fill="#202a54"/>
        <path id="Trazado_771951" data-name="Trazado 771951" d="M215.676,281.867l-7.82-4.513a.97.97,0,0,1-.585-.824v1.027a.993.993,0,0,0,.585.824l7.82,4.513a3.111,3.111,0,0,0,2.83,0l7.761-4.513a1,1,0,0,0,.585-.812v-1.027a.978.978,0,0,1-.585.812l-7.761,4.513A3.111,3.111,0,0,1,215.676,281.867Z" transform="translate(-91.207 -240.091)" fill="#202a54"/>
        <path id="Trazado_771952" data-name="Trazado 771952" d="M226.745,280.764l2.1,1.218a3.111,3.111,0,0,0,2.83,0l7.761-4.513a1,1,0,0,0,.585-.812V275.63a.978.978,0,0,1-.585.812l-7.761,4.513a3.111,3.111,0,0,1-2.83,0l-2.1-1.218a.993.993,0,0,1-.585-.824v1.027A.993.993,0,0,0,226.745,280.764Z" transform="translate(-126.931 -240.265)" fill="#202a54"/>
        <path id="Trazado_771953" data-name="Trazado 771953" d="M225.876,287.8l-7.82-4.513a.97.97,0,0,1-.585-.824v1.027a.993.993,0,0,0,.585.824l7.82,4.513a3.111,3.111,0,0,0,2.83,0l7.761-4.513a1,1,0,0,0,.585-.812v-1.027a.978.978,0,0,1-.585.812l-7.761,4.513A3.187,3.187,0,0,1,225.876,287.8Z" transform="translate(-113.585 -238.94)" fill="#202a54"/>
        <path id="Trazado_771954" data-name="Trazado 771954" d="M236.936,286.684l2.1,1.218a3.111,3.111,0,0,0,2.83,0l7.761-4.513a1,1,0,0,0,.585-.812V281.55a.978.978,0,0,1-.585.812l-7.761,4.513a3.111,3.111,0,0,1-2.83,0l-2.1-1.218a.97.97,0,0,1-.585-.824v1.027A.97.97,0,0,0,236.936,286.684Z" transform="translate(-149.288 -239.117)" fill="#202a54"/>
        <path id="Trazado_771955" data-name="Trazado 771955" d="M236.066,293.717l-7.82-4.513a.97.97,0,0,1-.585-.824v1.027a.993.993,0,0,0,.585.824l7.82,4.513a3.112,3.112,0,0,0,2.83,0l7.761-4.513a1,1,0,0,0,.585-.812v-1.027a.978.978,0,0,1-.585.812l-7.761,4.513A3.111,3.111,0,0,1,236.066,293.717Z" transform="translate(-135.941 -237.792)" fill="#202a54"/>
        <path id="Trazado_771956" data-name="Trazado 771956" d="M247.126,292.6l2.1,1.218a3.111,3.111,0,0,0,2.83,0l7.761-4.513a1,1,0,0,0,.585-.812V287.47a.978.978,0,0,1-.585.812l-7.761,4.513a3.111,3.111,0,0,1-2.83,0l-2.1-1.218a.97.97,0,0,1-.585-.824v1.027A.97.97,0,0,0,247.126,292.6Z" transform="translate(-171.644 -237.969)" fill="#202a54"/>
        <path id="Trazado_771957" data-name="Trazado 771957" d="M246.256,299.637l-7.82-4.513a.97.97,0,0,1-.585-.824v1.027a.994.994,0,0,0,.585.824l7.82,4.513a3.112,3.112,0,0,0,2.83,0l7.761-4.513a1,1,0,0,0,.585-.812v-1.027a.978.978,0,0,1-.585.812l-7.761,4.513A3.111,3.111,0,0,1,246.256,299.637Z" transform="translate(-158.298 -236.644)" fill="#202a54"/>
        <path id="Trazado_771958" data-name="Trazado 771958" d="M257.316,298.534l2.1,1.218a3.111,3.111,0,0,0,2.83,0l7.761-4.513a1.018,1.018,0,0,0,.585-.812V293.4a.978.978,0,0,1-.585.812l-7.761,4.513a3.111,3.111,0,0,1-2.83,0l-2.1-1.218a.97.97,0,0,1-.585-.824v1.027A.948.948,0,0,0,257.316,298.534Z" transform="translate(-194 -236.819)" fill="#202a54"/>
        <path id="Trazado_771959" data-name="Trazado 771959" d="M256.446,305.557l-7.82-4.513a.97.97,0,0,1-.585-.824v1.027a.993.993,0,0,0,.585.824l7.82,4.513a3.111,3.111,0,0,0,2.83,0l7.761-4.513a1,1,0,0,0,.585-.812v-1.027a.978.978,0,0,1-.585.812l-7.761,4.513A3.111,3.111,0,0,1,256.446,305.557Z" transform="translate(-180.654 -235.496)" fill="#202a54"/>
        <path id="Trazado_771960" data-name="Trazado 771960" d="M267.516,304.454l2.1,1.218a3.112,3.112,0,0,0,2.83,0l7.761-4.513a1,1,0,0,0,.585-.812V299.32a.978.978,0,0,1-.585.812l-7.761,4.513a3.111,3.111,0,0,1-2.83,0l-2.1-1.218a.97.97,0,0,1-.585-.824v1.027A.993.993,0,0,0,267.516,304.454Z" transform="translate(-216.379 -235.67)" fill="#202a54"/>
        <path id="Trazado_771961" data-name="Trazado 771961" d="M266.646,311.487l-7.82-4.513a.97.97,0,0,1-.585-.824v1.027a.993.993,0,0,0,.585.824l7.82,4.513a3.111,3.111,0,0,0,2.83,0L277.236,308a1,1,0,0,0,.585-.812v-1.027a.978.978,0,0,1-.585.812l-7.761,4.513A3.111,3.111,0,0,1,266.646,311.487Z" transform="translate(-203.032 -234.346)" fill="#202a54"/>
        <path id="Trazado_771962" data-name="Trazado 771962" d="M277.706,310.374l2.1,1.218a3.111,3.111,0,0,0,2.83,0l7.761-4.513a1,1,0,0,0,.585-.812V305.24a.978.978,0,0,1-.585.812l-7.761,4.513a3.111,3.111,0,0,1-2.83,0l-2.1-1.218a.97.97,0,0,1-.585-.824v1.027A.97.97,0,0,0,277.706,310.374Z" transform="translate(-238.735 -234.522)" fill="#202a54"/>
        <path id="Trazado_771963" data-name="Trazado 771963" d="M276.836,317.407l-7.82-4.513a.97.97,0,0,1-.585-.824V313.1a.993.993,0,0,0,.585.824l7.82,4.513a3.111,3.111,0,0,0,2.83,0l7.761-4.513a1,1,0,0,0,.585-.812v-1.027a.978.978,0,0,1-.585.812l-7.761,4.513A3.111,3.111,0,0,1,276.836,317.407Z" transform="translate(-225.389 -233.197)" fill="#202a54"/>
        <path id="Trazado_771964" data-name="Trazado 771964" d="M287.9,316.3l2.1,1.218a3.111,3.111,0,0,0,2.83,0l7.761-4.513a1.018,1.018,0,0,0,.585-.812V311.17a.978.978,0,0,1-.585.812l-7.761,4.513a3.111,3.111,0,0,1-2.83,0l-2.1-1.218a.993.993,0,0,1-.585-.824v1.027A.984.984,0,0,0,287.9,316.3Z" transform="translate(-261.091 -233.372)" fill="#202a54"/>
        <path id="Trazado_771965" data-name="Trazado 771965" d="M287.026,323.327l-7.82-4.513a.97.97,0,0,1-.585-.824v1.027a.993.993,0,0,0,.585.824l7.82,4.513a3.111,3.111,0,0,0,2.83,0l7.761-4.513a1,1,0,0,0,.585-.812V318a.978.978,0,0,1-.585.812l-7.761,4.513A3.111,3.111,0,0,1,287.026,323.327Z" transform="translate(-247.745 -232.049)" fill="#202a54"/>
        <path id="Trazado_771966" data-name="Trazado 771966" d="M298.086,322.224l2.1,1.218a3.111,3.111,0,0,0,2.83,0l7.761-4.513a1.018,1.018,0,0,0,.585-.812V317.09a.978.978,0,0,1-.585.812l-7.761,4.513a3.111,3.111,0,0,1-2.83,0l-2.1-1.218a.97.97,0,0,1-.585-.824V321.4A.97.97,0,0,0,298.086,322.224Z" transform="translate(-283.448 -232.224)" fill="#202a54"/>
        <path id="Trazado_771967" data-name="Trazado 771967" d="M297.216,329.257l-7.82-4.513a.97.97,0,0,1-.585-.824v1.027a.994.994,0,0,0,.585.824l7.82,4.513a3.111,3.111,0,0,0,2.83,0l7.761-4.513a1,1,0,0,0,.585-.812v-1.027a.978.978,0,0,1-.585.812l-7.761,4.513A3.112,3.112,0,0,1,297.216,329.257Z" transform="translate(-270.101 -230.899)" fill="#202a54"/>
        <path id="Trazado_771968" data-name="Trazado 771968" d="M323.438,324.037V323.01a.978.978,0,0,1-.585.812l-9.647,5.6a3.111,3.111,0,0,1-2.83,0l-2.1-1.218a.993.993,0,0,1-.585-.824v1.027a.993.993,0,0,0,.585.824l2.1,1.218a3.111,3.111,0,0,0,2.83,0l9.647-5.612A.971.971,0,0,0,323.438,324.037Z" transform="translate(-307.69 -231.076)" fill="#202a54"/>
        <path id="Trazado_771969" data-name="Trazado 771969" d="M318.591,330.879v-1.027a.978.978,0,0,1-.585.812l-7.761,4.513a3.112,3.112,0,0,1-2.83,0l-7.82-4.513a.97.97,0,0,1-.585-.824v1.027a.993.993,0,0,0,.585.824l7.82,4.513a3.111,3.111,0,0,0,2.83,0l7.761-4.513A.978.978,0,0,0,318.591,330.879Z" transform="translate(-292.48 -229.751)" fill="#202a54"/>
        <path id="Trazado_771970" data-name="Trazado 771970" d="M163.006,267.392l-7.82-4.513a.97.97,0,0,1-.585-.824v1.027a.993.993,0,0,0,.585.824l7.82,4.513a3.111,3.111,0,0,0,2.83,0l14.936-8.68a1,1,0,0,0,.585-.812V257.9a.978.978,0,0,1-.585.812l-14.936,8.68A3.111,3.111,0,0,1,163.006,267.392Z" transform="translate(17.173 -243.704)" fill="#202a54"/>
        <path id="Trazado_771971" data-name="Trazado 771971" d="M190.451,268.3v-1.027a.978.978,0,0,1-.585.812l-7.761,4.513a3.111,3.111,0,0,1-2.83,0l-7.82-4.513a.97.97,0,0,1-.585-.824v1.027a.993.993,0,0,0,.585.824l7.82,4.513a3.111,3.111,0,0,0,2.83,0l7.761-4.513A1,1,0,0,0,190.451,268.3Z" transform="translate(-11.347 -241.888)" fill="#202a54"/>
        <path id="Trazado_771972" data-name="Trazado 771972" d="M189.476,279.544a3.111,3.111,0,0,0,2.83,0l7.761-4.513a1,1,0,0,0,.585-.812v-1.027a.978.978,0,0,1-.585.812l-7.761,4.513a3.111,3.111,0,0,1-2.83,0L181.656,274a.97.97,0,0,1-.585-.824v1.027a.993.993,0,0,0,.585.824Z" transform="translate(-33.725 -240.74)" fill="#202a54"/>
        <path id="Trazado_771973" data-name="Trazado 771973" d="M199.666,284.447l-7.82-4.513a.97.97,0,0,1-.585-.824v1.027a.993.993,0,0,0,.585.824l7.82,4.513a3.111,3.111,0,0,0,2.83,0l7.761-4.513a1,1,0,0,0,.585-.812v-1.027a.978.978,0,0,1-.585.812l-7.761,4.513A3.111,3.111,0,0,1,199.666,284.447Z" transform="translate(-56.081 -239.59)" fill="#202a54"/>
        <path id="Trazado_771974" data-name="Trazado 771974" d="M209.867,290.367l-7.82-4.513a1.01,1.01,0,0,1-.6-.824v1.027a.986.986,0,0,0,.6.824l7.82,4.513a3.111,3.111,0,0,0,2.83,0l7.761-4.513a1.018,1.018,0,0,0,.585-.812v-1.027a.978.978,0,0,1-.585.812l-7.761,4.513A3.111,3.111,0,0,1,209.867,290.367Z" transform="translate(-78.449 -238.442)" fill="#202a54"/>
        <path id="Trazado_771975" data-name="Trazado 771975" d="M220.067,296.287l-7.82-4.513a1.01,1.01,0,0,1-.6-.824v1.027a.993.993,0,0,0,.585.824l7.82,4.513a3.111,3.111,0,0,0,2.83,0l7.761-4.513a1,1,0,0,0,.585-.812v-1.027a.978.978,0,0,1-.585.812l-7.761,4.513A3.087,3.087,0,0,1,220.067,296.287Z" transform="translate(-100.816 -237.294)" fill="#202a54"/>
        <path id="Trazado_771976" data-name="Trazado 771976" d="M230.236,302.217l-7.82-4.513a.97.97,0,0,1-.585-.824v1.027a.993.993,0,0,0,.585.824l7.82,4.513a3.111,3.111,0,0,0,2.83,0l7.761-4.513a1.018,1.018,0,0,0,.585-.812v-1.027a.978.978,0,0,1-.585.812l-7.761,4.513A3.111,3.111,0,0,1,230.236,302.217Z" transform="translate(-123.15 -236.144)" fill="#202a54"/>
        <path id="Trazado_771977" data-name="Trazado 771977" d="M240.437,308.137l-7.82-4.513a1.01,1.01,0,0,1-.6-.824v1.027a.986.986,0,0,0,.6.824l7.82,4.513a3.111,3.111,0,0,0,2.83,0l7.761-4.513a1.018,1.018,0,0,0,.585-.812v-1.027a.978.978,0,0,1-.585.812l-7.761,4.513A3.111,3.111,0,0,1,240.437,308.137Z" transform="translate(-145.518 -234.995)" fill="#202a54"/>
        <path id="Trazado_771978" data-name="Trazado 771978" d="M250.637,314.057l-7.82-4.513a1.01,1.01,0,0,1-.6-.824v1.027a.986.986,0,0,0,.6.824l7.82,4.513a3.111,3.111,0,0,0,2.83,0l7.761-4.513a1,1,0,0,0,.585-.812v-1.027a.978.978,0,0,1-.585.812l-7.761,4.513A3.111,3.111,0,0,1,250.637,314.057Z" transform="translate(-167.897 -233.847)" fill="#202a54"/>
        <path id="Trazado_771979" data-name="Trazado 771979" d="M260.816,319.987,253,315.474a.97.97,0,0,1-.585-.824v1.027a.993.993,0,0,0,.585.824l7.82,4.513a3.111,3.111,0,0,0,2.83,0l7.761-4.513a1,1,0,0,0,.585-.812v-1.027a.978.978,0,0,1-.585.812l-7.761,4.513A3.111,3.111,0,0,1,260.816,319.987Z" transform="translate(-190.241 -232.697)" fill="#202a54"/>
        <path id="Trazado_771980" data-name="Trazado 771980" d="M271.006,325.907l-7.82-4.513a.97.97,0,0,1-.585-.824V321.6a.993.993,0,0,0,.585.824l7.82,4.513a3.111,3.111,0,0,0,2.83,0l7.761-4.513a1,1,0,0,0,.585-.812v-1.027a.978.978,0,0,1-.585.812l-7.761,4.513A3.111,3.111,0,0,1,271.006,325.907Z" transform="translate(-212.598 -231.549)" fill="#202a54"/>
        <path id="Trazado_771981" data-name="Trazado 771981" d="M152.676,276.886l-7.82-4.513a.97.97,0,0,1-.585-.824v1.027a.993.993,0,0,0,.585.824l7.82,4.513a3.111,3.111,0,0,0,2.83,0L176.531,265.7a1,1,0,0,0,.585-.812V263.86a.978.978,0,0,1-.585.812l-21.025,12.214A3.111,3.111,0,0,1,152.676,276.886Z" transform="translate(33.748 -242.548)" fill="#202a54"/>
        <path id="Trazado_771982" data-name="Trazado 771982" d="M176.806,282.584l7.761-4.513a1.018,1.018,0,0,0,.585-.812v-1.027a.978.978,0,0,1-.585.812l-7.761,4.513a3.112,3.112,0,0,1-2.83,0l-7.82-4.513a.97.97,0,0,1-.585-.824v1.027a.993.993,0,0,0,.585.824l7.82,4.513A3.111,3.111,0,0,0,176.806,282.584Z" transform="translate(0.281 -240.151)" fill="#202a54"/>
        <path id="Trazado_771983" data-name="Trazado 771983" d="M187.007,288.514,194.768,284a1.018,1.018,0,0,0,.585-.812v-1.027a.978.978,0,0,1-.585.812l-7.761,4.513a3.111,3.111,0,0,1-2.83,0l-7.82-4.513a1.01,1.01,0,0,1-.6-.824v1.027a.986.986,0,0,0,.6.824l7.82,4.513A3.112,3.112,0,0,0,187.007,288.514Z" transform="translate(-22.087 -239.001)" fill="#202a54"/>
        <path id="Trazado_771984" data-name="Trazado 771984" d="M197.2,294.434l7.761-4.513a1,1,0,0,0,.585-.812v-1.027a.978.978,0,0,1-.585.812l-7.761,4.513a3.111,3.111,0,0,1-2.83,0l-7.82-4.513a.97.97,0,0,1-.585-.824V289.1a.993.993,0,0,0,.585.824l7.82,4.513A3.111,3.111,0,0,0,197.2,294.434Z" transform="translate(-44.453 -237.852)" fill="#202a54"/>
        <path id="Trazado_771985" data-name="Trazado 771985" d="M207.386,300.354l7.761-4.513a1,1,0,0,0,.585-.812V294a.978.978,0,0,1-.585.812l-7.761,4.513a3.111,3.111,0,0,1-2.83,0l-7.82-4.513a.97.97,0,0,1-.585-.824v1.027a.993.993,0,0,0,.585.824l7.82,4.513A3.111,3.111,0,0,0,207.386,300.354Z" transform="translate(-66.81 -236.704)" fill="#202a54"/>
        <path id="Trazado_771986" data-name="Trazado 771986" d="M133.88,270.481v1.027a.986.986,0,0,0,.6.824l7.808,4.513a3.111,3.111,0,0,0,2.83,0l8.847-5.146a1,1,0,0,0,.585-.812V269.86a.978.978,0,0,1-.585.812l-8.847,5.146a3.111,3.111,0,0,1-2.83,0l-7.808-4.513A.986.986,0,0,1,133.88,270.481Z" transform="translate(68.722 -241.384)" fill="#202a54"/>
        <path id="Trazado_771987" data-name="Trazado 771987" d="M156.215,282.664l7.761-4.513a1.018,1.018,0,0,0,.585-.812v-1.027a.978.978,0,0,1-.585.812l-7.761,4.513a3.111,3.111,0,0,1-2.83,0l-7.808-4.513a1.01,1.01,0,0,1-.6-.824v1.027a.986.986,0,0,0,.6.824l7.808,4.513A3.111,3.111,0,0,0,156.215,282.664Z" transform="translate(45.455 -240.135)" fill="#202a54"/>
        <path id="Trazado_771988" data-name="Trazado 771988" d="M166.415,288.594l7.761-4.513a1.018,1.018,0,0,0,.585-.812v-1.027a.978.978,0,0,1-.585.812l-7.761,4.513a3.111,3.111,0,0,1-2.83,0l-7.808-4.513a1.01,1.01,0,0,1-.6-.824v1.027a.986.986,0,0,0,.6.824l7.808,4.513A3.187,3.187,0,0,0,166.415,288.594Z" transform="translate(23.077 -238.985)" fill="#202a54"/>
        <path id="Trazado_771989" data-name="Trazado 771989" d="M176.605,294.514,184.366,290a.993.993,0,0,0,.585-.812v-1.027a.978.978,0,0,1-.585.812l-7.761,4.513a3.111,3.111,0,0,1-2.83,0l-7.808-4.513a1.01,1.01,0,0,1-.6-.824v1.027a.986.986,0,0,0,.6.824l7.808,4.513A3.112,3.112,0,0,0,176.605,294.514Z" transform="translate(0.721 -237.837)" fill="#202a54"/>
        <path id="Trazado_771990" data-name="Trazado 771990" d="M186.8,300.434l7.761-4.513a1,1,0,0,0,.585-.812v-1.027a.978.978,0,0,1-.585.812l-7.761,4.513a3.111,3.111,0,0,1-2.83,0l-7.808-4.513a1.01,1.01,0,0,1-.6-.824V295.1a.986.986,0,0,0,.6.824l7.808,4.513A3.111,3.111,0,0,0,186.8,300.434Z" transform="translate(-21.636 -236.689)" fill="#202a54"/>
        <path id="Trazado_771991" data-name="Trazado 771991" d="M196.985,306.354l7.761-4.513a1,1,0,0,0,.585-.812V300a.978.978,0,0,1-.585.812l-7.761,4.513a3.111,3.111,0,0,1-2.83,0l-7.808-4.513a1.01,1.01,0,0,1-.6-.824v1.027a.986.986,0,0,0,.6.824l7.808,4.513A3.076,3.076,0,0,0,196.985,306.354Z" transform="translate(-43.992 -235.54)" fill="#202a54"/>
        <path id="Trazado_771992" data-name="Trazado 771992" d="M217.576,306.284l7.761-4.513a1,1,0,0,0,.585-.812v-1.027a.978.978,0,0,1-.585.812l-7.761,4.513a3.111,3.111,0,0,1-2.83,0l-7.82-4.513a.97.97,0,0,1-.585-.824v1.027a.993.993,0,0,0,.585.824l7.82,4.513A3.111,3.111,0,0,0,217.576,306.284Z" transform="translate(-89.166 -235.554)" fill="#202a54"/>
        <path id="Trazado_771993" data-name="Trazado 771993" d="M227.776,312.2l7.761-4.513a1,1,0,0,0,.585-.812v-1.027a.978.978,0,0,1-.585.812l-7.761,4.513a3.111,3.111,0,0,1-2.83,0l-7.82-4.513a.97.97,0,0,1-.585-.824v1.027a.993.993,0,0,0,.585.824l7.82,4.513A3.112,3.112,0,0,0,227.776,312.2Z" transform="translate(-111.544 -234.406)" fill="#202a54"/>
        <path id="Trazado_771994" data-name="Trazado 771994" d="M207.185,312.284l7.761-4.513a1,1,0,0,0,.585-.812v-1.027a.978.978,0,0,1-.585.812l-7.761,4.513a3.111,3.111,0,0,1-2.83,0l-7.808-4.513a1.01,1.01,0,0,1-.6-.824v1.027a.986.986,0,0,0,.6.824l7.808,4.513A3.111,3.111,0,0,0,207.185,312.284Z" transform="translate(-66.37 -234.39)" fill="#202a54"/>
        <path id="Trazado_771995" data-name="Trazado 771995" d="M217.375,318.2l7.761-4.513a1,1,0,0,0,.585-.812v-1.027a.978.978,0,0,1-.585.812l-7.761,4.513a3.111,3.111,0,0,1-2.83,0l-7.808-4.513a1.01,1.01,0,0,1-.6-.824v1.027a.986.986,0,0,0,.6.824l7.808,4.513A3.112,3.112,0,0,0,217.375,318.2Z" transform="translate(-88.727 -233.242)" fill="#202a54"/>
        <path id="Trazado_771996" data-name="Trazado 771996" d="M237.966,318.124l7.761-4.513a1,1,0,0,0,.585-.812v-1.027a.978.978,0,0,1-.585.812l-7.761,4.513a3.111,3.111,0,0,1-2.83,0l-7.82-4.513a.97.97,0,0,1-.585-.824v1.027a.993.993,0,0,0,.585.824l7.82,4.513A3.112,3.112,0,0,0,237.966,318.124Z" transform="translate(-133.901 -233.258)" fill="#202a54"/>
        <path id="Trazado_771997" data-name="Trazado 771997" d="M248.156,324.054l7.761-4.513a1,1,0,0,0,.585-.812V317.7a.978.978,0,0,1-.585.812l-7.761,4.513a3.111,3.111,0,0,1-2.83,0l-7.82-4.513a.97.97,0,0,1-.585-.824v1.027a.993.993,0,0,0,.585.824l7.82,4.513A3.111,3.111,0,0,0,248.156,324.054Z" transform="translate(-156.257 -232.107)" fill="#202a54"/>
        <path id="Trazado_771998" data-name="Trazado 771998" d="M227.565,324.134l7.761-4.513a1,1,0,0,0,.585-.812v-1.027a.978.978,0,0,1-.585.812l-7.761,4.513a3.111,3.111,0,0,1-2.83,0l-7.808-4.513a1.01,1.01,0,0,1-.6-.824V318.8a.986.986,0,0,0,.6.824l7.808,4.513A3.148,3.148,0,0,0,227.565,324.134Z" transform="translate(-111.083 -232.092)" fill="#202a54"/>
        <path id="Trazado_771999" data-name="Trazado 771999" d="M237.765,330.054l7.761-4.513a1,1,0,0,0,.585-.812V323.7a.978.978,0,0,1-.585.812l-7.761,4.513a3.111,3.111,0,0,1-2.83,0l-7.808-4.513a1.01,1.01,0,0,1-.6-.824v1.027a.986.986,0,0,0,.6.824l7.808,4.513A3.111,3.111,0,0,0,237.765,330.054Z" transform="translate(-133.461 -230.944)" fill="#202a54"/>
        <path id="Trazado_772000" data-name="Trazado 772000" d="M142.616,276.594l-7.761,4.513a3.112,3.112,0,0,1-2.83,0l-7.808-4.513a1.01,1.01,0,0,1-.6-.824V276.8a.986.986,0,0,0,.6.824l7.808,4.513a3.111,3.111,0,0,0,2.83,0l7.761-4.513a1,1,0,0,0,.585-.812v-1.027A.963.963,0,0,1,142.616,276.594Z" transform="translate(92.318 -240.238)" fill="#202a54"/>
        <path id="Trazado_772001" data-name="Trazado 772001" d="M139.447,284.224l2.1,1.218a3.111,3.111,0,0,0,2.83,0l7.761-4.513a1,1,0,0,0,.585-.812V279.09a.978.978,0,0,1-.585.812l-7.761,4.513a3.111,3.111,0,0,1-2.83,0l-2.1-1.218a1.01,1.01,0,0,1-.6-.824V283.4A1.035,1.035,0,0,0,139.447,284.224Z" transform="translate(64.611 -239.594)" fill="#202a54"/>
        <path id="Trazado_772002" data-name="Trazado 772002" d="M147.337,282.662l-7.761,4.513a3.111,3.111,0,0,1-2.83,0l-2.1-1.218a.97.97,0,0,1-.585-.824v1.027a.993.993,0,0,0,.585.824l2.1,1.218a3.111,3.111,0,0,0,2.83,0l7.761-4.513a1,1,0,0,0,.585-.812V281.85A.978.978,0,0,1,147.337,282.662Z" transform="translate(75.132 -239.059)" fill="#202a54"/>
        <path id="Trazado_772003" data-name="Trazado 772003" d="M163.246,288.594l-7.761,4.513a3.111,3.111,0,0,1-2.83,0l-7.808-4.513a1.01,1.01,0,0,1-.6-.824V288.8a.986.986,0,0,0,.6.824l7.808,4.513a3.111,3.111,0,0,0,2.83,0l7.761-4.513a1,1,0,0,0,.585-.812v-1.027A1.018,1.018,0,0,1,163.246,288.594Z" transform="translate(47.057 -237.91)" fill="#202a54"/>
        <path id="Trazado_772004" data-name="Trazado 772004" d="M173.436,294.514l-7.761,4.513a3.111,3.111,0,0,1-2.83,0l-7.808-4.513a1.01,1.01,0,0,1-.6-.824v1.027a.986.986,0,0,0,.6.824l7.808,4.513a3.111,3.111,0,0,0,2.83,0l7.761-4.513a1,1,0,0,0,.585-.812V293.7A1.045,1.045,0,0,1,173.436,294.514Z" transform="translate(24.7 -236.762)" fill="#202a54"/>
        <path id="Trazado_772005" data-name="Trazado 772005" d="M246.057,300.432l-70.192,40.8a3.112,3.112,0,0,1-2.83,0l-7.808-4.513a1.01,1.01,0,0,1-.6-.824v1.027a.986.986,0,0,0,.6.824l7.808,4.513a3.111,3.111,0,0,0,2.83,0l70.192-40.8a1,1,0,0,0,.585-.812V299.62A1.028,1.028,0,0,1,246.057,300.432Z" transform="translate(-60.088 -235.612)" fill="#202a54"/>
        <path id="Trazado_772006" data-name="Trazado 772006" d="M247.7,325.461l7.82,4.513a3.111,3.111,0,0,0,2.83,0l7.761-4.513a1,1,0,0,0,.585-.812v-1.027a.978.978,0,0,1-.585.812l-7.761,4.513a3.111,3.111,0,0,1-2.83,0l-7.82-4.513a.97.97,0,0,1-.585-.824v1.027A.993.993,0,0,0,247.7,325.461Z" transform="translate(-178.614 -230.959)" fill="#202a54"/>
        <path id="Trazado_772007" data-name="Trazado 772007" d="M247.955,335.974l7.761-4.513a1,1,0,0,0,.585-.812v-1.027a.978.978,0,0,1-.585.812l-7.761,4.513a3.111,3.111,0,0,1-2.83,0l-7.808-4.513a1.01,1.01,0,0,1-.6-.824v1.027a.986.986,0,0,0,.6.824l7.808,4.513A3.111,3.111,0,0,0,247.955,335.974Z" transform="translate(-155.818 -229.795)" fill="#202a54"/>
        <path id="Trazado_772008" data-name="Trazado 772008" d="M246.116,336.744l-7.761,4.513a3.111,3.111,0,0,1-2.83,0l-7.808-4.513a1.01,1.01,0,0,1-.6-.824v1.027a.986.986,0,0,0,.6.824l7.808,4.513a3.112,3.112,0,0,0,2.83,0l7.761-4.513a1,1,0,0,0,.585-.812v-1.027A.978.978,0,0,1,246.116,336.744Z" transform="translate(-134.756 -228.572)" fill="#202a54"/>
        <path id="Trazado_772009" data-name="Trazado 772009" d="M273.387,328.341l7.82,4.513a3.111,3.111,0,0,0,2.83,0l7.761-4.513a1,1,0,0,0,.585-.812V326.5a.978.978,0,0,1-.585.812l-7.761,4.513a3.111,3.111,0,0,1-2.83,0l-7.82-4.513a1.01,1.01,0,0,1-.6-.824v1.027A1.01,1.01,0,0,0,273.387,328.341Z" transform="translate(-234.966 -230.401)" fill="#202a54"/>
        <path id="Trazado_772010" data-name="Trazado 772010" d="M257.886,331.381l7.82,4.513a3.111,3.111,0,0,0,2.83,0l7.761-4.513a1,1,0,0,0,.585-.812v-1.027a.978.978,0,0,1-.585.812l-7.761,4.513a3.111,3.111,0,0,1-2.83,0l-7.82-4.513a.97.97,0,0,1-.585-.824v1.027A.97.97,0,0,0,257.886,331.381Z" transform="translate(-200.97 -229.811)" fill="#202a54"/>
        <path id="Trazado_772011" data-name="Trazado 772011" d="M247.517,337.391l7.808,4.513a3.111,3.111,0,0,0,2.83,0l7.761-4.513a1,1,0,0,0,.585-.812v-1.027a.978.978,0,0,1-.585.812l-7.761,4.513a3.112,3.112,0,0,1-2.83,0l-7.808-4.513a1.01,1.01,0,0,1-.6-.824v1.027A1.052,1.052,0,0,0,247.517,337.391Z" transform="translate(-178.196 -228.645)" fill="#202a54"/>
        <path id="Trazado_772012" data-name="Trazado 772012" d="M256.306,342.674l-7.761,4.513a3.111,3.111,0,0,1-2.83,0l-7.808-4.513a1.01,1.01,0,0,1-.6-.824v1.027a.986.986,0,0,0,.6.824l7.808,4.513a3.111,3.111,0,0,0,2.83,0l7.761-4.513a1,1,0,0,0,.585-.812v-1.027A.993.993,0,0,1,256.306,342.674Z" transform="translate(-157.112 -227.421)" fill="#202a54"/>
        <path id="Trazado_772013" data-name="Trazado 772013" d="M309.378,333.487V332.46a.978.978,0,0,1-.585.812l-14.638,8.513a3.111,3.111,0,0,1-2.83,0l-7.82-4.513a.97.97,0,0,1-.585-.824v1.027a.993.993,0,0,0,.585.824l7.82,4.513a3.111,3.111,0,0,0,2.83,0l14.638-8.513A.963.963,0,0,0,309.378,333.487Z" transform="translate(-264.056 -229.243)" fill="#202a54"/>
        <path id="Trazado_772014" data-name="Trazado 772014" d="M300.048,336.487V335.46a.978.978,0,0,1-.585.812l-20.727,12.047a3.111,3.111,0,0,1-2.83,0l-7.82-4.513a.97.97,0,0,1-.585-.824v1.027a.993.993,0,0,0,.585.824l7.82,4.513a3.111,3.111,0,0,0,2.83,0L299.463,337.3A.963.963,0,0,0,300.048,336.487Z" transform="translate(-236.314 -228.661)" fill="#202a54"/>
        <path id="Trazado_772015" data-name="Trazado 772015" d="M289.647,342.5V341.47a.978.978,0,0,1-.585.812l-20.727,12.047a3.111,3.111,0,0,1-2.83,0l-7.808-4.513a1.01,1.01,0,0,1-.6-.824v1.027a.986.986,0,0,0,.6.824l7.808,4.513a3.111,3.111,0,0,0,2.83,0l20.727-12.047A1.018,1.018,0,0,0,289.647,342.5Z" transform="translate(-213.497 -227.495)" fill="#202a54"/>
        <path id="Trazado_772016" data-name="Trazado 772016" d="M266.5,348.594l-7.761,4.513a3.111,3.111,0,0,1-2.83,0l-7.808-4.513a1.01,1.01,0,0,1-.6-.824V348.8a.986.986,0,0,0,.6.824l7.808,4.513a3.111,3.111,0,0,0,2.83,0l7.761-4.513a1,1,0,0,0,.585-.812v-1.027A1.018,1.018,0,0,1,266.5,348.594Z" transform="translate(-179.469 -226.273)" fill="#202a54"/>
        <path id="Trazado_772017" data-name="Trazado 772017" d="M276.686,354.514l-7.761,4.513a3.111,3.111,0,0,1-2.83,0l-7.808-4.513a1.01,1.01,0,0,1-.6-.824v1.027a.986.986,0,0,0,.6.824l7.808,4.513a3.112,3.112,0,0,0,2.83,0l7.761-4.513a1,1,0,0,0,.585-.812V353.7A1.028,1.028,0,0,1,276.686,354.514Z" transform="translate(-201.825 -225.125)" fill="#202a54"/>
      </g>
    </g>
  </g>
  <g id="Grupo_1054552" data-name="Grupo 1054552" transform="translate(48.41 206.619)">
    <path id="Trazado_772018" data-name="Trazado 772018" d="M222.257,237.15,203.4,248.1l-3.582-2.066-5-6.65,20.3-11.713Z" transform="translate(-41.672 -227.67)" fill="#cbcdd4"/>
    <path id="Trazado_772019" data-name="Trazado 772019" d="M350.577,311.606l-18.16,10.555-5.337-3.092-4.25-5.624,20.3-11.725Z" transform="translate(-322.83 -213.308)" fill="#bfccda"/>
  </g>
  <path id="Trazado_772020" data-name="Trazado 772020" d="M213.694,237.48l-.084,3.713,5.086,2.937Z" transform="translate(-12.135 -19.148)" fill="#202a54"/>
  <path id="Trazado_772021" data-name="Trazado 772021" d="M342.51,311.53l.012,4.239.907-.525,3.331,1.922Z" transform="translate(-294.1 -4.786)" fill="#5e607b"/>
  <path id="Trazado_772022" data-name="Trazado 772022" d="M196.822,317.29,328.8,240.59l8.656,5,1.672-.979,11.617,6.746c4.262,2.483,4.25,6.507-.06,9.014l-122.989,71c-4.322,2.5-11.283,2.5-15.557,0L201,324.907l4.465-2.615Z" transform="translate(-127.327 -18.545)" fill="#b1bbc2"/>
  <g id="Grupo_1054555" data-name="Grupo 1054555" transform="translate(89.972 218.284)">
    <g id="Grupo_1054554" data-name="Grupo 1054554" transform="translate(0)">
      <g id="Grupo_1054553" data-name="Grupo 1054553">
        <path id="Trazado_772023" data-name="Trazado 772023" d="M204.334,312.3l128.278-74.55a3.139,3.139,0,0,1-3.164-.31L201.17,311.991A3.111,3.111,0,0,0,204.334,312.3Z" transform="translate(-201.17 -237.44)" fill="#cbcdd4"/>
      </g>
    </g>
  </g>
  <g id="Grupo_1054556" data-name="Grupo 1054556" transform="translate(28.937 133.466)">
    <path id="Trazado_772024" data-name="Trazado 772024" d="M203.82,190.888l.275,99.815,37.43,21.622,23.33,13.456,4.453-2.591,3.928-2.28,119.9-69.679-22.912-13.217L273.63,182.232l-3.916-2.257-23.5-13.575Z" transform="translate(-203.82 -166.4)" fill="url(#linear-gradient)"/>
  </g>
  <g id="Grupo_1054557" data-name="Grupo 1054557" transform="translate(95.906 217.998)">
    <path id="Trazado_772025" data-name="Trazado 772025" d="M196.81,317.111l128.278-74.55c1.5-.872,2.436-2.722,2.436-5.361L199.246,311.75C199.246,314.389,198.3,316.24,196.81,317.111Z" transform="translate(-196.81 -237.2)" fill="url(#linear-gradient-2)"/>
  </g>
  <g id="Grupo_1054558" data-name="Grupo 1054558" transform="translate(79.787 8.184)">
    <path id="Trazado_772026" data-name="Trazado 772026" d="M212.27,167.219l128.278-74.55.1-31.2L212.366,136.021Z" transform="translate(-212.27 -61.47)" fill="#c1cef0"/>
  </g>
  <g id="Grupo_1054559" data-name="Grupo 1054559" transform="translate(79.883 5.33)">
    <path id="Trazado_772027" data-name="Trazado 772027" d="M340.76,59.08,212.481,133.631a3.113,3.113,0,0,0-1.3,2.854l128.278-74.55A3.113,3.113,0,0,1,340.76,59.08Z" transform="translate(-211.18 -59.08)" fill="#c1cef0"/>
  </g>
  <g id="Grupo_1054560" data-name="Grupo 1054560" transform="translate(78.402 0)">
    <path id="Trazado_772028" data-name="Trazado 772028" d="M336.808,55.182,208.53,129.733c1.516-.884,3.63-.764,5.946.573L342.754,55.755C340.426,54.418,338.324,54.3,336.808,55.182Z" transform="translate(-208.53 -54.615)" fill="#c7d5f7"/>
  </g>
  <g id="Grupo_1054561" data-name="Grupo 1054561" transform="translate(94.455 16.78)">
    <path id="Trazado_772029" data-name="Trazado 772029" d="M196.34,344.062l128.278-74.55.561-198.841L196.9,145.221Z" transform="translate(-196.34 -70.67)" fill="#ebefff"/>
  </g>
  <g id="Grupo_1054562" data-name="Grupo 1054562" transform="translate(84.348 1.14)">
    <path id="Trazado_772030" data-name="Trazado 772030" d="M209.542,133.726,337.821,59.176l-6.232-3.606L203.31,130.121Z" transform="translate(-203.31 -55.57)" fill="#c7d5f7"/>
  </g>
  <g id="Grupo_1054563" data-name="Grupo 1054563" transform="translate(29.212 74.54)">
    <path id="Trazado_772031" data-name="Trazado 772031" d="M303.77,300.275l.024,4.5,33.538,19.354,27.186,15.7c4.609,2.663,8.37.513,8.382-4.776l.024-4.573L373,303.546l.31-111.742.1-31.7.072-23.879c.012-5.3-3.713-11.772-8.334-14.435l-6.232-3.606c-4.621-2.651-8.382-.513-8.405,4.776l-.072,31.2,3.916,2.257.1-31.2c0-2.818,2.006-3.952,4.453-2.531l6.232,3.582a9.76,9.76,0,0,1,4.43,7.689l-.072,28.4-.1,27.174L369.055,305.8l-.072,26.948v.036c0,2.83-2.006,3.964-4.453,2.555L341.2,321.885Z" transform="translate(-303.77 -117.047)" fill="#e1e3eb"/>
  </g>
  <g id="Grupo_1054564" data-name="Grupo 1054564" transform="translate(90.569 4.745)">
    <path id="Trazado_772032" data-name="Trazado 772032" d="M204.674,147.563,332.952,73.013c.012-5.3-3.713-11.76-8.334-14.423L196.34,133.141C200.961,135.8,204.7,142.262,204.674,147.563Z" transform="translate(-196.34 -58.59)" fill="url(#linear-gradient-3)"/>
  </g>
  <g id="Grupo_1054588" data-name="Grupo 1054588" transform="translate(124.179 61.929)">
    <g id="Grupo_1054587" data-name="Grupo 1054587" transform="translate(0)">
      <g id="Grupo_1054585" data-name="Grupo 1054585">
        <g id="Grupo_1054584" data-name="Grupo 1054584">
          <g id="Grupo_1054571" data-name="Grupo 1054571" transform="translate(0 22.109)">
            <g id="Grupo_1054565" data-name="Grupo 1054565" transform="translate(5.755 33.119)">
              <path id="Trazado_772033" data-name="Trazado 772033" d="M267.48,173.98l12.31-7.1V152.74l-12.31,7.1Zm10.686-8.047-9.062,5.23V160.775l9.062-5.23Z" transform="translate(-267.48 -152.74)" fill="#b5cff4"/>
            </g>
            <g id="Grupo_1054570" data-name="Grupo 1054570" transform="translate(0)">
              <g id="Grupo_1054568" data-name="Grupo 1054568">
                <path id="Trazado_772034" data-name="Trazado 772034" d="M262.65,147.183c0,7.546,5.337,10.59,11.916,6.794s11.916-12.99,11.916-20.548-5.337-10.59-11.916-6.794S262.65,139.638,262.65,147.183Z" transform="translate(-262.65 -125.001)" fill="#4fd50b"/>
                <g id="Grupo_1054567" data-name="Grupo 1054567" transform="translate(0.86 6.228)">
                  <g id="Grupo_1054566" data-name="Grupo 1054566" transform="translate(4.179 5.277)">
                    <path id="Trazado_772035" data-name="Trazado 772035" d="M274.55,138.915c0,1.457,1.027,2.042,2.292,1.313a5.06,5.06,0,0,0,2.292-3.964c0-1.457-1.027-2.042-2.292-1.313A5.079,5.079,0,0,0,274.55,138.915Z" transform="translate(-274.55 -134.638)" fill="#2a366e"/>
                  </g>
                  <path id="Trazado_772036" data-name="Trazado 772036" d="M271.859,147.965c0,3.224,6.806,2.388,10.005.549s1.552-4,1.552-7.223-2.591-4.346-5.779-2.507S271.859,144.741,271.859,147.965Z" transform="translate(-271.859 -128.728)" fill="#4fd50b"/>
                  <path id="Trazado_772037" data-name="Trazado 772037" d="M271.465,131.844a5.06,5.06,0,0,1-2.292,3.964c-1.266.728-2.292.143-2.292-1.313a5.06,5.06,0,0,1,2.292-3.964C270.438,129.8,271.465,130.388,271.465,131.844Z" transform="translate(-253.544 -130.218)" fill="#2a366e"/>
                  <path id="Trazado_772038" data-name="Trazado 772038" d="M275.668,136.2c0,3.224-7.331,9.146-10.531,11s-1.039-1.1-1.039-4.322,2.591-7.331,5.779-9.181C273.089,131.855,275.668,132.977,275.668,136.2Z" transform="translate(-253.58 -129.715)" fill="#4fd50b"/>
                </g>
              </g>
              <g id="Grupo_1054569" data-name="Grupo 1054569" transform="translate(4.382 14.099)">
                <path id="Trazado_772039" data-name="Trazado 772039" d="M266.33,145.5c2.71,6.758,12.357,1.182,15.056-8.692-.585.131-.884.2-1.469.334-2.268,7.988-9.85,12.369-12.119,7C267.214,144.678,266.915,144.953,266.33,145.5Z" transform="translate(-266.33 -136.81)" fill="#2a366e"/>
              </g>
            </g>
          </g>
          <g id="Grupo_1054576" data-name="Grupo 1054576" transform="translate(0 147.283)">
            <g id="Grupo_1054572" data-name="Grupo 1054572" transform="translate(5.755 33.119)">
              <path id="Trazado_772040" data-name="Trazado 772040" d="M267.48,278.82l12.31-7.1V257.58l-12.31,7.1Zm10.686-8.047L269.1,276V265.615l9.062-5.23Z" transform="translate(-267.48 -257.58)" fill="#b5cff4"/>
            </g>
            <g id="Grupo_1054575" data-name="Grupo 1054575" transform="translate(0)">
              <path id="Trazado_772041" data-name="Trazado 772041" d="M262.65,252.023c0,7.546,5.337,10.59,11.916,6.794s11.916-12.99,11.916-20.548-5.337-10.59-11.916-6.794S262.65,244.478,262.65,252.023Z" transform="translate(-262.65 -229.841)" fill="#f30"/>
              <g id="Grupo_1054573" data-name="Grupo 1054573" transform="translate(6.101 7.096)">
                <path id="Trazado_772042" data-name="Trazado 772042" d="M267.22,238.692c0,.991.7,1.385,1.564.9a3.463,3.463,0,0,0,1.564-2.7c0-.991-.7-1.385-1.564-.9A3.463,3.463,0,0,0,267.22,238.692Z" transform="translate(-258.074 -235.784)" fill="#2a366e"/>
                <path id="Trazado_772043" data-name="Trazado 772043" d="M274.88,243.112c0,.991.7,1.385,1.564.9a3.463,3.463,0,0,0,1.564-2.7c0-.991-.7-1.385-1.564-.9A3.463,3.463,0,0,0,274.88,243.112Z" transform="translate(-274.88 -234.927)" fill="#2a366e"/>
              </g>
              <g id="Grupo_1054574" data-name="Grupo 1054574" transform="translate(4.955 15.743)">
                <path id="Trazado_772044" data-name="Trazado 772044" d="M267.7,252.117c3.856-5.134,8.25-7.677,12.119-7,.358-.776.537-1.17.907-1.958-4.382-.824-9.54,2.149-13.921,8.035C267.146,251.567,267.337,251.758,267.7,252.117Z" transform="translate(-266.8 -243.027)" fill="#2a366e"/>
              </g>
            </g>
          </g>
          <g id="Grupo_1054580" data-name="Grupo 1054580" transform="translate(0 84.696)">
            <g id="Grupo_1054577" data-name="Grupo 1054577" transform="translate(5.755 33.119)">
              <path id="Trazado_772045" data-name="Trazado 772045" d="M267.48,226.4l12.31-7.1V205.16l-12.31,7.1Zm10.686-8.047-9.062,5.229V213.2l9.062-5.23Z" transform="translate(-267.48 -205.16)" fill="#b5cff4"/>
            </g>
            <g id="Grupo_1054579" data-name="Grupo 1054579" transform="translate(0)">
              <path id="Trazado_772046" data-name="Trazado 772046" d="M262.65,199.6c0,7.546,5.337,10.59,11.916,6.794s11.916-12.99,11.916-20.548-5.337-10.59-11.916-6.794S262.65,192.058,262.65,199.6Z" transform="translate(-262.65 -177.421)" fill="#ffab03"/>
              <g id="Grupo_1054578" data-name="Grupo 1054578" transform="translate(6.101 7.15)">
                <path id="Trazado_772047" data-name="Trazado 772047" d="M267.22,186.646c0,.991.7,1.779,1.564,1.278a3.5,3.5,0,0,0,1.564-3.08c0-.991-.7-1.779-1.564-1.278A4.211,4.211,0,0,0,267.22,186.646Z" transform="translate(-258.074 -183.41)" fill="#4a4a4a"/>
                <path id="Trazado_772048" data-name="Trazado 772048" d="M270.348,184.843a4.19,4.19,0,0,1-1.564,3.08c-.979.561-1.564.036-1.564-1.278a4.19,4.19,0,0,1,1.564-3.08C269.644,183.064,270.348,183.852,270.348,184.843Z" transform="translate(-258.074 -183.41)" fill="#2a366e"/>
                <path id="Trazado_772049" data-name="Trazado 772049" d="M274.88,191.066c0,.991.7,1.779,1.564,1.278a3.5,3.5,0,0,0,1.564-3.08c0-.991-.7-1.779-1.564-1.278A4.211,4.211,0,0,0,274.88,191.066Z" transform="translate(-274.88 -182.553)" fill="#4a4a4a"/>
                <path id="Trazado_772050" data-name="Trazado 772050" d="M278.008,189.263a4.19,4.19,0,0,1-1.564,3.08c-.979.561-1.564.036-1.564-1.278a4.19,4.19,0,0,1,1.564-3.08C277.316,187.484,278.008,188.272,278.008,189.263Z" transform="translate(-274.88 -182.553)" fill="#2a366e"/>
              </g>
              <path id="Trazado_772051" data-name="Trazado 772051" d="M267.56,198.352l12.119-6.985V189.6l-12.119,6.985Z" transform="translate(-261.71 -175.059)" fill="#2a366e"/>
              <path id="Trazado_772052" data-name="Trazado 772052" d="M266.68,191.554l13.5-7.8V179.77l-13.5,7.785Z" transform="translate(-261.164 -176.966)" fill="#ffab03"/>
            </g>
          </g>
          <g id="Grupo_1054581" data-name="Grupo 1054581" transform="translate(34.983)">
            <path id="Trazado_772053" data-name="Trazado 772053" d="M215.376,137.426,259,112.234a4.956,4.956,0,0,0,2.066-3.94h0c0-1.516-.919-2.221-2.066-1.564l-43.627,25.192a4.956,4.956,0,0,0-2.066,3.94h0C213.31,137.379,214.229,138.083,215.376,137.426Z" transform="translate(-213.31 -106.484)" fill="#b5cff4"/>
            <path id="Trazado_772054" data-name="Trazado 772054" d="M215.376,132.2,233.7,121.624a4.956,4.956,0,0,0,2.066-3.94h0c0-1.516-.919-2.221-2.066-1.564L215.376,126.7a4.956,4.956,0,0,0-2.066,3.94h0C213.31,132.167,214.241,132.859,215.376,132.2Z" transform="translate(-188.01 -104.663)" fill="#b5cff4"/>
          </g>
          <g id="Grupo_1054582" data-name="Grupo 1054582" transform="translate(34.983 62.587)">
            <path id="Trazado_772055" data-name="Trazado 772055" d="M215.376,189.847,259,164.654a4.956,4.956,0,0,0,2.066-3.94h0c0-1.516-.919-2.221-2.066-1.564l-43.627,25.192a4.956,4.956,0,0,0-2.066,3.94h0C213.31,189.8,214.229,190.5,215.376,189.847Z" transform="translate(-213.31 -158.904)" fill="#b5cff4"/>
            <path id="Trazado_772056" data-name="Trazado 772056" d="M215.376,184.623,233.7,174.044a4.956,4.956,0,0,0,2.066-3.94h0c0-1.516-.919-2.221-2.066-1.564l-18.327,10.578a4.956,4.956,0,0,0-2.066,3.94h0C213.31,184.587,214.241,185.279,215.376,184.623Z" transform="translate(-188.01 -157.083)" fill="#b5cff4"/>
          </g>
          <g id="Grupo_1054583" data-name="Grupo 1054583" transform="translate(34.983 125.174)">
            <path id="Trazado_772057" data-name="Trazado 772057" d="M215.376,242.267,259,217.074a4.956,4.956,0,0,0,2.066-3.94h0c0-1.516-.919-2.221-2.066-1.564l-43.627,25.192a4.956,4.956,0,0,0-2.066,3.94h0C213.31,242.219,214.229,242.923,215.376,242.267Z" transform="translate(-213.31 -211.324)" fill="#b5cff4"/>
            <path id="Trazado_772058" data-name="Trazado 772058" d="M215.376,237.043,233.7,226.464a4.956,4.956,0,0,0,2.066-3.94h0c0-1.516-.919-2.221-2.066-1.564l-18.327,10.578a4.956,4.956,0,0,0-2.066,3.94h0C213.31,237.007,214.241,237.7,215.376,237.043Z" transform="translate(-188.01 -209.503)" fill="#b5cff4"/>
          </g>
        </g>
      </g>
    </g>
  </g>
</svg>
