<svg xmlns="http://www.w3.org/2000/svg" width="128" height="129" viewBox="0 0 128 129">
  <g id="Grupo_1069594" data-name="Grupo 1069594" transform="translate(-335 -1682)">
    <ellipse id="Elipse_4103" data-name="Elipse 4103" cx="54" cy="54.5" rx="54" ry="54.5" transform="translate(345 1692)" fill="#fff"/>
    <g id="Elipse_4102" data-name="Elipse 4102" transform="translate(345 1692)" fill="none" stroke="#fff" stroke-linejoin="round" stroke-width="10" opacity="0.29">
      <ellipse cx="54" cy="54.5" rx="54" ry="54.5" stroke="none"/>
      <ellipse cx="54" cy="54.5" rx="59" ry="59.5" fill="none"/>
    </g>
    <g id="Grupo_54645" data-name="Grupo 54645" transform="translate(363 1710.38)">
      <g id="Grupo_54644" data-name="Grupo 54644" transform="translate(0 0)">
        <ellipse id="Elipse_4105" data-name="Elipse 4105" cx="1.129" cy="1.129" rx="1.129" ry="1.129" transform="translate(49.665 15.799)" fill="#006e3c"/>
        <path id="Trazado_109164" data-name="Trazado 109164" d="M308.949,61.806V58.549l3.872-3.387a15.106,15.106,0,0,0-9.947-26.474H295.4a6.745,6.745,0,0,0-6.539,8.5,16.387,16.387,0,0,0-14.351-8.5h-3.368a16.361,16.361,0,0,0-13.666,25.38l-6.2,6.2L253.3,62.3a3.454,3.454,0,0,1-2.441,5.9H248V79.482h2.861a3.454,3.454,0,0,1,2.448,5.894l-2.029,2.029,7.985,7.985,2.027-2.027a3.454,3.454,0,0,1,5.9,2.441v2.866h11.288V95.8a3.454,3.454,0,0,1,5.9-2.441L286.4,95.39l2.964-2.963A24.634,24.634,0,0,0,295.4,93.95v4.72h20.318V84.456a18.451,18.451,0,0,0,2.258-8.864,15.141,15.141,0,0,0-9.031-13.787Zm6.772,13.788A16.325,16.325,0,0,1,299.414,91.9h-.965a22.429,22.429,0,0,1-15.962-6.612l-.161-.161,2.919-2.919.218.218a16.823,16.823,0,0,0,11.969,4.96h.229a13.561,13.561,0,0,0,13.545-13.546h-2.257a11.3,11.3,0,0,1-11.288,11.289V76.319a12.95,12.95,0,0,1,10.063-12.595,12.871,12.871,0,0,1,8,11.869ZM290.594,48.046l2.552,2.552v4.454a5.238,5.238,0,0,0,6.265,5.136l.508-.1V65.55a15.3,15.3,0,0,0-2.105,2.609,14.573,14.573,0,0,1-5.916-1.572,3.418,3.418,0,0,1-.288-.514,3.455,3.455,0,0,1,.748-3.78l2.023-2.023-6.2-6.2a16.217,16.217,0,0,0,2.414-6.022Zm-11.518,33.83A2.064,2.064,0,0,1,282,78.957l1.654,1.654L280.73,83.53Zm4.048-19.85,1.654,1.654L281.859,66.6,280.2,64.945a2.058,2.058,0,0,1-.447-.712,7.822,7.822,0,0,1,.989-2.568,2.111,2.111,0,0,1,2.377.361Zm3.234,11.36c0,.151.016.3.016.453a13.572,13.572,0,0,1-1.064,5.241l-1.718-1.718c-.011-.011-.025-.018-.036-.029a10.845,10.845,0,0,0,.318-5.725A24.757,24.757,0,0,0,286.358,73.385ZM279.6,67.873a8.976,8.976,0,0,1,1.931,8.351,4,4,0,0,0-2.422.133,6.722,6.722,0,0,0,.491-2.518V67.873Zm-13.545,1.45v4.515a6.758,6.758,0,0,0,10.237,5.809,4.172,4.172,0,0,0,.247,2.418,9.023,9.023,0,0,1-10.484-14.192Zm2.258,4.515h9.03a4.515,4.515,0,0,1-9.03,0Zm20.292.822a24.854,24.854,0,0,0,6.8,2.19v.375h-.586a5.729,5.729,0,0,0-5.3,3.538,5.656,5.656,0,0,0-.4,1.771,14.758,14.758,0,0,1-2.053-1.7l-.04-.039a15.838,15.838,0,0,0,1.585-6.129Zm2.864,9.195a3.382,3.382,0,0,1,.129-2.225,3.479,3.479,0,0,1,3.22-2.148h.586v5.506a14.542,14.542,0,0,1-3.935-1.133Zm4.048-9.275a22.685,22.685,0,0,1-11.9-6.225l-.161-.16,2.919-2.919.218.218a16.819,16.819,0,0,0,10.059,4.849,15.062,15.062,0,0,0-1.134,4.237Zm-8.729-18.71,4.4,4.4-.427.427a5.7,5.7,0,0,0-1.666,4.025c-.31-.263-.617-.534-.909-.825l-3.468-3.468a4.245,4.245,0,0,0-1.858-1.076l1.88-1.5A16.438,16.438,0,0,0,286.788,55.869Zm-9.444,9.892v1.3h-4.515V65.937a1.129,1.129,0,0,1,1.129-1.129h2.258a3.364,3.364,0,0,0,1.2-.229A10.275,10.275,0,0,0,277.344,65.762Zm0,3.561v2.258h-9.03V69.323Zm-11.337-4.452a11.26,11.26,0,0,0,11.9,19.023l1.68,1.68a13.528,13.528,0,0,1-14.209-23.012A7.862,7.862,0,0,1,266.006,64.871Zm42.61-16L306.691,50.8V61.668a15.054,15.054,0,0,0-4.515,2.042V59.635l2.479-.5-.444-2.213-5.244,1.05a3.086,3.086,0,0,1-.586.058,2.979,2.979,0,0,1-2.881-2.258h2.16a4.52,4.52,0,0,0,4.515-4.515h-2.258a2.26,2.26,0,0,1-2.258,2.257H295.4V49.665l-1.842-1.842a8.911,8.911,0,0,0,1.842-5.4v-.192h8.984l.045,0h0v0a2.256,2.256,0,0,1,2.256,2.258v2.258h1.129a1.129,1.129,0,0,1,1.129,1.129v.194a1.135,1.135,0,0,1-.332.8ZM295.4,30.946h7.471a12.847,12.847,0,0,1,8.46,22.515l-2.385,2.087V51.73l1.265-1.269a3.361,3.361,0,0,0,.992-2.394v-.194a3.393,3.393,0,0,0-2.257-3.193v-.193a4.515,4.515,0,0,0-4.514-4.515h-.025a4.511,4.511,0,0,1-4.491-4.512h-2.258a6.717,6.717,0,0,0,1.683,4.457,4.473,4.473,0,0,1-3.94-4.457h-2.258a6.715,6.715,0,0,0,1.681,4.455,4.5,4.5,0,0,1,.576-8.97Zm-2.256,10.891v.587a6.624,6.624,0,0,1-1.927,4.652l-.555.555a15.687,15.687,0,0,0-.852-8.358A6.8,6.8,0,0,0,293.146,41.837Zm-22-10.891h3.368a14.119,14.119,0,0,1,8.821,25.143l-2.178,1.742a10.148,10.148,0,0,0-1.934,2.067,3.379,3.379,0,0,0-3.007-1.861H271.7a1.129,1.129,0,1,1,0-2.257h2.257a3.39,3.39,0,0,0,3.386-3.386V51.263h1.129A5.636,5.636,0,0,0,281.548,40.9a10.155,10.155,0,0,0-20.007,2.463,5.65,5.65,0,0,0,5.644,5.644h3.594a3.382,3.382,0,0,0,3.179,2.258h1.129v1.129a1.129,1.129,0,0,1-1.129,1.129H271.7a3.386,3.386,0,1,0,0,6.773h4.515a1.129,1.129,0,1,1,0,2.258h-2.258a3.39,3.39,0,0,0-3.386,3.386v1.129h-2.258v-1.3a10.1,10.1,0,0,0-3.813-7.933l-2.176-1.741a14.119,14.119,0,0,1,8.82-25.143Zm2.813,15.8h1.129V44.491h-1.129a3.336,3.336,0,0,0-1.544.391,4.513,4.513,0,0,0-4.1-2.648v2.257a2.26,2.26,0,0,1,2.258,2.258h-3.386a3.39,3.39,0,0,1-3.386-3.386,7.871,7.871,0,0,1,2.383-5.644h2.132a2.26,2.26,0,0,1,2.258,2.258h2.258a4.5,4.5,0,0,0-3.083-4.26,7.814,7.814,0,0,1,9.081,4.3c-.12-.008-.233-.036-.354-.036h-3.386v2.258h3.386a3.386,3.386,0,1,1,0,6.773h-4.515a1.129,1.129,0,0,1,0-2.257ZM286.4,92.2l-.431-.431a5.712,5.712,0,0,0-9.75,4.038v.608h-6.772V95.8a5.711,5.711,0,0,0-9.749-4.038l-.431.431-4.794-4.793.433-.433a5.711,5.711,0,0,0-4.044-9.748h-.6V70.452h.608A5.711,5.711,0,0,0,254.9,60.7l-.431-.432,4.4-4.4a16.5,16.5,0,0,0,2.045,1.982l2.176,1.739a8.022,8.022,0,0,1,1.064,1.043A15.8,15.8,0,0,0,281.246,87.2a24.8,24.8,0,0,0,5.914,4.229Zm27.068,4.215h-15.8V94.118c.263.008.523.038.787.038h.965a18.516,18.516,0,0,0,14.05-6.464v8.721Z" transform="translate(-247.996 -28.688)" fill="#006e3c"/>
      </g>
    </g>
  </g>
</svg>
