<svg xmlns="http://www.w3.org/2000/svg" width="128" height="129" viewBox="0 0 128 129">
  <g id="Grupo_1069595" data-name="Grupo 1069595" transform="translate(-736 -1682)">
    <ellipse id="Elipse_4101" data-name="Elipse 4101" cx="54" cy="54.5" rx="54" ry="54.5" transform="translate(746 1692)" fill="#fff"/>
    <g id="Elipse_4100" data-name="Elipse 4100" transform="translate(746 1692)" fill="none" stroke="#39a91c" stroke-linejoin="round" stroke-width="10" opacity="0.29">
      <ellipse cx="54" cy="54.5" rx="54" ry="54.5" stroke="none"/>
      <ellipse cx="54" cy="54.5" rx="59" ry="59.5" fill="none"/>
    </g>
    <g id="Grupo_54626" data-name="Grupo 54626" transform="translate(766 1711.76)">
      <g id="Grupo_54625" data-name="Grupo 54625" transform="translate(0 0)">
        <path id="Trazado_109139" data-name="Trazado 109139" d="M377.063,216.437a23.264,23.264,0,0,0,.773-36.26,1.058,1.058,0,0,0-1.361,1.621,21.148,21.148,0,0,1-.7,32.963,5.728,5.728,0,0,0-2.263,4.563v2.159h-4.9v-2.488a2.189,2.189,0,0,0-2.187-2.187h-.15v-2.558h1.279a3.4,3.4,0,1,0-3.4-3.4v1.279H361.6v-1.279a3.4,3.4,0,1,0-3.4,3.4h1.279v2.559h-.15a2.189,2.189,0,0,0-2.187,2.187v2.488h-4.9v-2.159a5.733,5.733,0,0,0-2.266-4.565,21.15,21.15,0,0,1,23.039-35.321,1.058,1.058,0,1,0,1.017-1.856,23.272,23.272,0,0,0-32.009,30.749,23.471,23.471,0,0,0,6.662,8.105,3.632,3.632,0,0,1,1.441,2.889v2.329a3.395,3.395,0,0,0,0,6.452v9.75a4.45,4.45,0,0,0,4.444,4.444h.3a5.581,5.581,0,0,0,5.5,4.675h4.995a5.582,5.582,0,0,0,5.5-4.675h.3a4.45,4.45,0,0,0,4.444-4.444V228.1a3.395,3.395,0,0,0,0-6.452v-2.329a3.627,3.627,0,0,1,1.438-2.886Zm-10.788-5.584a1.279,1.279,0,1,1,1.279,1.279h-1.279Zm-8.07,1.279a1.279,1.279,0,1,1,1.279-1.279v1.279Zm3.4,2.116h2.558v2.558H361.6Zm-2.337,4.745a.071.071,0,0,1,.071-.071h7.092a.071.071,0,0,1,.071.071v2.488h-7.233Zm14.246,11.838H359.042a1.058,1.058,0,1,0,0,2.116h14.467v2.558H352.251v-2.558h2.558a1.058,1.058,0,1,0,0-2.116h-2.558v-2.558h21.258Zm-8.132,14.025h-4.995a3.463,3.463,0,0,1-3.338-2.558h11.672a3.464,3.464,0,0,1-3.339,2.558Zm5.8-4.675h-16.6a2.331,2.331,0,0,1-2.328-2.328v-.23h21.258v.23A2.331,2.331,0,0,1,371.181,240.182Zm3.386-14.025H351.193a1.279,1.279,0,0,1,0-2.558h23.374a1.279,1.279,0,0,1,0,2.558Z" transform="translate(-329.097 -174.733)" fill="#006e3c"/>
        <path id="Trazado_109140" data-name="Trazado 109140" d="M271.857,333.175a1.058,1.058,0,0,0-1.058-1.058h-4.675a1.058,1.058,0,0,0,0,2.116H270.8A1.058,1.058,0,0,0,271.857,333.175Z" transform="translate(-265.066 -309.911)" fill="#006e3c"/>
        <path id="Trazado_109141" data-name="Trazado 109141" d="M300.716,431.657l-4.049,2.338a1.058,1.058,0,1,0,1.058,1.833l4.049-2.337a1.058,1.058,0,0,0-1.058-1.833Z" transform="translate(-291.754 -395.284)" fill="#006e3c"/>
        <path id="Trazado_109142" data-name="Trazado 109142" d="M674.8,433.993l-4.049-2.337a1.058,1.058,0,0,0-1.058,1.833l4.049,2.338a1.058,1.058,0,1,0,1.058-1.833Z" transform="translate(-612.147 -395.284)" fill="#006e3c"/>
        <path id="Trazado_109143" data-name="Trazado 109143" d="M701.53,332.117h-4.675a1.058,1.058,0,1,0,0,2.116h4.675a1.058,1.058,0,0,0,0-2.116Z" transform="translate(-635.023 -309.911)" fill="#006e3c"/>
        <path id="Trazado_109144" data-name="Trazado 109144" d="M670.222,220.605a1.053,1.053,0,0,0,.528-.142l4.049-2.337a1.058,1.058,0,1,0-1.058-1.833l-4.049,2.337a1.058,1.058,0,0,0,.53,1.975Z" transform="translate(-612.147 -210.307)" fill="#006e3c"/>
        <path id="Trazado_109145" data-name="Trazado 109145" d="M296.667,218.124l4.049,2.337a1.058,1.058,0,0,0,1.058-1.833l-4.049-2.337a1.058,1.058,0,1,0-1.058,1.833Z" transform="translate(-291.754 -210.306)" fill="#006e3c"/>
        <path id="Trazado_109146" data-name="Trazado 109146" d="M483.829,274.134a3.4,3.4,0,1,0,3.4,3.4A3.4,3.4,0,0,0,483.829,274.134Zm0,4.675a1.279,1.279,0,1,1,1.279-1.279A1.281,1.281,0,0,1,483.829,278.809Z" transform="translate(-450.046 -260.109)" fill="#006e3c"/>
        <path id="Trazado_109147" data-name="Trazado 109147" d="M436.544,216.671l-.034-.083.756-1.26a2.224,2.224,0,0,0-.335-2.72l-2.015-2.015a2.224,2.224,0,0,0-2.72-.335l-1.26.756-.083-.034-.356-1.425a2.224,2.224,0,0,0-2.16-1.687h-2.85a2.224,2.224,0,0,0-2.16,1.687l-.356,1.425-.083.034-1.26-.756a2.224,2.224,0,0,0-2.72.335l-2.015,2.015a2.224,2.224,0,0,0-.335,2.72l.756,1.26-.034.083-1.426.356a2.224,2.224,0,0,0-1.687,2.16v2.85a2.224,2.224,0,0,0,1.687,2.16l1.426.356.034.083-.756,1.26a2.224,2.224,0,0,0,.335,2.72l2.015,2.015a2.224,2.224,0,0,0,2.72.335l1.26-.756.083.034.356,1.425a2.224,2.224,0,0,0,2.16,1.687h2.85a2.223,2.223,0,0,0,2.16-1.687l.356-1.425.083-.034,1.26.756a2.224,2.224,0,0,0,2.72-.335l2.015-2.015a2.224,2.224,0,0,0,.335-2.72l-.756-1.26.034-.083,1.426-.356a2.224,2.224,0,0,0,1.687-2.16v-2.85a2.224,2.224,0,0,0-1.687-2.16Zm1,5.367a.11.11,0,0,1-.084.107l-1.964.491a1.058,1.058,0,0,0-.744.681,8.291,8.291,0,0,1-.382.926,1.058,1.058,0,0,0,.044,1.009l1.041,1.734a.11.11,0,0,1-.017.135l-2.015,2.015a.11.11,0,0,1-.135.017l-1.734-1.041a1.058,1.058,0,0,0-1.008-.044,8.274,8.274,0,0,1-.926.382,1.058,1.058,0,0,0-.682.744l-.491,1.964a.11.11,0,0,1-.107.084h-2.85a.11.11,0,0,1-.107-.084l-.491-1.964a1.058,1.058,0,0,0-.682-.744,8.291,8.291,0,0,1-.926-.382,1.058,1.058,0,0,0-1.008.044l-1.734,1.041a.11.11,0,0,1-.135-.017l-2.015-2.015a.111.111,0,0,1-.017-.135l1.041-1.734a1.058,1.058,0,0,0,.044-1.009,8.268,8.268,0,0,1-.382-.926,1.059,1.059,0,0,0-.744-.681l-1.963-.491a.11.11,0,0,1-.084-.107v-2.85a.11.11,0,0,1,.084-.107l1.964-.491a1.059,1.059,0,0,0,.744-.681,8.276,8.276,0,0,1,.382-.926,1.058,1.058,0,0,0-.044-1.009l-1.041-1.734a.11.11,0,0,1,.017-.135l2.015-2.015a.11.11,0,0,1,.135-.017l1.734,1.041a1.058,1.058,0,0,0,1.008.044,8.291,8.291,0,0,1,.926-.382,1.058,1.058,0,0,0,.682-.744l.491-1.964a.11.11,0,0,1,.107-.084h2.85a.11.11,0,0,1,.107.084l.491,1.964a1.058,1.058,0,0,0,.682.744,8.3,8.3,0,0,1,.926.382,1.058,1.058,0,0,0,1.008-.044l1.734-1.041a.11.11,0,0,1,.135.017l2.015,2.015a.11.11,0,0,1,.017.135l-1.041,1.734a1.058,1.058,0,0,0-.044,1.009,8.3,8.3,0,0,1,.382.926,1.058,1.058,0,0,0,.744.681l1.964.491a.11.11,0,0,1,.084.107v2.85Z" transform="translate(-393.128 -203.192)" fill="#006e3c"/>
      </g>
    </g>
    <circle id="Elipse_4171" data-name="Elipse 4171" cx="8.5" cy="8.5" r="8.5" transform="translate(746 1694)" fill="#ffce40"/>
  </g>
</svg>
