<svg xmlns="http://www.w3.org/2000/svg" width="128" height="129" viewBox="0 0 128 129">
  <g id="Grupo_1069596" data-name="Grupo 1069596" transform="translate(-1137 -1682)">
    <ellipse id="Elipse_154" data-name="Elipse 154" cx="54" cy="54.5" rx="54" ry="54.5" transform="translate(1147 1692)" fill="#fff"/>
    <g id="Elipse_157" data-name="Elipse 157" transform="translate(1147 1692)" fill="none" stroke="#fff" stroke-linejoin="round" stroke-width="10" opacity="0.29">
      <ellipse cx="54" cy="54.5" rx="54" ry="54.5" stroke="none"/>
      <ellipse cx="54" cy="54.5" rx="59" ry="59.5" fill="none"/>
    </g>
    <g id="Grupo_54660" data-name="Grupo 54660" transform="translate(1166 1710.38)">
      <g id="Grupo_54659" data-name="Grupo 54659" transform="translate(0 0)">
        <path id="Trazado_109177" data-name="Trazado 109177" d="M323.725,83.605h-2.258a2.26,2.26,0,0,0-2.258-2.257h-2.258V71.886l1.633.817a1.122,1.122,0,0,1,.624,1.009v3.12h2.258v-3.12a3.368,3.368,0,0,0-1.871-3.028l-1.248-.624,1.247-.624a3.366,3.366,0,0,0,1.873-3.028V61.664a3.383,3.383,0,0,0-2.565-3.286l-1.951-.488v-2.5A3.39,3.39,0,0,0,313.566,52h-4.515a3.39,3.39,0,0,0-3.386,3.386V81.348h-7.434a7.849,7.849,0,0,0-5.53-2.257H280.833V76.833a2.26,2.26,0,0,0,2.258-2.258V72.318a2.241,2.241,0,0,0-.45-1.34l1.421-1.421,3.35-8.935a3.038,3.038,0,0,0-2.846-4.106,3.055,3.055,0,0,0-1.068.193l-8.934,3.351-5.018,5.018V54.258A2.26,2.26,0,0,0,267.288,52h-6.772a2.26,2.26,0,0,0-2.258,2.258v15.8A2.26,2.26,0,0,0,256,72.318v2.257a2.26,2.26,0,0,0,2.258,2.258V96.021a5.65,5.65,0,0,0,5.644,5.644h1.129v15.8a2.26,2.26,0,0,0,2.257,2.257H293.7a4.782,4.782,0,0,0,8.122,0h21.9a2.26,2.26,0,0,0,2.258-2.257V85.863a2.26,2.26,0,0,0-2.258-2.258ZM310.007,94.893l-.753-4.515h4.108l-.753,4.515ZM314.7,88.12h-6.774V67.8H314.7Zm3.658-27.552a1.129,1.129,0,0,1,.856,1.1v4.744a1.122,1.122,0,0,1-.624,1.009l-1.633.816V60.218Zm-9.3-6.311h4.515a1.131,1.131,0,0,1,1.129,1.129V65.545h-6.772V55.386A1.131,1.131,0,0,1,309.051,54.258Zm-2.125,35.878.854,5.128a2.25,2.25,0,0,0,2.227,1.886h.173v4.515h2.258V97.15h.173a2.25,2.25,0,0,0,2.227-1.887l.854-5.128a2.252,2.252,0,0,0,1.261-2.015V83.605h2.258v29.348H298.893V83.605h6.772V88.12A2.255,2.255,0,0,0,306.926,90.136ZM292.7,110.7a5.6,5.6,0,0,1,3.934,1.607v.65H271.8V83.605h2.258V110.7Zm3.934-27.741v26.538a7.849,7.849,0,0,0-3.934-1.054H276.318V81.348H292.7A5.6,5.6,0,0,1,296.635,82.954ZM277.226,61.471l3.425-1.285,3.281,3.281-1.284,3.425Zm.317,3.509-5.079,5.079h-4.709l7.434-7.434Zm1.6,1.6,2.355,2.355-1.129,1.129h-4.709Zm5.151-7.755a.8.8,0,0,1,1.058.733.791.791,0,0,1-.05.275l-.494,1.317-1.831-1.831ZM260.515,67.8h4.515V65.545h-4.515V63.288h2.258V61.03h-2.258V58.773h4.515V56.515h-4.515V54.258h6.772V67.335l-2.725,2.725h-4.048Zm-2.258,4.515h22.575v2.257H258.258Zm6.773,13.545V99.408H263.9a3.39,3.39,0,0,1-3.386-3.386V76.833h18.06V79.09h-2.257a2.26,2.26,0,0,0-2.258,2.257H271.8a2.26,2.26,0,0,0-2.258,2.257h-2.258a2.26,2.26,0,0,0-2.257,2.258Zm58.7,31.605H300.453l-.431.862a2.524,2.524,0,0,1-4.515,0l-.431-.862H267.288V85.863h2.258v27.09a2.26,2.26,0,0,0,2.258,2.257H319.21a2.26,2.26,0,0,0,2.258-2.257V85.863h2.258Z" transform="translate(-256 -52)" fill="#006e3c"/>
        <path id="Trazado_109178" data-name="Trazado 109178" d="M431.8,276H416v9.03h15.8Zm-2.258,6.773H418.258v-4.515h11.288Z" transform="translate(-393.425 -244.395)" fill="#006e3c"/>
        <path id="Trazado_109179" data-name="Trazado 109179" d="M416,356h4.515v2.258H416Z" transform="translate(-393.425 -313.107)" fill="#006e3c"/>
        <path id="Trazado_109180" data-name="Trazado 109180" d="M464,356h9.03v2.258H464Z" transform="translate(-434.652 -313.107)" fill="#006e3c"/>
        <path id="Trazado_109181" data-name="Trazado 109181" d="M416,388h15.8v2.258H416Z" transform="translate(-393.425 -340.592)" fill="#006e3c"/>
        <path id="Trazado_109182" data-name="Trazado 109182" d="M416,420h15.8v2.258H416Z" transform="translate(-393.425 -368.077)" fill="#006e3c"/>
        <path id="Trazado_109183" data-name="Trazado 109183" d="M576,420h15.8v2.258H576Z" transform="translate(-530.85 -368.077)" fill="#006e3c"/>
        <path id="Trazado_109184" data-name="Trazado 109184" d="M576,452h15.8v2.258H576Z" transform="translate(-530.85 -395.562)" fill="#006e3c"/>
        <path id="Trazado_109185" data-name="Trazado 109185" d="M576,388h6.773v2.258H576Z" transform="translate(-530.85 -340.592)" fill="#006e3c"/>
        <path id="Trazado_109186" data-name="Trazado 109186" d="M576,356h4.515v2.258H576Z" transform="translate(-530.85 -313.107)" fill="#006e3c"/>
      </g>
    </g>
    <circle id="Elipse_4172" data-name="Elipse 4172" cx="8.5" cy="8.5" r="8.5" transform="translate(1147 1694)" fill="#ffce40"/>
  </g>
</svg>
