<svg xmlns="http://www.w3.org/2000/svg" width="259.5" height="217.881" viewBox="0 0 259.5 217.881">
  <g id="_4" data-name="4" transform="translate(-30.69 -34.222)">
    <path id="Trazado_771745_00000163791809665486624840000015826685165025420426_" d="M474.634,364.069a29.6,29.6,0,0,1-17.214-53.7l58.619-41.808a29.6,29.6,0,0,1,41.285,6.911h0a29.6,29.6,0,0,1-6.911,41.285L491.8,358.56A29.485,29.485,0,0,1,474.634,364.069Z" transform="translate(-272.638 -150.581)" fill="#39a900"/>
    <path id="Trazado_771745" d="M92.794,245.982A62.055,62.055,0,0,1,56.713,133.4L179.591,45.762a62.053,62.053,0,0,1,86.554,14.482h0a62.05,62.05,0,0,1-14.482,86.544.009.009,0,0,0-.01.01h0L128.775,234.451A61.8,61.8,0,0,1,92.794,245.982Z" transform="translate(0)" fill="#f1cd41"/>
    <g id="Grupo_1054646" data-name="Grupo 1054646" transform="translate(146.968 81.562)">
      <path id="Trazado_772119" data-name="Trazado 772119" d="M417.017,189.651l-7.54-4.353-4.264.893,7.537,4.353,4.268-.893ZM395.07,221.163l-7.54-4.353,1.364,4.141,7.54,4.357-1.364-4.145Zm-21-15.426,4.268-4.039.937-3.153-2.052-3.409,4.066-7.041,3.98.075,2.264-2.39,1.364-5.714,5.759-3.327,4.668,2.695,2.934-3.444,7.54,4.353-3.977,4.668-2.26.226-4.268-2.466-2.855,1.648-1.361,5.714-2.26,2.387-3.977-.072-4.069,7.044,2.052,3.409-.937,3.153-4.264,4.035v3.3l4.264,2.466.937,2.069L384.77,223.7l-7.54-4.353,1.515-4.264-4.668-2.695Q374.067,209.063,374.07,205.737Z" transform="translate(-372.924 -174.851)" fill="#33ab00" fill-rule="evenodd"/>
      <path id="Trazado_772120" data-name="Trazado 772120" d="M411.643,186.95l-4.562-2.633-.9.188,4.562,2.633.9-.188Zm-3.8-4.835,7.482,4.316a1.146,1.146,0,0,1-.274,2.151l-4.268.893a1.143,1.143,0,0,1-.807-.13l-7.54-4.353a1.148,1.148,0,0,1-.547-.759l-.014-.089-.4.041a1.149,1.149,0,0,1-.68-.147l-3.7-2.134-1.853,1.07-1.248,5.235a1.206,1.206,0,0,1-.287.52l-2.219,2.342a1.155,1.155,0,0,1-.893.407l-3.3-.062-3.392,5.875,1.7,2.831a1.145,1.145,0,0,1,.116.92l-.94,3.153a1.15,1.15,0,0,1-.311.5l-3.905,3.7v2.151l3.645,2.107a1.134,1.134,0,0,1,.513.544l.167.366a1.148,1.148,0,0,1,1.016.065l7.5,4.333a1.125,1.125,0,0,1,.554.66l1.361,4.141a1.147,1.147,0,0,1-1.665,1.347l-7.475-4.319a1.15,1.15,0,0,1-.578-.67l-.465-1.419-1.491,4.2-.089.188a1.142,1.142,0,0,1-1.559.421l-7.465-4.309a1.144,1.144,0,0,1-.585-1.416l1.193-3.372-3.768-2.178a1.149,1.149,0,0,1-.646-1.033v-6.651a1.18,1.18,0,0,1,.362-.831l4.039-3.82.708-2.38-1.8-2.978a1.156,1.156,0,0,1-.01-1.166l4.069-7.041a1.141,1.141,0,0,1,1.009-.568l3.474.065,1.7-1.8,1.293-5.417a1.155,1.155,0,0,1,.544-.725l5.759-3.327a1.149,1.149,0,0,1,1.149,0l3.84,2.216,2.308-2.7a1.147,1.147,0,0,1,1.457-.26l7.54,4.353.171.123a1.144,1.144,0,0,1,.127,1.614l-2.893,3.392,1.464-.3a1.1,1.1,0,0,1,.8.123Zm-15.929,37.63-4.555-2.63.287.872,4.555,2.633-.287-.875Zm-18.9-15.713v5.509l4.09,2.363a1.145,1.145,0,0,1,.506,1.375l-1.193,3.372,5.519,3.187,1.436-4.049-.6-1.317-3.943-2.277a1.147,1.147,0,0,1-.571-.992l0-3.3a1.136,1.136,0,0,1,.424-.889l3.977-3.765.708-2.377-1.792-2.975a1.142,1.142,0,0,1,.021-1.217l4.039-7a1.142,1.142,0,0,1,1.074-.568l3.413.062,1.7-1.788,1.293-5.424a1.149,1.149,0,0,1,.633-.776l2.77-1.6a1.146,1.146,0,0,1,1.139,0l3.95,2.281,1.44-.144,2.787-3.269-5.523-3.187-2.318,2.722a1.145,1.145,0,0,1-1.447.246l-4.093-2.363-4.757,2.746-1.248,5.232a1.14,1.14,0,0,1-.342.581l-2.209,2.332a1.148,1.148,0,0,1-.889.352l-3.262-.062-3.392,5.871,1.706,2.831a1.146,1.146,0,0,1,.1.975l-.92,3.095a1.135,1.135,0,0,1-.376.568Z" transform="translate(-370.72 -172.659)" fill="#016f3a" fill-rule="evenodd"/>
      <path id="Trazado_772121" data-name="Trazado 772121" d="M426.322,211.864l.937-3.153,4.268-4.035v-6.655l-4.268.889-.937-2.072,2.052-5.779q-2.036-1.175-4.066-2.349l-3.98,4.668-2.264.226-1.361-4.141-5.762,3.324L409.58,198.5l-2.264,2.39-3.977-.075q-2.036,3.524-4.066,7.044l2.052,3.409-.937,3.153-4.268,4.035v6.651l4.268-.889.937,2.072-2.052,5.779q2.036,1.175,4.066,2.349l3.98-4.668,2.26-.222,1.361,4.141,5.762-3.324,1.361-5.714,2.264-2.387,3.977.072q2.031-3.524,4.066-7.044Z" transform="translate(-387.434 -183.221)" fill="#c2e6b0" fill-rule="evenodd"/>
      <path id="Trazado_772122" data-name="Trazado 772122" d="M423.027,209.312l.93-3.126a1.125,1.125,0,0,1,.386-.571l3.83-3.621v-4.757l-2.883.6a1.145,1.145,0,0,1-1.279-.65l-.94-2.072a1.134,1.134,0,0,1-.034-.851l1.734-4.883-2.414-1.4L419,191.93a1.136,1.136,0,0,1-.787.4l-2.233.222a1.147,1.147,0,0,1-1.2-.78l-.927-2.8-4.107,2.37-1.248,5.235a1.141,1.141,0,0,1-.342.581l-2.209,2.332a1.148,1.148,0,0,1-.889.352l-3.266-.062-3.389,5.871,1.706,2.831a1.145,1.145,0,0,1,.1.975l-.92,3.095a1.15,1.15,0,0,1-.376.568l-3.84,3.632v4.757l2.883-.6a1.145,1.145,0,0,1,1.279.65l.937,2.072a1.134,1.134,0,0,1,.034.852l-1.734,4.883,2.414,1.392,3.362-3.943a1.142,1.142,0,0,1,.786-.4l2.233-.222a1.142,1.142,0,0,1,1.2.787l.92,2.8,4.107-2.37,1.248-5.239a1.141,1.141,0,0,1,.342-.581l2.209-2.332a1.148,1.148,0,0,1,.889-.352l3.266.062,3.389-5.871-1.706-2.831a1.173,1.173,0,0,1-.1-.947Zm3.043-2.185-.708,2.38,1.792,2.975a1.158,1.158,0,0,1,.01,1.163l-4.045,7.01a1.148,1.148,0,0,1-1.029.609l-3.474-.065-1.7,1.8-1.293,5.417a1.175,1.175,0,0,1-.547.728l-5.68,3.279a1.116,1.116,0,0,1-.294.144,1.15,1.15,0,0,1-1.446-.735l-1.074-3.266-.886.089-3.673,4.305a1.146,1.146,0,0,1-1.457.26l-4.021-2.322a1.147,1.147,0,0,1-.551-1.4l1.9-5.345-.369-.814-3.286.687a1.059,1.059,0,0,1-.315.044,1.152,1.152,0,0,1-1.149-1.149v-6.655a1.18,1.18,0,0,1,.362-.831l4.039-3.82.708-2.38-1.792-2.979a1.158,1.158,0,0,1-.01-1.163l4.045-7.01a1.148,1.148,0,0,1,1.029-.609l3.474.065,1.7-1.8,1.289-5.417a1.16,1.16,0,0,1,.547-.725l5.663-3.269a1.188,1.188,0,0,1,.308-.157,1.149,1.149,0,0,1,1.45.732l1.077,3.269.886-.085,3.673-4.305a1.15,1.15,0,0,1,1.457-.26l4.022,2.322a1.147,1.147,0,0,1,.551,1.4l-1.9,5.345.369.814,3.286-.687a1.184,1.184,0,0,1,.315-.041,1.149,1.149,0,0,1,1.149,1.149v6.655a1.18,1.18,0,0,1-.362.831Z" transform="translate(-385.23 -181.024)" fill="#016f3a" fill-rule="evenodd"/>
      <path id="Trazado_772123" data-name="Trazado 772123" d="M442.224,245.876c1.819-3.153,1.819-6.559,0-7.612s-4.77.653-6.59,3.806-1.819,6.562,0,7.612S440.4,249.029,442.224,245.876Z" transform="translate(-412.538 -215.625)" fill="#33ab00" fill-rule="evenodd"/>
      <path id="Trazado_772124" data-name="Trazado 772124" d="M440.964,244.294a10.681,10.681,0,0,1-3.615,3.8l-.065.041a3.965,3.965,0,0,1-6.384-3.683,10.64,10.64,0,0,1,1.481-5.092l.041-.079a10.673,10.673,0,0,1,3.649-3.854l.065-.041a4.394,4.394,0,0,1,4.4-.349l.041.021a4.382,4.382,0,0,1,1.936,4.008,10.559,10.559,0,0,1-1.464,5.068l-.089.164Zm-1.9-1.293a8.292,8.292,0,0,0,1.156-3.933,2.315,2.315,0,0,0-.739-1.994l-.1-.058a2.305,2.305,0,0,0-2.1.352l-.062.031a8.4,8.4,0,0,0-2.777,2.958l-.092.157a8.294,8.294,0,0,0-1.156,3.936,1.739,1.739,0,0,0,2.938,1.7l.058-.031a8.337,8.337,0,0,0,2.777-2.958Z" transform="translate(-410.321 -213.411)" fill="#016f3a" fill-rule="evenodd"/>
      <path id="Trazado_772125" data-name="Trazado 772125" d="M423.325,189.065a1.146,1.146,0,0,1-1.149,1.983l-7.537-4.353a1.146,1.146,0,0,1,1.149-1.983Z" transform="translate(-399.244 -180.488)" fill="#016f3a" fill-rule="evenodd"/>
      <path id="Trazado_772126" data-name="Trazado 772126" d="M401.082,212.545a1.146,1.146,0,1,1-1.149,1.983l-7.544-4.353a1.146,1.146,0,0,1,1.149-1.983Z" transform="translate(-384.603 -195.939)" fill="#016f3a" fill-rule="evenodd"/>
      <path id="Trazado_772127" data-name="Trazado 772127" d="M389.188,233.153a1.142,1.142,0,0,1-1.139,1.98l-7.544-4.353a1.144,1.144,0,1,1,1.139-1.983Z" transform="translate(-376.781 -209.499)" fill="#016f3a" fill-rule="evenodd"/>
      <path id="Trazado_772128" data-name="Trazado 772128" d="M379.984,264.14a1.143,1.143,0,0,1-1.139,1.983l-7.54-4.353a1.143,1.143,0,1,1,1.139-1.983Z" transform="translate(-370.727 -229.892)" fill="#016f3a" fill-rule="evenodd"/>
      <path id="Trazado_772129" data-name="Trazado 772129" d="M380.7,284.01a1.146,1.146,0,1,1-1.149,1.983l-7.168-4.138a1.146,1.146,0,0,1,1.149-1.983Z" transform="translate(-371.436 -243.107)" fill="#016f3a" fill-rule="evenodd"/>
      <path id="Trazado_772130" data-name="Trazado 772130" d="M440.971,179.806a1.146,1.146,0,0,1-1.149,1.983l-7.123-4.114a1.146,1.146,0,1,1,1.149-1.983Z" transform="translate(-411.128 -174.553)" fill="#016f3a" fill-rule="evenodd"/>
    </g>
    <g id="Grupo_1054648" data-name="Grupo 1054648" transform="translate(60.732 106.581)">
      <g id="Grupo_1054647" data-name="Grupo 1054647" transform="translate(1.141 61.46)">
        <path id="Trazado_772131" data-name="Trazado 772131" d="M211.048,452.822l.007-12.694c0-10.153-12.519-13.836-21.167-14.578-.732,1.5-1.481,2.992-2.257,4.425,6.785,12.2.978,38.283-6.511,49.311,16.972-9.8,29.929-22.744,29.929-26.464Zm-65.11-15.457-.414-.431c.137.144.277.287.414.431ZM160.872,455.6h0c4.083,9.366,2.1,19.547,11.374,28.311-15.241,7.082-32.261,10.447-45.7,2.688-4.158-2.4-4.64-3.409-4.64-7.222s-.089-7.722.048-11.5c.711-6.614,4.1-11.1,8.382-15.922,4.8-5.225,10.8-9.438,15.152-15.06l0,0C150.319,442.357,158.157,449.375,160.872,455.6Z" transform="translate(-121.877 -425.55)" fill="#33ab00" fill-rule="evenodd"/>
      </g>
      <path id="Trazado_772132" data-name="Trazado 772132" d="M207.7,450.6l.007-12.7c0-3.871-2.059-6.716-5.03-8.765-4-2.753-9.63-4.1-14.311-4.589l-.763,1.532-.865,1.672c2.982,5.837,3.406,14.362,2.267,22.966a74.988,74.988,0,0,1-6.829,23.035,123.687,123.687,0,0,0,15.959-11.852c5.923-5.229,9.565-9.6,9.565-11.3Zm2.308-12.694-.007,12.7c0,2.318-3.939,7.369-10.338,13.029a127.452,127.452,0,0,1-20.159,14.431,1.151,1.151,0,0,1-1.529-1.641c3.953-5.82,7.434-15.977,8.754-25.993,1.111-8.426.694-16.695-2.274-22.07a1.148,1.148,0,0,1-.034-1.149q.59-1.092,1.128-2.161l1.063-2.13a1.161,1.161,0,0,1,1.173-.739c5.126.441,11.593,1.9,16.2,5.071,3.556,2.448,6.022,5.9,6.019,10.656Zm-65.855-3.994.417.431-.017.014c1.132,1.258,2.435,2.623,3.786,4.035,4.394,4.6,9.295,9.722,11.391,14.527a49.93,49.93,0,0,1,2.876,10.29c1.234,6.087,2.472,12.188,8.207,17.621a1.177,1.177,0,0,1,.284.38,1.152,1.152,0,0,1-.564,1.529c-8.337,3.874-17.218,6.655-25.787,7.157a36.9,36.9,0,0,1-20.969-4.517c-2.25-1.3-3.526-2.254-4.281-3.471-.783-1.258-.934-2.626-.93-4.75l-.014-3.317c-.017-2.736-.034-5.5.058-8.183l.007-.13a22.6,22.6,0,0,1,3-9.083,46.323,46.323,0,0,1,5.666-7.486l.014-.014c2.028-2.209,4.292-4.257,6.552-6.3a69.8,69.8,0,0,0,8.539-8.679,1.108,1.108,0,0,1,.222-.215,1.14,1.14,0,0,1,1.542.164Zm13.463,19.926c-1.929-4.428-6.685-9.4-10.946-13.86-1.163-1.214-2.291-2.4-3.331-3.532a80,80,0,0,1-7.954,7.906C133.2,446.339,131,448.326,129,450.5a44.278,44.278,0,0,0-5.4,7.1,20.375,20.375,0,0,0-2.7,8.156c-.1,2.664-.075,5.386-.058,8.081l.014,3.324a6.67,6.67,0,0,0,.588,3.533c.523.841,1.57,1.594,3.474,2.695a34.665,34.665,0,0,0,19.687,4.21c7.745-.455,15.8-2.862,23.455-6.268-5.263-5.608-6.49-11.647-7.711-17.669A48.319,48.319,0,0,0,157.62,453.842Z" transform="translate(-118.54 -361.872)" fill="#016f3a" fill-rule="evenodd"/>
      <path id="Trazado_772133" data-name="Trazado 772133" d="M190.93,442.98c.657-.841,2.572-2.811,3.095-3.693,1.036-1.751,1-2.428,1.211-4.487,8.836,10.221,29.611,16.223,37.589,1.717v0c2.254,5.382-4.172,15.761-12.427,18.842-6.066,2.264-15.313.862-19.995-3.406l-7.93-7.226Z" transform="translate(-166.175 -370.177)" fill="#fff" fill-rule="evenodd"/>
      <path id="Trazado_772134" data-name="Trazado 772134" d="M187.827,440.033c.3-.38.7-.828,1.139-1.32a22.769,22.769,0,0,0,1.85-2.226,6.489,6.489,0,0,0,1-3.385l.062-.629a1.152,1.152,0,0,1,2.018-.639,28.58,28.58,0,0,0,7.817,6.172,29.516,29.516,0,0,0,12.882,3.765,16.366,16.366,0,0,0,11.541-3.666,15.623,15.623,0,0,0,3.471-4.357,1.152,1.152,0,0,1,2.083.133l.116.311c1.064,3-.007,7.109-2.4,10.881a23.372,23.372,0,0,1-10.187,8.9l-.622.246a22.415,22.415,0,0,1-11.247.78,19.9,19.9,0,0,1-9.927-4.415l-7.93-7.226-1.631-1.836a1.159,1.159,0,0,1-.024-1.494Zm2.862.212-.451.506.828.934,7.9,7.2a17.561,17.561,0,0,0,8.754,3.847,20.119,20.119,0,0,0,10.064-.663l.544-.215a21.018,21.018,0,0,0,9.124-8.012,14.977,14.977,0,0,0,2.442-6.364,17.1,17.1,0,0,1-2.257,2.366,18.633,18.633,0,0,1-13.128,4.227,31.9,31.9,0,0,1-13.911-4.042,32.354,32.354,0,0,1-6.733-4.89,7.907,7.907,0,0,1-1.064,2.524A21.341,21.341,0,0,1,190.69,440.245Z" transform="translate(-163.962 -367.962)" fill="#016f3a" fill-rule="evenodd"/>
      <path id="Trazado_772135" data-name="Trazado 772135" d="M231.676,361.006c3.341-3.214,6.066-9.069,8.669-14.4,3.56-7.287,3.379-15.607,3.423-22.31l-1.221-3.98a21.408,21.408,0,0,1-.5-5.058c-.041-2.178-.082-4.192-1.2-5.215-1.8-1.648-4.637.865-7.975,3.813a47.8,47.8,0,0,1-7.427,5.735,28.99,28.99,0,0,1-7.424,2.831l-.007,0c-2.2.592-4.172,1.125-5.783,2.479-2.507,2.11-2.4,3.823-2.353,6.839a33.319,33.319,0,0,1-1.549,11.729,18.634,18.634,0,0,0-1.166-4.521c-3.149-7.629-10.686-4.962-10.526,2.3a11.174,11.174,0,0,0,.277,2.182,26.8,26.8,0,0,0,2.531,6.121c.3.564-.089,2.086-.356,2.924,6.381,7.229,15.655,12.188,23.031,12.177A14.6,14.6,0,0,0,231.676,361.006Z" transform="translate(-169.928 -287.738)" fill="#fff" fill-rule="evenodd"/>
      <path id="Trazado_772136" data-name="Trazado 772136" d="M228.674,357.921c2.965-2.855,5.506-8.07,7.91-13.012l.52-1.063c3.242-6.634,3.276-14.267,3.3-20.62l.007-1.009-1.183-3.857a15.32,15.32,0,0,1-.438-2.729c-.065-.831-.082-1.73-.1-2.606a19.775,19.775,0,0,0-.181-2.866,2.608,2.608,0,0,0-.646-1.515l-.044-.041c-.438-.345-1.139-.144-2.011.366a32.49,32.49,0,0,0-4.384,3.5l-.017.014a48.684,48.684,0,0,1-7.6,5.854,29.847,29.847,0,0,1-7.691,2.944l-.017,0a30.018,30.018,0,0,0-2.992.916,8.107,8.107,0,0,0-2.346,1.334c-2,1.689-1.983,3.156-1.946,5.653l.014.739a33.9,33.9,0,0,1-1.6,11.616,1.153,1.153,0,0,1-2.257-.2,21.477,21.477,0,0,0-.41-2.13,15.04,15.04,0,0,0-.67-2.065,6.182,6.182,0,0,0-3.139-3.642,3.124,3.124,0,0,0-1.867-.15,3.56,3.56,0,0,0-1.7.968,6.247,6.247,0,0,0-1.6,4.661,9.013,9.013,0,0,0,.072.957c.041.322.1.657.178,1a17.44,17.44,0,0,0,1.019,2.965c.455,1.043.954,2.035,1.4,2.862a3,3,0,0,1,.209,1.758l-.007.038a10.869,10.869,0,0,1-.287,1.382,39.2,39.2,0,0,0,10.437,8.1,25,25,0,0,0,11.309,3.221,13.969,13.969,0,0,0,4.839-.937,11.874,11.874,0,0,0,3.919-2.4Zm9.985-12c-2.489,5.116-5.116,10.512-8.388,13.661a14.019,14.019,0,0,1-4.7,2.883,16.225,16.225,0,0,1-5.659,1.081,27.281,27.281,0,0,1-12.382-3.481,41.475,41.475,0,0,1-11.473-9.045,1.149,1.149,0,0,1-.27-1.152,9.868,9.868,0,0,0,.38-1.6l.055-.421c-.486-.913-1.022-1.973-1.488-3.043a19.652,19.652,0,0,1-1.149-3.372,11.888,11.888,0,0,1-.212-1.211,10.843,10.843,0,0,1-.089-1.2,8.512,8.512,0,0,1,2.291-6.35,5.857,5.857,0,0,1,2.8-1.57,5.427,5.427,0,0,1,3.221.25,8.376,8.376,0,0,1,4.428,4.914l.062.154a29.6,29.6,0,0,0,.445-6.46l-.014-.739c-.048-3.18-.075-5.051,2.766-7.448a10.407,10.407,0,0,1,3-1.72,30.279,30.279,0,0,1,3.173-.978l.068-.021a28.066,28.066,0,0,0,7.14-2.708,46.987,46.987,0,0,0,7.232-5.6,34.179,34.179,0,0,1,4.75-3.765c1.765-1.033,3.344-1.279,4.688-.109l.079.065a4.765,4.765,0,0,1,1.368,2.831,21.913,21.913,0,0,1,.209,3.214c.014.787.031,1.6.1,2.469a12.92,12.92,0,0,0,.366,2.315l1.207,3.936a1.134,1.134,0,0,1,.051.342l-.007,1.187c-.027,6.6-.065,14.533-3.529,21.622Z" transform="translate(-167.723 -285.48)" fill="#016f3a" fill-rule="evenodd"/>
      <path id="Trazado_772137" data-name="Trazado 772137" d="M174.614,266.492c-5.889,10.8-2.185,40.334,7.978,46.746.209-.54.886-2.681.513-3.375a27.048,27.048,0,0,1-2.531-6.121c-2.212-9.736,9.38-14.3,11.415.044a33.236,33.236,0,0,0,1.549-11.729c-.044-3.016-.154-4.729,2.353-6.839,1.611-1.354,3.587-1.888,5.783-2.479l.007,0A29.085,29.085,0,0,0,209.1,279.9a48.008,48.008,0,0,0,7.427-5.735c3.338-2.951,6.176-5.461,7.975-3.813,1.122,1.022,1.163,3.037,1.2,5.215a21.409,21.409,0,0,0,.5,5.058l1.221,3.98a82.894,82.894,0,0,0-.5-16.322c-1.409-9.647-5.724-10.009-17.614-16.295-1.9-1.005-4.36-2.671-8.04-2.784C192.317,248.925,179.032,259.359,174.614,266.492Z" transform="translate(-153.59 -248.047)" fill="#33ab00" fill-rule="evenodd"/>
      <path id="Trazado_772138" data-name="Trazado 772138" d="M173.412,264.841c-2.927,5.393-3.351,15.758-1.71,25.38,1.364,7.992,4.134,15.4,8.046,18.866l.068-.373.072-.537c-.486-.906-1.022-1.966-1.488-3.04l-.031-.082a19.572,19.572,0,0,1-1.118-3.29c-.886-3.895.239-7.1,2.154-8.894a5.861,5.861,0,0,1,2.907-1.5,5.339,5.339,0,0,1,3.3.441,8.8,8.8,0,0,1,4.131,4.955,29.694,29.694,0,0,0,.445-6.47l-.014-.739c-.048-3.184-.075-5.051,2.766-7.448a10.407,10.407,0,0,1,3-1.72,32.532,32.532,0,0,1,3.228-1l.017,0a28.244,28.244,0,0,0,7.137-2.712,46.985,46.985,0,0,0,7.233-5.6l.017-.014a33.935,33.935,0,0,1,4.733-3.748c1.8-1.053,3.4-1.289,4.764-.041a3.567,3.567,0,0,1,.763.975c-.075-.691-.161-1.371-.257-2.028-1.087-7.441-4.127-8.959-11.654-12.711-1.563-.78-3.314-1.652-5.355-2.732l-.893-.489a14.079,14.079,0,0,0-6.641-2.165c-3.84-.12-8.611,1.912-13.077,4.808-5.359,3.485-10.221,8.169-12.547,11.907Zm-3.98,25.767c-1.72-10.081-1.211-21.058,1.973-26.892l.031-.055c2.479-4,7.629-8.994,13.275-12.656,4.818-3.126,10.047-5.314,14.393-5.177a16.067,16.067,0,0,1,7.7,2.452l.848.462c1.915,1.012,3.71,1.908,5.311,2.7,8.3,4.134,11.644,5.807,12.906,14.441a71.274,71.274,0,0,1,.653,7.916c.089,2.941.034,5.913-.144,8.648a1.163,1.163,0,0,1-.81,1.029,1.151,1.151,0,0,1-1.44-.763l-1.234-4.025a15.316,15.316,0,0,1-.438-2.729c-.065-.831-.082-1.73-.1-2.606a19.779,19.779,0,0,0-.181-2.866,2.608,2.608,0,0,0-.646-1.515c-.434-.4-1.152-.205-2.052.325a32.49,32.49,0,0,0-4.384,3.5,48.721,48.721,0,0,1-7.616,5.872,29.751,29.751,0,0,1-7.636,2.931l-.072.021a29.174,29.174,0,0,0-2.992.913,8.106,8.106,0,0,0-2.346,1.334c-2,1.686-1.983,3.156-1.946,5.646l.014.742a33.9,33.9,0,0,1-1.6,11.616,1.153,1.153,0,0,1-2.25-.157c-.65-4.586-2.271-7-4.011-7.824a3.1,3.1,0,0,0-1.9-.26,3.549,3.549,0,0,0-1.761.927c-1.378,1.286-2.165,3.69-1.481,6.7a17.027,17.027,0,0,0,.985,2.883l.038.082c.451,1.046.951,2.038,1.4,2.869a3.27,3.27,0,0,1,.178,1.963,13.476,13.476,0,0,1-.616,2.322,1.215,1.215,0,0,1-.116.243,1.151,1.151,0,0,1-1.587.359C174.6,308.719,171.035,300,169.431,290.608Z" transform="translate(-151.39 -245.822)" fill="#016f3a" fill-rule="evenodd"/>
      <path id="Trazado_772139" data-name="Trazado 772139" d="M221.474,455.311c-14.756-1.323-22.857-1.686-30.544-9.91,4.825,5.461,12.666,12.478,15.381,18.709,4.083,9.366,2.1,19.547,11.374,28.311l8.877-4.63c6.9-9.855,13.747-36.306,6.511-49.311l-.25.455c.739,6.983-4.893,10.32-10.314,15.775h0l-1.036.6Z" transform="translate(-166.175 -372.598)" fill="#c2e6b0" fill-rule="evenodd"/>
      <path id="Trazado_772140" data-name="Trazado 772140" d="M219.155,454.258l-1.949-.174c-8.436-.742-14.66-1.293-19.967-3.474,3.279,3.56,6.361,7.291,7.91,10.84a49.927,49.927,0,0,1,2.876,10.29c1.193,5.885,2.39,11.781,7.65,17.078l7.886-4.11c3.69-5.41,7.335-15.652,8.689-25.893.852-6.46.79-12.885-.763-18.032-.975,3.782-3.909,6.49-7.257,9.582-1.026.947-2.093,1.932-3.119,2.965a1.164,1.164,0,0,1-.3.219l-.975.564a1.176,1.176,0,0,1-.677.147Zm-1.754-2.466,1.594.144.585-.335c1.057-1.057,2.093-2.014,3.088-2.934,3.991-3.683,7.328-6.764,6.795-11.808a1.158,1.158,0,0,1,.133-.667l.246-.455a1.149,1.149,0,0,1,2.014-.007c3.348,6.018,3.813,14.711,2.671,23.387-1.419,10.738-5.318,21.54-9.243,27.142a1.128,1.128,0,0,1-.41.359l-8.829,4.606a1.149,1.149,0,0,1-1.368-.157c-6.289-5.943-7.6-12.417-8.908-18.873a48.059,48.059,0,0,0-2.732-9.821c-1.929-4.428-6.682-9.4-10.946-13.86-1.494-1.563-2.927-3.064-4.2-4.493l-.027-.031a1.152,1.152,0,1,1,1.686-1.57C196.592,449.946,204.153,450.616,217.4,451.793Z" transform="translate(-163.956 -370.4)" fill="#016f3a" fill-rule="evenodd"/>
      <path id="Trazado_772141" data-name="Trazado 772141" d="M258.875,464.7a1.153,1.153,0,1,1,2.1.947,93.18,93.18,0,0,1-4.969,8.546c-1.057,1.7-2.154,3.464-3.095,5.037a1.15,1.15,0,0,1-2.035-.116l-2.872-5.612-2.958,9.079a1.151,1.151,0,0,1-1.453.739l-12.81-5.529a1.154,1.154,0,0,1,.91-2.12l11.551,4.989,2.725-8.371a1.152,1.152,0,0,1,1.453-.739l.075.027a1.147,1.147,0,0,1,2.072-.055l2.435,4.753,2.042-3.3A91.992,91.992,0,0,0,258.875,464.7Z" transform="translate(-191.943 -389.407)" fill="#016f3a" fill-rule="evenodd"/>
      <path id="Trazado_772142" data-name="Trazado 772142" d="M269.17,523.658l8.877-4.63c-.147-1.306-.178-1.556-.325-2.777-.746-6.254-.968-12.964-1.713-19.639-.034-.3.284-2.842.643-5.475L274,485.95l-1.036.6-2.2,6.743a25.7,25.7,0,0,1,1.07,4.326c-.776,7.831-1.58,15.556-2.356,23.024C269.358,521.767,269.286,522.479,269.17,523.658Z" transform="translate(-217.66 -403.835)" fill="#33ab00" fill-rule="evenodd"/>
      <path id="Trazado_772143" data-name="Trazado 772143" d="M268.313,519.447l6.285-3.279-.236-1.99c-.383-3.225-.629-6.576-.879-9.979-.236-3.2-.475-6.456-.834-9.667a13.192,13.192,0,0,1,.147-1.891c.1-.889.27-2.158.451-3.509l-1.744-3.406-1.751,5.376c.277.937.544,1.888.732,2.65a6.554,6.554,0,0,1,.274,1.771q-1.123,11.341-2.247,21.988l-.2,1.936Zm8.053-1.6-8.857,4.62a1.139,1.139,0,0,1-.667.137,1.151,1.151,0,0,1-1.033-1.258l.417-4.062c.745-7.188,1.518-14.609,2.247-21.981,0-.051-.082-.438-.219-1-.195-.793-.5-1.843-.8-2.872a1.168,1.168,0,0,1,0-.7l2.2-6.743a1.169,1.169,0,0,1,.523-.64l1.087-.626a1.153,1.153,0,0,1,1.546.5l2.63,5.136a1.133,1.133,0,0,1,.144.732c-.185,1.354-.362,2.729-.489,3.82-.1.8-.15,1.33-.147,1.375.369,3.283.609,6.545.845,9.76.246,3.365.489,6.675.869,9.872l.325,2.787A1.163,1.163,0,0,1,276.366,517.843Z" transform="translate(-215.445 -401.628)" fill="#016f3a" fill-rule="evenodd"/>
      <path id="Trazado_772144" data-name="Trazado 772144" d="M277.75,512.718a1.15,1.15,0,1,1,1.963,1.2,3.449,3.449,0,0,1-2.438,1.73,6.232,6.232,0,0,1-3.273-.5,1.153,1.153,0,0,1,.821-2.154,4.127,4.127,0,0,0,2.055.38A1.264,1.264,0,0,0,277.75,512.718Z" transform="translate(-220.351 -421.086)" fill="#016f3a" fill-rule="evenodd"/>
      <path id="Trazado_772145" data-name="Trazado 772145" d="M203.6,499.32a1.15,1.15,0,1,1,2.117-.9l4.333,10.156a1.164,1.164,0,0,1,.048.766l-1.005,3.642,11.832,17.82A1.152,1.152,0,1,1,219,532.077l-12.119-18.257a1.129,1.129,0,0,1-.147-.94l1.043-3.768Z" transform="translate(-174.453 -411.58)" fill="#016f3a" fill-rule="evenodd"/>
      <path id="Trazado_772146" data-name="Trazado 772146" d="M260.368,346.063c5.2-2.985,10.372-6.087,15.6-9.007a2.342,2.342,0,0,1,1.853-.475l.082.024c.7.222,1.057.81,1.187,2.011.116,2.168.01,4.606.01,6.805a5.857,5.857,0,0,1-.256,1.645,7.634,7.634,0,0,1-.643,1.508l-.1.178a7.513,7.513,0,0,1-1,1.33,5.9,5.9,0,0,1-1.3,1.046l-8.59,4.955a5.1,5.1,0,0,1-2.018.691,3.322,3.322,0,0,1-2.014-.407l-.075-.048A3.231,3.231,0,0,1,262,355.166c-.055.256-.116.516-.195.773l-.017.051a10.834,10.834,0,0,1-.978,2.236,10.671,10.671,0,0,1-1.484,2.007,8.114,8.114,0,0,1-1.816,1.457l-8.662,5a3.645,3.645,0,0,1-1.429.465,2.6,2.6,0,0,1-1.563-.321l-.038-.024a2.594,2.594,0,0,1-1.036-1.18l-.034-.082a3.79,3.79,0,0,1-.277-1.467V357.4a3.652,3.652,0,0,1,.434-1.99l.055-.082a3.683,3.683,0,0,1,1.354-1.149l14.055-8.118Zm-.513,7.571v-4.616l-12.386,7.15a2.1,2.1,0,0,0-.568.4l-.017.031a1.819,1.819,0,0,0-.1.8v6.678a1.648,1.648,0,0,0,.082.561l.021.044a.415.415,0,0,0,.1.15l.027.014a.433.433,0,0,0,.188.017,1.434,1.434,0,0,0,.52-.181l8.631-4.986a5.732,5.732,0,0,0,1.3-1.053,8.261,8.261,0,0,0,1.159-1.566,8.538,8.538,0,0,0,.766-1.754l.014-.041a5.779,5.779,0,0,0,.26-1.645Zm16.243-13.99-12.376,7.147v5.947a2.821,2.821,0,0,0,.205,1.142,1.1,1.1,0,0,0,.369.472l.041.024a1.061,1.061,0,0,0,.633.113,2.8,2.8,0,0,0,1.1-.393l8.58-4.955a3.543,3.543,0,0,0,.776-.629,5.24,5.24,0,0,0,.694-.927l.034-.058a5.115,5.115,0,0,0,.482-1.111,3.558,3.558,0,0,0,.157-.988v-6.179Z" transform="translate(-201.407 -305.507)" fill="#016f3a" fill-rule="evenodd"/>
      <path id="Trazado_772147" data-name="Trazado 772147" d="M205,377.433a1.154,1.154,0,0,1-2.257-.486l.168-.769a2.771,2.771,0,0,1,.185-.554l.017-.038a2.422,2.422,0,0,1,1.4-1.276,3.18,3.18,0,0,1,1.758-.089l.109.027a4.088,4.088,0,0,1,.7.246l11.056,5a1.153,1.153,0,1,1-.947,2.1l-11.056-5-.356-.12a.952.952,0,0,0-.482,0,.168.168,0,0,0-.1.089Z" transform="translate(-173.93 -330.26)" fill="#016f3a" fill-rule="evenodd"/>
      <path id="Trazado_772148" data-name="Trazado 772148" d="M323.991,486.615a1.151,1.151,0,1,1-2.216-.622l5.564-19.765-1.518-1.768a1.164,1.164,0,0,1-.27-.612L323.957,454a1.15,1.15,0,0,1,2.271-.362l1.549,9.568,1.686,1.97a1.156,1.156,0,0,1,.256,1.084Z" transform="translate(-252.247 -381.935)" fill="#016f3a" fill-rule="evenodd"/>
    </g>
    <g id="Grupo_1054653" data-name="Grupo 1054653" transform="translate(174.728 101.171)">
      <path id="Trazado_772149" data-name="Trazado 772149" d="M461.989,381.6l-5.588-3.228-.308-.215-.27-.263-.243-.315-.2-.373-.164-.407-.116-.462-.075-.506-.017-.54V278.461l.017-.578.075-.592.116-.585.164-.605.2-.6.243-.6.27-.578.308-.571.345-.551.359-.533.4-.5.414-.482.434-.431.462-.407.469-.356.489-.3,10.214-5.9,6.084-3.509,30.506-17.618,5.314-3.064,10.991-6.343.479-.253.479-.191.462-.127.434-.072h.417l.4.044.363.109.342.164,5.588,3.218-.345-.154-.369-.109-.39-.044h-.414l-.444.072-.451.126-.469.191-.489.25-10.991,6.347-5.318,3.064-30.5,17.618-6.083,3.505-10.214,5.9-.489.308-.472.352-.451.407-.441.434-.417.469-.4.51-.362.53-.342.554-.308.568-.274.578-.232.6-.209.6-.161.6-.12.6-.072.588-.027.578v96.837l.027.54.072.506.12.451.161.417.209.369.232.308.274.27Z" transform="translate(-453.947 -232.053)" fill="#c2e6b0" fill-rule="evenodd"/>
      <path id="Trazado_772150" data-name="Trazado 772150" d="M522.97,232.117l-1.255.325-.39.209-64.313,37.356-1.447,1.754-1.228,2.63-.318,2.062.082,97.692.687,1.193,2.712,1.573-.017-.4V279.632l.236-1.97.957-2.613,1.529-2.36,1.447-1.457,1.094-.759L526.291,233.8l-3.32-1.686Zm-63.027,148.49a1.06,1.06,0,0,1-.533-.144l-6.371-3.861-.633-.93-.38-1.111-.127-1.275V276.4l.236-1.97.958-2.613,1.529-2.359,1.447-1.453,1.094-.759L521.4,230.28l1.128-.263.561-.017,1.067.2.506.215,5.659,3.262a1.063,1.063,0,0,1-.975,1.888l-.786-.226-1.248.325-.4.209L462.6,273.234l-1.446,1.754-1.231,2.63-.318,2.062.082,97.682.858,1.31a1.05,1.05,0,0,1,.291,1.436A1.031,1.031,0,0,1,459.943,380.607Z" transform="translate(-451.9 -230)" fill="#016f3a" fill-rule="evenodd"/>
      <path id="Trazado_772151" data-name="Trazado 772151" d="M539.2,351.019l-63.109,36.436c-2.63,1.518-4.774.28-4.774-2.746V287.872a10.555,10.555,0,0,1,4.774-8.262l10.214-5.9,6.084-3.509L522.9,252.582l5.314-3.064,10.991-6.347c2.619-1.518,4.764-.28,4.764,2.749v96.834A10.6,10.6,0,0,1,539.2,351.019Z" transform="translate(-464.679 -238.24)" fill="#c2e6b0" fill-rule="evenodd"/>
      <path id="Trazado_772152" data-name="Trazado 772152" d="M537.163,348.973h0Zm2.124-107.438a3.442,3.442,0,0,0-1.6.506l-63.109,36.446a9.522,9.522,0,0,0-4.23,7.339v96.834a2.424,2.424,0,0,0,.869,2.161,2.4,2.4,0,0,0,2.3-.335l63.109-36.436a9.514,9.514,0,0,0,4.24-7.339V243.877a2.406,2.406,0,0,0-.865-2.161,1.463,1.463,0,0,0-.718-.181Zm-67.36,145.591a3.464,3.464,0,0,1-1.782-.472,4.332,4.332,0,0,1-1.925-3.994V285.826a11.548,11.548,0,0,1,5.3-9.182l63.109-36.436a3.947,3.947,0,0,1,6.364,3.669v96.834a11.554,11.554,0,0,1-5.307,9.182h0l-63.106,36.44A5.38,5.38,0,0,1,471.927,387.125Z" transform="translate(-462.639 -236.193)" fill="#016f3a" fill-rule="evenodd"/>
      <path id="Trazado_772153" data-name="Trazado 772153" d="M496.85,307.156v92.2L554.283,366.2V274.01Q525.568,290.578,496.85,307.156Z" transform="translate(-481.479 -258.96)" fill="#fff" fill-rule="evenodd"/>
      <path id="Trazado_772154" data-name="Trazado 772154" d="M495.884,305.737v89.741l55.3-31.926V273.8l-55.3,31.932Zm-1.067,92.641a.973.973,0,0,1-.523-.144,1.049,1.049,0,0,1-.533-.92v-92.2a1.054,1.054,0,0,1,.533-.913l57.426-33.153a1.079,1.079,0,0,1,1.067,0,1.066,1.066,0,0,1,.523.923v92.186a1.061,1.061,0,0,1-.523.92l-57.433,33.153A.993.993,0,0,1,494.817,398.378Z" transform="translate(-479.445 -256.919)" fill="#016f3a" fill-rule="evenodd"/>
      <path id="Trazado_772155" data-name="Trazado 772155" d="M549.589,298.212v-9.445q10.546-6.089,21.1-12.184v9.455q-10.546,6.089-21.1,12.174Zm24.214-10.9v-15.6L546.47,287.492v15.59L573.8,287.31Z" transform="translate(-514.131 -257.447)" fill="#fff" fill-rule="evenodd"/>
      <path id="Trazado_772156" data-name="Trazado 772156" d="M548.622,287.351v7l18.972-10.956v-7l-18.972,10.956Zm-1.067,9.9a1.056,1.056,0,0,1-.533-.147,1.074,1.074,0,0,1-.534-.92v-9.445a1.08,1.08,0,0,1,.534-.923l21.1-12.184a1.1,1.1,0,0,1,1.067,0,1.059,1.059,0,0,1,.533.923v9.455a1.05,1.05,0,0,1-.533.913l-21.1,12.184a1.034,1.034,0,0,1-.534.144Zm24.214-11.969h0Zm-26.266.8,25.209-14.554v13.142L545.5,299.217V286.075Zm-1.067,16.045a1.093,1.093,0,0,1-.523-.144,1.059,1.059,0,0,1-.533-.923v-15.59a1.059,1.059,0,0,1,.533-.923l27.333-15.782a1.094,1.094,0,0,1,1.057,0,1.053,1.053,0,0,1,.534.92v15.6a1.05,1.05,0,0,1-.534.913L544.97,301.973A1.088,1.088,0,0,1,544.437,302.12Z" transform="translate(-512.097 -255.415)" fill="#016f3a" fill-rule="evenodd"/>
      <path id="Trazado_772157" data-name="Trazado 772157" d="M534.954,280.845l27.333-15.782-3.741-2.158-2.243-1.3L528.97,277.4Z" transform="translate(-502.615 -250.801)" fill="#fff" fill-rule="evenodd"/>
      <path id="Trazado_772158" data-name="Trazado 772158" d="M529.041,275.349l3.861,2.223,25.209-14.554-3.861-2.223-25.209,14.554Zm3.861,4.517a1.094,1.094,0,0,1-.523-.144l-5.984-3.461a1.048,1.048,0,0,1-.544-.913,1.068,1.068,0,0,1,.544-.923l27.333-15.782a1.043,1.043,0,0,1,1.057,0l5.984,3.454a1.063,1.063,0,0,1,0,1.843l-27.333,15.782A1.122,1.122,0,0,1,532.9,279.866Z" transform="translate(-500.562 -248.754)" fill="#016f3a" fill-rule="evenodd"/>
      <path id="Trazado_772159" data-name="Trazado 772159" d="M461.989,459.752l-5.588-3.228-.308-.215-.27-.263-.243-.315-.2-.373-.164-.407-.116-.462-.075-.506-.017-.54V356.609l.017-.578.075-.592.116-.6.164-.6.2-.6.243-.595.27-.578.308-.571.017-.027,5.588,3.228-.017.027-.308.568-.274.578-.232.6-.215.6-.154.6-.12.6-.072.588-.027.578v96.837l.027.54.072.506.12.451.154.417.215.369.232.308.274.27Z" transform="translate(-453.947 -310.202)" fill="#33ab00" fill-rule="evenodd"/>
      <path id="Trazado_772160" data-name="Trazado 772160" d="M454.807,351.341l-.615,1.761-.171,1.529.082,97.692.687,1.193,2.712,1.573-.017-.4V357.814l.236-1.97.831-2.349-3.745-2.154Zm5.136,107.445a1,1,0,0,1-.523-.144l-6.381-3.861-.633-.93-.38-1.122-.127-1.265V354.582l.236-1.97.958-2.613.335-.626a1.046,1.046,0,0,1,.65-.523,1.1,1.1,0,0,1,.831.082l5.588,3.228a1.087,1.087,0,0,1,.5.65,1.053,1.053,0,0,1-.116.8l-.947,2.178-.318,2.062.082,97.682.858,1.31a1.049,1.049,0,0,1,.3,1.436A1.077,1.077,0,0,1,459.943,458.785Z" transform="translate(-451.9 -308.178)" fill="#016f3a" fill-rule="evenodd"/>
      <path id="Trazado_772161" data-name="Trazado 772161" d="M528.97,310.841l2.667,1.539V324.9l3.317,1.915V311.22l-5.984-3.45Z" transform="translate(-502.615 -281.176)" fill="#c2e6b0" fill-rule="evenodd"/>
      <path id="Trazado_772162" data-name="Trazado 772162" d="M530.651,322.245l1.193.687V309.791l-3.857-2.233v.622l2.124,1.231a1.067,1.067,0,0,1,.544.92l0,11.914Zm2.25,3.587a1.094,1.094,0,0,1-.523-.144l-3.317-1.915a1.068,1.068,0,0,1-.544-.923v-11.9l-2.124-1.238a1.052,1.052,0,0,1-.544-.913v-3.074a1.072,1.072,0,0,1,1.6-.923l5.984,3.454a1.058,1.058,0,0,1,.533.923v15.59a1.059,1.059,0,0,1-.533.923A1.122,1.122,0,0,1,532.9,325.833Z" transform="translate(-500.562 -279.127)" fill="#016f3a" fill-rule="evenodd"/>
      <path id="Trazado_772163" data-name="Trazado 772163" d="M607.58,287.875v5.3l3.317,2.243V285.96Z" transform="translate(-554.343 -266.824)" fill="#fff" fill-rule="evenodd"/>
      <path id="Trazado_772164" data-name="Trazado 772164" d="M606.587,290.561l1.193.8v-5.6l-1.193.687v4.114Zm2.25,3.868a1.03,1.03,0,0,1-.588-.181L604.922,292a1.078,1.078,0,0,1-.472-.875v-5.3a1.059,1.059,0,0,1,.544-.923l3.317-1.915a1.077,1.077,0,0,1,1.057,0,1.058,1.058,0,0,1,.534.923v9.455a1.041,1.041,0,0,1-.571.93A.922.922,0,0,1,608.838,294.429Z" transform="translate(-552.284 -264.781)" fill="#016f3a" fill-rule="evenodd"/>
      <path id="Trazado_772165" data-name="Trazado 772165" d="M555.59,317.309l17.779-10.259,3.317,2.243-21.1,12.174Z" transform="translate(-520.132 -280.702)" fill="#fff" fill-rule="evenodd"/>
      <path id="Trazado_772166" data-name="Trazado 772166" d="M554.6,315.876v1.706l18.032-10.413-1.364-.92L554.6,315.876Zm-1.067,4.61a1.056,1.056,0,0,1-.533-.147,1.074,1.074,0,0,1-.533-.92V315.26a1.07,1.07,0,0,1,.533-.92l17.789-10.259a1.048,1.048,0,0,1,1.122.038l3.317,2.243a1.058,1.058,0,0,1-.065,1.8l-21.1,12.184A1.064,1.064,0,0,1,553.537,320.485Z" transform="translate(-518.079 -278.653)" fill="#016f3a" fill-rule="evenodd"/>
      <g id="Grupo_1054649" data-name="Grupo 1054649" transform="translate(54.845 36.918)">
        <path id="Trazado_772167" data-name="Trazado 772167" d="M625.75,346.279a.584.584,0,0,1-.51-.882l4.124-7.144a.583.583,0,0,1,.8-.215.589.589,0,0,1,.222.807l-4.124,7.144A.586.586,0,0,1,625.75,346.279Z" transform="translate(-620.758 -337.958)" fill="#016f3a" fill-rule="evenodd"/>
        <path id="Trazado_772168" data-name="Trazado 772168" d="M617,355.351a.607.607,0,0,1-.294-.075l-4.127-2.38a.594.594,0,0,1,.592-1.029l4.124,2.38a.6.6,0,0,1,.215.807A.583.583,0,0,1,617,355.351Z" transform="translate(-612.282 -347.061)" fill="#016f3a" fill-rule="evenodd"/>
      </g>
      <g id="Grupo_1054650" data-name="Grupo 1054650" transform="translate(54.845 53.489)">
        <path id="Trazado_772169" data-name="Trazado 772169" d="M625.75,394.739a.588.588,0,0,1-.294-.075.6.6,0,0,1-.215-.807l4.124-7.144a.583.583,0,0,1,.8-.215.589.589,0,0,1,.222.807l-4.124,7.144A.593.593,0,0,1,625.75,394.739Z" transform="translate(-620.758 -386.418)" fill="#016f3a" fill-rule="evenodd"/>
        <path id="Trazado_772170" data-name="Trazado 772170" d="M617,403.811a.608.608,0,0,1-.294-.075l-4.127-2.38a.594.594,0,0,1,.592-1.029l4.124,2.38a.6.6,0,0,1,.215.807A.583.583,0,0,1,617,403.811Z" transform="translate(-612.282 -395.521)" fill="#016f3a" fill-rule="evenodd"/>
      </g>
      <g id="Grupo_1054651" data-name="Grupo 1054651" transform="translate(54.845 70.061)">
        <path id="Trazado_772171" data-name="Trazado 772171" d="M625.75,443.2a.584.584,0,0,1-.51-.882l4.124-7.144a.583.583,0,0,1,.8-.215.589.589,0,0,1,.222.807l-4.124,7.144A.593.593,0,0,1,625.75,443.2Z" transform="translate(-620.758 -434.878)" fill="#016f3a" fill-rule="evenodd"/>
        <path id="Trazado_772172" data-name="Trazado 772172" d="M617,452.271a.607.607,0,0,1-.294-.075l-4.127-2.38a.594.594,0,0,1,.592-1.029l4.124,2.38a.6.6,0,0,1,.215.807A.583.583,0,0,1,617,452.271Z" transform="translate(-612.282 -443.981)" fill="#016f3a" fill-rule="evenodd"/>
      </g>
      <g id="Grupo_1054652" data-name="Grupo 1054652" transform="translate(54.845 86.629)">
        <path id="Trazado_772173" data-name="Trazado 772173" d="M625.75,491.649a.584.584,0,0,1-.51-.882l4.124-7.144a.583.583,0,0,1,.8-.215.589.589,0,0,1,.222.807l-4.124,7.144A.586.586,0,0,1,625.75,491.649Z" transform="translate(-620.758 -483.328)" fill="#016f3a" fill-rule="evenodd"/>
        <path id="Trazado_772174" data-name="Trazado 772174" d="M617,500.721a.608.608,0,0,1-.294-.075l-4.127-2.38a.594.594,0,0,1,.592-1.029l4.124,2.38a.6.6,0,0,1,.215.807A.576.576,0,0,1,617,500.721Z" transform="translate(-612.282 -492.431)" fill="#016f3a" fill-rule="evenodd"/>
      </g>
      <path id="Trazado_772175" data-name="Trazado 772175" d="M519.465,535.325a1.2,1.2,0,0,1-.6-2.233l40.4-23.383a1.2,1.2,0,0,1,1.2,2.072l-40.4,23.383A1.192,1.192,0,0,1,519.465,535.325Z" transform="translate(-495.572 -413.953)" fill="#016f3a"/>
      <path id="Trazado_772176" data-name="Trazado 772176" d="M519.465,485.255a1.2,1.2,0,0,1-.6-2.233l40.4-23.383a1.2,1.2,0,0,1,1.2,2.072l-40.4,23.383A1.228,1.228,0,0,1,519.465,485.255Z" transform="translate(-495.572 -381.005)" fill="#016f3a"/>
      <path id="Trazado_772177" data-name="Trazado 772177" d="M519.465,435.985a1.2,1.2,0,0,1-.6-2.233l40.4-23.383a1.2,1.2,0,0,1,1.2,2.072l-40.4,23.383A1.193,1.193,0,0,1,519.465,435.985Z" transform="translate(-495.572 -348.583)" fill="#016f3a"/>
      <path id="Trazado_772178" data-name="Trazado 772178" d="M519.465,388.335a1.2,1.2,0,0,1-.6-2.233l40.4-23.383a1.2,1.2,0,0,1,1.2,2.072l-40.4,23.383A1.192,1.192,0,0,1,519.465,388.335Z" transform="translate(-495.572 -317.228)" fill="#016f3a"/>
    </g>
  </g>
</svg>
