<svg xmlns="http://www.w3.org/2000/svg" xmlns:xlink="http://www.w3.org/1999/xlink" width="310.138" height="349.156" viewBox="0 0 310.138 349.156">
  <defs>
    <clipPath id="clip-path">
      <rect id="Rect치ngulo_362079" data-name="Rect치ngulo 362079" width="245.591" height="210.55" fill="#ffce40"/>
    </clipPath>
  </defs>
  <g id="Grupo_1069597" data-name="Grupo 1069597" transform="translate(-1064.408 -977.951)">
    <g id="Grupo_1054602" data-name="Grupo 1054602" transform="matrix(0.996, 0.087, -0.087, 0.996, 1129.89, 977.952)">
      <g id="Grupo_1054600" data-name="Grupo 1054600" transform="translate(0 -0.001)" clip-path="url(#clip-path)">
        <path id="Trazado_772115" data-name="Trazado 772115" d="M61.757,210.549A61.7,61.7,0,0,1,25.879,98.613L148.06,11.472a61.7,61.7,0,1,1,71.652,100.464L97.529,199.077a61.419,61.419,0,0,1-35.772,11.472" transform="translate(0 0.001)" fill="#ffce40"/>
      </g>
    </g>
    <g id="Grupo_1054599" data-name="Grupo 1054599" transform="translate(44.028 43.294)">
      <g id="Grupo_54798" transform="translate(1020.38 1008.211)">
        <g id="Grupo_54776" transform="translate(12.679 144.927)">
          <path id="Trazado_109855" d="M-74.391-4188.7c-11.509-6.687-30.236-6.687-41.819,0s-11.658,17.537-.142,24.223,30.236,6.687,41.827,0S-62.882-4182.017-74.391-4188.7Z" transform="translate(259.837 4209.243)" fill="#006e3c"/>
          <path id="Trazado_109856" d="M-286.716-4138.687c4.223-2.441,4.253-6.4.052-8.835a16.842,16.842,0,0,0-15.253,0c-4.223,2.433-4.238,6.4-.045,8.835A16.808,16.808,0,0,0-286.716-4138.687Z" transform="translate(305.095 4198.097)" fill="#006e3c"/>
          <path id="Trazado_109857" d="M45.464-4153.95c-4.4-2.583-11.561-2.583-15.994,0-4.433,2.56-4.448,6.679-.052,9.262s11.569,2.554,15.994,0S49.867-4151.367,45.464-4153.95Z" transform="translate(221.883 4199.739)" fill="#006e3c"/>
          <path id="Trazado_109858" d="M-161.158-4210.018a.837.837,0,0,0-.532-.532l-6.14-3.571a3,3,0,0,0-2.741,0l-127.412,73.567a.839.839,0,0,0-.532,1.056.836.836,0,0,0,.532.532l6.14,3.571a3,3,0,0,0,2.741,0l127.412-73.567a.836.836,0,0,0,.532-1.056Z" transform="translate(303.452 4214.453)" fill="#006e3c"/>
          <path id="Trazado_109859" d="M-17.282-4102.578c-11.7-6.746-30.588-6.746-42.209,0s-11.554,17.693.135,24.447,30.617,6.769,42.238,0S-5.593-4095.832-17.282-4102.578Z" transform="translate(245.572 4187.618)" fill="#006e3c"/>
          <path id="Trazado_109860" d="M-174.5-4084.451c-12.594-7.316-33.073-7.316-45.75,0s-12.744,19.161-.15,26.477,33.073,7.293,45.75,0S-161.91-4077.128-174.5-4084.451Z" transform="translate(286.181 4183.171)" fill="#006e3c"/>
        </g>
        <g id="freepik--Window--inject-12" transform="translate(206.502 0)">
          <path id="Trazado_109861" d="M-241.87-4215.4l2.411-1.4,25.466,14.646v2.786Z" transform="translate(244.655 4248.354)" fill="#f5f5f5"/>
          <path id="Trazado_109862" d="M-241.873-4214.93h0L-214-4198.9v3.182l-27.884-16.017Z" transform="translate(244.658 4247.884)" fill="#e0e0e0"/>
          <rect id="Rect치ngulo_5896" height="32.16" transform="translate(16.735 24.897)" fill="#e0e0e0"/>
          <path id="Trazado_109863" d="M-185.2-4182.811l2.411-1.4,25.466,14.646v2.793Z" transform="translate(230.419 4240.167)" fill="#f5f5f5"/>
          <path id="Trazado_109864" d="M-185.2-4182.33h0l27.877,16.039v3.174l-27.884-16.016Z" transform="translate(230.421 4239.693)" fill="#e0e0e0"/>
          <rect id="Rect치ngulo_5897" height="32.16" transform="translate(59.168 49.307)" fill="#e0e0e0"/>
          <path id="Trazado_109865" d="M-241.738-4251.15l2.411-1.4-.142,72.1-2.411,1.4Z" transform="translate(244.658 4257.334)" fill="#f0f0f0"/>
          <path id="Trazado_109866" d="M-241.88-4154.851l2.411-1.4,27.742,15.926-2.411,1.393Z" transform="translate(244.658 4233.143)" fill="#f5f5f5"/>
          <path id="Trazado_109867" d="M-245.433-4257.08l33.283,19.124-.157,78.479L-245.59-4178.6Zm30.355,92.818.142-72.1-27.772-15.919-.142,72.1,27.742,15.919" transform="translate(245.59 4258.473)" fill="#e0e0e0"/>
          <path id="Trazado_109868" d="M-245.38-4257.548l2.411-1.393,33.283,19.124-2.411,1.4Z" transform="translate(245.537 4258.94)" fill="#f5f5f5"/>
          <path id="Trazado_109869" d="M-200.983-4232l2.411-1.4-.157,78.479-2.411,1.392Z" transform="translate(234.423 4252.523)" fill="#f0f0f0"/>
          <path id="Trazado_109870" d="M-185.068-4218.551l2.411-1.4-.142,72.107-2.411,1.4Z" transform="translate(230.421 4249.145)" fill="#f0f0f0"/>
          <path id="Trazado_109871" d="M-185.21-4122.25l2.411-1.4,27.742,15.918-2.411,1.4Z" transform="translate(230.421 4224.952)" fill="#f5f5f5"/>
          <path id="Trazado_109872" d="M-188.765-4224.47l33.283,19.124-.157,78.479-33.291-19.124Zm30.355,92.819.142-72.1L-186-4219.663l-.142,72.107,27.742,15.919" transform="translate(231.356 4250.281)" fill="#e0e0e0"/>
          <path id="Trazado_109873" d="M-188.71-4224.94l2.411-1.4,33.283,19.124-2.411,1.4Z" transform="translate(231.3 4250.75)" fill="#f5f5f5"/>
          <path id="Trazado_109874" d="M-144.313-4199.4l2.411-1.4-.157,78.479-2.411,1.4Z" transform="translate(220.186 4244.334)" fill="#f0f0f0"/>
        </g>
        <g id="freepik--Plants--inject-12" transform="translate(0 137.82)">
          <path id="Trazado_109875" d="M-291.328-4158.33l10.221.3,10.221-.3c.442,6.9-.906,13.942-2.763,17.379h0a4.687,4.687,0,0,1-2.029,2.059,12.023,12.023,0,0,1-10.887,0,4.6,4.6,0,0,1-2.022-2.111C-290.437-4144.463-291.762-4151.457-291.328-4158.33Z" transform="translate(304.566 4201.984)" fill="#fff"/>
          <path id="Trazado_109876" d="M-288.283-4164.514c-4.006,2.314-4.028,6.065-.045,8.394a15.885,15.885,0,0,0,14.459,0c4.013-2.313,4.021-6.065.045-8.394A15.906,15.906,0,0,0-288.283-4164.514Z" transform="translate(304.539 4203.974)" fill="#ebebeb"/>
          <path id="Trazado_109877" d="M-285.948-4163.146c-3.122,1.8-3.137,4.725,0,6.536a12.417,12.417,0,0,0,11.277,0c3.122-1.8,3.145-4.731.037-6.536A12.453,12.453,0,0,0-285.948-4163.146Z" transform="translate(303.783 4203.535)" fill="#e0e0e0"/>
          <g id="Grupo_54777" transform="translate(15.489 39.032)" opacity="0.15">
            <path id="Trazado_109878" d="M-301.878-4203.294c-3.122,1.8-3.137,4.725,0,6.536a12.417,12.417,0,0,0,11.277,0c3.122-1.8,3.145-4.731.037-6.536A12.5,12.5,0,0,0-301.878-4203.294Z" transform="translate(304.225 4204.647)"/>
          </g>
          <path id="Trazado_109879" d="M-300.1-4216.63c23.04,7.548,23.249,22.958,18.083,33.942-1.3,2.224-5.279,3.414-8.723-10.244l6.05.779-7.053-3.579-1.857-5.459,5.878.441-7.458-3.137A110.339,110.339,0,0,0-300.1-4216.63Z" transform="translate(306.749 4216.63)" fill="#c2e6b0"/>
          <path id="Trazado_109880" d="M-300.1-4216.63c23.04,7.548,23.249,22.958,18.083,33.942-1.3,2.224-5.279,3.414-8.723-10.244l6.05.779-7.053-3.579-1.857-5.459,5.878.441-7.458-3.137A110.339,110.339,0,0,0-300.1-4216.63Z" transform="translate(306.749 4216.63)" opacity="0.2"/>
          <path id="Trazado_109881" d="M-300.1-4216.63c23.04,7.548,23.249,22.958,18.083,33.942-1.3,2.224-5.279,3.414-8.723-10.244l6.05.779-7.053-3.579-1.857-5.459,5.878.441-7.458-3.137A110.339,110.339,0,0,0-300.1-4216.63Z" transform="translate(306.749 4216.63)" fill="#fff" opacity="0.2"/>
          <path id="Trazado_109882" d="M-291.42-4211.45c12.153,9.232,13.246,19.8,9.816,30.842C-280.368-4190.342-279.058-4200.167-291.42-4211.45Z" transform="translate(304.569 4215.329)" fill="#fff"/>
          <path id="Trazado_109883" d="M-255.842-4195.7c-22.718,3.227-25.473,17.521-22.456,28.61.854,2.284,4.35,4.059,9.831-8.086l-5.766-.285,7.173-2.156,2.583-4.792-5.526-.547,7.465-1.707A104.835,104.835,0,0,1-255.842-4195.7Z" transform="translate(301.525 4211.372)" fill="#c2e6b0"/>
          <path id="Trazado_109884" d="M-255.842-4195.7c-22.718,3.227-25.473,17.521-22.456,28.61.854,2.284,4.35,4.059,9.831-8.086l-5.766-.285,7.173-2.156,2.583-4.792-5.526-.547,7.465-1.707A104.835,104.835,0,0,1-255.842-4195.7Z" transform="translate(301.525 4211.372)" fill="#fff" opacity="0.2"/>
          <path id="Trazado_109885" d="M-255.842-4195.7c-22.718,3.227-25.473,17.521-22.456,28.61.854,2.284,4.35,4.059,9.831-8.086l-5.766-.285,7.173-2.156,2.583-4.792-5.526-.547,7.465-1.707A104.835,104.835,0,0,1-255.842-4195.7Z" transform="translate(301.525 4211.372)" opacity="0.1"/>
          <path id="Trazado_109886" d="M-261.811-4192.34c-12.849,6.567-15.627,16.234-14.264,27.091C-275.6-4174.5-275.192-4183.879-261.811-4192.34Z" transform="translate(300.792 4210.527)" fill="#fff"/>
          <path id="Trazado_109887" d="M-308.98-4188.53c20.838.344,24.919,12.916,23.444,23.25-.509,2.208-3.459,4.148-9.764-6.185l5.167-.906-6.7-1.146-2.875-4.006,4.934-1.13-6.926-.682A96.35,96.35,0,0,0-308.98-4188.53Z" transform="translate(308.98 4209.57)" fill="#c2e6b0"/>
          <path id="Trazado_109888" d="M-300.53-4186.51c12.317,4.485,15.9,12.887,15.889,22.815C-286.109-4171.976-287.524-4180.377-300.53-4186.51Z" transform="translate(306.857 4209.063)" fill="#fff"/>
          <path id="Trazado_109889" d="M-308.98-4188.53c20.838.344,24.919,12.916,23.444,23.25-.509,2.208-3.459,4.148-9.764-6.185l5.167-.906-6.7-1.146-2.875-4.006,4.934-1.13-6.926-.682A96.35,96.35,0,0,0-308.98-4188.53Z" transform="translate(308.98 4209.57)" fill="#fff" opacity="0.2"/>
          <path id="Trazado_109890" d="M39.921-4165.64l10.73.308,10.722-.308c.464,7.241-.951,14.624-2.9,18.225h0a4.853,4.853,0,0,1-2.127,2.156,12.579,12.579,0,0,1-11.419,0,4.7,4.7,0,0,1-2.127-2.216C40.864-4151.091,39.464-4158.429,39.921-4165.64Z" transform="translate(221.35 4203.82)" fill="#fff"/>
          <path id="Trazado_109891" d="M43.128-4172.11c-4.2,2.418-4.223,6.357-.052,8.783a16.7,16.7,0,0,0,15.17,0c4.193-2.434,4.223-6.364.052-8.783A16.715,16.715,0,0,0,43.128-4172.11Z" transform="translate(221.317 4205.902)" fill="#ebebeb"/>
          <path id="Trazado_109892" d="M45.581-4170.7c-3.28,1.894-3.295,4.957-.037,6.851a13.023,13.023,0,0,0,11.831,0c3.28-1.9,3.295-4.957.037-6.851A13.072,13.072,0,0,0,45.581-4170.7Z" transform="translate(220.526 4205.445)" fill="#e0e0e0"/>
          <g id="Grupo_54778" transform="translate(263.634 33.334)" opacity="0.15">
            <path id="Trazado_109893" d="M-225.579-4204.978c-3.28,1.895-3.295,4.958-.037,6.852a13.024,13.024,0,0,0,11.831,0c3.28-1.9,3.295-4.957.037-6.852A13.029,13.029,0,0,0-225.579-4204.978Z" transform="translate(228.049 4206.397)"/>
          </g>
          <path id="Trazado_109894" d="M56.948-4200.006c1.745-2.172,3.766-4.111,5.369-6.387,1.093-1.558,2-3.452,1.542-5.293a4.737,4.737,0,0,0-3.751-3.31,7.215,7.215,0,0,0-5.039,1.124,15.512,15.512,0,0,0-3.811,3.624,37.846,37.846,0,0,0-7.974,27.023,5.657,5.657,0,0,0,1,3.115,3.1,3.1,0,0,0,3.227.98c2.928-.868,2.538-4.814,3.018-7.136A32.242,32.242,0,0,1,56.986-4200Z" transform="translate(220.526 4216.24)" fill="#c2e6b0"/>
          <path id="Trazado_109895" d="M56.948-4200.006c1.745-2.172,3.766-4.111,5.369-6.387,1.093-1.558,2-3.452,1.542-5.293a4.737,4.737,0,0,0-3.751-3.31,7.215,7.215,0,0,0-5.039,1.124,15.512,15.512,0,0,0-3.811,3.624,37.846,37.846,0,0,0-7.974,27.023,5.657,5.657,0,0,0,1,3.115,3.1,3.1,0,0,0,3.227.98c2.928-.868,2.538-4.814,3.018-7.136A32.242,32.242,0,0,1,56.986-4200Z" transform="translate(220.526 4216.24)" fill="#fff" opacity="0.2"/>
          <path id="Trazado_109896" d="M48.617-4181.23a.264.264,0,0,0,.21-.24c.21-4.695,1.73-20.666,12.759-29.779a.255.255,0,0,0,.082-.352.255.255,0,0,0-.352-.082c-.007,0-.007.007-.015.007a.188.188,0,0,0-.045.037c-11.194,9.218-12.737,25.406-12.916,30.146a.246.246,0,0,0,.24.262Z" transform="translate(219.213 4215.397)" fill="#f0f0f0"/>
          <path id="Trazado_109897" d="M46.445-4176.472a7.793,7.793,0,0,0,3.579,4.964,10.086,10.086,0,0,0,5.421.914,23.547,23.547,0,0,0,5.5-1.295c.884-.3,1.864-.7,1.939-1.8a1.944,1.944,0,0,0-.644-1.542,6.791,6.791,0,0,0-.569-.487.562.562,0,0,1-.12-.786.585.585,0,0,1,.427-.232,13.818,13.818,0,0,0,1.565-.194,7,7,0,0,0,3.295-1.49,5.41,5.41,0,0,0,1.52-2.253,2.122,2.122,0,0,0-.21-2.209,2.468,2.468,0,0,0-1.22-.532c-.4-.082-.786-.157-1.183-.217a.525.525,0,0,1-.434-.6.525.525,0,0,1,.322-.4l1.662-.689a3.279,3.279,0,0,0,1.3-.779,2.749,2.749,0,0,0,.314-2.291c-.2-1.048-.562-2.044-.809-3.077a6.6,6.6,0,0,1-.112-3.152,26.569,26.569,0,0,0-9.322.644,6.781,6.781,0,0,0-2.546,1.108,3.784,3.784,0,0,0-1.2,3.43.236.236,0,0,1-.225.254.227.227,0,0,1-.225-.127l-1.071-1.939a1.29,1.29,0,0,0-1.655-.531,7.636,7.636,0,0,0-2.434,1.939,4.225,4.225,0,0,0-1.041,3.115,26.962,26.962,0,0,0,.779,4.567.421.421,0,0,1-.329.5.421.421,0,0,1-.314-.06l-.045-.037a1.465,1.465,0,0,0-1.011-.292c-.936.12-1.176,1.071-1.243,1.879A15.33,15.33,0,0,0,46.445-4176.472Z" transform="translate(219.775 4211.14)" fill="#c2e6b0"/>
          <path id="Trazado_109898" d="M46.445-4176.472a7.793,7.793,0,0,0,3.579,4.964,10.086,10.086,0,0,0,5.421.914,23.547,23.547,0,0,0,5.5-1.295c.884-.3,1.864-.7,1.939-1.8a1.944,1.944,0,0,0-.644-1.542,6.791,6.791,0,0,0-.569-.487.562.562,0,0,1-.12-.786.585.585,0,0,1,.427-.232,13.818,13.818,0,0,0,1.565-.194,7,7,0,0,0,3.295-1.49,5.41,5.41,0,0,0,1.52-2.253,2.122,2.122,0,0,0-.21-2.209,2.468,2.468,0,0,0-1.22-.532c-.4-.082-.786-.157-1.183-.217a.525.525,0,0,1-.434-.6.525.525,0,0,1,.322-.4l1.662-.689a3.279,3.279,0,0,0,1.3-.779,2.749,2.749,0,0,0,.314-2.291c-.2-1.048-.562-2.044-.809-3.077a6.6,6.6,0,0,1-.112-3.152,26.569,26.569,0,0,0-9.322.644,6.781,6.781,0,0,0-2.546,1.108,3.784,3.784,0,0,0-1.2,3.43.236.236,0,0,1-.225.254.227.227,0,0,1-.225-.127l-1.071-1.939a1.29,1.29,0,0,0-1.655-.531,7.636,7.636,0,0,0-2.434,1.939,4.225,4.225,0,0,0-1.041,3.115,26.962,26.962,0,0,0,.779,4.567.421.421,0,0,1-.329.5.421.421,0,0,1-.314-.06l-.045-.037a1.465,1.465,0,0,0-1.011-.292c-.936.12-1.176,1.071-1.243,1.879A15.33,15.33,0,0,0,46.445-4176.472Z" transform="translate(219.775 4211.14)" opacity="0.2"/>
          <path id="Trazado_109899" d="M46.445-4176.472a7.793,7.793,0,0,0,3.579,4.964,10.086,10.086,0,0,0,5.421.914,23.547,23.547,0,0,0,5.5-1.295c.884-.3,1.864-.7,1.939-1.8a1.944,1.944,0,0,0-.644-1.542,6.791,6.791,0,0,0-.569-.487.562.562,0,0,1-.12-.786.585.585,0,0,1,.427-.232,13.818,13.818,0,0,0,1.565-.194,7,7,0,0,0,3.295-1.49,5.41,5.41,0,0,0,1.52-2.253,2.122,2.122,0,0,0-.21-2.209,2.468,2.468,0,0,0-1.22-.532c-.4-.082-.786-.157-1.183-.217a.525.525,0,0,1-.434-.6.525.525,0,0,1,.322-.4l1.662-.689a3.279,3.279,0,0,0,1.3-.779,2.749,2.749,0,0,0,.314-2.291c-.2-1.048-.562-2.044-.809-3.077a6.6,6.6,0,0,1-.112-3.152,26.569,26.569,0,0,0-9.322.644,6.781,6.781,0,0,0-2.546,1.108,3.784,3.784,0,0,0-1.2,3.43.236.236,0,0,1-.225.254.227.227,0,0,1-.225-.127l-1.071-1.939a1.29,1.29,0,0,0-1.655-.531,7.636,7.636,0,0,0-2.434,1.939,4.225,4.225,0,0,0-1.041,3.115,26.962,26.962,0,0,0,.779,4.567.421.421,0,0,1-.329.5.421.421,0,0,1-.314-.06l-.045-.037a1.465,1.465,0,0,0-1.011-.292c-.936.12-1.176,1.071-1.243,1.879A15.33,15.33,0,0,0,46.445-4176.472Z" transform="translate(219.775 4211.14)" fill="#fff" opacity="0.2"/>
          <path id="Trazado_109900" d="M53.158-4171.245a37.214,37.214,0,0,1,2.508-7.263.278.278,0,0,1,.09-.194c.06-.12.112-.254.172-.375a23.468,23.468,0,0,0-2.486-8.312.263.263,0,0,1,.127-.345.267.267,0,0,1,.322.083,23.952,23.952,0,0,1,2.449,7.75,33.968,33.968,0,0,1,10.73-12.864.252.252,0,0,1,.352.067.251.251,0,0,1-.052.352h0a33.733,33.733,0,0,0-10.857,13.269,15.525,15.525,0,0,1,8.88-1.206.255.255,0,0,1,.21.292.254.254,0,0,1-.21.209h-.1a15.253,15.253,0,0,0-9.143,1.468,37.015,37.015,0,0,0-2.493,7.195.247.247,0,0,1-.2.2h-.1a.254.254,0,0,1-.2-.3Z" transform="translate(218.004 4210.645)" fill="#f0f0f0"/>
        </g>
        <g id="freepik--Board--inject-12" transform="translate(16.821 3.488)">
          <path id="Trazado_109901" d="M-120.752-4068.386a8.042,8.042,0,0,1-7.278,0,2.592,2.592,0,0,1-1.52-2.1h0v2.98a2.582,2.582,0,0,0,1.52,2.1,8.045,8.045,0,0,0,7.278,0,2.522,2.522,0,0,0,1.49-2.1v-2.98A2.54,2.54,0,0,1-120.752-4068.386Z" transform="translate(260.039 4210.801)" fill="#33ab00"/>
          <path id="Trazado_109902" d="M-128.034-4069.387a8.043,8.043,0,0,0,7.278,0,2.521,2.521,0,0,0,1.49-2.1,2.579,2.579,0,0,0-1.52-2.112,8.026,8.026,0,0,0-7.271,0,2.218,2.218,0,0,0-1.385,2.831,2.216,2.216,0,0,0,1.385,1.385Z" transform="translate(260.043 4211.802)" fill="#33ab00"/>
          <path id="Trazado_109903" d="M-128.034-4069.387a8.043,8.043,0,0,0,7.278,0,2.521,2.521,0,0,0,1.49-2.1,2.579,2.579,0,0,0-1.52-2.112,8.026,8.026,0,0,0-7.271,0,2.218,2.218,0,0,0-1.385,2.831,2.216,2.216,0,0,0,1.385,1.385Z" transform="translate(260.043 4211.802)" fill="#fff" opacity="0.3"/>
          <path id="Trazado_109904" d="M-124.62-4252.94v136.277h0a.735.735,0,0,0,.434.592,2.268,2.268,0,0,0,2.059,0,.714.714,0,0,0,.419-.592V-4252.94Z" transform="translate(258.801 4256.637)" fill="#33ab00"/>
          <path id="Trazado_109905" d="M-290.54-4184.153v110.16l124.349-71.725V-4256.23Z" transform="translate(300.484 4257.464)" fill="#c2e6b0"/>
          <path id="Trazado_109906" d="M-290.54-4184.153v110.16l124.349-71.725V-4256.23Z" transform="translate(300.484 4257.464)" fill="#fff" opacity="0.2"/>
          <path id="Trazado_109907" d="M-288.2-4161.848a5.122,5.122,0,0,1,2.321,4.021c0,1.483-1.048,2.074-2.336,1.333a5.1,5.1,0,0,1-2.321-4.021C-290.533-4162-289.492-4162.589-288.2-4161.848Z" transform="translate(300.484 4233.833)" fill="#c2e6b0"/>
          <path id="Trazado_109908" d="M-160.835-4254.166v-.457h0v-.277h0v-.052a.22.22,0,0,0-.03-.12c-.03-.038,0-.06,0-.09h0a.561.561,0,0,0-.037-.12l-.037-.12v-.038l-.03-.075a.721.721,0,0,0-.045-.112.273.273,0,0,0-.03-.082h0c0-.03-.03-.067-.052-.112l-.06-.12h0a.406.406,0,0,1-.052-.1l-.067-.12-.03-.067h0c0-.038-.045-.067-.067-.1a1.734,1.734,0,0,0-.09-.15h0a2.086,2.086,0,0,0-.15-.21h0a.667.667,0,0,0-.1-.135,1.064,1.064,0,0,0-.082-.112h0l-.082-.105a.594.594,0,0,1-.09-.1h0a.578.578,0,0,1-.067-.067l-.1-.1h-.03l-.045-.045-.1-.089-.045-.038h-.03l-.1-.075-.075-.052h0l-.1-.067-.1-.067h0l-.067-.038-.1-.052H-163l-.09-.038h-.786a.416.416,0,0,0-.135,0h-.03a.612.612,0,0,0-.127.038h0l-.18.082-125.263,71.688a.981.981,0,0,1,.18-.083l.142-.045h.412l.195.03h0a1.022,1.022,0,0,1,.2.06h0l.217.09h0l.232.12a2.4,2.4,0,0,1,.232.15h0l.21.165h0a2.254,2.254,0,0,1,.2.172h0l.195.194h0l.2.225h0a3.079,3.079,0,0,1,.187.247h0l.165.232.1.15.075.127v.06a1.99,1.99,0,0,1,.12.217h0c.045.089.09.18.127.269h0l.112.27h0a1.7,1.7,0,0,0,.09.277h0a1.555,1.555,0,0,0,.067.27h0a1.7,1.7,0,0,0,.052.27h0a1.616,1.616,0,0,1,0,.27h0v.262a1.529,1.529,0,0,1,0,.262h0v.217h0a1.822,1.822,0,0,1-.045.194h0a.634.634,0,0,1-.067.165h0l-.1.165h0c-.03.045-.06.082-.09.12l-.037.038a.451.451,0,0,1-.082.083l-.037.029-.135.1h0l125-71.913.135-.09h.037a.8.8,0,0,0,.082-.082l.037-.045a.453.453,0,0,0,.09-.12h0a1.587,1.587,0,0,0,.082-.157h0c0-.037.03-.067.045-.112v-.06h0v-.195h0v-.495h0Z" transform="translate(300.25 4257.877)" fill="#c2e6b0"/>
          <path id="Trazado_109909" d="M-160.835-4254.166v-.457h0v-.277h0v-.052a.22.22,0,0,0-.03-.12c-.03-.038,0-.06,0-.09h0a.561.561,0,0,0-.037-.12l-.037-.12v-.038l-.03-.075a.721.721,0,0,0-.045-.112.273.273,0,0,0-.03-.082h0c0-.03-.03-.067-.052-.112l-.06-.12h0a.406.406,0,0,1-.052-.1l-.067-.12-.03-.067h0c0-.038-.045-.067-.067-.1a1.734,1.734,0,0,0-.09-.15h0a2.086,2.086,0,0,0-.15-.21h0a.667.667,0,0,0-.1-.135,1.064,1.064,0,0,0-.082-.112h0l-.082-.105a.594.594,0,0,1-.09-.1h0a.578.578,0,0,1-.067-.067l-.1-.1h-.03l-.045-.045-.1-.089-.045-.038h-.03l-.1-.075-.075-.052h0l-.1-.067-.1-.067h0l-.067-.038-.1-.052H-163l-.09-.038h-.786a.416.416,0,0,0-.135,0h-.03a.612.612,0,0,0-.127.038h0l-.18.082-125.263,71.688a.981.981,0,0,1,.18-.083l.142-.045h.412l.195.03h0a1.022,1.022,0,0,1,.2.06h0l.217.09h0l.232.12a2.4,2.4,0,0,1,.232.15h0l.21.165h0a2.254,2.254,0,0,1,.2.172h0l.195.194h0l.2.225h0a3.079,3.079,0,0,1,.187.247h0l.165.232.1.15.075.127v.06a1.99,1.99,0,0,1,.12.217h0c.045.089.09.18.127.269h0l.112.27h0a1.7,1.7,0,0,0,.09.277h0a1.555,1.555,0,0,0,.067.27h0a1.7,1.7,0,0,0,.052.27h0a1.616,1.616,0,0,1,0,.27h0v.262a1.529,1.529,0,0,1,0,.262h0v.217h0a1.822,1.822,0,0,1-.045.194h0a.634.634,0,0,1-.067.165h0l-.1.165h0c-.03.045-.06.082-.09.12l-.037.038a.451.451,0,0,1-.082.083l-.037.029-.135.1h0l125-71.913.135-.09h.037a.8.8,0,0,0,.082-.082l.037-.045a.453.453,0,0,0,.09-.12h0a1.587,1.587,0,0,0,.082-.157h0c0-.037.03-.067.045-.112v-.06h0v-.195h0v-.495h0Z" transform="translate(300.25 4257.877)" fill="#fff" opacity="0.4"/>
          <path id="Trazado_109910" d="M-288.619-3971.459a8.023,8.023,0,0,1-7.271,0,2.593,2.593,0,0,1-1.52-2.111h0v2.98a2.568,2.568,0,0,0,1.52,2.1,8.029,8.029,0,0,0,7.271,0,2.583,2.583,0,0,0,1.5-2.1v-2.98A2.574,2.574,0,0,1-288.619-3971.459Z" transform="translate(302.21 4186.453)" fill="#33ab00"/>
          <path id="Trazado_109911" d="M-295.882-3972.457a8.026,8.026,0,0,0,7.271,0,2.218,2.218,0,0,0,1.385-2.83,2.216,2.216,0,0,0-1.385-1.385,8.042,8.042,0,0,0-7.278,0,2.521,2.521,0,0,0-1.49,2.1A2.578,2.578,0,0,0-295.882-3972.457Z" transform="translate(302.202 4187.45)" fill="#33ab00"/>
          <path id="Trazado_109912" d="M-295.882-3972.457a8.026,8.026,0,0,0,7.271,0,2.218,2.218,0,0,0,1.385-2.83,2.216,2.216,0,0,0-1.385-1.385,8.042,8.042,0,0,0-7.278,0,2.521,2.521,0,0,0-1.49,2.1A2.578,2.578,0,0,0-295.882-3972.457Z" transform="translate(302.202 4187.45)" fill="#fff" opacity="0.3"/>
          <path id="Trazado_109913" d="M-292.48-4156.01v136.277h0a.713.713,0,0,0,.427.592,2.269,2.269,0,0,0,2.059,0,.737.737,0,0,0,.427-.592V-4156.01Z" transform="translate(300.971 4232.286)" fill="#33ab00"/>
          <path id="Trazado_109914" d="M-302.712-4151.318a2.442,2.442,0,0,1,1.1,1.938c0,.7-.494.981-1.108.644a2.406,2.406,0,0,1-1.1-1.9C-303.82-4151.379-303.318-4151.664-302.712-4151.318Z" transform="translate(303.82 4231.143)" fill="#33ab00"/>
          <path id="Trazado_109915" d="M-290.541-4157.815v-.217h0v-.285h0v-.12h0v-.09h0v-.112h0v-.105h0v-.052l-.045-.075h0l-.067-.1h0l-.045-.068c-.015-.015-.037-.029-.045-.052h0l-.045-.052-.037-.045h0v-.03l-.052-.045h0l-.052-.045h0l-.052-.037h-.045l-.052-.03h-1.22a.268.268,0,0,0-.082.037l-10.977,6.364.082-.037h.449l.1.037h0l.112.053.112.067h0l.1.074h0l.1.083h0l.09.1h0a.577.577,0,0,1,.09.1h0l.09.12h0a.889.889,0,0,1,.067.112l.045.067.037.067h0a.761.761,0,0,0,.052.1h0l.06.12h0a.136.136,0,0,0,.052.127h0c.015.044.03.082.045.127h0l.037.127h0v.128h0v.509h0v.09h0a.7.7,0,0,1-.03.075h0a.075.075,0,0,1-.045.082h0l-.045.06h0l-.045.038h0l-.06.045h0l10.977-6.372.067-.045h0l.037-.037h0l.037-.06h0l.037-.068h0v-.052h0v-.673h0Z" transform="translate(303.704 4233.132)" fill="#33ab00"/>
          <path id="Trazado_109916" d="M-290.541-4157.815v-.217h0v-.285h0v-.12h0v-.09h0v-.112h0v-.105h0v-.052l-.045-.075h0l-.067-.1h0l-.045-.068c-.015-.015-.037-.029-.045-.052h0l-.045-.052-.037-.045h0v-.03l-.052-.045h0l-.052-.045h0l-.052-.037h-.045l-.052-.03h-1.22a.268.268,0,0,0-.082.037l-10.977,6.364.082-.037h.449l.1.037h0l.112.053.112.067h0l.1.074h0l.1.083h0l.09.1h0a.577.577,0,0,1,.09.1h0l.09.12h0a.889.889,0,0,1,.067.112l.045.067.037.067h0a.761.761,0,0,0,.052.1h0l.06.12h0a.136.136,0,0,0,.052.127h0c.015.044.03.082.045.127h0l.037.127h0v.128h0v.509h0v.09h0a.7.7,0,0,1-.03.075h0a.075.075,0,0,1-.045.082h0l-.045.06h0l-.045.038h0l-.06.045h0l10.977-6.372.067-.045h0l.037-.037h0l.037-.06h0l.037-.068h0v-.052h0v-.673h0Z" transform="translate(303.704 4233.132)" fill="#fff" opacity="0.3"/>
          <path id="Trazado_109917" d="M-261.071-4162.12l.03,8.94-17.589,10.153-.03-8.94Z" transform="translate(297.499 4233.82)" fill="#fff"/>
          <g id="Grupo_54779" transform="translate(37.266 119.482)" opacity="0.7">
            <path id="Trazado_109918" d="M-274.784-4221.19l.022,8.948-17.589,10.154-.03-8.949Z" transform="translate(292.38 4221.19)" fill="#fff"/>
          </g>
          <path id="Trazado_109919" d="M-236.489-4111.29l.03,8.948-17.566,10.146-.045-8.94Z" transform="translate(291.322 4221.051)" fill="#c2e6b0"/>
          <path id="Trazado_109920" d="M-236.529-4124.271l.03,8.94-17.574,10.146-.037-8.933Z" transform="translate(291.332 4224.313)" fill="#c2e6b0"/>
          <g id="Grupo_54780" transform="translate(37.191 90.318)" opacity="0.5">
            <path id="Trazado_109921" d="M-274.811-4230.141l.022,8.955-17.574,10.139-.037-8.94Z" transform="translate(292.4 4230.141)" fill="#fff"/>
          </g>
          <g id="Grupo_54781" transform="translate(37.166 80.594)" opacity="0.5">
            <path id="Trazado_109922" d="M-274.811-4233.13l.022,8.948-17.566,10.146-.045-8.94Z" transform="translate(292.4 4233.13)" fill="#fff"/>
          </g>
          <g id="Grupo_54782" transform="translate(37.139 70.877)" opacity="0.5">
            <path id="Trazado_109923" d="M-274.829-4236.11l.03,8.948-17.566,10.139-.045-8.933Z" transform="translate(292.41 4236.11)" fill="#fff"/>
          </g>
          <path id="Trazado_109924" d="M-236.671-4176.2l.022,8.941-17.574,10.145-.037-8.933Z" transform="translate(291.369 4237.358)" fill="#fff"/>
          <path id="Trazado_109925" d="M-212.279-4190.29l.03,8.94-17.574,10.146-.037-8.933Z" transform="translate(285.24 4240.898)" fill="#fff"/>
          <path id="Trazado_109926" d="M-187.889-4204.371l.03,8.949-17.566,10.138-.045-8.934Z" transform="translate(279.112 4244.435)" fill="#fff"/>
          <path id="Trazado_109927" d="M-163.491-4218.46l.022,8.948-17.566,10.139-.045-8.934Z" transform="translate(272.985 4247.975)" fill="#fff"/>
          <g id="Grupo_54783" transform="translate(110.204 28.68)" opacity="0.7">
            <path id="Trazado_109928" d="M-252.376-4249.061l.03,8.955-17.6,10.154-.037-8.94Z" transform="translate(269.98 4249.061)" fill="#fff"/>
          </g>
          <path id="Trazado_109929" d="M-139.079-4232.561l.022,8.948-17.589,10.161-.045-8.933Z" transform="translate(266.857 4251.518)" fill="#fff"/>
          <path id="Trazado_109930" d="M-261.031-4149.141l.03,8.956-17.589,10.153-.03-8.956Z" transform="translate(297.489 4230.561)" fill="#fff"/>
          <g id="Grupo_54784" transform="translate(55.458 79.775)" opacity="0.5">
            <path id="Trazado_109931" d="M-269.209-4233.38l.03,8.948-17.574,10.138-.037-8.933Z" transform="translate(286.79 4233.38)" fill="#fff"/>
          </g>
          <g id="Grupo_54785" transform="translate(55.438 70.053)" opacity="0.5">
            <path id="Trazado_109932" d="M-269.209-4236.36l.03,8.948-17.574,10.146-.037-8.94Z" transform="translate(286.79 4236.36)" fill="#fff"/>
          </g>
          <g id="Grupo_54786" transform="translate(55.406 60.328)" opacity="0.5">
            <path id="Trazado_109933" d="M-269.219-4239.351l.03,8.948-17.566,10.138-.045-8.933Z" transform="translate(286.8 4239.351)" fill="#fff"/>
          </g>
          <g id="Grupo_54787" transform="translate(73.698 59.504)" opacity="0.5">
            <path id="Trazado_109934" d="M-263.609-4239.6l.03,8.948-17.574,10.146-.037-8.94Z" transform="translate(281.19 4239.6)" fill="#fff"/>
          </g>
          <g id="Grupo_54788" transform="translate(73.67 49.787)" opacity="0.5">
            <path id="Trazado_109935" d="M-263.611-4242.58l.022,8.948-17.574,10.146-.037-8.94Z" transform="translate(281.2 4242.58)" fill="#fff"/>
          </g>
          <g id="Grupo_54789" transform="translate(91.992 58.685)" opacity="0.7">
            <path id="Trazado_109936" d="M-257.989-4239.85l.03,8.948-17.566,10.146-.045-8.94Z" transform="translate(275.57 4239.85)" fill="#fff"/>
          </g>
          <g id="Grupo_54790" transform="translate(91.965 48.956)" opacity="0.7">
            <path id="Trazado_109937" d="M-258-4242.84l.03,8.948-17.574,10.146-.037-8.933Z" transform="translate(275.58 4242.84)" fill="#fff"/>
          </g>
          <g id="Grupo_54791" transform="translate(91.932 39.239)" opacity="0.7">
            <path id="Trazado_109938" d="M-258-4245.82l.03,8.948-17.574,10.146-.045-8.94Z" transform="translate(275.59 4245.82)" fill="#fff"/>
          </g>
          <path id="Trazado_109939" d="M-260.991-4136.15l.03,8.948-17.589,10.154-.03-8.948Z" transform="translate(297.479 4227.296)" fill="#fff"/>
          <path id="Trazado_109940" d="M-260.851-4084.221l.03,8.948-17.589,10.153-.03-8.948Z" transform="translate(297.444 4214.25)" fill="#fff"/>
          <path id="Trazado_109941" d="M-260.891-4097.2l.03,8.948L-278.45-4078.1l-.03-8.948Z" transform="translate(297.454 4217.511)" fill="#fff"/>
          <path id="Trazado_109942" d="M-260.919-4110.181l.03,8.94-17.589,10.154-.022-8.941Z" transform="translate(297.459 4220.772)" fill="#fff"/>
          <path id="Trazado_109943" d="M-260.964-4123.17l.022,8.948-17.589,10.153-.03-8.948Z" transform="translate(297.474 4224.036)" fill="#fff"/>
          <g id="Grupo_54792" transform="translate(73.745 78.951)" opacity="0.7">
            <path id="Trazado_109944" d="M-263.591-4233.63l.022,8.948-17.566,10.139-.045-8.933Z" transform="translate(281.18 4233.63)" fill="#fff"/>
          </g>
          <g id="Grupo_54793" transform="translate(73.725 69.234)" opacity="0.5">
            <path id="Trazado_109945" d="M-263.6-4236.61l.03,8.948-17.574,10.139-.037-8.933Z" transform="translate(281.18 4236.61)" fill="#fff"/>
          </g>
          <path id="Trazado_109946" d="M-212.141-4138.35l.03,8.948-17.574,10.139-.045-8.933Z" transform="translate(285.207 4227.849)" fill="#c2e6b0"/>
          <g id="Grupo_54794" transform="translate(55.513 99.216)" opacity="0.7">
            <path id="Trazado_109947" d="M-269.181-4227.411l.022,8.949-17.566,10.146-.045-8.941Z" transform="translate(286.77 4227.411)" fill="#fff"/>
          </g>
          <path id="Trazado_109948" d="M-269.8-4149.179c.172.1.292.337.292.875h0a2.367,2.367,0,0,1-1.011,2.074.851.851,0,0,1-.644.135c-.06,0-.1-.052-.1-.135a.44.44,0,0,1,.195-.337.164.164,0,0,1,.12,0,.588.588,0,0,0,.434-.083,1.41,1.41,0,0,0,.569-1.183,1.4,1.4,0,0,1-.554.606c-.5.292-.839.143-.839-.381h0a1.8,1.8,0,0,1,.876-1.452C-270.164-4149.254-269.97-4149.276-269.8-4149.179Zm-.15.726h0c0-.277-.195-.389-.494-.217a.962.962,0,0,0-.457.749h0c0,.285.195.382.487.209a.958.958,0,0,0,.487-.764" transform="translate(295.66 4230.584)" fill="#c2e6b0"/>
          <path id="Trazado_109949" d="M-266.833-4150.89c.172.1.285.337.292.876h0a2.372,2.372,0,0,1-1.011,2.067.888.888,0,0,1-.644.142.125.125,0,0,1-.1-.142.427.427,0,0,1,.2-.337.136.136,0,0,1,.112,0,.58.58,0,0,0,.442-.09,1.392,1.392,0,0,0,.569-1.183,1.5,1.5,0,0,1-.554.606c-.5.292-.839.15-.839-.375h0a1.784,1.784,0,0,1,.876-1.445C-267.192-4150.972-267-4150.987-266.833-4150.89Zm-.157.727h0c0-.284-.195-.4-.494-.217a.961.961,0,0,0-.472.778h0c0,.285.195.375.487.209a.967.967,0,0,0,.479-.771" transform="translate(294.912 4231.015)" fill="#c2e6b0"/>
          <path id="Trazado_109950" d="M-262.986-4151.426c.337-.194.562,0,.562.359h0a1.242,1.242,0,0,1-.562,1.019c-.329.194-.554,0-.554-.36h0A1.215,1.215,0,0,1-262.986-4151.426Zm.255.554h0c0-.217-.112-.33-.262-.247a.656.656,0,0,0-.255.54h0c0,.224.112.337.262.254a.65.65,0,0,0,.255-.547" transform="translate(293.701 4231.153)" fill="#c2e6b0"/>
          <path id="Trazado_109951" d="M-245.01-4163.792c.12-.067.21-.038.21.09a.649.649,0,0,1-.12.329l-.554.981c.359-.157.7-.135.7.359a1.647,1.647,0,0,1-.824,1.348.81.81,0,0,1-.809.112c-.037,0-.067-.06-.067-.126a.456.456,0,0,1,.2-.353.146.146,0,0,1,.135,0,.519.519,0,0,0,.539-.06.784.784,0,0,0,.4-.644h0c0-.262-.217-.292-.547-.1l-.082.052a.116.116,0,0,1-.157-.008.11.11,0,0,1-.03-.1.521.521,0,0,1,.09-.254l.547-1-.861.494a.116.116,0,0,1-.157-.015.094.094,0,0,1-.022-.09.4.4,0,0,1,.18-.314Z" transform="translate(289.412 4234.25)" fill="#c2e6b0"/>
          <path id="Trazado_109952" d="M-243.4-4161.592a.142.142,0,0,1,.2.015.124.124,0,0,1,.03.112v.038a.5.5,0,0,1-.24.4.143.143,0,0,1-.2-.015.166.166,0,0,1-.037-.12v-.038A.534.534,0,0,1-243.4-4161.592Z" transform="translate(288.704 4233.697)" fill="#c2e6b0"/>
          <path id="Trazado_109953" d="M-240.688-4164.578a.108.108,0,0,1,.15.015.084.084,0,0,1,.022.082.4.4,0,0,1-.172.3l-.18.105v.4a.431.431,0,0,1-.2.345.121.121,0,0,1-.172-.015.153.153,0,0,1-.03-.1v-.4l-1.056.607a.121.121,0,0,1-.172-.016.118.118,0,0,1-.03-.089.547.547,0,0,1,.09-.308l1.108-2.156a.654.654,0,0,1,.262-.307.121.121,0,0,1,.172.015.132.132,0,0,1,.03.09v1.565Zm-.584.337v-1.078l-.779,1.527.779-.45" transform="translate(288.423 4234.833)" fill="#c2e6b0"/>
          <path id="Trazado_109954" d="M-238.886-4167.229a.129.129,0,0,1,.21.12v2.3a.443.443,0,0,1-.2.352.129.129,0,0,1-.18-.015.165.165,0,0,1-.03-.1v-2.052l-.247.225-.067.06c-.1.06-.187,0-.187-.1a.4.4,0,0,1,.135-.292l.359-.337a.938.938,0,0,1,.21-.165Z" transform="translate(287.684 4235.111)" fill="#c2e6b0"/>
          <path id="Trazado_109955" d="M-223.487-4176.12a.129.129,0,0,1,.18.015.134.134,0,0,1,.03.1v2.3a.434.434,0,0,1-.21.352.124.124,0,0,1-.18-.023.15.15,0,0,1-.03-.1v-2.052l-.247.224-.067.061a.117.117,0,0,1-.157-.015.085.085,0,0,1-.022-.083.4.4,0,0,1,.135-.292l.352-.337a1.551,1.551,0,0,1,.217-.158Z" transform="translate(283.816 4237.345)" fill="#c2e6b0"/>
          <path id="Trazado_109956" d="M-222-4173.942a.143.143,0,0,1,.2.015.124.124,0,0,1,.03.112v.038a.5.5,0,0,1-.24.4c-.135.075-.24,0-.24-.127v-.015A.524.524,0,0,1-222-4173.942Z" transform="translate(283.328 4236.8)" fill="#c2e6b0"/>
          <path id="Trazado_109957" d="M-219.533-4178.21c.172.1.285.337.292.876h0a2.372,2.372,0,0,1-1.011,2.067.853.853,0,0,1-.644.142c-.06,0-.09-.053-.1-.142a.4.4,0,0,1,.2-.33.169.169,0,0,1,.12,0,.592.592,0,0,0,.434-.082,1.416,1.416,0,0,0,.569-1.191,1.4,1.4,0,0,1-.554.607c-.5.292-.839.15-.839-.375h0a1.775,1.775,0,0,1,.876-1.446C-219.869-4178.3-219.682-4178.308-219.533-4178.21Zm-.157.719h0c0-.285-.195-.4-.487-.218a.962.962,0,0,0-.472.779h0c0,.284.195.375.487.209a.959.959,0,0,0,.472-.771" transform="translate(283.029 4237.878)" fill="#c2e6b0"/>
          <path id="Trazado_109958" d="M-216.545-4179.929c.172.1.285.337.292.876h0a2.372,2.372,0,0,1-1.011,2.066.888.888,0,0,1-.644.142.125.125,0,0,1-.1-.142.444.444,0,0,1,.195-.338.169.169,0,0,1,.12,0,.59.59,0,0,0,.434-.082,1.417,1.417,0,0,0,.577-1.183,1.467,1.467,0,0,1-.562.606c-.494.292-.831.149-.839-.375h0a1.8,1.8,0,0,1,.884-1.446C-216.9-4180-216.71-4180.026-216.545-4179.929Zm-.157.733h0c0-.284-.195-.4-.494-.217a.955.955,0,0,0-.464.779h0c0,.285.187.382.487.21a.986.986,0,0,0,.472-.771" transform="translate(282.28 4238.309)" fill="#c2e6b0"/>
          <path id="Trazado_109959" d="M-212.7-4180.465c.337-.187.554,0,.554.367h0a1.283,1.283,0,0,1-.554,1.018c-.337.195-.562,0-.562-.367h0A1.242,1.242,0,0,1-212.7-4180.465Zm.262.562h0c0-.217-.12-.337-.262-.247a.656.656,0,0,0-.255.539h0c0,.225.112.337.262.248a.668.668,0,0,0,.255-.54" transform="translate(281.069 4238.448)" fill="#c2e6b0"/>
          <path id="Trazado_109960" d="M-212.865-4182.275a.324.324,0,0,1,0,.12l-1.572,3.3a.368.368,0,0,1-.12.143.081.081,0,0,1-.135-.067.327.327,0,0,1,0-.121l1.55-3.332a.3.3,0,0,1,.112-.143C-212.917-4182.394-212.865-4182.357-212.865-4182.275Z" transform="translate(281.43 4238.91)" fill="#c2e6b0"/>
          <path id="Trazado_109961" d="M-214.054-4180.842a1.285,1.285,0,0,1-.554,1.019c-.337.187-.554,0-.562-.375h0a1.242,1.242,0,0,1,.562-1.019C-214.271-4181.411-214.054-4181.224-214.054-4180.842Zm-.816.472c0,.217.112.329.262.247a.656.656,0,0,0,.255-.539h0c0-.217-.1-.337-.262-.247a.656.656,0,0,0-.255.539h0" transform="translate(281.549 4238.638)" fill="#c2e6b0"/>
          <path id="Trazado_109962" d="M-198.939-4190.289c.12-.067.2,0,.2.12v2.3a.443.443,0,0,1-.2.352.129.129,0,0,1-.18-.015.166.166,0,0,1-.03-.1v-2.052l-.247.225-.067.06a.114.114,0,0,1-.187-.1.355.355,0,0,1,.142-.284l.352-.345a1.5,1.5,0,0,1,.2-.165Z" transform="translate(277.65 4240.904)" fill="#c2e6b0"/>
          <path id="Trazado_109963" d="M-197.46-4188.11c.142-.075.24,0,.24.127v.037a.5.5,0,0,1-.232.4c-.142.075-.247,0-.247-.127v-.038A.535.535,0,0,1-197.46-4188.11Z" transform="translate(277.16 4240.357)" fill="#c2e6b0"/>
          <path id="Trazado_109964" d="M-195.07-4192.618a.127.127,0,0,1,.165.015.086.086,0,0,1,.022.083.405.405,0,0,1-.187.322l-.891.509-.03.644a1.6,1.6,0,0,1,.374-.292c.464-.269.824-.2.824.375a1.747,1.747,0,0,1-.869,1.438.9.9,0,0,1-.756.135c-.052,0-.082-.06-.082-.135a.466.466,0,0,1,.195-.344.113.113,0,0,1,.12,0,.582.582,0,0,0,.517-.068.888.888,0,0,0,.457-.733c0-.292-.21-.345-.487-.173a2.832,2.832,0,0,0-.4.323.223.223,0,0,1-.195,0c-.067,0-.082-.075-.082-.166l.045-1.011a.432.432,0,0,1,.195-.321Z" transform="translate(276.859 4241.489)" fill="#c2e6b0"/>
          <path id="Trazado_109965" d="M-192.26-4194.238a.126.126,0,0,1,.165.015.085.085,0,0,1,.022.083.4.4,0,0,1-.18.315l-.891.516-.037.644a2.061,2.061,0,0,1,.374-.3c.464-.262.824-.195.831.381a1.752,1.752,0,0,1-.869,1.431.928.928,0,0,1-.764.142.13.13,0,0,1-.082-.135.455.455,0,0,1,.2-.352.164.164,0,0,1,.12,0,.585.585,0,0,0,.509-.067.872.872,0,0,0,.457-.734c0-.285-.2-.344-.487-.172a2.844,2.844,0,0,0-.4.33.236.236,0,0,1-.2,0c-.06,0-.082-.067-.075-.165l.045-1.011a.44.44,0,0,1,.187-.322Z" transform="translate(276.153 4241.896)" fill="#c2e6b0"/>
          <path id="Trazado_109966" d="M-188.575-4196.27a.33.33,0,0,1,0,.121l-1.55,3.332a.3.3,0,0,1-.12.135c-.075.044-.127,0-.127-.067a.324.324,0,0,1,0-.12l1.542-3.332a.3.3,0,0,1,.12-.135.09.09,0,0,1,.12.007C-188.575-4196.307-188.567-4196.292-188.575-4196.27Z" transform="translate(275.321 4242.422)" fill="#c2e6b0"/>
          <path id="Trazado_109967" d="M-188.448-4194.464c.329-.188.554,0,.554.367h0a1.284,1.284,0,0,1-.554,1.018c-.337.194-.554,0-.562-.366h0A1.239,1.239,0,0,1-188.448-4194.464Zm.255.561h0c0-.217-.1-.337-.262-.248a.658.658,0,0,0-.255.54h0c0,.225.112.337.262.248a.69.69,0,0,0,.255-.54" transform="translate(274.977 4241.965)" fill="#c2e6b0"/>
          <path id="Trazado_109968" d="M-189.8-4194.839a1.242,1.242,0,0,1-.562,1.019c-.329.194-.554,0-.554-.368h0a1.243,1.243,0,0,1,.562-1.019C-190.029-4195.4-189.8-4195.214-189.8-4194.839Zm-.839.472c0,.217.112.329.262.247a.684.684,0,0,0,.262-.539h0c0-.217-.12-.337-.262-.247a.642.642,0,0,0-.262.539h0" transform="translate(275.457 4242.153)" fill="#c2e6b0"/>
          <path id="Trazado_109969" d="M-174.719-4204.269c.12-.067.2,0,.2.12v2.3a.445.445,0,0,1-.2.352.124.124,0,0,1-.18-.022.172.172,0,0,1-.03-.1v-2.044l-.247.224-.075.06a.109.109,0,0,1-.157-.022.149.149,0,0,1-.022-.082.353.353,0,0,1,.142-.284l.352-.345a1.056,1.056,0,0,1,.2-.157Z" transform="translate(271.565 4244.417)" fill="#c2e6b0"/>
          <path id="Trazado_109970" d="M-173.25-4202.091c.142-.082.24,0,.24.127h0a.487.487,0,0,1-.232.4c-.142.082-.247,0-.247-.127v-.037A.512.512,0,0,1-173.25-4202.091Z" transform="translate(271.078 4243.87)" fill="#c2e6b0"/>
          <path id="Trazado_109971" d="M-171.364-4206.326c.644-.352,1.033,0,1.033.8h0a2.385,2.385,0,0,1-1.026,2c-.644.359-1.033,0-1.033-.809A2.411,2.411,0,0,1-171.364-4206.326Zm.607,1.07h0c0-.539-.247-.838-.607-.644a1.547,1.547,0,0,0-.6,1.3h0c0,.539.24.831.607.644a1.567,1.567,0,0,0,.6-1.3" transform="translate(270.802 4244.961)" fill="#c2e6b0"/>
          <path id="Trazado_109972" d="M-167.68-4208.438a.126.126,0,0,1,.165.015h0a.1.1,0,0,1,.022.09.392.392,0,0,1-.187.314l-.891.517-.037.644a1.863,1.863,0,0,1,.382-.3c.464-.263.824-.195.824.374a1.745,1.745,0,0,1-.869,1.438.9.9,0,0,1-.756.143.131.131,0,0,1-.082-.135.47.47,0,0,1,.195-.352.117.117,0,0,1,.12,0,.625.625,0,0,0,.517-.067.889.889,0,0,0,.457-.734c0-.285-.2-.345-.487-.172a2.842,2.842,0,0,0-.4.33.24.24,0,0,1-.2,0c-.06,0-.075-.075-.075-.166l.045-1.01a.473.473,0,0,1,.195-.322Z" transform="translate(269.978 4245.463)" fill="#c2e6b0"/>
          <path id="Trazado_109973" d="M-163.876-4208.666c.337-.187.554,0,.554.367h0a1.216,1.216,0,0,1-.554,1.019c-.329.2-.554,0-.554-.367h0A1.277,1.277,0,0,1-163.876-4208.666Zm.262.562h0c0-.217-.112-.337-.262-.248a.685.685,0,0,0-.262.54h0c0,.225.112.337.262.248a.655.655,0,0,0,.262-.54" transform="translate(268.802 4245.533)" fill="#c2e6b0"/>
          <path id="Trazado_109974" d="M-165.232-4209.028a1.254,1.254,0,0,1-.554,1.019c-.337.187-.554,0-.554-.368h0a1.193,1.193,0,0,1,.554-1.01c.337-.2.554-.008.554.359Zm-.816.472c0,.217.112.33.262.248a.657.657,0,0,0,.255-.54h0c0-.217-.112-.337-.262-.247a.669.669,0,0,0-.255.539h0" transform="translate(269.282 4245.716)" fill="#c2e6b0"/>
          <path id="Trazado_109975" d="M-164.043-4210.468a.322.322,0,0,1,0,.12l-1.58,3.348a.266.266,0,0,1-.12.134c-.067.045-.127,0-.127-.075a.355.355,0,0,1,.03-.12l1.542-3.332a.252.252,0,0,1,.12-.143C-164.1-4210.573-164.043-4210.543-164.043-4210.468Z" transform="translate(269.164 4245.988)" fill="#c2e6b0"/>
          <path id="Trazado_109976" d="M-150.434-4218.406c.644-.351,1.033,0,1.033.8h0a2.384,2.384,0,0,1-1.026,2c-.644.36-1.033,0-1.033-.8A2.394,2.394,0,0,1-150.434-4218.406Zm.607,1.07h0c0-.539-.247-.83-.607-.644a1.549,1.549,0,0,0-.6,1.3h0c0,.539.24.838.607.644a1.607,1.607,0,0,0,.6-1.3" transform="translate(265.544 4247.995)" fill="#c2e6b0"/>
          <path id="Trazado_109977" d="M-148.01-4216.661a.143.143,0,0,1,.2.014.166.166,0,0,1,.037.12v.037a.483.483,0,0,1-.24.4.143.143,0,0,1-.2-.016.165.165,0,0,1-.037-.12v-.038A.544.544,0,0,1-148.01-4216.661Z" transform="translate(264.737 4247.532)" fill="#c2e6b0"/>
          <path id="Trazado_109978" d="M-146.033-4219.9c.457-.262.824-.165.831.374a1.761,1.761,0,0,1-.876,1.438c-.292.165-.5.187-.644.09s-.292-.315-.3-.869a2.4,2.4,0,0,1,.988-2.082.963.963,0,0,1,.592-.15c.067,0,.1.052.1.15a.428.428,0,0,1-.2.337.123.123,0,0,1-.1,0,.591.591,0,0,0-.4.083,1.4,1.4,0,0,0-.562,1.2A1.613,1.613,0,0,1-146.033-4219.9Zm.412.644h0c0-.277-.187-.367-.487-.2a.95.95,0,0,0-.479.756h0c0,.277.195.375.487.209a.95.95,0,0,0,.479-.764" transform="translate(264.429 4248.639)" fill="#c2e6b0"/>
          <path id="Trazado_109979" d="M-142.695-4222.872c.12-.067.21-.038.21.09a.65.65,0,0,1-.12.329l-.562.989c.359-.157.7-.143.7.359a1.63,1.63,0,0,1-.824,1.348.828.828,0,0,1-.809.112.159.159,0,0,1-.067-.135.431.431,0,0,1,.2-.344.111.111,0,0,1,.135,0,.505.505,0,0,0,.539-.052.793.793,0,0,0,.412-.644h0c0-.262-.21-.292-.547-.1l-.082.045a.117.117,0,0,1-.157-.016.093.093,0,0,1-.022-.09.5.5,0,0,1,.09-.247l.547-1-.861.5a.116.116,0,0,1-.157-.015.085.085,0,0,1-.022-.083.393.393,0,0,1,.18-.307Z" transform="translate(263.712 4249.092)" fill="#c2e6b0"/>
          <path id="Trazado_109980" d="M-140.284-4223.439a1.291,1.291,0,0,1-.562,1.018c-.329.194-.554,0-.554-.367h0a1.284,1.284,0,0,1,.554-1.019C-140.509-4224-140.292-4223.806-140.284-4223.439Zm-.809.472c0,.217.1.329.262.247a.656.656,0,0,0,.255-.539h0c0-.217-.112-.337-.262-.247a.646.646,0,0,0-.255.539h0" transform="translate(263.016 4249.337)" fill="#c2e6b0"/>
          <path id="Trazado_109981" d="M-139.075-4224.861a.322.322,0,0,1,0,.12l-1.542,3.333a.3.3,0,0,1-.12.135.081.081,0,0,1-.135-.067.324.324,0,0,1,0-.12l1.55-3.333a.236.236,0,0,1,.12-.135C-139.142-4224.981-139.075-4224.943-139.075-4224.861Z" transform="translate(262.885 4249.605)" fill="#c2e6b0"/>
          <path id="Trazado_109982" d="M-138.918-4223.064c.329-.187.554,0,.554.367h0a1.24,1.24,0,0,1-.562,1.018c-.329.195-.554,0-.554-.367h0A1.241,1.241,0,0,1-138.918-4223.064Zm.247.561h0c0-.217-.112-.337-.262-.247a.685.685,0,0,0-.262.539h0c0,.225.12.337.262.248a.644.644,0,0,0,.262-.54" transform="translate(262.534 4249.15)" fill="#c2e6b0"/>
          <path id="Trazado_109983" d="M-271.929-4135.14a.129.129,0,0,1,.18.015.12.12,0,0,1,.03.1v2.306a.435.435,0,0,1-.21.353.124.124,0,0,1-.18-.022.153.153,0,0,1-.03-.1v-2.052l-.24.225-.075.052a.118.118,0,0,1-.165-.022.127.127,0,0,1-.022-.075.436.436,0,0,1,.142-.292l.352-.338a1.62,1.62,0,0,1,.21-.164Z" transform="translate(295.987 4227.05)" fill="#c2e6b0"/>
          <path id="Trazado_109984" d="M-269.694-4136.554c.644-.352,1.026.03,1.033.809a2.4,2.4,0,0,1-1.026,2.007c-.644.359-1.033,0-1.033-.8h0A2.411,2.411,0,0,1-269.694-4136.554Zm.6,1.071h0c0-.532-.24-.832-.6-.644a1.541,1.541,0,0,0-.6,1.288h0c0,.539.24.838.607.644a1.517,1.517,0,0,0,.592-1.288" transform="translate(295.505 4227.431)" fill="#c2e6b0"/>
          <path id="Trazado_109985" d="M-266.424-4138.445c.644-.353,1.033,0,1.041.808a2.4,2.4,0,0,1-1.033,2.007c-.644.359-1.026,0-1.033-.8h0A2.429,2.429,0,0,1-266.424-4138.445Zm.607,1.07h0c0-.54-.247-.832-.607-.644a1.52,1.52,0,0,0-.592,1.3h0c0,.539.232.838.607.644a1.579,1.579,0,0,0,.592-1.3" transform="translate(294.683 4227.907)" fill="#c2e6b0"/>
          <path id="Trazado_109986" d="M-261.895-4140.939a.322.322,0,0,1,0,.12l-1.58,3.362a.355.355,0,0,1-.12.135c-.067.045-.127,0-.127-.075a.324.324,0,0,1,0-.12l1.543-3.332a.251.251,0,0,1,.112-.135C-261.97-4141.06-261.895-4141.029-261.895-4140.939Z" transform="translate(293.748 4228.522)" fill="#c2e6b0"/>
          <path id="Trazado_109987" d="M-261.746-4139.146c.337-.195.554,0,.554.367h0a1.235,1.235,0,0,1-.554,1.019c-.337.194-.554,0-.554-.367h0A1.216,1.216,0,0,1-261.746-4139.146Zm.262.554h0c0-.21-.112-.337-.262-.248a.657.657,0,0,0-.255.54h0c0,.224.112.337.262.254a.681.681,0,0,0,.255-.546" transform="translate(293.389 4228.068)" fill="#c2e6b0"/>
          <path id="Trazado_109988" d="M-263.1-4139.519a1.241,1.241,0,0,1-.554,1.011c-.337.194-.554,0-.562-.36h0a1.241,1.241,0,0,1,.562-1.018c.329-.2.554,0,.554.367Zm-.816.472c0,.217.112.329.262.247a.685.685,0,0,0,.262-.54h0c0-.217-.112-.337-.262-.254a.657.657,0,0,0-.262.546h0" transform="translate(293.872 4228.254)" fill="#c2e6b0"/>
          <path id="Trazado_109989" d="M-271.876-4122.15a.129.129,0,0,1,.18.015.135.135,0,0,1,.03.1v2.3a.435.435,0,0,1-.21.353.125.125,0,0,1-.18-.023.15.15,0,0,1-.03-.1v-2.052l-.24.224-.075.061a.112.112,0,0,1-.18-.1.382.382,0,0,1,.135-.285l.352-.344c.075-.053.142-.1.217-.158Z" transform="translate(295.972 4223.787)" fill="#c2e6b0"/>
          <path id="Trazado_109990" d="M-269.647-4123.566c.644-.352,1.026,0,1.026.809a2.411,2.411,0,0,1-1.026,2.014c-.644.352-1.033,0-1.033-.809A2.4,2.4,0,0,1-269.647-4123.566Zm.6,1.064h0c0-.54-.247-.839-.607-.644a1.545,1.545,0,0,0-.6,1.295h0c0,.539.247.839.614.644a1.569,1.569,0,0,0,.592-1.295" transform="translate(295.495 4224.17)" fill="#c2e6b0"/>
          <path id="Trazado_109991" d="M-266.387-4125.456c.644-.352,1.026,0,1.033.809a2.417,2.417,0,0,1-1.033,2.014c-.644.352-1.026,0-1.033-.809A2.437,2.437,0,0,1-266.387-4125.456Zm.607,1.063h0c0-.54-.24-.839-.607-.644a1.528,1.528,0,0,0-.592,1.295h0c0,.54.24.838.607.644a1.57,1.57,0,0,0,.592-1.3" transform="translate(294.676 4224.644)" fill="#c2e6b0"/>
          <path id="Trazado_109992" d="M-261.887-4127.962a.321.321,0,0,1,0,.12l-1.557,3.324a.264.264,0,0,1-.12.135.082.082,0,0,1-.112-.007.057.057,0,0,1-.015-.06.323.323,0,0,1,0-.12l1.542-3.333a.265.265,0,0,1,.12-.135C-261.932-4128.082-261.887-4128.044-261.887-4127.962Z" transform="translate(293.74 4225.264)" fill="#c2e6b0"/>
          <path id="Trazado_109993" d="M-261.706-4126.165c.337-.187.554,0,.562.375h0a1.291,1.291,0,0,1-.562,1.018c-.329.187-.554,0-.554-.374h0A1.225,1.225,0,0,1-261.706-4126.165Zm.255.562h0c0-.217-.112-.337-.262-.248a.615.615,0,0,0-.255.532h0c0,.225.1.337.262.248a.643.643,0,0,0,.255-.532" transform="translate(293.379 4224.806)" fill="#c2e6b0"/>
          <path id="Trazado_109994" d="M-263.072-4126.539a1.254,1.254,0,0,1-.554,1.019c-.337.194-.554,0-.554-.367h0a1.216,1.216,0,0,1,.554-1.019C-263.289-4127.1-263.072-4126.905-263.072-4126.539Zm-.809.472c0,.217.112.337.262.248a.657.657,0,0,0,.255-.539h0c0-.217-.112-.337-.262-.247a.635.635,0,0,0-.255.539h0" transform="translate(293.862 4224.993)" fill="#c2e6b0"/>
          <path id="Trazado_109995" d="M-269.568-4110.3c.165.1.285.337.285.876a2.375,2.375,0,0,1-1.011,2.074.891.891,0,0,1-.644.142.125.125,0,0,1-.1-.142.381.381,0,0,1,.195-.33.329.329,0,0,1,.12,0,.587.587,0,0,0,.434-.075,1.415,1.415,0,0,0,.569-1.19,1.471,1.471,0,0,1-.547.606c-.509.292-.846.149-.846-.375a1.79,1.79,0,0,1,.906-1.49A.651.651,0,0,1-269.568-4110.3Zm-.157.727h0c0-.285-.195-.39-.494-.209a.926.926,0,0,0-.464.779h0c0,.277.187.375.487.209a1,1,0,0,0,.472-.778" transform="translate(295.603 4220.814)" fill="#c2e6b0"/>
          <path id="Trazado_109996" d="M-266.678-4112.279c.12-.067.187,0,.187.1a.777.777,0,0,1-.052.263l-.973,2.7a.5.5,0,0,1-.2.277c-.12.067-.21.044-.21-.09a.307.307,0,0,1,0-.165l.914-2.494-1.026.583a.116.116,0,0,1-.157-.015.092.092,0,0,1-.022-.089.4.4,0,0,1,.18-.314Z" transform="translate(294.877 4221.307)" fill="#c2e6b0"/>
          <path id="Trazado_109997" d="M-263.175-4114.2a.321.321,0,0,1,0,.119l-1.58,3.355a.237.237,0,0,1-.12.135.082.082,0,0,1-.112-.007.059.059,0,0,1-.015-.061.321.321,0,0,1,0-.12l1.542-3.324a.311.311,0,0,1,.12-.143C-263.242-4114.311-263.175-4114.288-263.175-4114.2Z" transform="translate(294.069 4221.803)" fill="#c2e6b0"/>
          <path id="Trazado_109998" d="M-263.016-4112.406c.329-.195.554,0,.554.367h0a1.253,1.253,0,0,1-.554,1.018c-.337.194-.554,0-.554-.367h0A1.235,1.235,0,0,1-263.016-4112.406Zm.255.561h0c0-.217-.1-.337-.262-.254a.657.657,0,0,0-.255.54h0c0,.217.112.329.262.247a.645.645,0,0,0,.255-.532" transform="translate(293.708 4221.351)" fill="#c2e6b0"/>
          <path id="Trazado_109999" d="M-264.369-4112.773a1.245,1.245,0,0,1-.547,1.033c-.329.194-.554,0-.554-.367h0a1.24,1.24,0,0,1,.562-1.018c.337-.2.554,0,.554.367Zm-.816.471c0,.225.112.337.262.247a.684.684,0,0,0,.262-.539h0c0-.218-.112-.337-.262-.247a.643.643,0,0,0-.262.539h0" transform="translate(294.186 4221.531)" fill="#c2e6b0"/>
          <path id="Trazado_110000" d="M-271.819-4096.19a.124.124,0,0,1,.18.022.173.173,0,0,1,.03.105v2.3a.432.432,0,0,1-.21.352.124.124,0,0,1-.18-.022.151.151,0,0,1-.03-.1v-2.051l-.247.225-.067.06a.118.118,0,0,1-.165-.022.151.151,0,0,1-.022-.083.417.417,0,0,1,.142-.284l.352-.337a1.278,1.278,0,0,1,.217-.166Z" transform="translate(295.959 4217.265)" fill="#c2e6b0"/>
          <path id="Trazado_110001" d="M-269.587-4097.605c.644-.353,1.026,0,1.033.808a2.376,2.376,0,0,1-1.033,2.007c-.644.359-1.026,0-1.033-.8A2.457,2.457,0,0,1-269.587-4097.605Zm.607,1.071h0c0-.54-.24-.839-.607-.644a1.577,1.577,0,0,0-.592,1.295h0c0,.539.24.838.607.644a1.6,1.6,0,0,0,.592-1.295" transform="translate(295.479 4217.647)" fill="#c2e6b0"/>
          <path id="Trazado_110002" d="M-266.314-4099.486c.644-.352,1.033,0,1.033.81a2.41,2.41,0,0,1-1.026,2.014c-.644.352-1.033-.03-1.033-.809A2.393,2.393,0,0,1-266.314-4099.486Zm.607,1.064h0c0-.54-.247-.839-.607-.644a1.52,1.52,0,0,0-.592,1.3h0c0,.539.232.838.6.644a1.588,1.588,0,0,0,.6-1.3" transform="translate(294.656 4218.12)" fill="#c2e6b0"/>
          <path id="Trazado_110003" d="M-261.795-4101.991a.318.318,0,0,1,0,.119l-1.55,3.34a.263.263,0,0,1-.12.135c-.067.045-.127,0-.127-.075a.324.324,0,0,1,0-.12l1.543-3.332a.263.263,0,0,1,.12-.135C-261.862-4102.111-261.795-4102.082-261.795-4101.991Z" transform="translate(293.715 4218.739)" fill="#c2e6b0"/>
          <path id="Trazado_110004" d="M-261.638-4100.195c.329-.187.554,0,.554.367h0a1.281,1.281,0,0,1-.554,1.011c-.337.194-.554,0-.562-.367h0A1.238,1.238,0,0,1-261.638-4100.195Zm.255.562h0c0-.217-.1-.337-.262-.247a.656.656,0,0,0-.255.539h0c0,.217.112.337.262.248a.649.649,0,0,0,.255-.54" transform="translate(293.364 4218.282)" fill="#c2e6b0"/>
          <path id="Trazado_110005" d="M-262.994-4100.567a1.24,1.24,0,0,1-.562,1.018c-.329.188-.554,0-.554-.367h0a1.219,1.219,0,0,1,.562-1.011c.337-.195.554,0,.554.359Zm-.816.471c0,.218.112.33.262.248a.687.687,0,0,0,.262-.539h0c0-.21-.12-.33-.262-.24a.66.66,0,0,0-.262.531h0" transform="translate(293.844 4218.467)" fill="#c2e6b0"/>
          <path id="Trazado_110006" d="M-271.787-4083.2a.129.129,0,0,1,.18.015.134.134,0,0,1,.03.1v2.3a.433.433,0,0,1-.21.352.124.124,0,0,1-.18-.022.151.151,0,0,1-.03-.1v-2.044l-.24.217-.075.052a.11.11,0,0,1-.157-.015.1.1,0,0,1-.022-.075.4.4,0,0,1,.135-.292l.352-.337a1.576,1.576,0,0,1,.21-.165Z" transform="translate(295.95 4214.002)" fill="#c2e6b0"/>
          <path id="Trazado_110007" d="M-269.544-4084.607c.644-.359,1.033,0,1.033.8h0a2.414,2.414,0,0,1-1.026,2c-.644.359-1.033-.03-1.033-.809A2.371,2.371,0,0,1-269.544-4084.607Zm.6,1.063h0c0-.539-.24-.838-.6-.644a1.545,1.545,0,0,0-.6,1.3h0c0,.539.24.831.606.644a1.54,1.54,0,0,0,.592-1.3" transform="translate(295.467 4214.382)" fill="#c2e6b0"/>
          <path id="Trazado_110008" d="M-266.267-4086.5c.644-.359,1.026,0,1.033.8h0a2.42,2.42,0,0,1-1.033,2c-.644.359-1.026-.03-1.033-.809A2.36,2.36,0,0,1-266.267-4086.5Zm.6,1.063h0c0-.539-.247-.839-.606-.644a1.529,1.529,0,0,0-.592,1.3h0c0,.532.24.832.607.644a1.57,1.57,0,0,0,.592-1.3" transform="translate(294.645 4214.857)" fill="#c2e6b0"/>
          <path id="Trazado_110009" d="M-261.6-4087.206c.337-.195.554,0,.554.359h0a1.235,1.235,0,0,1-.554,1.018c-.337.195-.554,0-.554-.359h0A1.235,1.235,0,0,1-261.6-4087.206Zm.255.554h0c0-.21-.112-.33-.262-.247a.656.656,0,0,0-.255.539h0c0,.225.112.337.262.255a.641.641,0,0,0,.255-.546" transform="translate(293.352 4215.02)" fill="#c2e6b0"/>
          <path id="Trazado_110010" d="M-261.752-4089.012a.323.323,0,0,1,0,.12l-1.542,3.332a.348.348,0,0,1-.12.135c-.067.045-.127,0-.127-.075a.32.32,0,0,1,0-.12l1.542-3.333a.252.252,0,0,1,.112-.134C-261.812-4089.132-261.752-4089.094-261.752-4089.012Z" transform="translate(293.703 4215.478)" fill="#c2e6b0"/>
          <path id="Trazado_110011" d="M-262.964-4087.589a1.235,1.235,0,0,1-.554,1.018c-.337.195-.554,0-.562-.367h0a1.241,1.241,0,0,1,.562-1.018C-263.182-4088.151-262.964-4087.956-262.964-4087.589Zm-.809.472c0,.217.112.337.262.247a.685.685,0,0,0,.262-.539h0c0-.217-.112-.337-.262-.247a.633.633,0,0,0-.262.539h0" transform="translate(293.836 4215.208)" fill="#c2e6b0"/>
          <path id="Trazado_110012" d="M-271.745-4070.22a.129.129,0,0,1,.18.015.133.133,0,0,1,.03.1v2.3a.435.435,0,0,1-.21.359.129.129,0,0,1-.18-.022.119.119,0,0,1-.022-.1v-2.052l-.24.225-.075.06a.116.116,0,0,1-.157-.015.085.085,0,0,1-.022-.083.382.382,0,0,1,.135-.284l.359-.344a1.046,1.046,0,0,1,.2-.157Z" transform="translate(295.938 4210.741)" fill="#c2e6b0"/>
          <path id="Trazado_110013" d="M-269.507-4071.617c.614-.359,1.026,0,1.026.809a2.4,2.4,0,0,1-1.026,2.007c-.644.359-1.033,0-1.033-.8h0A2.4,2.4,0,0,1-269.507-4071.617Zm.6,1.063h0c0-.539-.247-.831-.606-.644a1.541,1.541,0,0,0-.6,1.288h0c0,.539.247.839.614.644a1.536,1.536,0,0,0,.591-1.288" transform="translate(295.459 4211.119)" fill="#c2e6b0"/>
          <path id="Trazado_110014" d="M-266.234-4073.517c.644-.359,1.026,0,1.033.8a2.418,2.418,0,0,1-1.033,2.014c-.644.352-1.026,0-1.026-.809h0A2.378,2.378,0,0,1-266.234-4073.517Zm.6,1.071h0c0-.539-.24-.831-.607-.644a1.548,1.548,0,0,0-.592,1.3h0c0,.539.24.846.607.644a1.558,1.558,0,0,0,.592-1.3" transform="translate(294.635 4211.597)" fill="#c2e6b0"/>
          <path id="Trazado_110015" d="M-262.922-4074.6a1.241,1.241,0,0,1-.554,1.011c-.337.195-.554,0-.554-.367h0a1.236,1.236,0,0,1,.554-1.019c.337-.194.554,0,.554.375Zm-.816.464c0,.217.112.336.262.247a.657.657,0,0,0,.255-.539h0c0-.217-.112-.337-.262-.247a.677.677,0,0,0-.255.539h0" transform="translate(293.824 4211.947)" fill="#c2e6b0"/>
          <path id="Trazado_110016" d="M-261.715-4076.03a.322.322,0,0,1,0,.12l-1.542,3.332a.316.316,0,0,1-.12.142c-.075.038-.135,0-.135-.075a.321.321,0,0,1,0-.12l1.542-3.332a.265.265,0,0,1,.12-.135C-261.775-4076.142-261.715-4076.113-261.715-4076.03Z" transform="translate(293.695 4212.215)" fill="#c2e6b0"/>
          <path id="Trazado_110017" d="M-261.566-4074.186c.337-.195.554,0,.562.367h0a1.293,1.293,0,0,1-.562,1.019c-.329.187-.554,0-.554-.367h0A1.234,1.234,0,0,1-261.566-4074.186Zm.262.554h0c0-.218-.112-.337-.262-.247a.664.664,0,0,0-.255.531h0c0,.218.1.329.262.247a.652.652,0,0,0,.255-.531" transform="translate(293.344 4211.749)" fill="#c2e6b0"/>
          <path id="Trazado_110018" d="M-239-4155.29l.007,1.849-9.9,5.714-.007-1.858Z" transform="translate(290.023 4232.105)" fill="#fff"/>
          <path id="Trazado_110019" d="M-214.614-4169.38l.007,1.85-9.906,5.713-.007-1.85Z" transform="translate(283.898 4235.645)" fill="#c2e6b0"/>
          <path id="Trazado_110020" d="M-190.211-4183.46v1.849l-9.891,5.713-.007-1.85Z" transform="translate(277.766 4239.182)" fill="#c2e6b0"/>
          <path id="Trazado_110021" d="M-165.821-4197.55v1.85l-9.891,5.713-.007-1.85Z" transform="translate(271.638 4242.722)" fill="#c2e6b0"/>
          <path id="Trazado_110022" d="M-141.429-4211.63l.007,1.85-9.891,5.713-.007-1.85Z" transform="translate(265.508 4246.259)" fill="#c2e6b0"/>
          <path id="Trazado_110023" d="M-238.969-4142.311l.007,1.85-9.9,5.713v-1.85Z" transform="translate(290.013 4228.845)" fill="#fff"/>
          <path id="Trazado_110024" d="M-214.579-4156.4l.007,1.849-9.891,5.714-.007-1.85Z" transform="translate(283.885 4232.383)" fill="#c2e6b0"/>
          <path id="Trazado_110025" d="M-190.171-4170.48v1.85l-9.891,5.713-.007-1.85Z" transform="translate(277.756 4235.921)" fill="#c2e6b0"/>
          <path id="Trazado_110026" d="M-165.781-4184.57l.007,1.85-9.9,5.713-.007-1.85Z" transform="translate(271.628 4239.461)" fill="#c2e6b0"/>
          <path id="Trazado_110027" d="M-238.931-4129.33v1.857l-9.891,5.706-.008-1.85Z" transform="translate(290.005 4225.583)" fill="#fff"/>
          <path id="Trazado_110028" d="M-214.531-4143.41l.008,1.849-9.9,5.714-.008-1.858Z" transform="translate(283.875 4229.12)" fill="#c2e6b0"/>
          <path id="Trazado_110029" d="M-190.141-4157.491l.007,1.85-9.9,5.713-.007-1.849Z" transform="translate(277.748 4232.658)" fill="#c2e6b0"/>
          <path id="Trazado_110030" d="M-165.751-4171.581l.007,1.85-9.9,5.713-.007-1.849Z" transform="translate(271.621 4236.198)" fill="#c2e6b0"/>
          <path id="Trazado_110031" d="M-238.891-4116.34l.007,1.849-9.9,5.706-.007-1.842Z" transform="translate(289.995 4222.32)" fill="#fff"/>
          <path id="Trazado_110032" d="M-214.5-4130.431l.007,1.85-9.9,5.706-.007-1.842Z" transform="translate(283.868 4225.86)" fill="#fff"/>
          <path id="Trazado_110033" d="M-190.109-4144.51l.007,1.85-9.9,5.713v-1.85Z" transform="translate(277.738 4229.396)" fill="#c2e6b0"/>
          <path id="Trazado_110034" d="M-238.861-4103.36l.007,1.849-9.9,5.713-.007-1.849Z" transform="translate(289.988 4219.059)" fill="#fff"/>
          <path id="Trazado_110035" d="M-214.459-4117.44l.007,1.85-9.9,5.713v-1.849Z" transform="translate(283.855 4222.596)" fill="#c2e6b0"/>
          <path id="Trazado_110036" d="M-238.819-4090.38l.007,1.849-9.891,5.713-.007-1.85Z" transform="translate(289.975 4215.798)" fill="#c2e6b0"/>
          <path id="Trazado_110037" d="M-240.523-4069.311l.008,3.564-38.427,22.194-.007-3.564Z" transform="translate(297.572 4210.505)" fill="#c2e6b0"/>
          <path id="Trazado_110038" d="M-258.356-4064.4l.015,3.564-20.621,11.905-.008-3.557Z" transform="translate(297.577 4209.271)" fill="#c2e6b0"/>
          <path id="Trazado_110039" d="M-194.936-4102.46l.015,3.563-28.124,16.234-.015-3.556Z" transform="translate(283.531 4218.833)" fill="#c2e6b0"/>
          <path id="Trazado_110040" d="M-153.392-4120.69l.008,3.563-43.751,25.294-.015-3.564Z" transform="translate(277.022 4223.413)" fill="#c2e6b0"/>
          <path id="Trazado_110041" d="M-148.809-4129.5l.007,3.564-30.041,17.372-.008-3.563Z" transform="translate(272.425 4225.626)" fill="#c2e6b0"/>
          <path id="Trazado_110042" d="M-223.266-4068.44l.015,3.557-28.124,16.233-.015-3.557Z" transform="translate(290.648 4210.286)" fill="#c2e6b0"/>
          <path id="Trazado_110043" d="M-233.457-4077.11l.015,3.564-12.063,6.963-.015-3.556Z" transform="translate(289.174 4212.464)" fill="#c2e6b0"/>
          <path id="Trazado_110044" d="M-195.41-4081.41l.007,3.556-12.063,6.964-.015-3.557Z" transform="translate(279.617 4213.544)" fill="#c2e6b0"/>
          <path id="Trazado_110045" d="M-208.207-4082.86l.015,3.564-12.07,6.971-.007-3.564Z" transform="translate(282.83 4213.909)" fill="#c2e6b0"/>
          <path id="Trazado_110046" d="M-263.286-4042.91l.008,3.557-15.634,9.03-.008-3.557Z" transform="translate(297.565 4203.873)" fill="#c2e6b0"/>
          <path id="Trazado_110047" d="M-263.132-4153.24a.321.321,0,0,1,0,.12l-1.542,3.333a.3.3,0,0,1-.12.135.082.082,0,0,1-.112-.007.058.058,0,0,1-.015-.06.321.321,0,0,1,0-.12l1.542-3.332a.269.269,0,0,1,.12-.136A.076.076,0,0,1-263.132-4153.24Z" transform="translate(294.049 4231.612)" fill="#c2e6b0"/>
          <path id="Trazado_110048" d="M-264.347-4151.81a1.292,1.292,0,0,1-.562,1.019c-.329.194-.554,0-.562-.367h0a1.29,1.29,0,0,1,.562-1.018C-264.571-4152.371-264.347-4152.176-264.347-4151.81Zm-.816.472c0,.217.112.33.262.248a.658.658,0,0,0,.255-.539h0c0-.218-.112-.337-.262-.248a.637.637,0,0,0-.255.539h0" transform="translate(294.186 4231.342)" fill="#c2e6b0"/>
        </g>
        <g id="freepik--character-3--inject-12" transform="translate(188.322 106.877)">
          <path id="Trazado_110049" d="M-181.36-4190.563c3.691-2.942,6.746,2.583,8.97,8.746,1.363,3.736,2.748,7.383,3.632,9.689a4.652,4.652,0,0,1-.644,4.47l-6.567,8.731-2.905-6.357,3.639-5.519-3.7-6.769Z" transform="translate(233.632 4217.397)" fill="#c2e6b0"/>
          <path id="Trazado_110050" d="M-175.857-4170.267l-2.726-4.972-1.288-6.851,4.231,2.516A11.953,11.953,0,0,1-175.857-4170.267Z" transform="translate(233.258 4215.063)" opacity="0.2"/>
          <path id="Trazado_110051" d="M-173.4-4153.542l-1.722,2.291-2.928-6.319,2.022-3.07a22.613,22.613,0,0,0,1.572,3.878A12.5,12.5,0,0,1-173.4-4153.542Z" transform="translate(232.801 4209.675)" opacity="0.2"/>
          <path id="Trazado_110052" d="M-200.252-4041.47c-.157-.547-.285-1.108-.4-1.67a8.712,8.712,0,0,1-2.823,2.875,12.437,12.437,0,0,1-3.227,1.34,22.583,22.583,0,0,1-6.08.854,2.665,2.665,0,0,1-1.939-.539,1.431,1.431,0,0,1-.344-1.438,1.376,1.376,0,0,1,.374-.569l-.681.165a6.744,6.744,0,0,0-2.321.749,1.983,1.983,0,0,0-.988,2.067,2.577,2.577,0,0,0,1.587,1.46,11.687,11.687,0,0,0,8.3.442c1.685-.547,3.3-1.49,5.069-1.438,1.011,0,2.119.359,2.965-.187a2.26,2.26,0,0,0,.9-1.94A7.992,7.992,0,0,0-200.252-4041.47Z" transform="translate(243.015 4180.156)" fill="#374f46"/>
          <path id="Trazado_110053" d="M-179.776-4057.852a3.8,3.8,0,0,1-.981,1.2,2.916,2.916,0,0,1-2.478.524,5.182,5.182,0,0,1-2.1-1.445l-2.209-2.134a2.879,2.879,0,0,1-1.146-2.036,1.93,1.93,0,0,1,1.7-1.595,3.909,3.909,0,0,1,1.475.082l-.217-.164a10.447,10.447,0,0,0-1.812-1.011,3.211,3.211,0,0,0-2.186-.292,2.364,2.364,0,0,0-1.505,2.171,4.126,4.126,0,0,0,.951,2.583,17.668,17.668,0,0,0,1.939,2.022,24.476,24.476,0,0,1,2.516,2.845,15.492,15.492,0,0,0,1.782,2.178,3.654,3.654,0,0,0,2.531,1.071,2.15,2.15,0,0,0,1.887-1.2,3.3,3.3,0,0,0,.217-1.5Q-179.54-4056.2-179.776-4057.852Z" transform="translate(236.114 4185.598)" fill="#374f46"/>
          <path id="Trazado_110054" d="M-213.8-4065.84a1.376,1.376,0,0,1,.374-.569,26.1,26.1,0,0,0,8.394-3.7c-.4-9.2-3.736-33.1-3.736-33.1a339.594,339.594,0,0,1,.389-40.007l25.271-2.531c.644,2.306,2.276,10.977-2.636,33.762,4.111,11.449,1.228,17.851,0,31.928h-.045a2.253,2.253,0,0,0,.067.322c.09.494.157,1,.225,1.5a3.8,3.8,0,0,1-.981,1.2,2.914,2.914,0,0,1-2.478.524,5.18,5.18,0,0,1-2.1-1.445l-2.186-2.082a2.88,2.88,0,0,1-1.146-2.037,1.931,1.931,0,0,1,1.7-1.595,3.9,3.9,0,0,1,1.475.083c.24.179.457.359.681.524l-4.246-25.668-1-18.457-2.5,22.965c3.5,9.966-1.632,15.5-1.632,31.419a22.577,22.577,0,0,0,.464,3.878,8.706,8.706,0,0,1-2.823,2.875,12.42,12.42,0,0,1-3.227,1.34,22.574,22.574,0,0,1-6.08.854,2.664,2.664,0,0,1-1.939-.539A1.423,1.423,0,0,1-213.8-4065.84Z" transform="translate(241.803 4205.934)" fill="#fce0cb"/>
          <path id="Trazado_110055" d="M-207.531-4115.614c-.1-7.578,0-17.687.771-27.585l25.271-2.531c.607,2.164,2.089,9.958-1.827,29.846a19.16,19.16,0,0,1-10.049,3.7l-.809-15.013-1.617,15.215A17.366,17.366,0,0,1-207.531-4115.614Z" transform="translate(240.216 4205.929)" opacity="0.2"/>
          <path id="Trazado_110056" d="M-207.105-4143.98l25.294-1.729c2.463,6.963,1.939,15.283,0,27.248-3.055,3.789-14.377,6.829-21.086,3.115l-.8-8.267-.914,8.483c-2.037-.756-3.879-1.416-4.268-4.4A181.747,181.747,0,0,1-207.105-4143.98Z" transform="translate(240.546 4205.924)" fill="#c2e6b0"/>
          <path id="Trazado_110057" d="M-207.105-4143.98l25.294-1.729c2.463,6.963,1.939,15.283,0,27.248-3.055,3.789-14.377,6.829-21.086,3.115l-.8-8.267-.914,8.483c-2.037-.756-3.879-1.416-4.268-4.4A181.747,181.747,0,0,1-207.105-4143.98Z" transform="translate(240.546 4205.924)" opacity="0.3"/>
          <path id="Trazado_110058" d="M-201.71-4207.52l-1.76,3.3,1.572,1.071C-201.808-4204.57-201.8-4206.112-201.71-4207.52Z" transform="translate(239.187 4221.452)" fill="#fce0cb"/>
          <path id="Trazado_110059" d="M-234.233-4153.727a19.075,19.075,0,0,1-6.29,1.834,11.593,11.593,0,0,1-6.4-1.108,8.678,8.678,0,0,1-4.246-4.9h0a2.015,2.015,0,0,1,2.508-.375,8.375,8.375,0,0,0,6.3.756,14.238,14.238,0,0,1-1.782-2.231c-.255-.4-.487-.914-.232-1.3a.9.9,0,0,1,1.011-.27,3.171,3.171,0,0,1,.936.6,12.7,12.7,0,0,0,5.5,2.583C-236.1-4156.738-235.056-4155.1-234.233-4153.727Z" transform="translate(251.17 4209.86)" fill="#fce0cb"/>
          <path id="Trazado_110060" d="M-200.1-4188.453c3.3-1.019,12.916-3.115,15.335-.921,2.119,1.939,3.5,8.528.644,17a10.017,10.017,0,0,0,.337,7.406,44.242,44.242,0,0,1,2.92,8.341c-7.712,7.854-21.31,6.642-26.432,3.295a125.044,125.044,0,0,1,1.617-18.765Z" transform="translate(240.149 4217.136)" fill="#c2e6b0"/>
          <path id="Trazado_110061" d="M-199.956-4213.94a12.761,12.761,0,0,0-2,5.706,38.534,38.534,0,0,0-.082,6.1,3.99,3.99,0,0,0,.554,2.261,3.126,3.126,0,0,0,2.508.98h2.793l.2,4.208c3.317,1.842,7.061.554,8.027-.756l-.165-4.118c-5.167.973-7.959-.8-8.439-4.006a3.577,3.577,0,0,0,2.98-.779,3.422,3.422,0,0,0,.973-2.83,2.267,2.267,0,0,0-.532-1.251,2.03,2.03,0,0,0-2.112-.441,3.2,3.2,0,0,0-1.67,1.483,8.156,8.156,0,0,0-.779,2.141,1.937,1.937,0,0,1-.644-2.1c.142-.381.412-.741.352-1.145s-.524-.734-.741-1.138a1.5,1.5,0,0,1-.075-1.139,4.523,4.523,0,0,1,.494-1.056A10.955,10.955,0,0,0-199.956-4213.94Z" transform="translate(238.848 4223.065)" fill="#fce0cb"/>
          <path id="Trazado_110062" d="M-206.56-4162.249c.464-4.665,1.041-7.974,1.041-7.974l4.328-12.617,1.625,2.247C-200.555-4174.619-202.891-4167.229-206.56-4162.249Z" transform="translate(239.963 4215.252)" opacity="0.2"/>
          <path id="Trazado_110063" d="M-206.5-4188.042c-6.08-2.651-6.776,3.137-10.108,9.3-2.044,3.961-4.568,7.75-4.568,7.75a45.856,45.856,0,0,1-11.254,5.166c-1.325,3.489,1.752,6.919,1.752,6.919l13.051-5.661a11.832,11.832,0,0,0,5.346-4.635C-207.594-4176.825-204.157-4182.216-206.5-4188.042Z" transform="translate(246.546 4216.725)" fill="#c2e6b0"/>
          <path id="Trazado_110064" d="M-199.707-4214.973c-1.37-1.52-2.793-3.167-3.092-5.166a5.211,5.211,0,0,1,4.38-5.931,5.221,5.221,0,0,1,4.972,2.06c3.287-1.476,8-.532,10.258,2.276s2.456,6.971,2.059,10.663-1.168,7.488-.225,11.089c.846,3.227,3.033,6.162,2.958,9.5a8.4,8.4,0,0,1-2.935,5.945,11.731,11.731,0,0,1-6.177,2.673,11.565,11.565,0,0,1-5.96-.644,8.082,8.082,0,0,1-4.35-4.021c-1.041-2.322-.734-5.01-.157-7.488s1.385-4.957,1.288-7.5C-196.869-4206.114-200-4210.353-199.707-4214.973Z" transform="translate(239.033 4226.126)" fill="#016f3a"/>
        </g>
        <g id="freepik--character-2--inject-12" transform="translate(120.952 28.155)">
          <path id="Trazado_110065" d="M-194.248-4211.78h0a10.087,10.087,0,0,1,8.469,10.924l-1.25,13.021,8.266,1.647-2.643,6.38-14.384-1.453Z" transform="translate(252.751 4240.608)" fill="#33ab00"/>
          <path id="Trazado_110066" d="M-194.248-4211.78h0a10.087,10.087,0,0,1,8.469,10.924l-1.25,13.021,8.266,1.647-2.643,6.38-14.384-1.453Z" transform="translate(252.751 4240.608)" fill="#fff" opacity="0.1"/>
          <path id="Trazado_110067" d="M-187.027-4186.648a2.256,2.256,0,0,0-1.722,1.123,69.319,69.319,0,0,0,.719-10.266c-.045-2.509-.277-5.136-1.61-7.264a10.33,10.33,0,0,0-3.624-3.362c-.374-.225-.764-.434-1.153-.644l-1.363,26.978,14.384,1.453,2.643-6.379Z" transform="translate(252.748 4239.423)" opacity="0.3"/>
          <path id="Trazado_110068" d="M-184.052-4058.03a5.821,5.821,0,0,1-4.365,1.61,13.313,13.313,0,0,1-4.612-1.168c-1.475-.607-3.325-2.3-4.919-2.277a37.236,37.236,0,0,1-4.665-.314,23.921,23.921,0,0,1,.644-6.319l7.45-.2a18.417,18.417,0,0,0,8.88,5.9,2.631,2.631,0,0,1,1.842,1.94.048.048,0,0,0,0,.045A3.855,3.855,0,0,1-184.052-4058.03Z" transform="translate(254.468 4204.162)" fill="#33ab00"/>
          <path id="Trazado_110069" d="M-197.945-4057.679c1.595,0,3.452,1.67,4.919,2.277a13.472,13.472,0,0,0,4.612,1.168,5.792,5.792,0,0,0,4.365-1.61,3.351,3.351,0,0,0,.262-.756.048.048,0,0,1,0-.045,2.443,2.443,0,0,1,0,.989,3.54,3.54,0,0,1-.262.764,5.842,5.842,0,0,1-4.365,1.6,13.131,13.131,0,0,1-4.612-1.168c-1.475-.606-3.325-2.306-4.919-2.276a34.8,34.8,0,0,1-4.59-.262c-.037-.337-.06-.644-.075-1A37.193,37.193,0,0,0-197.945-4057.679Z" transform="translate(254.464 4201.976)" fill="#016f3a"/>
          <path id="Trazado_110070" d="M-225.245-4055.529a10.924,10.924,0,0,0,.217,2.262,5.234,5.234,0,0,0,2.067,3.295,6.543,6.543,0,0,0,3.28.876,7.161,7.161,0,0,0,3-.307,3.43,3.43,0,0,0,1.76-1.438v.038a3.125,3.125,0,0,1-2.022,2.1,7.153,7.153,0,0,1-3,.307,6.7,6.7,0,0,1-3.28-.876,5.234,5.234,0,0,1-2.067-3.295,10.882,10.882,0,0,1-.225-2.261,3.776,3.776,0,0,0-1.213-2.755c-.187-.18-.367-.36-.532-.547a1.334,1.334,0,0,1-.322-.981,1.265,1.265,0,0,1,.045-.412c.27.314.913,1.079,1.078,1.235A3.8,3.8,0,0,1-225.245-4055.529Z" transform="translate(260.739 4202.357)" fill="#016f3a"/>
          <path id="Trazado_110071" d="M-219.518-4064.7a8.225,8.225,0,0,0,.577,4.583,17.371,17.371,0,0,0,2.434,3.983,12.644,12.644,0,0,1,1.3,1.85,3.351,3.351,0,0,1,.359,2.134,3.434,3.434,0,0,1-1.76,1.438,7.161,7.161,0,0,1-3,.306,6.538,6.538,0,0,1-3.28-.876,5.233,5.233,0,0,1-2.067-3.295,10.917,10.917,0,0,1-.217-2.261,3.8,3.8,0,0,0-1.213-2.755c-.165-.157-.809-.914-1.078-1.236a8.394,8.394,0,0,1,1.108-3.2Z" transform="translate(260.71 4203.658)" fill="#33ab00"/>
          <path id="Trazado_110072" d="M-197.619-4162.93l-.644,42.478-2.007,29.711c-5.069,3.227-8.746.584-8.746.584-1.939-14.084-2.186-22.748-1.138-28.611l-.966-22.92-2.89,23.8-4.83,29.194c-5.2,3.377-8.88,0-8.88,0,0-10.8-.966-22.867,2.007-30.663a179.2,179.2,0,0,1,1.4-43.129Z" transform="translate(260.81 4228.336)" fill="#016f3a"/>
          <path id="Trazado_110073" d="M-204.4-4147.039l-1.056,8.761.442,10.737,1.939-17.648c4.523-1.768,5.122-4.261,5.122-4.261A14.13,14.13,0,0,1-204.4-4147.039Z" transform="translate(255.18 4224.95)" opacity="0.3"/>
          <path id="Trazado_110074" d="M-207.052-4212.5l4.964.524c4.066,3.594,6.17,11.111,5.294,19.423a147.3,147.3,0,0,0-.614,17.147c-11.022,8.049-24.934,2.187-26.686.441l.824-10.191a7.064,7.064,0,0,0-.562-3.354c-1.041-2.419-2.89-7.174-3.145-10.865a19.3,19.3,0,0,1,2.014-9.494l7.211-3.145Z" transform="translate(260.591 4240.79)" fill="#33ab00"/>
          <g id="Grupo_54795" transform="translate(33.594 28.289)" opacity="0.1">
            <path id="Trazado_110075" d="M-241.592-4241.609l4.964.524c4.066,3.586,6.17,11.112,5.294,19.423a147.3,147.3,0,0,0-.614,17.147c-11.022,8.05-24.934,2.187-26.686.442l.824-10.191a7.066,7.066,0,0,0-.562-3.354c-1.041-2.419-2.89-7.173-3.145-10.864a19.3,19.3,0,0,1,2.014-9.5l7.211-3.145Z" transform="translate(261.537 4241.609)" fill="#fff"/>
          </g>
          <path id="Trazado_110076" d="M-199-4202.811a53.827,53.827,0,0,1,4.081,19.378l-2.044,4.4-3.227-4.2a166.189,166.189,0,0,0-.382-19.311Z" transform="translate(253.952 4238.355)" fill="#fff"/>
          <path id="Trazado_110077" d="M-199.687-4207.63a15.326,15.326,0,0,1-.172,3.609,2.807,2.807,0,0,1-1.542.284,12.385,12.385,0,0,1-2.478-2.994l2.478-.9Z" transform="translate(254.783 4239.566)" fill="#fff"/>
          <path id="Trazado_110078" d="M-211.236-4226.941a3.324,3.324,0,0,1-2.074-3.833,4.457,4.457,0,0,1-1.3-2.673,4.464,4.464,0,0,1,.741-2.883c.27-2.569.457-5.151.562-7.728a2.972,2.972,0,0,1-.4-3.3,2.91,2.91,0,0,1,2.928-1.483,2.926,2.926,0,0,1,2.583-1.437,3.046,3.046,0,0,1,2.583,1.564,3.128,3.128,0,0,1,2.711-.913,3.168,3.168,0,0,1,2.381,1.617,2.262,2.262,0,0,1,2.239-.165,2.364,2.364,0,0,1,1.475,1.768,2.877,2.877,0,0,1,3.063,1.542,2.633,2.633,0,0,1-.749,3.182c1.325,1.94-.607,3.542-2.082,2.584-1.625,5.675-11.793,1.8-11.793,1.8Z" transform="translate(257.482 4250.281)" fill="#016f3a"/>
          <path id="Trazado_110079" d="M-210.356-4224.21l-.584,7.646a8.476,8.476,0,0,0,5.9,3.878c.487.067,1.385,1.018,1.857.9.27-.068.165-1.124.4-1.3a1.791,1.791,0,0,0,.329-2.516,1.945,1.945,0,0,0-.329-.329.982.982,0,0,1-.389-.854l.187-2.485c-1.138-.262-2.254-.547-3.227-.839A5.994,5.994,0,0,1-210.356-4224.21Z" transform="translate(256.557 4243.732)" fill="#fce0cb"/>
          <path id="Trazado_110080" d="M-210.356-4224.21l-.584,7.646a8.476,8.476,0,0,0,5.9,3.878c.487.067,1.385,1.018,1.857.9.27-.068.165-1.124.4-1.3a1.791,1.791,0,0,0,.329-2.516,1.945,1.945,0,0,0-.329-.329.982.982,0,0,1-.389-.854l.187-2.485c-1.138-.262-2.254-.547-3.227-.839A5.994,5.994,0,0,1-210.356-4224.21Z" transform="translate(256.557 4243.732)" opacity="0.3"/>
          <path id="Trazado_110081" d="M-202.934-4216.672l.187-2.485c-1.138-.262-2.254-.547-3.227-.839a6,6,0,0,1-3.976-3.744,7.671,7.671,0,0,0,1.325,3.8C-207.816-4218.926-203.8-4216.837-202.934-4216.672Z" transform="translate(256.308 4243.613)" opacity="0.2"/>
          <path id="Trazado_110082" d="M-197-4235.847c-.7.4-1.288.936-2.164.794a2.022,2.022,0,0,1-1.3-.787,1.5,1.5,0,0,1-2.1.307,1.5,1.5,0,0,1-.607-1.258,1.77,1.77,0,0,1-1.527.157c-.127-.045-1.34-.771-1.325-.786a3.63,3.63,0,0,1-1.475,1.565,3.984,3.984,0,0,1-2.321.3,13.6,13.6,0,0,1-1.2,4.111.843.843,0,0,1-.7.486c-.539,0-.719-.591-.831-1.071a3.513,3.513,0,0,0-.726-1.49,1.718,1.718,0,0,0-1.49-.6,1.7,1.7,0,0,0-1.1.764,2.927,2.927,0,0,0-.434,1.295,4.171,4.171,0,0,0,.27,2.239,2.824,2.824,0,0,0,1.617,1.528,2.035,2.035,0,0,0,2.082-.382v.142a5.4,5.4,0,0,0,0,.7,5.678,5.678,0,0,0,3,4.522c.869.457,1.842.937,2.838,1.393.487.224.988.449,1.483.644a3.878,3.878,0,0,0,4.987-1.865C-198.184-4226.907-196.619-4231.475-197-4235.847Z" transform="translate(257.915 4247.05)" fill="#fce0cb"/>
          <path id="Trazado_110083" d="M-197-4235.847c-.7.4-1.288.936-2.164.794a2.022,2.022,0,0,1-1.3-.787,1.5,1.5,0,0,1-2.1.307,1.5,1.5,0,0,1-.607-1.258,1.77,1.77,0,0,1-1.527.157c-.127-.045-1.34-.771-1.325-.786a3.63,3.63,0,0,1-1.475,1.565,3.984,3.984,0,0,1-2.321.3,13.6,13.6,0,0,1-1.2,4.111.843.843,0,0,1-.7.486c-.539,0-.719-.591-.831-1.071a3.513,3.513,0,0,0-.726-1.49,1.718,1.718,0,0,0-1.49-.6,1.7,1.7,0,0,0-1.1.764,2.927,2.927,0,0,0-.434,1.295,4.171,4.171,0,0,0,.27,2.239,2.824,2.824,0,0,0,1.617,1.528,2.035,2.035,0,0,0,2.082-.382v.142a5.4,5.4,0,0,0,0,.7,5.678,5.678,0,0,0,3,4.522c.869.457,1.842.937,2.838,1.393.487.224.988.449,1.483.644a3.878,3.878,0,0,0,4.987-1.865C-198.184-4226.907-196.619-4231.475-197-4235.847Z" transform="translate(257.915 4247.05)" opacity="0.3"/>
          <path id="Trazado_110084" d="M-198.916-4230.657l-.434-.12-.464-.135a6.812,6.812,0,0,0-6.005-2.4l-.27.943.21.2a9.5,9.5,0,0,1-.307,1.939,2.618,2.618,0,0,0,.21,1.842,2.935,2.935,0,0,0,1.715,1.011,3.517,3.517,0,0,0,1.595.217,2.567,2.567,0,0,0,1.595-1.1c.389-.525.449-.876.928-1.505a.53.53,0,0,1,.584-.187.494.494,0,0,1,.359.457c.06.779-.075,1.108-.037,1.76a2.56,2.56,0,0,0,.689,1.715,3.124,3.124,0,0,0,1.37.644,2.064,2.064,0,0,0,2.785-.892,2.023,2.023,0,0,0,.195-.554,10.113,10.113,0,0,1,.741-1.79l.27-.068.27-.943A6.016,6.016,0,0,0-198.916-4230.657Zm-1.49.1-.135.329a7.96,7.96,0,0,1-.966,1.655,2.131,2.131,0,0,1-1.243.869,2.741,2.741,0,0,1-1.153-.142l-.2-.061a2.46,2.46,0,0,1-1.415-.8,2.033,2.033,0,0,1-.15-1.468,2.614,2.614,0,0,1,.1-.494c.1-.457.412-1.437.644-2.142a5.918,5.918,0,0,1,1.625.239,6.2,6.2,0,0,1,2.89,1.82c.06.045-.03.195-.03.195Zm5.9,3.063c-.06.157-.112.314-.172.471a2.047,2.047,0,0,1-.869,1.176,2.145,2.145,0,0,1-1.527-.045l-.187-.052a2.4,2.4,0,0,1-.981-.472,2.063,2.063,0,0,1-.539-1.386,8.976,8.976,0,0,1,.09-1.9l.067-.353s.03-.165.09-.18a5.513,5.513,0,0,1,3.227-.067,5.094,5.094,0,0,1,1.408.644c-.18.711-.442,1.707-.6,2.149Z" transform="translate(255.383 4246.03)" fill="#33ab00"/>
          <path id="Trazado_110085" d="M-207.537-4233.32l-5.563.359a2.284,2.284,0,0,1,.854.749c.037.067,4.44-.165,4.44-.165Z" transform="translate(257.1 4246.02)" fill="#33ab00"/>
          <path id="Trazado_110086" d="M-197.706-4228.73l1.655,3.8-2.568.157Z" transform="translate(253.462 4244.867)" fill="#fce0cb"/>
          <path id="Trazado_110087" d="M-197.706-4228.73l1.655,3.8-2.568.157Z" transform="translate(253.462 4244.867)" opacity="0.3"/>
          <path id="Trazado_110088" d="M-202.36-4229.768a.731.731,0,0,0,.5.906.731.731,0,0,0,.906-.5.733.733,0,0,0-.494-.906h0a.742.742,0,0,0-.914.5Z" transform="translate(254.409 4245.26)" fill="#016f3a"/>
          <path id="Trazado_110089" d="M-194.45-4227.774a.735.735,0,0,0,.487.906.735.735,0,0,0,.906-.486.735.735,0,0,0-.487-.906h0a.712.712,0,0,0-.891.479Z" transform="translate(252.422 4244.756)" fill="#016f3a"/>
          <path id="Trazado_110090" d="M-193.75-4232l1.812.742a1.035,1.035,0,0,0-.547-1.049A1.249,1.249,0,0,0-193.75-4232Z" transform="translate(252.238 4245.782)" fill="#016f3a"/>
          <path id="Trazado_110091" d="M-200.1-4234.06l-1.939.292a1.037,1.037,0,0,1,.786-.884A1.242,1.242,0,0,1-200.1-4234.06Z" transform="translate(254.321 4246.355)" fill="#016f3a"/>
          <path id="Trazado_110092" d="M-202.521-4222.67l1.864,1.3a1.348,1.348,0,0,1-1.595.2A1.2,1.2,0,0,1-202.521-4222.67Z" transform="translate(254.48 4243.344)" fill="#fce0cb"/>
          <path id="Trazado_110093" d="M-202.521-4222.67l1.864,1.3a1.348,1.348,0,0,1-1.595.2A1.2,1.2,0,0,1-202.521-4222.67Z" transform="translate(254.48 4243.344)" opacity="0.4"/>
          <path id="Trazado_110094" d="M-201.562-4220.893a1.171,1.171,0,0,1-.689-.172,1.1,1.1,0,0,1-.382-1.146,1.238,1.238,0,0,1,1.071,1.295Z" transform="translate(254.479 4243.229)" fill="#fce0cb"/>
          <path id="Trazado_110095" d="M-204.115-4209.655c-2.141.786-4.043,4.589-4.043,4.589-5.616-4.762-6.492-7.75-6.492-7.75a11.314,11.314,0,0,1,2.726-2.875Z" transform="translate(257.489 4241.591)" fill="#33ab00"/>
          <path id="Trazado_110096" d="M-200.58-4209.213c1.625.045,3.077,2.322,3.077,2.322.262-3.977-3.077-7.039-3.077-7.039Z" transform="translate(253.954 4241.149)" fill="#33ab00"/>
          <path id="Trazado_110097" d="M-188.022-4169.506l5.092-20.726a2.446,2.446,0,0,1,1.153-1.535l12.654-7.286a.465.465,0,0,1,.24-.067h0a1.2,1.2,0,0,1,1.146.809h0a.478.478,0,0,1,.03.322l-5.069,20.727a2.447,2.447,0,0,1-1.153,1.535l-12.677,7.271a.5.5,0,0,1-.329.052h0a1.478,1.478,0,0,1-1.056-.8.049.049,0,0,1,0-.045h0A.482.482,0,0,1-188.022-4169.506Z" transform="translate(250.801 4237.428)" fill="#c2e6b0"/>
          <path id="Trazado_110098" d="M-187.095-4168.811l5.069-20.733a2.43,2.43,0,0,1,1.153-1.528l12.654-7.293a.483.483,0,0,1,.666.157.487.487,0,0,1,.052.382l-5.069,20.726a2.467,2.467,0,0,1-1.153,1.535l-12.662,7.279a.5.5,0,0,1-.329.052.488.488,0,0,1-.389-.562Z" transform="translate(250.57 4237.257)" opacity="0.3"/>
          <path id="Trazado_110099" d="M-169.19-4177.469l-.472.254a1.746,1.746,0,0,1-.928.21l-2.052-.127a.959.959,0,0,0-1,.779h0a.956.956,0,0,0,.719,1.1l.382.09-.449,2.644a1.669,1.669,0,0,0,1.348,1.931h0l.037.008,1.168.172a2.194,2.194,0,0,0,1.393-.255h0a2.179,2.179,0,0,0,1.048-1.37l1.25-4.874a3.285,3.285,0,0,0-.644-2.883h0A3.628,3.628,0,0,1-169.19-4177.469Z" transform="translate(247.191 4232.573)" fill="#fce0cb"/>
          <path id="Trazado_110100" d="M-169.19-4177.469l-.472.254a1.746,1.746,0,0,1-.928.21l-2.052-.127a.959.959,0,0,0-1,.779h0a.956.956,0,0,0,.719,1.1l.382.09-.449,2.644a1.669,1.669,0,0,0,1.348,1.931h0l.037.008,1.168.172a2.194,2.194,0,0,0,1.393-.255h0a2.179,2.179,0,0,0,1.048-1.37l1.25-4.874a3.285,3.285,0,0,0-.644-2.883h0A3.628,3.628,0,0,1-169.19-4177.469Z" transform="translate(247.191 4232.573)" opacity="0.3"/>
          <path id="Trazado_110101" d="M-172.18-4173.66a5.235,5.235,0,0,0,3.033-.15,2.055,2.055,0,0,1-2.89.285C-172.083-4173.571-172.135-4173.615-172.18-4173.66Z" transform="translate(246.82 4231.07)" opacity="0.2"/>
          <path id="Trazado_110102" d="M-226.861-4199.33a16.569,16.569,0,0,0-.12,3.28c.255,3.692,2.1,8.446,3.145,10.864a7.279,7.279,0,0,1,.517,1.939c2.658-4.583,3.6-6.994,3.721-13.006Z" transform="translate(260.595 4237.48)" opacity="0.3"/>
          <path id="Trazado_110103" d="M-245.105-4184.248l-12.864-2.673-1.011,4.275,12.639,6.328a7.724,7.724,0,0,0,2.044-3.744A5.48,5.48,0,0,0-245.105-4184.248Z" transform="translate(268.626 4234.363)" fill="#fce0cb"/>
          <path id="Trazado_110104" d="M-245.105-4184.248l-12.864-2.673-1.011,4.275,12.639,6.328a7.724,7.724,0,0,0,2.044-3.744A5.48,5.48,0,0,0-245.105-4184.248Z" transform="translate(268.626 4234.363)" opacity="0.3"/>
          <path id="Trazado_110105" d="M-228.757-4207.683c-6.38,3.092-5.309,8.027-11.164,18.375l-.943-.194a5.488,5.488,0,0,1,.809,4.193,7.783,7.783,0,0,1-2.044,3.744l2.793.779a7.04,7.04,0,0,0,7.922-3.138l6.574-10.872C-221.284-4200.5-223.343-4209.255-228.757-4207.683Z" transform="translate(264.385 4239.626)" fill="#33ab00"/>
          <path id="Trazado_110106" d="M-228.757-4207.683c-6.38,3.092-5.309,8.027-11.164,18.375l-.943-.194a5.488,5.488,0,0,1,.809,4.193,7.783,7.783,0,0,1-2.044,3.744l2.793.779a7.04,7.04,0,0,0,7.922-3.138l6.574-10.872C-221.284-4200.5-223.343-4209.255-228.757-4207.683Z" transform="translate(264.385 4239.626)" fill="#fff" opacity="0.1"/>
          <path id="Trazado_110107" d="M-233.9-4182.3l-5.331-1.108.292-.532C-235.194-4185.442-233.9-4182.3-233.9-4182.3Z" transform="translate(263.664 4233.717)" opacity="0.3"/>
          <path id="Trazado_110108" d="M-241.717-4175.192a5.512,5.512,0,0,0,1.572-7.638,5.119,5.119,0,0,0-.666-.824,2.3,2.3,0,0,0-1.086-.644l-2-.487a1.56,1.56,0,0,0-1.243.232l-.15.1,1.715.353c3.347,2.583,1.146,7.51-.816,7.674l-1.939-.973a.9.9,0,0,0,.427,1.108,16.106,16.106,0,0,0,3.1,1.3A1.628,1.628,0,0,0-241.717-4175.192Z" transform="translate(265.462 4233.837)" fill="#33ab00"/>
          <path id="Trazado_110109" d="M-260.359-4187.3a2.7,2.7,0,0,0-2.336-1.348,8.818,8.818,0,0,0-2.778.494,9.167,9.167,0,0,1-2.007.4.85.85,0,0,0-.809.742h0a.825.825,0,0,0,.726.913h.067c.846,0,1.707.1,2.538.067a26.157,26.157,0,0,1-6.417,5.481.956.956,0,0,0-.367,1.3h0a1.086,1.086,0,0,0,.157.209h0a.954.954,0,0,0,1.108.173,33.713,33.713,0,0,0,4.448-2.846,24.724,24.724,0,0,1-4.261,3.535.963.963,0,0,0-.27,1.333.926.926,0,0,0,.27.27h0a.968.968,0,0,0,1.041.045,24.386,24.386,0,0,0,5.5-4.522,21.177,21.177,0,0,1-3.122,3.526.921.921,0,0,0-.06,1.3h0a.9.9,0,0,0,1.206.127,17.814,17.814,0,0,0,4.081-4.028,17.406,17.406,0,0,1-2.868,3.968.6.6,0,0,0,.03.846l.037.03h0a.6.6,0,0,0,.771,0,23.824,23.824,0,0,0,5.721-7,6.837,6.837,0,0,0,.719-2.253,2.97,2.97,0,0,0-.644-2.231A2.589,2.589,0,0,0-260.359-4187.3Z" transform="translate(271.862 4234.798)" fill="#fce0cb"/>
          <path id="Trazado_110110" d="M-260.359-4187.3a2.7,2.7,0,0,0-2.336-1.348,8.818,8.818,0,0,0-2.778.494,9.167,9.167,0,0,1-2.007.4.85.85,0,0,0-.809.742h0a.825.825,0,0,0,.726.913h.067c.846,0,1.707.1,2.538.067a26.157,26.157,0,0,1-6.417,5.481.956.956,0,0,0-.367,1.3h0a1.086,1.086,0,0,0,.157.209h0a.954.954,0,0,0,1.108.173,33.713,33.713,0,0,0,4.448-2.846,24.724,24.724,0,0,1-4.261,3.535.963.963,0,0,0-.27,1.333.926.926,0,0,0,.27.27h0a.968.968,0,0,0,1.041.045,24.386,24.386,0,0,0,5.5-4.522,21.177,21.177,0,0,1-3.122,3.526.921.921,0,0,0-.06,1.3h0a.9.9,0,0,0,1.206.127,17.814,17.814,0,0,0,4.081-4.028,17.406,17.406,0,0,1-2.868,3.968.6.6,0,0,0,.03.846l.037.03h0a.6.6,0,0,0,.771,0,23.824,23.824,0,0,0,5.721-7,6.837,6.837,0,0,0,.719-2.253,2.97,2.97,0,0,0-.644-2.231A2.589,2.589,0,0,0-260.359-4187.3Z" transform="translate(271.862 4234.798)" opacity="0.3"/>
          <path id="Trazado_110111" d="M-262.658-4185.12c.442,1.528,2.845,1.677,3.564,1.175C-261.288-4182.185-263.048-4184.274-262.658-4185.12Z" transform="translate(269.563 4233.911)" opacity="0.2"/>
        </g>
        <g id="freepik--character-1--inject-12" transform="translate(59.642 111.68)">
          <path id="Trazado_110112" d="M-290.349-4162.771l3.751-7.794h0c4.2-8.753,7.915-18.638,15.313-16.338l-7.9,21.19-1.595,3.354,3.811,4.2-.277,10.011-12.272-10.67A3.326,3.326,0,0,1-290.349-4162.771Z" transform="translate(290.672 4215.249)" fill="#c2e6b0"/>
          <path id="Trazado_110113" d="M-290.349-4162.771l3.751-7.794h0c4.2-8.753,7.915-18.638,15.313-16.338l-7.9,21.19-1.595,3.354,3.811,4.2-.277,10.011-12.272-10.67A3.326,3.326,0,0,1-290.349-4162.771Z" transform="translate(290.672 4215.249)" opacity="0.3"/>
          <path id="Trazado_110114" d="M-280.39-4151.007a7.661,7.661,0,0,0,2.194-3l.951,1.048A4.853,4.853,0,0,1-280.39-4151.007Z" transform="translate(288.089 4206.9)" opacity="0.1"/>
          <path id="Trazado_110115" d="M-275.805-4152.18l2.583,2.83-.277,10.011-2.321-2.014A71.6,71.6,0,0,0-275.805-4152.18Z" transform="translate(286.941 4206.44)" opacity="0.1"/>
          <path id="Trazado_110116" d="M-276.178-4177.108a14.519,14.519,0,0,1,5.646-.906l-5.444,14.6-1.1,2.306A26,26,0,0,1-276.178-4177.108Z" transform="translate(287.472 4212.934)" opacity="0.1"/>
          <path id="Trazado_110117" d="M-245.278-4197.71h0a3.918,3.918,0,0,1,2.411,1.895l2.651,4.822,8.633,9.868a23.43,23.43,0,0,1,5.226,10.3h0a4.811,4.811,0,0,1-1.243,4.41h0a4.815,4.815,0,0,1-6.814.075h0l-2.89-2.793.644-4.44-7.488-14.579-4.126-2.418a3.411,3.411,0,0,1-1.632-2.374l-.314-1.9Z" transform="translate(280.51 4217.879)" fill="#fce0cb"/>
          <path id="Trazado_110118" d="M-249.529-4017.684a3.964,3.964,0,0,0,3.572,2.4,18.04,18.04,0,0,0,4.523-.577c3.355-.606,6.589,0,9.936-.083a14.5,14.5,0,0,0,3.265-.352,5.375,5.375,0,0,0,2.793-1.647,3.661,3.661,0,0,0,.809-1.752,3.465,3.465,0,0,1-.809,2.733,5.373,5.373,0,0,1-2.793,1.648,13.734,13.734,0,0,1-3.265.352c-3.347.075-6.582-.524-9.936.083a17.719,17.719,0,0,1-4.523.576,3.963,3.963,0,0,1-3.572-2.4,3.972,3.972,0,0,1-.12-1.542A3.385,3.385,0,0,0-249.529-4017.684Z" transform="translate(280.373 4173.156)" fill="#33ab00"/>
          <path id="Trazado_110119" d="M-249.435-4022.63c.21-1.01.4-2.036.644-3.047a4.674,4.674,0,0,1,.517-1.55,1.535,1.535,0,0,1,1.355-.779c1.842-.247,4.418-.913,5.945.142a13.648,13.648,0,0,0,8.214,2.381,28.538,28.538,0,0,1,4.523-.179,4.1,4.1,0,0,1,3.527,2.471,3.043,3.043,0,0,1,.075,1.325,3.659,3.659,0,0,1-.809,1.752,5.373,5.373,0,0,1-2.793,1.647,13.76,13.76,0,0,1-3.265.352c-3.347.075-6.582-.524-9.936.082a17.7,17.7,0,0,1-4.523.577,3.963,3.963,0,0,1-3.572-2.4,3.761,3.761,0,0,1-.12-.562A7.883,7.883,0,0,1-249.435-4022.63Z" transform="translate(280.369 4175.354)" fill="#33ab00"/>
          <g id="Grupo_54796" transform="translate(30.696 146.913)" opacity="0.5">
            <path id="Trazado_110120" d="M-281.1-4168.8a3.962,3.962,0,0,0,3.572,2.4,18.05,18.05,0,0,0,4.523-.576c3.355-.606,6.589,0,9.936-.082a14.545,14.545,0,0,0,3.265-.352,5.38,5.38,0,0,0,2.793-1.647,3.663,3.663,0,0,0,.809-1.752,3.465,3.465,0,0,1-.809,2.733,5.376,5.376,0,0,1-2.793,1.647,14.177,14.177,0,0,1-3.265.352c-3.347.075-6.582-.524-9.936.082a17.7,17.7,0,0,1-4.523.577,3.963,3.963,0,0,1-3.572-2.4,3.974,3.974,0,0,1-.12-1.542A3.764,3.764,0,0,0-281.1-4168.8Z" transform="translate(281.247 4177.363)" fill="#fff" opacity="0.6"/>
            <path id="Trazado_110121" d="M-281.005-4173.75c.21-1.011.4-2.037.644-3.048a4.664,4.664,0,0,1,.517-1.549,1.534,1.534,0,0,1,1.355-.779c1.842-.248,4.418-.914,5.945.142a13.659,13.659,0,0,0,8.214,2.381,28.48,28.48,0,0,1,4.523-.18,4.1,4.1,0,0,1,3.527,2.471,3.047,3.047,0,0,1,.075,1.326,3.663,3.663,0,0,1-.809,1.752,5.369,5.369,0,0,1-2.793,1.647,13.66,13.66,0,0,1-3.265.352c-3.347.076-6.582-.524-9.936.083a17.74,17.74,0,0,1-4.523.576,3.964,3.964,0,0,1-3.572-2.4,3.771,3.771,0,0,1-.12-.562A7.877,7.877,0,0,1-281.005-4173.75Z" transform="translate(281.242 4179.562)" fill="#374f46"/>
          </g>
          <path id="Trazado_110122" d="M-240.027-4031.97l.127,3.969a1.572,1.572,0,0,1-1.46,1.625,25.454,25.454,0,0,1-4-.038,2.259,2.259,0,0,1-2.044-2.134l-.157-2.927Z" transform="translate(279.842 4176.241)" fill="#fce0cb"/>
          <path id="Trazado_110123" d="M-272.147-4038.124a3.069,3.069,0,0,0,.532,1.64,3.022,3.022,0,0,0,1.872,1.056,4.739,4.739,0,0,0,4.65-1.94c.494-.726.779-1.572,1.25-2.321a10.49,10.49,0,0,1,2.583-2.531,11.193,11.193,0,0,0,2.628-2.516,3.7,3.7,0,0,0,.494-3.355,2.437,2.437,0,0,1,.247.427,3.828,3.828,0,0,1-.464,3.572,11.124,11.124,0,0,1-2.681,2.583,10.74,10.74,0,0,0-2.658,2.613c-.487.764-.779,1.639-1.288,2.381a4.791,4.791,0,0,1-4.74,1.969,3.01,3.01,0,0,1-1.939-1.086,3.706,3.706,0,0,1-.554-2.276A.29.29,0,0,0-272.147-4038.124Z" transform="translate(286.039 4180.291)" fill="#33ab00"/>
          <path id="Trazado_110124" d="M-270.9-4043.75c1.206-2.111,3.691-3.653,5.616-5.166a7.218,7.218,0,0,1,3.729-1.692,3.472,3.472,0,0,1,3.459,1.768.636.636,0,0,1,.037.112,3.721,3.721,0,0,1-.494,3.354,10.753,10.753,0,0,1-2.628,2.516,10.5,10.5,0,0,0-2.583,2.531c-.472.742-.756,1.595-1.25,2.321a4.746,4.746,0,0,1-4.65,1.939,2.957,2.957,0,0,1-1.872-1.056,3.072,3.072,0,0,1-.532-1.64c-.008-.195-.008-.382,0-.577A9.2,9.2,0,0,1-270.9-4043.75Z" transform="translate(286.001 4180.93)" fill="#33ab00"/>
          <g id="Grupo_54797" transform="translate(13.813 130.294)" opacity="0.5">
            <path id="Trazado_110125" d="M-286.347-4172.144a3.07,3.07,0,0,0,.532,1.64,3.023,3.023,0,0,0,1.872,1.056,4.739,4.739,0,0,0,4.65-1.939c.494-.727.779-1.572,1.25-2.321a10.624,10.624,0,0,1,2.583-2.53,11.2,11.2,0,0,0,2.628-2.517,3.7,3.7,0,0,0,.494-3.354,2.438,2.438,0,0,1,.247.426,3.829,3.829,0,0,1-.464,3.572,11.139,11.139,0,0,1-2.681,2.584,10.745,10.745,0,0,0-2.658,2.613c-.487.764-.779,1.64-1.288,2.381a4.792,4.792,0,0,1-4.74,1.969,3.011,3.011,0,0,1-1.939-1.086,3.7,3.7,0,0,1-.554-2.276A.319.319,0,0,0-286.347-4172.144Z" transform="translate(286.427 4184.015)" fill="#fff" opacity="0.6"/>
            <path id="Trazado_110126" d="M-285.1-4177.77c1.206-2.111,3.691-3.654,5.616-5.166a7.218,7.218,0,0,1,3.729-1.692,3.473,3.473,0,0,1,3.459,1.767.636.636,0,0,1,.037.112,3.722,3.722,0,0,1-.494,3.355,10.751,10.751,0,0,1-2.628,2.516,10.515,10.515,0,0,0-2.583,2.531c-.472.741-.756,1.595-1.25,2.32a4.744,4.744,0,0,1-4.65,1.939,2.951,2.951,0,0,1-1.872-1.056,3.068,3.068,0,0,1-.532-1.639c-.007-.195-.007-.382,0-.577A9.2,9.2,0,0,1-285.1-4177.77Z" transform="translate(286.39 4184.654)" fill="#374f46"/>
          </g>
          <path id="Trazado_110127" d="M-265.517-4043.89v3.609a6.039,6.039,0,0,1-5.616-.255l-.337-3.227Z" transform="translate(285.848 4179.236)" fill="#fce0cb"/>
          <path id="Trazado_110128" d="M-272.972-4131.311c-1.078,3.227.247,18.667.876,33.456-2.344,5.593-1.715,21.468-.359,32.744,0,0,2.344,1.438,6.589,0l5.309-31.112.734-17.589s1.34,15.6,2.868,25.616c-1.438,7.668-1.078,9.105,2.478,32.684a8.914,8.914,0,0,0,7.982,0c2.014-33.126,1.3-63.294.891-74.174Z" transform="translate(286.4 4201.198)" fill="#33ab00"/>
          <path id="Trazado_110129" d="M-272.876-4131.311l27.383,1.618c.127,3.684.307,9.614.4,17.132a28.506,28.506,0,0,1-14.212,3.04c-.255-2.613-.4-4.3-.4-4.3l-.18,4.26a28.483,28.483,0,0,1-12.916-4.193C-273.273-4122.31-273.557-4129.251-272.876-4131.311Z" transform="translate(286.303 4201.198)" opacity="0.3"/>
          <path id="Trazado_110130" d="M-258.832-4100.265l.607-14.347c-3.706,0-7.151-2.771-9.764-5.4a16.578,16.578,0,0,0,7.383,6.461Z" transform="translate(284.974 4198.359)" opacity="0.3"/>
          <path id="Trazado_110131" d="M-276.19-4133.046c.255-3.774,1.939-20.022,1.67-23.894-.554-7.81-1.722-15.058-1.58-18.869.21-5.676.906-12.085,9.689-10.8l9.375.914,4.755,1.146,6.612,13.725v17.042l.891,24.544A34.246,34.246,0,0,1-264-4126.854a72.185,72.185,0,0,1-2.059-12.572,60.7,60.7,0,0,0-1.011,11.869C-272.139-4129.026-275.5-4131.512-276.19-4133.046Z" transform="translate(287.034 4215.131)" fill="#c2e6b0"/>
          <path id="Trazado_110132" d="M-276.19-4133.046c.255-3.774,1.939-20.022,1.67-23.894-.554-7.81-1.722-15.058-1.58-18.869.21-5.676.906-12.085,9.689-10.8l9.375.914,4.755,1.146,6.612,13.725v17.042l.891,24.544A34.246,34.246,0,0,1-264-4126.854a72.185,72.185,0,0,1-2.059-12.572,60.7,60.7,0,0,0-1.011,11.869C-272.139-4129.026-275.5-4131.512-276.19-4133.046Z" transform="translate(287.034 4215.131)" opacity="0.3"/>
          <path id="Trazado_110133" d="M-237.684-4163.149l-6.776-7.45a32.268,32.268,0,0,0,6.776,13.927Z" transform="translate(279.063 4211.068)" opacity="0.1"/>
          <path id="Trazado_110134" d="M-251.093-4214.5a1.335,1.335,0,0,0,.195-1.467,1.719,1.719,0,0,0,1.393-.194,1.283,1.283,0,0,0,.607-1.2,1.066,1.066,0,0,0-.9-.952,1.863,1.863,0,0,0,1.4-1.977,2.268,2.268,0,0,0-1.565-1.737,5.387,5.387,0,0,0-2.441-.136,1.942,1.942,0,0,0-1.033-2.313,2.382,2.382,0,0,0-2.239.368,7.056,7.056,0,0,0-1.587,1.744,6.982,6.982,0,0,0-9.465,2.816,6.7,6.7,0,0,0-.464,1.063,4.8,4.8,0,0,0-3.115,3.228,7.587,7.587,0,0,0,.262,4.522,20.652,20.652,0,0,0,2.126,4.1l1.168,1.857c.487.779,1.752,2.7,2.239,3.482a7.27,7.27,0,0,0,6.934-.427,11.76,11.76,0,0,0,4.448-5.525A37.369,37.369,0,0,0-251.093-4214.5Z" transform="translate(285.613 4224.635)" fill="#016f3a"/>
          <path id="Trazado_110135" d="M-261.539-4200.441a6.747,6.747,0,0,1-3.033-.7h0l-1.108-1.714c-.442-.682-.891-1.377-1.138-1.767-.4-.644-.786-1.235-1.176-1.857a21.22,21.22,0,0,1-2.134-4.111,7.787,7.787,0,0,1-.27-4.62,4.906,4.906,0,0,1,3.122-3.3,7.373,7.373,0,0,1,4.126-4.252,7.194,7.194,0,0,1,5.855.329,6.829,6.829,0,0,1,1.557-1.692,2.517,2.517,0,0,1,2.359-.382,2.1,2.1,0,0,1,1.146,2.284,5.3,5.3,0,0,1,2.321.157,2.383,2.383,0,0,1,1.64,1.834,1.85,1.85,0,0,1-.359,1.333,2.066,2.066,0,0,1-.771.644,1.247,1.247,0,0,1,.644.936,1.425,1.425,0,0,1-.644,1.3,1.859,1.859,0,0,1-1.288.262,1.291,1.291,0,0,1-.27,1.355,37.782,37.782,0,0,1-2.029,7.278,11.757,11.757,0,0,1-4.523,5.571A7.711,7.711,0,0,1-261.539-4200.441Zm-2.9-.9a7.1,7.1,0,0,0,6.784-.435,11.843,11.843,0,0,0,4.4-5.474,37.732,37.732,0,0,0,2.014-7.264v-.037h0a1.193,1.193,0,0,0,.165-1.333l-.12-.262.27.1a1.55,1.55,0,0,0,1.3-.18,1.159,1.159,0,0,0,.554-1.078.962.962,0,0,0-.794-.846l-.876-.1.876-.135a1.639,1.639,0,0,0,.988-.644,1.585,1.585,0,0,0,.314-1.168,2.172,2.172,0,0,0-1.49-1.64,5.452,5.452,0,0,0-2.381-.127h-.195l.067-.18a1.848,1.848,0,0,0-.966-2.164,2.3,2.3,0,0,0-2.134.352,6.945,6.945,0,0,0-1.557,1.715l-.06.083-.09-.045a7,7,0,0,0-5.758-.367,7.121,7.121,0,0,0-4.013,4.178v.053h-.06a4.683,4.683,0,0,0-3.025,3.16,7.535,7.535,0,0,0,.262,4.47,20.8,20.8,0,0,0,2.119,4.066c.382.644.779,1.243,1.168,1.856.247.4.689,1.086,1.138,1.767Z" transform="translate(285.636 4224.646)" fill="#272526"/>
          <path id="Trazado_110136" d="M-243.14-4204.681l1.475,2.583-1.468.54A28.963,28.963,0,0,0-243.14-4204.681Z" transform="translate(278.731 4219.63)" fill="#fce0cb"/>
          <path id="Trazado_110137" d="M-249.155-4211.11a20.749,20.749,0,0,1,1.071,4.815,30.724,30.724,0,0,1,0,3.107,30.352,30.352,0,0,1-.5,4.351,4.842,4.842,0,0,1-.846,2.186,3.438,3.438,0,0,1-2.374,1.086,9.861,9.861,0,0,1-2.651-.254v4.215c-3.227.756-5.855,1.093-8.364-.846l.262-5.429a7.865,7.865,0,0,0,4.523-.711c2.209-1.2,2.83-3.1,2.516-4.163a1.659,1.659,0,0,1-1.73.606,2.329,2.329,0,0,1-1.438-1.138,4.725,4.725,0,0,1-.539-1.8,3.217,3.217,0,0,1,.329-2.231,2.329,2.329,0,0,1,2.508-.839,3.583,3.583,0,0,1,2.1,1.76,5.283,5.283,0,0,1,.374.809.5.5,0,0,0,.621.33.5.5,0,0,0,.352-.464,6.664,6.664,0,0,0-.644-3.527,2.492,2.492,0,0,0,1.183.27,1.5,1.5,0,0,0,1.131-.524,1.012,1.012,0,0,0,.045-1.2A1.936,1.936,0,0,0-249.155-4211.11Z" transform="translate(283.675 4221.245)" fill="#fce0cb"/>
          <path id="Trazado_110138" d="M-241.43-4182.9a6.843,6.843,0,0,1,7.158-2.583c3.033,3.811,7.75,8.012,9.914,12.916a14.785,14.785,0,0,1,1.3,4.2,7.1,7.1,0,0,1-.719,4.276,5.687,5.687,0,0,1-4.807,2.868c-1.939,0-4.141-2.029-5.653-3.295.247-6.02,2.022-8.012,2.022-8.012Z" transform="translate(278.302 4214.859)" fill="#c2e6b0"/>
          <path id="Trazado_110139" d="M-241.43-4182.9a6.843,6.843,0,0,1,7.158-2.583c3.033,3.811,7.75,8.012,9.914,12.916a14.785,14.785,0,0,1,1.3,4.2,7.1,7.1,0,0,1-.719,4.276,5.687,5.687,0,0,1-4.807,2.868c-1.939,0-4.141-2.029-5.653-3.295.247-6.02,2.022-8.012,2.022-8.012Z" transform="translate(278.302 4214.859)" opacity="0.3"/>
          <path id="Trazado_110140" d="M-241.43-4182.5a6.3,6.3,0,0,1,1.617-1.564,11.466,11.466,0,0,1,3.991,2.276,31.59,31.59,0,0,1,3.969,4.335c1.55,1.94,2.935,3.879,4.485,5.811l-6.612,4.755c.562-3.826,1.76-5.167,1.76-5.167Z" transform="translate(278.302 4214.45)" opacity="0.1"/>
          <path id="Trazado_110141" d="M-228.6-4171.6l-8.88-8.738a12.479,12.479,0,0,0-7.308-3.5h-.165c-3.759,8.244,1.213,12.272,1.213,12.272l8.252,7.585A14.911,14.911,0,0,0-228.6-4171.6Z" transform="translate(279.539 4214.392)" fill="#c2e6b0"/>
          <path id="Trazado_110142" d="M-228.6-4171.6l-8.88-8.738a12.479,12.479,0,0,0-7.308-3.5h-.165c-3.759,8.244,1.213,12.272,1.213,12.272l8.252,7.585A14.911,14.911,0,0,0-228.6-4171.6Z" transform="translate(279.539 4214.392)" opacity="0.3"/>
          <path id="Trazado_110143" d="M-263.579-4189.18l-.8,2.313c3.826,4.845,11.516,1.527,11.516,1.527l-.427-2.733C-258.083-4187.083-263.579-4189.18-263.579-4189.18Z" transform="translate(284.067 4215.736)" fill="#f5f5f5"/>
        </g>
      </g>
    </g>
  </g>
</svg>
