<svg xmlns="http://www.w3.org/2000/svg" xmlns:xlink="http://www.w3.org/1999/xlink" width="289.538" height="349.863" viewBox="0 0 289.538 349.863">
  <defs>
    <clipPath id="clip-path">
      <rect id="Rectángulo_362079" data-name="Rectángulo 362079" width="245.591" height="210.55" fill="#ffce40"/>
    </clipPath>
  </defs>
  <g id="Grupo_1069599" data-name="Grupo 1069599" transform="translate(-1070.039 -1923.999)">
    <g id="Grupo_1054604" data-name="Grupo 1054604" transform="matrix(0.996, 0.087, -0.087, 0.996, 1098.755, 1924)">
      <g id="Grupo_1054600" data-name="Grupo 1054600" transform="translate(0 -0.001)" clip-path="url(#clip-path)">
        <path id="Trazado_772115" data-name="Trazado 772115" d="M61.757,210.549A61.7,61.7,0,0,1,25.879,98.613L148.06,11.472a61.7,61.7,0,1,1,71.652,100.464L97.529,199.077a61.419,61.419,0,0,1-35.772,11.472" transform="translate(0 0.001)" fill="#ffce40"/>
      </g>
    </g>
    <g id="Grupo_54762" transform="translate(1981.486 7172.05)">
      <path id="Trazado_109300" d="M-658.128-4949.287c-16.512-8.09-43.375-8.09-60,0a27.477,27.477,0,0,0-9.655,7.221l-47.483-33.024-122.781,79.77,58.256,34.755,110.583-68.665c1.847,3.378,5.465,6.575,10.889,9.233,16.512,8.09,43.375,8.066,60,0S-641.607-4941.2-658.128-4949.287Z" transform="translate(-2.303 -37.623)" fill="#016f3a"/>
      <g id="freepik--Clock--inject-14" transform="translate(-835.855 -5193.942)">
        <g id="freepik--clock--inject-14-2">
          <path id="Trazado_109301" d="M-861.452-5191.3h0l-3.014-1.789h0c-2.981-1.507-6.956-1.068-11.237,1.689-8.571,5.54-15.179,18.318-14.682,28.569.248,5.1,2.2,8.571,5.167,10.136h0l3.014,1.789h0c2.981,1.515,6.964,1.076,11.245-1.689,8.571-5.54,15.179-18.317,14.682-28.569C-856.525-5186.223-858.487-5189.75-861.452-5191.3Z" transform="translate(890.44 5193.942)" fill="#374f46"/>
          <path id="Trazado_109302" d="M-882.467-5147.585l-2.8-1.681h0c-2.965-1.549-4.919-5.043-5.176-10.136a31.8,31.8,0,0,1,3.105-14.318l3.014,1.79a31.854,31.854,0,0,0-3.105,14.325C-887.212-5152.637-885.332-5149.175-882.467-5147.585Z" transform="translate(890.446 5190.466)" fill="#016f3a"/>
          <path id="Trazado_109303" d="M-870.346-5152.261c8.571-5.54,15.179-18.317,14.682-28.569s-7.859-14.02-16.479-8.479-15.179,18.317-14.682,28.569S-878.959-5146.721-870.346-5152.261Z" transform="translate(889.829 5193.585)" fill="#33ab00"/>
          <path id="Trazado_109304" d="M-876.883-5152.29c-5.068.241-5.9-5.457-6.012-7.924-.447-9.01,5.6-20.76,13.191-25.646a11.555,11.555,0,0,1,5.441-2.021c5.076-.248,5.9,5.457,6.02,7.924.439,9.019-5.6,20.769-13.191,25.646A11.586,11.586,0,0,1-876.883-5152.29Z" transform="translate(889.152 5192.902)" fill="#fafafa"/>
          <path id="Trazado_109305" d="M-867.8-5166.327a.753.753,0,0,0,.439-.29,1.625,1.625,0,0,0,.182-.231,2,2,0,0,0,.381-.953v-13.05c0-.3-.248-.265-.555.083a2.2,2.2,0,0,0-.547,1.192v11.428" transform="translate(886.57 5191.727)" fill="#374f46"/>
          <path id="Trazado_109306" d="M-869.752-5163.279l-3.147,5.266a1.11,1.11,0,0,0,.041,1.143c.331.406.712.273.795.116l3.644-5.789Z" transform="translate(887.454 5188.67)" fill="#374f46"/>
          <path id="Trazado_109307" d="M-864.179-5157.871a.254.254,0,0,0,.075-.091.692.692,0,0,0,.157-.472l-3.056-6.782c-.033-.074-.174,0-.29.183a.693.693,0,0,0-.157.472l3.064,6.774C-864.353-5157.721-864.27-5157.763-864.179-5157.871Z" transform="translate(886.493 5189.008)" fill="#c2e6b0"/>
          <path id="Trazado_109308" d="M-867.445-5167.727a4.2,4.2,0,0,0-1.946,3.246c-.058,1.267.712,1.879,1.731,1.358a4.175,4.175,0,0,0,1.946-3.238C-865.656-5167.628-866.443-5168.241-867.445-5167.727Z" transform="translate(886.827 5189.467)" fill="#c2e6b0"/>
        </g>
      </g>
      <g id="freepik--Chair--inject-14" transform="translate(-911.447 -5095.309)">
        <g id="freepik--chair--inject-14-2">
          <path id="Trazado_109309" d="M-860.064-5013.987a.931.931,0,0,1-.936-.919v-60.127a.94.94,0,0,1,.936-.936.94.94,0,0,1,.936.936v60.111A.934.934,0,0,1-860.064-5013.987Z" transform="translate(902.775 5150.99)" fill="#33ab00"/>
          <path id="Trazado_109310" d="M-818.981-5037.616a.942.942,0,0,1-.87-.6l-18.433-46.654a.941.941,0,0,1,.53-1.218.94.94,0,0,1,1.209.5l18.433,46.655a.952.952,0,0,1-.53,1.218A.893.893,0,0,1-818.981-5037.616Z" transform="translate(898.881 5152.742)" fill="#33ab00"/>
          <path id="Trazado_109311" d="M-832.335-5042.384a.946.946,0,0,1-.679-.29l-34.283-36.295-34.258,36.138a.94.94,0,0,1-1.325.033.94.94,0,0,1-.033-1.325l34.921-36.866a.914.914,0,0,1,.679-.29h0a.956.956,0,0,1,.712.29l35,37.016a.94.94,0,0,1-.033,1.325.941.941,0,0,1-.679.257Z" transform="translate(910.024 5151.904)" fill="#33ab00"/>
          <path id="Trazado_109312" d="M-904.974-5037.605a.933.933,0,0,1-.936-.927.9.9,0,0,1,.058-.331l.008-.016,18.433-46.655a.937.937,0,0,1,1.242-.472.94.94,0,0,1,.5,1.193h0l-18.433,46.629A.962.962,0,0,1-904.974-5037.605Z" transform="translate(910.495 5152.73)" fill="#33ab00"/>
          <path id="Trazado_109313" d="M-816.9-5036.05l2.435,6.426a.553.553,0,0,1,0,.166.274.274,0,0,1,0,.116.705.705,0,0,1-.364.406,1.666,1.666,0,0,1-1.482,0,.719.719,0,0,1-.29-.3h0v-.083l-2.261-6.028Z" transform="translate(895.531 5144.128)" fill="#c2e6b0"/>
          <path id="Trazado_109314" d="M-903.778-5036.05l-2.443,6.426a.553.553,0,0,0,0,.166v.125a.745.745,0,0,0,.373.406,1.669,1.669,0,0,0,1.482,0,.672.672,0,0,0,.29-.3h0v-.083l2.261-6.028Z" transform="translate(910.55 5144.128)" fill="#c2e6b0"/>
          <path id="Trazado_109315" d="M-859.019-5007.917v5.317a.533.533,0,0,1-.315.438,1.718,1.718,0,0,1-1.532,0,.545.545,0,0,1-.315-.438v-5.317A2.277,2.277,0,0,1-859.019-5007.917Z" transform="translate(902.806 5139.339)" fill="#c2e6b0"/>
          <path id="Trazado_109316" d="M-826.926-5099.316c0-1.673-1.474-3.454-4.571-5.474-5.714-3.709-22.416-13.025-30.432-17.472a.089.089,0,0,0-.066-.066c-6.169-3.751-8.049-19.725-12.322-33.281-1.433-4.612-3.238-7.229-5.349-8.455-.5-.29-2.352-1.316-2.766-1.557-4.19-2.517-9.689.505-16.545,4.29-6.31,3.453-11.246,7.859-12.239,19.618-.6,7.146,0,20.793,1.424,31.145h0c2.1,17.282,4.679,17.323,8.422,20.205,6.426,5,20.959,11.974,27.07,14.384,11.088,4.365,20.156-2.368,26.913-5.714a158.119,158.119,0,0,0,17.9-10.608c1.689-1.225,2.567-2.476,2.55-3.775C-826.943-5096.65-826.926-5098.778-826.926-5099.316Z" transform="translate(911.447 5166.562)" fill="#016f3a"/>
          <path id="Trazado_109317" d="M-845.872-5076.27a155.752,155.752,0,0,0,17.9-10.608c3.851-2.783,3.495-5.64-2.012-9.225-7.66-5-34.838-19.908-34.838-19.908s-39.45,23.277-37.753,27.575,22.093,14.839,29.786,17.854C-861.688-5066.208-852.629-5072.933-845.872-5076.27Z" transform="translate(909.931 5157.874)" fill="#374f46"/>
          <path id="Trazado_109318" d="M-879.435-5164.209c-4.157-2.178-9.548.787-16.231,4.447-4.289,2.344-7.917,5.118-10.127,10.31l-2.857-1.631c2.211-5.176,5.846-7.95,10.111-10.294,6.848-3.75,12.347-6.757,16.545-4.29C-881.588-5165.41-880.131-5164.631-879.435-5164.209Z" transform="translate(910.966 5166.565)" fill="#33ab00"/>
          <path id="Trazado_109319" d="M-895.535-5159.436c10.26-5.614,17.481-9.6,21.82,4.157,4.289,13.572,10,31.724,16.189,35.467-9.109-.911-38.018,16.322-42.953,26.268-1.052-.87-2-1.806-2.145-1.9-4.033-3.345-6.211-32.651-5.225-44.386S-901.87-5155.983-895.535-5159.436Z" transform="translate(910.869 5166.231)" fill="#374f46"/>
          <g id="Grupo_54752" transform="translate(2.785 1.614)" opacity="0.1">
            <path id="Trazado_109320" d="M-898.135-5160.926c10.26-5.614,17.481-9.6,21.82,4.157,4.289,13.572,10,31.724,16.189,35.467-9.109-.911-38.018,16.321-42.953,26.267-1.052-.869-2-1.805-2.145-1.9-4.033-3.346-6.211-32.652-5.225-44.386S-904.47-5157.473-898.135-5160.926Z" transform="translate(910.684 5166.111)"/>
          </g>
        </g>
      </g>
      <g id="freepik--Character--inject-14" transform="translate(-728.231 -5178.889)">
        <g id="freepik--character--inject-14-2">
          <path id="Trazado_109321" d="M-801.029-4942.99a4.218,4.218,0,0,0,.141,1.847,10.527,10.527,0,0,0,3.569,2.434c1.333.629,1.9,1.574,3.569,3.479a14.449,14.449,0,0,0,5.482,3.834,12.5,12.5,0,0,0,9.838.273,9.661,9.661,0,0,0,3.511-2.451,4.762,4.762,0,0,0,.058-1.028Z" transform="translate(850.342 5147.345)" fill="#016f3a"/>
          <path id="Trazado_109322" d="M-790.686-4953.7c.414,2.07,2.551,5.474,6.517,7.858,1.433.853,3.8,2.063,4.753,2.642a13.6,13.6,0,0,1,4.24,4.289c1.615,2.518-4.033,4.886-6.559,5.052-1.979.132-4.579.39-6.666-.638a17.025,17.025,0,0,1-2.907-1.813c-1.822-1.375-3.2-3.18-4.546-4.29s-3.991-2.037-4.919-3.461c-.505-.787-.621-2.75-.6-4.447,0-1.54-.24-2.964.464-3.23l.215.87a15.074,15.074,0,0,0,2.931-.249c.406-.074,1.143.712,1.532.481s-.2-.712.207-1.491C-794.661-4954.562-790.686-4953.7-790.686-4953.7Z" transform="translate(850.399 5149.211)" fill="#374f46"/>
          <path id="Trazado_109323" d="M-785.69-4932.272s.29-5.051,4.339-7.486,5.821-.753,6.525-.348a5.342,5.342,0,0,1,2.633,5.847A12.1,12.1,0,0,1-785.69-4932.272Z" transform="translate(847.697 5147.011)" fill="#fafafa"/>
          <path id="Trazado_109324" d="M-859.378-4975.35a2.5,2.5,0,0,0-1.192,1.466,9.853,9.853,0,0,0,.952,3.627,14.471,14.471,0,0,1,.994,5.051,17.936,17.936,0,0,0,1.946,7.146c1.3,2.7,6.111,6.426,11.312,5.946,4.1-.4,4.5-2.443,4.339-3.378Z" transform="translate(860.57 5152.908)" fill="#016f3a"/>
          <path id="Trazado_109325" d="M-846.119-4976.562c-.538,2.021-1.681,7.047,1.432,11.3.712.96,1.59,2.02,2.236,2.857,1.325,1.681.969,3.834.712,5.647-.439,2.857-10.831.257-12.372-1.615a14.363,14.363,0,0,1-2.981-6.649c-.439-2.145-.265-3.61-.77-5.184-.555-1.7-1.805-3.727-1.565-5.333.133-.886,1.292-2.368,2.377-3.569s1.813-2.211,2.484-1.955l-.406.646a6.449,6.449,0,0,0,2.145,1.714c.34.2.381,1.648.812,1.739s.306-1.077,1.076-1.366C-848.437-4979.244-846.119-4976.562-846.119-4976.562Z" transform="translate(860.379 5153.896)" fill="#374f46"/>
          <path id="Trazado_109326" d="M-853.05-4954.744a9.3,9.3,0,0,1,6.327-4.969c4.455-.8,5.615.928,6.111,1.532s2.716,4.149-.066,6.426A10.769,10.769,0,0,1-853.05-4954.744Z" transform="translate(859.277 5150.255)" fill="#fafafa"/>
          <path id="Trazado_109327" d="M-800.718-5079.729s0,7.858-1.085,20.371-3.362,24.512-6.393,29.224c-4.554,7.088-24.246,25.373-37.314,40.187,0,0-8.24-1.507-10.351-7.5l26.582-39.64-5-38.175Z" transform="translate(859.76 5170.852)" fill="#33ab00"/>
          <path id="Trazado_109328" d="M-824.15-5027.62l3.942,14.864-.29,11.113,3-3.081s1.7-12.562,1.11-15S-824.15-5027.62-824.15-5027.62Z" transform="translate(854.309 5161.893)" fill="#374f46"/>
          <path id="Trazado_109329" d="M-794.123-5065.4a10.259,10.259,0,0,1-3.147,6.551,23.649,23.649,0,0,1-4.364,3.478l2.857,20.089-5.813-21.5C-800.342-5058.585-796.541-5060.928-794.123-5065.4Z" transform="translate(850.946 5168.388)" fill="#374f46"/>
          <path id="Trazado_109330" d="M-833.3-5078.729a143.506,143.506,0,0,0-.82,14.491,56.667,56.667,0,0,0,3.18,15.584c1.913,5.747,10.558,24.2,11.27,26.225.24.712-.108,9.118,1.549,15.875,4.041,16.487,10.368,35,10.368,35a16.292,16.292,0,0,0,11.784-2.857s-5.465-53.205-6.2-56.6-7.5-28.039-7.5-28.039,12.14-8.066,12.33-19.518Z" transform="translate(856.023 5170.679)" fill="#33ab00"/>
          <path id="Trazado_109331" d="M-827.362-5179.118a4.058,4.058,0,0,0-.464.091,2.154,2.154,0,0,0-1.143-2.418,2.3,2.3,0,0,0-2.981,1.226l3.246,1.482a4.532,4.532,0,0,0-2.476,2.145c-.886,1.83.29,5.714,1.474,10.542a67.659,67.659,0,0,0,2.6,8.877c.547,1.433,1.532,1.433,1.532,1.433v-4.778l-.207-3.975s2.551-3.495,2.857-6.351c.356-3.677-.414-5.176-.414-5.176Z" transform="translate(855.65 5188.367)" fill="#016f3a"/>
          <path id="Trazado_109332" d="M-806.764-5183.59a8.094,8.094,0,0,0-8.066,8.124,8.094,8.094,0,0,0,8.124,8.066,8.094,8.094,0,0,0,8.066-8.124A8.1,8.1,0,0,0-806.764-5183.59Z" transform="translate(852.707 5188.707)" fill="#016f3a"/>
          <path id="Trazado_109333" d="M-825.884-5164.693c-.969.828-1.739-1.325-2.55-2.145s-3.445-1.979-4.729.787,1.2,6.65,3.172,7.561a3.064,3.064,0,0,0,4.1-1.408.917.917,0,0,0,.066-.157v12.007c3.031,5.465,8.861,4.389,11.974,5.159.563-2.211,1.068-3.254.712-4.488v-3.917a14.807,14.807,0,0,0,3.966.215c2.617-.414,4.025-2.584,4.8-5.416,1.267-4.562,1.524-12.222-.232-21.075-2.931-2.269-12.86-1.9-19.021,2C-823.168-5167.732-824.932-5165.53-825.884-5164.693Z" transform="translate(855.919 5187.912)" fill="#fce0cb"/>
          <circle id="Elipse_4144" cx="1.226" cy="1.226" r="1.226" transform="translate(38.523 20.105)" fill="#016f3a"/>
          <circle id="Elipse_4145" cx="1.226" cy="1.226" r="1.226" transform="translate(47.839 19.641)" fill="#016f3a"/>
          <path id="Trazado_109334" d="M-811.135-5146.613s-5.855-1.159-7.908-2.244a6.759,6.759,0,0,1-2.857-2.782,9.138,9.138,0,0,0,1.615,3.3c1.507,1.9,9.126,3.3,9.126,3.3Z" transform="translate(853.922 5183.213)" fill="#fce0cb"/>
          <path id="Trazado_109335" d="M-801.573-5185.678a.894.894,0,0,0-.033-.3,1.021,1.021,0,0,0-.19-.505c-.4-.406-1.184.621-1.466.862a10.438,10.438,0,0,1-.845.646,6.8,6.8,0,0,0-.787.472,8.394,8.394,0,0,0,0-2.948c-.124-.646-.3-2.145-1.1-2.3-.48-.1-.894.3-1.25.637-3.2,2.989-7.387,1.606-11.245,1.73-3.23.108-7.146,1.433-8.571,4.555-.671,1.433-.787,2.948.538,3.941.853.646,1.681.6,2.145,1.64.116.249.861,3.3.422,3.279a3.366,3.366,0,0,0,3.569-2.468c.075-.331.265-.935.339-1.274a.712.712,0,0,1,.82-.588h0l.1.024c.977.215,1.615.613,2.542.861a18.607,18.607,0,0,0,8.132.489,9.676,9.676,0,0,0,5.109-2.741A7.775,7.775,0,0,0-801.573-5185.678Z" transform="translate(854.893 5189.768)" fill="#016f3a"/>
          <path id="Trazado_109336" d="M-813.705-5168.351l-2.4,1.565a1.5,1.5,0,0,1,.439-2.037A1.435,1.435,0,0,1-813.705-5168.351Z" transform="translate(852.965 5186.204)" fill="#016f3a"/>
          <path id="Trazado_109337" d="M-811-5154.82l3.958,1.027a2.012,2.012,0,0,1-2.385,1.548h0l-.066-.016A2.128,2.128,0,0,1-811-5154.82Z" transform="translate(852.059 5183.76)" fill="#b13326"/>
          <path id="Trazado_109338" d="M-808.753-5152.062a2.142,2.142,0,0,0-2.1-1.888h-.174a2.151,2.151,0,0,0,1.532,1.83A2.071,2.071,0,0,0-808.753-5152.062Z" transform="translate(852.054 5183.611)" fill="#fce0cb"/>
          <path id="Trazado_109339" d="M-799.165-5167.657l-2.625-1.209a1.384,1.384,0,0,1,1.813-.737l.058.024A1.5,1.5,0,0,1-799.165-5167.657Z" transform="translate(850.465 5186.321)" fill="#016f3a"/>
          <path id="Trazado_109340" d="M-807.57-5166.05l.7,7.883,4.082-1.457Z" transform="translate(851.459 5185.691)" fill="#fce0cb"/>
          <path id="Trazado_109341" d="M-767.614-5107.319c-3.031,2.477-4.828,2.948-8.927,0-3.312-2.211-16.835-11.66-16.835-11.66l-2.054-18.168c2.186.422,3.569,1.88,9.9,7.552,3.5,3.139,12.786,11.644,12.786,11.644,1.358-1.706,8.645-10.409,10.036-12.331a19.086,19.086,0,0,0,2.907-5.217c.306-.944.6-1.9,1-2.857a15.276,15.276,0,0,1,1.267-2.244c.447-.646.861-1.516,1.3-2.145a.88.88,0,0,1,.29-.315.717.717,0,0,1,.836.215,3.656,3.656,0,0,1,.472,2.145,7.484,7.484,0,0,1-.389,1.582,4.068,4.068,0,0,0-.248,1.6,2.556,2.556,0,0,0,1.789-.6,21.56,21.56,0,0,0,4.48-4.621,15.721,15.721,0,0,1,1.706-2.145,1.894,1.894,0,0,1,1.341-.373,1.949,1.949,0,0,1,1.118.712,10.365,10.365,0,0,1,1.648,3.627c.389,1.838.389,4.447-6.534,9.937-.828.654-3.23,2.2-4.091,3.569-1.913,2.949-10.674,16.521-12.107,18.31Z" transform="translate(849.372 5182.119)" fill="#fce0cb"/>
          <path id="Trazado_109342" d="M-795.43-5135.93c2.6.538,4.7,2.592,7.627,5.333s15.129,13.912,15.129,13.912l5-5.789s1.921,5.713,6.592,7.859c0,0-4.008,6.89-6.691,9.432s-4.728,2.393-8.2.29-19.237-13.225-19.237-13.225Z" transform="translate(849.372 5180.513)" fill="#33ab00"/>
          <path id="Trazado_109343" d="M-832.737-5141.7a101.98,101.98,0,0,0-10.773,5.16s2.625,15.179,5.283,22.143c2.31,6.062,2.857,30.713,2.857,30.713a78.769,78.769,0,0,0,24.694,1.317,38.2,38.2,0,0,0,12.14-3.569s.132-18.74-1.433-31.26-1.076-17.854-3.942-20c-1.847-1.375-10-3.18-10-3.18a11.344,11.344,0,0,1-1.607,3.8C-818.32-5137.882-832.737-5141.7-832.737-5141.7Z" transform="translate(857.637 5181.505)" fill="#374f46"/>
          <path id="Trazado_109344" d="M-803.956-5138.32c1.168,21.928-5.937,41.115-13.274,56.467l3.867,2.352s15-26.524,13.92-57.048A8.546,8.546,0,0,0-803.956-5138.32Z" transform="translate(853.119 5180.924)" fill="#016f3a"/>
          <path id="Trazado_109345" d="M-805.9-5129.137s.091-6.857-.033-8.464l-2.145-1.64.8,7.553Z" transform="translate(851.546 5181.083)" fill="#c2e6b0"/>
          <path id="Trazado_109346" d="M-805.9-5129.137s.091-6.857-.033-8.464l-2.145-1.64.8,7.553Z" transform="translate(851.546 5181.083)" opacity="0.25"/>
          <path id="Trazado_109347" d="M-811.652-5130.973l-8.281-7.917-3.147,2.227,10.343,8.77Z" transform="translate(854.125 5181.021)" fill="#c2e6b0"/>
          <path id="Trazado_109348" d="M-811.652-5130.973l-8.281-7.917-3.147,2.227,10.343,8.77Z" transform="translate(854.125 5181.021)" opacity="0.25"/>
          <path id="Trazado_109349" d="M-809.78-5136.907c1.607.183,3.842,1.093,4.24.5s-.977-5.979-3.511-7.61v2.633A25.506,25.506,0,0,1-809.78-5136.907Z" transform="translate(851.839 5181.903)" fill="#33ab00"/>
          <path id="Trazado_109350" d="M-825.306-5147.79v.944c.182.9,1.946,2.973,6.393,5s5.581,4.29,5.581,4.29a5.622,5.622,0,0,0-2.807.447c-2.021.712-5.391,3.3-6.351,3.271s-2.286-2.691-4.8-5.333c-2.145-2.22-3.2-3.569-3.2-3.569S-827.037-5147.749-825.306-5147.79Z" transform="translate(855.399 5182.552)" fill="#33ab00"/>
          <path id="Trazado_109351" d="M-808.77-5123.394a195.318,195.318,0,0,1,.6,24.71c-.108,2.65,3.536,8.19,4.455,8.107s2.782-5.068,3.147-7.982c-.075-7.146-4.215-21.3-5.937-25.141Z" transform="translate(851.665 5178.411)" fill="#c2e6b0"/>
          <path id="Trazado_109352" d="M-806.377-5123.394a2.715,2.715,0,0,0-.132-.307l-2.261.307.091.953A3.87,3.87,0,0,0-806.377-5123.394Z" transform="translate(851.665 5178.411)" opacity="0.15"/>
          <path id="Trazado_109353" d="M-809.631-5129.641a3.862,3.862,0,0,1,1.888-.489,4.439,4.439,0,0,1,1.375,1.656,5.013,5.013,0,0,1-.489,3.652,2.721,2.721,0,0,1-2.261.306,4.809,4.809,0,0,1-1.722-2.145A4.3,4.3,0,0,1-809.631-5129.641Z" transform="translate(852.021 5179.516)" fill="#c2e6b0"/>
          <g id="freepik--Briefcase--inject-14" transform="translate(4.554 83.092)">
            <path id="Trazado_109354" d="M-859.312-5134.986l1.582-29.141a2.58,2.58,0,0,1,1.151-1.863l.911-.53a.778.778,0,0,1,.8-.057h0l30.449,17.588-4.19,32.279-30.432-17.572h0A.724.724,0,0,1-859.312-5134.986Z" transform="translate(859.324 5166.695)" fill="#c2e6b0"/>
            <path id="Trazado_109355" d="M-859.312-5134.986l1.582-29.141a2.58,2.58,0,0,1,1.151-1.863l.911-.53a.778.778,0,0,1,.8-.057h0l30.449,17.588-4.19,32.279-30.432-17.572h0A.724.724,0,0,1-859.312-5134.986Z" transform="translate(859.324 5166.695)" opacity="0.4"/>
            <path id="Trazado_109356" d="M-816.974-5115.845l-4.6,2.659c-.6.339-1.052.066-1.01-.621l1.582-29.141a2.571,2.571,0,0,1,1.151-1.871l.911-.53a.715.715,0,0,1,1,.141.674.674,0,0,1,.141.48l1.847,27.012A2.256,2.256,0,0,1-816.974-5115.845Z" transform="translate(853.008 5163.057)" fill="#c2e6b0"/>
            <path id="Trazado_109357" d="M-816.974-5115.845l-4.6,2.659c-.6.339-1.052.066-1.01-.621l1.582-29.141a2.571,2.571,0,0,1,1.151-1.871l.911-.53a.715.715,0,0,1,1,.141.674.674,0,0,1,.141.48l1.847,27.012A2.256,2.256,0,0,1-816.974-5115.845Z" transform="translate(853.008 5163.057)" opacity="0.5"/>
            <path id="Trazado_109358" d="M-835.246-5120.076a.411.411,0,0,0,.414-.39l.8-13.647a.422.422,0,0,0-.381-.447h0a.43.43,0,0,0-.447.39l-.8,13.646a.416.416,0,0,0,.389.438h.025Z" transform="translate(855.256 5161.177)" fill="#c2e6b0"/>
            <path id="Trazado_109359" d="M-849.336-5128.175a.423.423,0,0,0,.414-.39l.812-13.646a.417.417,0,0,0-.389-.439.435.435,0,0,0-.447.389l-.8,13.647a.422.422,0,0,0,.381.447h.033Z" transform="translate(857.679 5162.568)" fill="#c2e6b0"/>
            <path id="Trazado_109360" d="M-831.062-5133.146a2.2,2.2,0,0,0,3.014-.812,2.131,2.131,0,0,0,.29-.978l.629-11.667a2.58,2.58,0,0,1,1.151-1.863l.911-.521a.8.8,0,0,1,.712-.1l-30.349-17.53h0a.78.78,0,0,0-.8.058l-.911.53a2.569,2.569,0,0,0-1.151,1.871l-.613,11.5a6.076,6.076,0,0,0,3.039,5.614Z" transform="translate(859.13 5166.702)" fill="#c2e6b0"/>
            <path id="Trazado_109361" d="M-831.062-5133.146a2.2,2.2,0,0,0,3.014-.812,2.131,2.131,0,0,0,.29-.978l.629-11.667a2.58,2.58,0,0,1,1.151-1.863l.911-.521a.8.8,0,0,1,.712-.1l-30.349-17.53h0a.78.78,0,0,0-.8.058l-.911.53a2.569,2.569,0,0,0-1.151,1.871l-.613,11.5a6.076,6.076,0,0,0,3.039,5.614Z" transform="translate(859.13 5166.702)" opacity="0.25"/>
            <path id="Trazado_109362" d="M-839.244-5135.739l-4.414-2.55-.182,2.443,4.422,2.559Z" transform="translate(856.662 5161.818)" fill="#c2e6b0"/>
          </g>
          <path id="Trazado_109363" d="M-846.252-5134.58c-2.36,1.375-3.652,2.187-5.275,6.881-1.433,4.207-7.56,27.426-7.925,30.846s11.577,24.048,15.494,28.7,7.213,6.732,10,6.732,3.817-.53,5-1.913-5.913-6.426-6.509-7.817a9.3,9.3,0,0,0,5,1.3c.513-.033,1.134-.232,1.226-.712a.9.9,0,0,0-.389-.812,3.5,3.5,0,0,0-.853-.406c-1.954-.8-3.362-2.6-5.292-3.461-.712-.34-1.54-.521-2.286-.845-1.648-.712-2.319-2.228-3.056-3.743a135.353,135.353,0,0,1-6-16.272l6.948-22.946C-839.42-5124.312-841.474-5134.58-846.252-5134.58Z" transform="translate(860.379 5180.281)" fill="#fce0cb"/>
          <path id="Trazado_109364" d="M-846.334-5135.43c-1.656.455-3.089,1.027-5.217,6.02s-6.467,23.808-7.287,26.582-1.59,6.219-.712,8.43a60.56,60.56,0,0,0,3.652,6.625,15.724,15.724,0,0,1,5.325-3.519c3.2-1.226,4.861-.365,4.861-.365l-1.01-4.869,7.138-22.341C-839.113-5123.208-839.122-5134.5-846.334-5135.43Z" transform="translate(860.462 5180.427)" fill="#33ab00"/>
        </g>
      </g>
      <g id="freepik--Desk--inject-14" transform="translate(-900.354 -5102.038)">
        <g id="freepik--desk--inject-14-2" transform="translate(0)">
          <g id="freepik--desk--inject-14-3" transform="translate(0 22.942)">
            <path id="Trazado_109365" d="M-850.735-5059.054l-57.635-33.19,120.926-69.816,57.635,33.19Z" transform="translate(908.37 5162.06)" fill="#c2e6b0"/>
            <path id="Trazado_109366" d="M-850.735-5059.054l-57.635-33.19,120.926-69.816,57.635,33.19Z" transform="translate(908.37 5162.06)" opacity="0.3"/>
            <path id="Trazado_109367" d="M-908.36-5077.76v76.341l3.478,2v-56.343l50.679,29.173v56.343l3.478,2v-76.341Z" transform="translate(908.368 5147.568)" fill="#c2e6b0"/>
            <path id="Trazado_109368" d="M-908.36-5077.76v76.341l3.478,2v-56.343l50.679,29.173v56.343l3.478,2v-76.341Z" transform="translate(908.368 5147.568)" opacity="0.5"/>
            <path id="Trazado_109369" d="M-904.16-4994.835l3.478-2v-52.327l-3.478-2Z" transform="translate(907.646 5142.997)" fill="#c2e6b0"/>
            <path id="Trazado_109370" d="M-904.16-4994.835l3.478-2v-52.327l-3.478-2Z" transform="translate(907.646 5142.997)" opacity="0.6"/>
            <path id="Trazado_109371" d="M-838.76-4975.818l3.478-2v-56.344l113.97-65.792v56.343l3.478-2v-76.342l-120.926,69.808Z" transform="translate(896.403 5155.167)" fill="#c2e6b0"/>
            <path id="Trazado_109372" d="M-838.76-4975.818l3.478-2v-56.344l113.97-65.792v56.343l3.478-2v-76.342l-120.926,69.808Z" transform="translate(896.403 5155.167)" opacity="0.4"/>
            <path id="Trazado_109373" d="M-697.662-5039.055l-3.478-2v-52.327l3.478-2Z" transform="translate(872.745 5150.599)" fill="#c2e6b0"/>
            <g id="Grupo_54753" transform="translate(171.607 55.21)" opacity="0.6">
              <path id="Trazado_109374" d="M-857.252-5090.4l-3.478-2v-52.327l3.478-2Z" transform="translate(860.73 5146.73)"/>
            </g>
          </g>
          <g id="freepik--Sheets--inject-14" transform="translate(38.275 65.282)">
            <g id="Grupo_54754" transform="translate(0 3.925)" opacity="0.2">
              <path id="Trazado_109375" d="M-897.445-5137.337l25.6,14.79a1.613,1.613,0,0,0,1.433,0l18.839-10.881a.447.447,0,0,0,.273-.563.448.448,0,0,0-.273-.273l-25.588-14.79a1.613,1.613,0,0,0-1.432,0l-18.847,10.89a.432.432,0,0,0-.306.53.448.448,0,0,0,.3.3Z" transform="translate(897.756 5149.223)"/>
            </g>
            <path id="Trazado_109376" d="M-897.435-5135.287l25.6,14.79a1.613,1.613,0,0,0,1.433,0l18.856-10.881c.4-.232.4-.6,0-.836l-25.6-14.782a1.562,1.562,0,0,0-1.433,0l-18.847,10.881a.432.432,0,0,0-.306.53.418.418,0,0,0,.3.3Z" transform="translate(897.753 5149.764)" fill="#ebebeb"/>
            <path id="Trazado_109377" d="M-878.327-5147l-17.9,10.327,24.661,14.234a1.613,1.613,0,0,0,1.433,0l17.9-10.326L-876.894-5147A1.559,1.559,0,0,0-878.327-5147Z" transform="translate(897.492 5149.764)" fill="#e0e0e0"/>
            <path id="Trazado_109378" d="M-897.431-5138.425l25.6,14.79a1.613,1.613,0,0,0,1.433,0l18.839-10.889a.434.434,0,0,0,.282-.546.433.433,0,0,0-.282-.282l-25.6-14.781a1.593,1.593,0,0,0-1.424,0l-18.847,10.881a.446.446,0,0,0-.265.572.391.391,0,0,0,.265.256Z" transform="translate(897.749 5150.302)" fill="#fafafa"/>
          </g>
          <g id="freepik--Pen--inject-14" transform="translate(21.46 84.18)">
            <path id="Trazado_109379" d="M-902.335-5141.433l18.98,10.964,3.246.654a.1.1,0,0,0,.116-.074h0a.094.094,0,0,0-.008-.066l-1.043-1.863-18.988-10.964C-900.646-5143.155-902.832-5141.723-902.335-5141.433Z" transform="translate(902.408 5144.688)" opacity="0.2"/>
            <g id="freepik--pen--inject-14-2" transform="translate(0.595)">
              <path id="Trazado_109380" d="M-900.674-5145l.1.033-.182-.1h-.224a.726.726,0,0,0-.389.125,1.906,1.906,0,0,0-.861,1.5,1.007,1.007,0,0,0,0,.224h0v.041a.415.415,0,0,0,.075.133h.033l.207.125-.091-.074a.7.7,0,0,0,.5-.108,1.931,1.931,0,0,0,.87-1.507A.7.7,0,0,0-900.674-5145Z" transform="translate(902.237 5145.07)" fill="#c2e6b0"/>
              <path id="Trazado_109381" d="M-882.406-5134.49l-1.226,2.145-.207-.124-17.9-10.334-.091-.075a.708.708,0,0,1-.157-.488,1.918,1.918,0,0,1,.87-1.507.9.9,0,0,1,.389-.116h.108l.1.033h0Z" transform="translate(902.195 5145.057)" fill="#f0f0f0"/>
              <path id="Trazado_109382" d="M-879.269-5132.255c.489-.281.87-.058.87.5a1.916,1.916,0,0,1-.87,1.507c-.48.281-.861.05-.861-.5A1.946,1.946,0,0,1-879.269-5132.255Z" transform="translate(898.437 5142.888)" fill="#c2e6b0"/>
              <path id="Trazado_109383" d="M-877.387-5130.95h0l-1.11-1.226h0a.571.571,0,0,0-.712,0,1.908,1.908,0,0,0-.861,1.507.562.562,0,0,0,.339.6h.066l1.607.347a.376.376,0,0,0,.282-.057,1.083,1.083,0,0,0,.5-.861A.364.364,0,0,0-877.387-5130.95Z" transform="translate(898.427 5142.875)" fill="#e0e0e0"/>
              <path id="Trazado_109384" d="M-894.1-5140.235h-.033a.211.211,0,0,0-.2,0,.712.712,0,0,0-.306.538.216.216,0,0,0,.075.182h0l13.216,7.627.869-.505Z" transform="translate(900.932 5144.244)" fill="#33ab00"/>
              <path id="Trazado_109385" d="M-880.04-5131.128l1.225.712.87-.505-1.664-.969A2.238,2.238,0,0,0-880.04-5131.128Z" transform="translate(898.421 5142.805)" fill="#374f46"/>
              <path id="Trazado_109386" d="M-876.741-5130.224h0l-1.01-1.109v-.033a.422.422,0,0,0-.5,0,1.359,1.359,0,0,0-.613,1.068.411.411,0,0,0,.232.422h.05l1.482.323h0a.258.258,0,0,0,.157-.033.617.617,0,0,0,.282-.489A.246.246,0,0,0-876.741-5130.224Z" transform="translate(898.219 5142.729)" fill="#c2e6b0"/>
              <path id="Trazado_109387" d="M-876.741-5130.224h0l-1.01-1.109v-.033a.422.422,0,0,0-.5,0,1.359,1.359,0,0,0-.613,1.068.411.411,0,0,0,.232.422h.05l1.482.323h0a.258.258,0,0,0,.157-.033.617.617,0,0,0,.282-.489A.246.246,0,0,0-876.741-5130.224Z" transform="translate(898.219 5142.729)" opacity="0.1"/>
              <path id="Trazado_109388" d="M-876.517-5129.944a.616.616,0,0,1-.282.488.214.214,0,0,1-.157.033h0l-.754-.166c-.116,0-.19-.133-.19-.314a.967.967,0,0,1,.447-.77.286.286,0,0,1,.356,0h0l.5.546h0A.212.212,0,0,1-876.517-5129.944Z" transform="translate(898.054 5142.606)" fill="#c2e6b0"/>
              <path id="Trazado_109389" d="M-876.627-5129.978a.171.171,0,0,1,.24.024.2.2,0,0,1,.041.133.617.617,0,0,1-.282.488.171.171,0,0,1-.24-.024.174.174,0,0,1-.033-.141A.574.574,0,0,1-876.627-5129.978Z" transform="translate(897.882 5142.482)" opacity="0.1"/>
              <path id="Trazado_109390" d="M-898.07-5142.536a.216.216,0,0,0-.224,0,.712.712,0,0,0-.307.538.231.231,0,0,0,.091.2h0l3.246,1.871a.256.256,0,0,1-.075-.182.711.711,0,0,1,.307-.538.21.21,0,0,1,.2,0Z" transform="translate(901.612 5144.64)" fill="#fafafa"/>
              <path id="Trazado_109391" d="M-897.987-5142.288a.663.663,0,0,1-.306.53.2.2,0,0,1-.215,0,.2.2,0,0,1-.091-.19.736.736,0,0,1,.306-.538.216.216,0,0,1,.224,0A.222.222,0,0,1-897.987-5142.288Z" transform="translate(901.612 5144.631)" fill="#f5f5f5"/>
              <path id="Trazado_109392" d="M-899.232-5144.035h0l-1.292-.712h0a.579.579,0,0,0-.53.066,1.733,1.733,0,0,0-.787,1.359.527.527,0,0,0,.232.5h0l1.3.712h0a.548.548,0,0,0,.538-.058,1.731,1.731,0,0,0,.787-1.358A.552.552,0,0,0-899.232-5144.035Z" transform="translate(902.17 5145.021)" fill="#c2e6b0"/>
              <path id="Trazado_109393" d="M-899.232-5144.035h0l-1.292-.712h0a.579.579,0,0,0-.53.066,1.733,1.733,0,0,0-.787,1.359.527.527,0,0,0,.232.5h0l1.3.712h0a.548.548,0,0,0,.538-.058,1.731,1.731,0,0,0,.787-1.358A.552.552,0,0,0-899.232-5144.035Z" transform="translate(902.17 5145.021)" opacity="0.05"/>
              <path id="Trazado_109394" d="M-899.532-5143.842c.439-.248.787-.049.787.448a1.734,1.734,0,0,1-.787,1.358c-.431.248-.778.041-.778-.456A1.7,1.7,0,0,1-899.532-5143.842Z" transform="translate(901.906 5144.878)" opacity="0.1"/>
              <path id="Trazado_109395" d="M-875.962-5129.481h0l-.53-.323h0a.086.086,0,0,0-.108,0,.3.3,0,0,0-.141.24c0,.05,0,.075.041.091h0l.53.323h0a.214.214,0,0,0,.1,0,.209.209,0,0,0,.2-.207A.192.192,0,0,0-875.962-5129.481Z" transform="translate(897.854 5142.449)" fill="#33ab00"/>
              <path id="Trazado_109396" d="M-875.818-5129.382h0a.089.089,0,0,0-.091,0,.311.311,0,0,0-.141.249.118.118,0,0,0,.041.091h.066a.2.2,0,0,0,.2-.207A.216.216,0,0,0-875.818-5129.382Z" transform="translate(897.736 5142.375)" fill="#016f3a"/>
            </g>
          </g>
          <g id="freepik--shadow--inject-14" transform="translate(49.919 108.918)" opacity="0.2">
            <path id="Trazado_109397" d="M-881.444-5136.9c2.989,1.723,2.989,4.513,0,6.252a12,12,0,0,1-10.831,0c-2.989-1.73-2.989-4.53,0-6.252A11.945,11.945,0,0,1-881.444-5136.9Z" transform="translate(894.517 5138.198)"/>
          </g>
          <g id="freepik--Pot--inject-14" transform="translate(50.233 93.316)">
            <path id="Trazado_109398" d="M-882.711-5120.243c2.418-2.468,3.826-8.612,1.482-10.566H-893.22c-2.352,1.946-.936,8.1,1.482,10.566l.066.066.083.083.215.19.066.041.182.133a2.507,2.507,0,0,0,.315.2,7.911,7.911,0,0,0,7.188,0h0a2.452,2.452,0,0,0,.315-.2l.174-.133.075-.058c.075-.058.149-.124.215-.182l.091-.091Z" transform="translate(894.424 5140.515)" fill="#ebebeb"/>
            <path id="Trazado_109399" d="M-892.135-5132c-2.733,1.582-2.733,4.132,0,5.713a10.927,10.927,0,0,0,9.9,0c2.733-1.582,2.733-4.132,0-5.713A10.978,10.978,0,0,0-892.135-5132Z" transform="translate(894.383 5140.923)" fill="#fafafa"/>
            <path id="Trazado_109400" d="M-889.628-5130.56c-1.656.969-1.656,2.518,0,3.479a6.67,6.67,0,0,0,6.029,0c1.656-.961,1.656-2.518,0-3.479A6.67,6.67,0,0,0-889.628-5130.56Z" transform="translate(893.813 5140.596)" fill="#ebebeb"/>
            <path id="Trazado_109401" d="M-883.548-5128.569a6.664,6.664,0,0,0-6.029,0,2.988,2.988,0,0,0-.994.911,2.7,2.7,0,0,0,.994.911,6.664,6.664,0,0,0,6.029,0,2.758,2.758,0,0,0,.994-.911A2.989,2.989,0,0,0-883.548-5128.569Z" transform="translate(893.761 5140.254)" fill="#33ab00"/>
            <path id="Trazado_109402" d="M-881.163-5136.766a5.768,5.768,0,0,0-5.764-5.764,5.768,5.768,0,0,0-5.763,5.764,5.756,5.756,0,0,0,3.006,5.06,1.636,1.636,0,0,1,.828,1.425v.1a6.149,6.149,0,0,0,3.859,0v-.107a1.7,1.7,0,0,1,.911-1.49A5.746,5.746,0,0,0-881.163-5136.766Z" transform="translate(894.126 5142.53)" fill="#c2e6b0"/>
            <path id="Trazado_109403" d="M-885.509-5141.76a.168.168,0,0,1-.124-.05,2.179,2.179,0,0,0-.248-.231.171.171,0,0,1-.008-.241h0l.008-.007a.18.18,0,0,1,.248,0s.108.091.273.256a.172.172,0,0,1-.008.248.164.164,0,0,1-.116.05Z" transform="translate(892.965 5142.497)" fill="#fafafa"/>
            <path id="Trazado_109404" d="M-884.267-5131.2a.115.115,0,0,1-.075,0,.168.168,0,0,1-.074-.231,6.737,6.737,0,0,1,.373-.671.184.184,0,0,1,.248-.05.175.175,0,0,1,.058.24c-.133.215-.257.431-.364.638A.22.22,0,0,1-884.267-5131.2Zm1.027-2h-.058a.193.193,0,0,1-.116-.232,7.314,7.314,0,0,0,.19-.712.174.174,0,0,1,.215-.132h0a.174.174,0,0,1,.133.215h0a6.991,6.991,0,0,1-.207.712.145.145,0,0,1-.157.149Zm.381-2.194h0a.182.182,0,0,1-.174-.183h0v-.737a.172.172,0,0,1,.174-.182h0a.161.161,0,0,1,.182.141h0v.787a.183.183,0,0,1-.182.174Zm-.2-2.236a.2.2,0,0,1-.182-.132,6.912,6.912,0,0,0-.19-.712.188.188,0,0,1,.116-.224.171.171,0,0,1,.224.1l.008.016a5.377,5.377,0,0,1,.2.712.174.174,0,0,1-.132.215h0Zm-.82-2.095a.188.188,0,0,1-.157-.083,7.143,7.143,0,0,0-.381-.629.178.178,0,0,1,.041-.24.172.172,0,0,1,.24.033l.008.017a6.388,6.388,0,0,1,.414.638.186.186,0,0,1-.066.248Z" transform="translate(892.708 5142.216)" fill="#fafafa"/>
            <path id="Trazado_109405" d="M-884.81-5127.214a.172.172,0,0,1-.174-.149,1.077,1.077,0,0,1,0-.4.178.178,0,0,1,.207-.148.188.188,0,0,1,.157.19h0a1.988,1.988,0,0,0,0,.314.172.172,0,0,1-.149.2Z" transform="translate(892.804 5140.017)" fill="#fafafa"/>
            <path id="Trazado_109406" d="M-885.768-5127.219a.184.184,0,0,1-.182-.182h0v-.357a.184.184,0,0,1,.182-.182.184.184,0,0,1,.182.182h0v.357a.19.19,0,0,1-.182.182Z" transform="translate(892.967 5140.022)" fill="#fafafa"/>
            <path id="Trazado_109407" d="M-885.768-5131.084a.184.184,0,0,1-.182-.183h0v-.671a.184.184,0,0,1,.182-.182.184.184,0,0,1,.182.182v.679A.188.188,0,0,1-885.768-5131.084Zm0-2.045a.184.184,0,0,1-.182-.183h0v-.712a.184.184,0,0,1,.182-.182.184.184,0,0,1,.182.182h0v.712a.176.176,0,0,1-.166.19h-.017v-.007Zm0-2.045a.184.184,0,0,1-.182-.183h0v-.712a.184.184,0,0,1,.182-.182.184.184,0,0,1,.182.182v.712a.177.177,0,0,1-.166.19h-.017v-.008Zm0-2.046a.184.184,0,0,1-.182-.182h0v-.679a.184.184,0,0,1,.182-.182.184.184,0,0,1,.182.182v.679a.177.177,0,0,1-.166.19h-.017v-.008Zm0-2.045a.184.184,0,0,1-.182-.182h0v-.679a.184.184,0,0,1,.182-.183.184.184,0,0,1,.182.183v.679a.176.176,0,0,1-.166.19h-.017v-.008Z" transform="translate(892.967 5142.148)" fill="#fafafa"/>
            <path id="Trazado_109408" d="M-885.768-5141.644a.184.184,0,0,1-.182-.183h0v-.331a.184.184,0,0,1,.182-.183.184.184,0,0,1,.182.183v.356A.173.173,0,0,1-885.768-5141.644Z" transform="translate(892.967 5142.497)" fill="#fafafa"/>
            <path id="Trazado_109409" d="M-883.1-5131.44a.146.146,0,0,1-.19-.083.143.143,0,0,1,.058-.174c.141-.166.282-.339.414-.513a.174.174,0,0,1,.248-.042h0a.182.182,0,0,1,.033.249h0a5.448,5.448,0,0,1-.439.538A.163.163,0,0,1-883.1-5131.44Zm1.159-1.747a.115.115,0,0,1-.075,0,.182.182,0,0,1-.091-.24h0v-.008c.108-.208.2-.422.29-.638a.175.175,0,0,1,.232-.1.174.174,0,0,1,.1.232h0c-.091.232-.19.447-.3.67a.175.175,0,0,1-.157.1Zm.72-2.021h-.033a.164.164,0,0,1-.133-.2h0v-.008c.041-.231.075-.456.108-.712a.178.178,0,0,1,.2-.157.179.179,0,0,1,.157.2h0a4.107,4.107,0,0,1-.108.712.184.184,0,0,1-.182.183h-.017Zm.124-2.145a.187.187,0,0,1-.182-.166,4.7,4.7,0,0,0-.108-.67.186.186,0,0,1,.133-.224.2.2,0,0,1,.224.132,5.1,5.1,0,0,1,.116.712.177.177,0,0,1-.166.19h0Zm-.646-2.021a.178.178,0,0,1-.157-.091,5.3,5.3,0,0,0-.389-.572.18.18,0,0,1,.033-.248.181.181,0,0,1,.248.033,5.957,5.957,0,0,1,.406.6.179.179,0,0,1-.066.249.185.185,0,0,1-.108.05Zm-1.4-1.615a.276.276,0,0,1-.116-.033,6.225,6.225,0,0,0-.563-.4.173.173,0,0,1-.091-.232.172.172,0,0,1,.232-.091.18.18,0,0,1,.041.024,4.3,4.3,0,0,1,.6.422.17.17,0,0,1,.008.24l-.008.008a.173.173,0,0,1-.133.091Zm-1.9-.961h-.041a2.976,2.976,0,0,0-.662-.074.177.177,0,0,1-.174-.183.175.175,0,0,1,.174-.174,3.375,3.375,0,0,1,.712.083.19.19,0,0,1,.116.248.189.189,0,0,1-.149.124Z" transform="translate(892.962 5142.504)" fill="#fafafa"/>
            <path id="Trazado_109410" d="M-886.076-5141.765a.177.177,0,0,1-.174-.183.165.165,0,0,1,.05-.116c.166-.166.273-.256.273-.256a.18.18,0,0,1,.248,0,.17.17,0,0,1,.008.24h0l-.008.008a2.27,2.27,0,0,0-.248.231A.213.213,0,0,1-886.076-5141.765Z" transform="translate(893.019 5142.502)" fill="#fafafa"/>
            <path id="Trazado_109411" d="M-887.56-5131.192a.176.176,0,0,1-.157-.1c-.108-.207-.232-.422-.364-.638a.175.175,0,0,1,.058-.24.184.184,0,0,1,.248.05c.133.223.265.447.373.671a.169.169,0,0,1-.075.232h-.008A.137.137,0,0,1-887.56-5131.192Zm-1.027-2a.176.176,0,0,1-.166-.124c-.075-.232-.149-.488-.207-.712a.177.177,0,0,1,.133-.215h0a.174.174,0,0,1,.215.132h0c.058.241.124.481.19.712a.2.2,0,0,1-.116.231Zm-.381-2.194a.19.19,0,0,1-.182-.183v-.753a.175.175,0,0,1,.174-.174h.017a.187.187,0,0,1,.174.182h0v.737a.171.171,0,0,1-.166.183c-.008.008-.008.008-.017.008Zm.2-2.237h-.025a.18.18,0,0,1-.133-.215c.058-.24.124-.48.2-.712a.17.17,0,0,1,.207-.124h.008l.017.008a.188.188,0,0,1,.116.224,5.267,5.267,0,0,0-.19.712.18.18,0,0,1-.215.107Zm.82-2.078a.17.17,0,0,1-.091,0,.187.187,0,0,1-.066-.248c.133-.215.265-.431.414-.638a.173.173,0,0,1,.248-.017.19.19,0,0,1,.042.215,6.15,6.15,0,0,0-.4.621.168.168,0,0,1-.149.05Z" transform="translate(893.517 5142.206)" fill="#fafafa"/>
            <path id="Trazado_109412" d="M-886.721-5127.216h0a.171.171,0,0,1-.149-.2,1.988,1.988,0,0,0,0-.314.177.177,0,0,1,.166-.19h0a.171.171,0,0,1,.191.157,1.592,1.592,0,0,1,0,.4A.192.192,0,0,1-886.721-5127.216Z" transform="translate(893.126 5140.018)" fill="#fafafa"/>
            <path id="Trazado_109413" d="M-889.383-5131.442a.171.171,0,0,1-.133-.066,6.919,6.919,0,0,1-.439-.538.182.182,0,0,1,.033-.249h0a.175.175,0,0,1,.248.042h0c.132.182.273.347.414.513a.18.18,0,0,1,0,.249A.168.168,0,0,1-889.383-5131.442Zm-1.176-1.747a.176.176,0,0,1-.157-.1c-.108-.224-.207-.447-.29-.671a.17.17,0,0,1,.091-.224h.008a.183.183,0,0,1,.232.1c.083.216.182.431.29.646a.175.175,0,0,1-.075.232Zm-.712-2.021a.177.177,0,0,1-.174-.141,6.688,6.688,0,0,1-.116-.712.177.177,0,0,1,.157-.2h0a.183.183,0,0,1,.2.157,6.7,6.7,0,0,0,.108.712.184.184,0,0,1-.141.207Zm-.124-2.144h0a.177.177,0,0,1-.166-.191h0a3.46,3.46,0,0,1,.124-.712.174.174,0,0,1,.215-.132h0a.189.189,0,0,1,.133.223,4.7,4.7,0,0,0-.108.671.2.2,0,0,1-.141.183Zm.646-2.021a.141.141,0,0,1-.083,0,.187.187,0,0,1-.066-.248,5.83,5.83,0,0,1,.406-.6.172.172,0,0,1,.24-.042l.008.008a.174.174,0,0,1,.033.248h0c-.141.183-.265.373-.389.572a.183.183,0,0,1-.133.1Zm1.391-1.615a.174.174,0,0,1-.132-.066.17.17,0,0,1-.008-.24h0l.008-.008a4.857,4.857,0,0,1,.6-.422.172.172,0,0,1,.248.017.172.172,0,0,1-.017.248c-.017.008-.033.024-.05.033-.2.125-.381.257-.563.4a.255.255,0,0,1-.066.066Zm1.9-.961a.177.177,0,0,1-.174-.141.187.187,0,0,1,.124-.215,3.33,3.33,0,0,1,.754-.083.177.177,0,0,1,.174.183.175.175,0,0,1-.174.174,2.948,2.948,0,0,0-.663.074Z" transform="translate(893.932 5142.505)" fill="#fafafa"/>
          </g>
          <g id="freepik--Pencil--inject-14" transform="translate(16.376 89.455)">
            <path id="freepik--shadow--inject-14-2" d="M-883.391-5131.9c-.232.638-.911,1.036-2.054,1.185l-16.181-9.482-2.145-2.144a.16.16,0,0,1,0-.232.172.172,0,0,1,.166-.041l3.867,1.292Z" transform="translate(903.82 5143.431)" opacity="0.2"/>
            <path id="Trazado_109414" d="M-899.763-5142.92l-3.453-.679a.105.105,0,0,0-.124.083.115.115,0,0,0,.025.1l2.344,2.65Z" transform="translate(903.738 5143.601)" fill="#fce0cb"/>
            <path id="Trazado_109415" d="M-903.306-5143.417a.1.1,0,0,1,0-.149.109.109,0,0,1,.1-.025l.712.133h0a.593.593,0,0,0-.282.547v.058Z" transform="translate(903.737 5143.6)" fill="#016f3a"/>
            <path id="Trazado_109416" d="M-887.634-5133.257l-.282-.157-.339-.19-12.239-7.022a1.56,1.56,0,0,1,.091-1.143,1.613,1.613,0,0,1,1.118-1.011l12.231,7.014.646.373C-886.822-5135.609-888.064-5133.48-887.634-5133.257Z" transform="translate(903.26 5143.46)" fill="#33ab00"/>
            <path id="Trazado_109417" d="M-886.392-5132.533l-.638-.364c-.182-.1-.074-.555.141-1.027.29-.629.853-1.234,1.1-1.109l.464.273.166.091c-.248-.133-.812.48-1.1,1.109-.207.447-.315.895-.157,1.011h0Z" transform="translate(900.949 5142.131)" fill="#ebebeb"/>
            <path id="Trazado_109418" d="M-886.449-5132.579c-.439-.231.8-2.368,1.234-2.145l.629.364c-.431-.231-1.664,1.9-1.234,2.145Z" transform="translate(900.85 5142.078)" fill="#c2e6b0"/>
            <path id="Trazado_109419" d="M-885.1-5131.8l-.621-.348c-.431-.231.712-2.293,1.2-2.145h0l.621.356C-884.279-5134.15-885.529-5132.022-885.1-5131.8Z" transform="translate(900.725 5142.001)" fill="#ebebeb"/>
            <path id="Trazado_109420" d="M-903.323-5143.533l.116-.066,2.509,1.375,12.935,7.419c0-.033.041-.033.066,0-.373.58-.646,1.3-.406,1.433l-.282-.157-.34-.191-12.239-7.022h0l-2.344-2.65A.126.126,0,0,1-903.323-5143.533Z" transform="translate(903.737 5143.601)" opacity="0.15"/>
            <path id="Trazado_109421" d="M-882.328-5130.21l-2.642-1.515c-.182-.091-.075-.538.133-1.01.29-.629.845-1.243,1.093-1.118h0l2.65,1.516c.53.306.041,1.433-.538,1.955A.657.657,0,0,1-882.328-5130.21Z" transform="translate(900.595 5141.928)" fill="#fce0cb"/>
            <path id="Trazado_109422" d="M-881.959-5130.716a1.915,1.915,0,0,1,1.076-1.3.423.423,0,0,1,.4.05c.389.373-.066,1.432-.621,1.9a.644.644,0,0,1-.712.183A.807.807,0,0,1-881.959-5130.716Z" transform="translate(900.069 5141.614)" opacity="0.1"/>
          </g>
          <g id="freepik--Coffee--inject-14" transform="translate(88.195 71.251)">
            <path id="freepik--shadow--inject-14-3" d="M-881.463-5127.06c-2.782,1.532-2.782,4.033,0,5.565a11.55,11.55,0,0,0,10.045,0c2.782-1.532,2.782-4.033,0-5.565A11.5,11.5,0,0,0-881.463-5127.06Z" transform="translate(883.831 5145.141)" opacity="0.1"/>
            <g id="freepik--coffee--inject-14-2" transform="translate(0 0)">
              <path id="Trazado_109423" d="M-871.97-5137.91a14.533,14.533,0,0,0-8.844.232c-2.368.969-2.335,2.459.083,3.3a14.537,14.537,0,0,0,8.844-.232C-869.428-5135.583-869.461-5137.065-871.97-5137.91Z" transform="translate(883.662 5146.907)" fill="#016f3a"/>
              <path id="Trazado_109424" d="M-870.114-5141.5l-12.736.34,1.358,15h0c.075.538.6,1.077,1.59,1.433a11.257,11.257,0,0,0,7.635-.19c1-.448,1.515-1,1.565-1.541h0Z" transform="translate(883.711 5147.424)" fill="#fafafa"/>
              <path id="Trazado_109425" d="M-882.85-5141.154l.282,3.039a5.223,5.223,0,0,0,1.076.538,15.437,15.437,0,0,0,10.144-.257l.34-.166a7.584,7.584,0,0,0,.787-.472l.116-3.04Z" transform="translate(883.711 5147.426)" fill="#ebebeb"/>
              <path id="Trazado_109426" d="M-869.468-5141.66l-.066-2.3-1.482.041c-.2-.1-.414-.19-.654-.29a15.5,15.5,0,0,0-10.144.265,6.105,6.105,0,0,0-.613.314l-1.433.033.058,2.3h0c0,.712.712,1.474,2.145,2a15.444,15.444,0,0,0,10.144-.265C-870.147-5140.153-869.459-5140.915-869.468-5141.66Z" transform="translate(883.884 5148.015)" fill="#374f46"/>
              <path id="Trazado_109427" d="M-871.725-5146.331a15.522,15.522,0,0,0-10.152.265c-2.724,1.208-2.675,3.055.108,4.124a15.472,15.472,0,0,0,10.152-.265C-868.8-5143.416-868.844-5145.254-871.725-5146.331Z" transform="translate(883.889 5148.38)" fill="#33ab00"/>
              <path id="Trazado_109428" d="M-870.6-5144.77h0l-.505-1.88-3.644.092a15.047,15.047,0,0,0-3.619.091l-3.536.091-.414,1.9h0c-.215.712.348,1.433,1.689,1.9a13.2,13.2,0,0,0,8.364-.215C-870.9-5143.354-870.353-5144.091-870.6-5144.77Z" transform="translate(883.627 5148.31)" fill="#374f46"/>
              <path id="Trazado_109429" d="M-872.632-5148.162a12.872,12.872,0,0,0-7.685.2c-2.062.835-2.029,2.144.075,2.857a12.849,12.849,0,0,0,7.676-.2C-870.429-5146.158-870.462-5147.434-872.632-5148.162Z" transform="translate(883.537 5148.654)" fill="#33ab00"/>
              <path id="Trazado_109430" d="M-871.569-5146.609a.7.7,0,0,1-.232.282,3.535,3.535,0,0,1-.87.472,11.407,11.407,0,0,1-3.569.638,10.6,10.6,0,0,1-3.569-.448,3.039,3.039,0,0,1-.869-.43c-.182-.132-.232-.24-.232-.265s.182-.39,1.06-.754a10.7,10.7,0,0,1,3.569-.638,11.189,11.189,0,0,1,3.627.447C-871.809-5146.99-871.577-5146.675-871.569-5146.609Z" transform="translate(883.377 5148.501)" fill="#016f3a"/>
              <path id="Trazado_109431" d="M-871.753-5146.214a3.5,3.5,0,0,1-.87.472,11.393,11.393,0,0,1-3.569.638,10.588,10.588,0,0,1-3.569-.447,3.066,3.066,0,0,1-.87-.43,3.233,3.233,0,0,1,.845-.472,10.7,10.7,0,0,1,3.569-.637,11.176,11.176,0,0,1,3.627.447A3.464,3.464,0,0,1-871.753-5146.214Z" transform="translate(883.329 5148.387)" fill="#374f46"/>
              <g id="Grupo_54755" transform="translate(9.068 2.065)" opacity="0.5">
                <path id="Trazado_109432" d="M-881.022-5147.881a1.116,1.116,0,0,1,.853-.183c.157.074,0,.3-.282.488a1.085,1.085,0,0,1-.845.183C-881.461-5147.468-881.337-5147.691-881.022-5147.881Z" transform="translate(881.369 5148.084)"/>
              </g>
              <path id="Trazado_109433" d="M-882.065-5130.028c0,.563.6,1.118,1.739,1.516a13.82,13.82,0,0,0,8.331-.216c1.159-.463,1.731-1.042,1.714-1.606l.224-5.516c0,.6-.6,1.218-1.822,1.7a14.591,14.591,0,0,1-8.844.232c-1.209-.423-1.83-1.011-1.847-1.607Z" transform="translate(883.662 5146.453)" fill="#33ab00"/>
              <path id="Trazado_109434" d="M-877.739-5129.007a10.114,10.114,0,0,1-.522-.919,2.7,2.7,0,0,0-1.474-1.225.167.167,0,0,0-.215.083v.008a2.139,2.139,0,0,0,1.424,2.675,2.155,2.155,0,0,0,1.333-.025c.033,0,.05-.091,0-.107A2.188,2.188,0,0,1-877.739-5129.007Z" transform="translate(883.228 5145.647)" fill="#c2e6b0"/>
              <path id="Trazado_109435" d="M-879.286-5131.479a3.121,3.121,0,0,1,.919.538,2.712,2.712,0,0,1,.712.877,2.79,2.79,0,0,0,.861,1.077.175.175,0,0,0,.248-.041h0a1.9,1.9,0,0,0-.505-2.311,1.954,1.954,0,0,0-2.236-.448.159.159,0,0,0-.174.141v.016a.144.144,0,0,0,.141.158A.05.05,0,0,0-879.286-5131.479Z" transform="translate(883.128 5145.784)" fill="#c2e6b0"/>
            </g>
          </g>
          <path id="freepik--shadow--inject-14-4" d="M-775.248-5075.985l47.309-27.31a2.125,2.125,0,0,1,1.871,0l1.631.953c.522.3.522.786,0,1.076l-47.3,27.311a2.069,2.069,0,0,1-1.872,0l-1.64-.952a.574.574,0,0,1-.34-.737.6.6,0,0,1,.34-.34Z" transform="translate(885.549 5157.274)" opacity="0.2"/>
          <g id="freepik--Device--inject-14" transform="translate(74.911)">
            <path id="Trazado_109436" d="M-887.57-5102.486v-.323a1.745,1.745,0,0,1,.8-1.375l46.953-27.086a1.737,1.737,0,0,1,1.59,0l9.606,5.548a1.771,1.771,0,0,1,.8,1.375v.314a1.745,1.745,0,0,1-.8,1.375l-46.953,27.145a1.734,1.734,0,0,1-1.59,0l-9.606-5.548A1.747,1.747,0,0,1-887.57-5102.486Z" transform="translate(887.57 5162.08)" fill="#c2e6b0"/>
            <g id="Grupo_54756" transform="translate(0 30.617)" opacity="0.5">
              <path id="Trazado_109437" d="M-887.57-5130.956v-.323a1.746,1.746,0,0,1,.8-1.375l46.953-27.086a1.737,1.737,0,0,1,1.59,0l9.606,5.549a1.769,1.769,0,0,1,.8,1.374v.315a1.745,1.745,0,0,1-.8,1.375l-46.953,27.145a1.74,1.74,0,0,1-1.59,0l-9.606-5.549A1.759,1.759,0,0,1-887.57-5130.956Z" transform="translate(887.57 5159.933)" fill="#fff"/>
            </g>
            <path id="Trazado_109438" d="M-886.672-5103.264l9.606,5.565a1.737,1.737,0,0,0,1.59,0l46.953-27.145a.474.474,0,0,0,.315-.6.5.5,0,0,0-.315-.315l-9.614-5.515a1.737,1.737,0,0,0-1.59,0l-46.944,27.1a.491.491,0,0,0-.265.637.49.49,0,0,0,.265.265Z" transform="translate(887.467 5162.079)" fill="#c2e6b0"/>
            <g id="Grupo_54757" transform="translate(0.502 30.617)" opacity="0.8">
              <path id="Trazado_109439" d="M-887.122-5131.734l9.606,5.565a1.737,1.737,0,0,0,1.59,0l46.953-27.145a.475.475,0,0,0,.315-.6.5.5,0,0,0-.315-.314l-9.614-5.515a1.74,1.74,0,0,0-1.59,0l-46.944,27.1a.491.491,0,0,0-.265.637.439.439,0,0,0,.265.265Z" transform="translate(887.423 5159.932)" fill="#fff"/>
            </g>
            <path id="Trazado_109440" d="M-798.246-5123.416l3.4-41.181a3.875,3.875,0,0,0-1.7-3.4,4.266,4.266,0,0,0-3.9.074l-45.114,26.01a5.007,5.007,0,0,0-2.2,3.479l-3.4,41.181a3.9,3.9,0,0,0,1.7,3.412,4.266,4.266,0,0,0,3.9-.075l45.1-26.035A4.986,4.986,0,0,0-798.246-5123.416Z" transform="translate(881.312 5168.436)" fill="#c2e6b0"/>
            <path id="Trazado_109441" d="M-798.246-5123.416l3.4-41.181a3.875,3.875,0,0,0-1.7-3.4,4.266,4.266,0,0,0-3.9.074l-45.114,26.01a5.007,5.007,0,0,0-2.2,3.479l-3.4,41.181a3.9,3.9,0,0,0,1.7,3.412,4.266,4.266,0,0,0,3.9-.075l45.1-26.035A4.986,4.986,0,0,0-798.246-5123.416Z" transform="translate(881.312 5168.436)" fill="#fff" opacity="0.5"/>
            <path id="Trazado_109442" d="M-797.379-5123.416l3.4-41.181a3.875,3.875,0,0,0-1.7-3.4,4.266,4.266,0,0,0-3.9.074l-45.114,26.01a4.54,4.54,0,0,0-1.433,1.507l7.006,4.041v39.284l39.558-22.855A4.983,4.983,0,0,0-797.379-5123.416Z" transform="translate(880.444 5168.436)" fill="#c2e6b0"/>
            <path id="Trazado_109443" d="M-797.379-5123.416l3.4-41.181a3.875,3.875,0,0,0-1.7-3.4,4.266,4.266,0,0,0-3.9.074l-45.114,26.01a4.54,4.54,0,0,0-1.433,1.507l7.006,4.041v39.284l39.558-22.855A4.983,4.983,0,0,0-797.379-5123.416Z" transform="translate(880.444 5168.436)" fill="#fff" opacity="0.8"/>
            <path id="Trazado_109444" d="M-846.582-5094.537l3.4-41.147a4.982,4.982,0,0,1,2.2-3.479l45.1-26.035c1.118-.646,1.93-.124,1.822,1.159l-3.4,41.181a4.963,4.963,0,0,1-2.211,3.478l-45.1,26C-845.87-5092.748-846.69-5093.261-846.582-5094.537Z" transform="translate(880.525 5167.927)" fill="#c2e6b0"/>
            <path id="Trazado_109445" d="M-846.582-5094.537l3.4-41.147a4.982,4.982,0,0,1,2.2-3.479l45.1-26.035c1.118-.646,1.93-.124,1.822,1.159l-3.4,41.181a4.963,4.963,0,0,1-2.211,3.478l-45.1,26C-845.87-5092.748-846.69-5093.261-846.582-5094.537Z" transform="translate(880.525 5167.927)" fill="#fff" opacity="0.65"/>
            <path id="Trazado_109446" d="M-818.513-5120.949a7.865,7.865,0,0,1,3.3-5.548c1.648-.952,2.857,0,2.675,2.095a7.859,7.859,0,0,1-3.3,5.54C-817.461-5117.9-818.662-5118.837-818.513-5120.949Z" transform="translate(875.701 5161.29)" fill="#c2e6b0"/>
            <path id="Trazado_109447" d="M-817.589-5106.244l11.088-6.442-1.888-1.093-11.072,6.451Z" transform="translate(875.861 5159.04)" fill="#c2e6b0"/>
            <g id="Grupo_54758" transform="translate(56.403 45.257)" opacity="0.85">
              <path id="Trazado_109448" d="M-870.038-5148.334l11.088-6.442-1.888-1.093-11.072,6.451Z" transform="translate(871.91 5155.87)" fill="#fff"/>
            </g>
            <path id="Trazado_109449" d="M-802.123-5093.547l-13.49,7.792a1.674,1.674,0,0,1-.87.19,1.625,1.625,0,0,1-.712-.182h0l-5.946-3.437h0a1.75,1.75,0,0,1-.77-1.382v-.315c0-.514.348-.712.8-.463l3.569,2.062.8.464-.174-.911-1.267-17.349,1.88,1.085,11.088-6.426,5.772,17.522A1.44,1.44,0,0,1-802.123-5093.547Z" transform="translate(876.626 5158.805)" fill="#c2e6b0"/>
            <g id="Grupo_54759" transform="translate(52.72 46.383)" opacity="0.5">
              <path id="Trazado_109450" d="M-851.143-5136.687l-13.49,7.792a1.674,1.674,0,0,1-.869.19,1.625,1.625,0,0,1-.712-.182h0l-5.946-3.445h0a1.747,1.747,0,0,1-.77-1.375v-.315c0-.513.348-.712.8-.463l3.569,2.062.8.464-.174-.911-1.267-17.349,1.88,1.085,11.1-6.426,5.772,17.523A1.471,1.471,0,0,1-851.143-5136.687Z" transform="translate(872.93 5155.56)" fill="#fff"/>
            </g>
            <path id="Trazado_109451" d="M-823.69-5087.631l4.6-2.659.936,6.2Z" transform="translate(876.588 5155.001)" fill="#c2e6b0"/>
            <g id="Grupo_54760" transform="translate(52.895 64.713)" opacity="0.25">
              <path id="Trazado_109452" d="M-872.89-5147.812l4.6-2.658.936,6.2Z" transform="translate(872.89 5150.47)"/>
            </g>
            <path id="Trazado_109453" d="M-818.366-5104.905l-1.88-1.085,1.267,17.349c.1.5-.182.712-.629.447l-3.569-2.062c-.447-.265-.8-.05-.8.464v.314a1.764,1.764,0,0,0,.77,1.383h0l5.946,3.437h0a1.54,1.54,0,0,0,.712.183Z" transform="translate(876.638 5157.701)" fill="#c2e6b0"/>
            <g id="Grupo_54761" transform="translate(52.664 51.707)" opacity="0.25">
              <path id="Trazado_109454" d="M-867.336-5153l-1.88-1.084,1.267,17.349c.1.5-.182.712-.629.447l-3.569-2.062c-.447-.265-.8-.05-.8.464v.314a1.736,1.736,0,0,0,.77,1.375h0l5.946,3.445h0a1.54,1.54,0,0,0,.712.183Z" transform="translate(872.95 5154.08)" fill="#fff"/>
            </g>
          </g>
        </g>
      </g>
      <g id="freepik--speech-bubble--inject-14" transform="translate(-781.023 -5167.027)">
        <g id="freepik--speech-bubble--inject-14-2">
          <g id="freepik--speech-bubble--inject-14-3">
            <path id="Trazado_109455" d="M-810.279-5176.615a.472.472,0,0,0-.281-.075h-.629v10.558l6.211-6.658a.566.566,0,0,0-.066-.8l-.075-.05Z" transform="translate(864.229 5184.793)" fill="#c2e6b0"/>
            <path id="Trazado_109456" d="M-810.279-5176.615a.472.472,0,0,0-.281-.075h-.629v10.558l6.211-6.658a.566.566,0,0,0-.066-.8l-.075-.05Z" transform="translate(864.229 5184.793)" fill="#fff" opacity="0.5"/>
            <path id="Trazado_109457" d="M-811.477-5165.514l6.211-6.658a.564.564,0,0,0-.066-.795.575.575,0,0,0-.364-.132h-5.78l-1.433,1.225Z" transform="translate(864.525 5184.175)" fill="#c2e6b0"/>
            <path id="Trazado_109458" d="M-822.189-5181.667a5.393,5.393,0,0,0-2.418-4.223h0a5.386,5.386,0,0,0-4.878,0l-43.292,25a5.371,5.371,0,0,0-2.443,4.223v18.806a5.4,5.4,0,0,0,2.443,4.231h0a5.383,5.383,0,0,0,4.877,0l43.524-25.124c2.194-1.25,2.211-2.5,2.211-4.058Z" transform="translate(875.237 5186.475)" fill="#33ab1c"/>
            <path id="Trazado_109459" d="M-875.24-5132.212a5.4,5.4,0,0,0,2.443,4.231h0a5.456,5.456,0,0,0,4.463.208c-1.151.43-2.021-.224-2.021-1.615V-5148.2a5.04,5.04,0,0,1,.712-2.41l-4.877-2.808a4.916,4.916,0,0,0-.712,2.4Z" transform="translate(875.24 5180.792)" opacity="0.2"/>
            <path id="Trazado_109460" d="M-822.117-5182.355c-.29-1.036-1.226-1.366-2.36-.712l-43.3,25a4.764,4.764,0,0,0-1.714,1.822l-4.877-2.815a5.045,5.045,0,0,1,1.722-1.822l43.284-24.967a5.455,5.455,0,0,1,4.886,0h0A5.436,5.436,0,0,1-822.117-5182.355Z" transform="translate(875.09 5186.467)" fill="#fff" opacity="0.5"/>
          </g>
          <path id="Trazado_109461" d="M-860-5140.11a.149.149,0,0,1,.182,0,.291.291,0,0,1,.075.24v1.573a.773.773,0,0,1-.075.331.476.476,0,0,1-.182.224l-4.463,2.583a.149.149,0,0,1-.182,0,.273.273,0,0,1-.075-.231v-9.59a.771.771,0,0,1,.075-.331.475.475,0,0,1,.182-.224l1.267-.712a.15.15,0,0,1,.182,0,.292.292,0,0,1,.075.241v7.61Z" transform="translate(873.432 5179.564)" fill="#fafafa"/>
          <path id="Trazado_109462" d="M-856.379-5142.511a1.36,1.36,0,0,0,.075.514.491.491,0,0,0,.207.24.41.41,0,0,0,.282,0,.945.945,0,0,0,.3-.124,2.065,2.065,0,0,0,.455-.348,1.9,1.9,0,0,0,.29-.422l.149-.257a.846.846,0,0,1,.166-.132l1.259-.712c.141-.075.215,0,.215.207a2.616,2.616,0,0,1-.149.621,5.43,5.43,0,0,1-.447,1,6.438,6.438,0,0,1-.779,1.118,4.233,4.233,0,0,1-1.151.944,2.437,2.437,0,0,1-1.118.373,1.119,1.119,0,0,1-.82-.323,2.051,2.051,0,0,1-.5-.969,6.8,6.8,0,0,1-.166-1.582,8.851,8.851,0,0,1,.166-1.689,7.75,7.75,0,0,1,.5-1.557,6.372,6.372,0,0,1,.82-1.317,4.253,4.253,0,0,1,1.118-.944,1.921,1.921,0,0,1,1.2-.332,1.232,1.232,0,0,1,.812.472,2.428,2.428,0,0,1,.455,1.036,6.164,6.164,0,0,1,.133,1.35v.422a.741.741,0,0,1-.075.323.554.554,0,0,1-.182.231Zm.861-3.346a1.428,1.428,0,0,0-.613.712,2.836,2.836,0,0,0-.248.978l1.731-1.011a1.162,1.162,0,0,0-.248-.712c-.141-.116-.34-.132-.621.033Z" transform="translate(872.295 5179.896)" fill="#fafafa"/>
          <path id="Trazado_109463" d="M-848.611-5147.486a.773.773,0,0,0,.1.471c.066.083.166.083.315,0l.77-.447a.149.149,0,0,1,.182,0,.322.322,0,0,1,.075.24v1.5a.71.71,0,0,1-.075.323.556.556,0,0,1-.182.232l-.911.53a1.822,1.822,0,0,1-.82.273.9.9,0,0,1-.638-.215,1.391,1.391,0,0,1-.4-.712,3.8,3.8,0,0,1-.149-1.142v-2.493l-.712.414a.129.129,0,0,1-.182,0,.3.3,0,0,1-.075-.231v-1.507a.713.713,0,0,1,.075-.323.5.5,0,0,1,.182-.231l.712-.414v-2.418a.921.921,0,0,1,.074-.332.531.531,0,0,1,.182-.223l1.217-.712a.15.15,0,0,1,.182,0,.323.323,0,0,1,.075.241v2.417l1.093-.629a.13.13,0,0,1,.182,0,.3.3,0,0,1,.075.232v1.506a.773.773,0,0,1-.075.332.536.536,0,0,1-.182.224l-1.093.629Z" transform="translate(871.126 5181.053)" fill="#fafafa"/>
          <path id="Trazado_109464" d="M-844.414-5157.954a1.5,1.5,0,0,1,.182-.34.652.652,0,0,1,.182-.149l1.275-.712c.133-.066.182,0,.182.19a.451.451,0,0,1-.05.208l-1.3,2.4c-.05.091-.108.183-.166.273a.739.739,0,0,1-.24.215l-.845.488c-.108.066-.157,0-.157-.141a.52.52,0,0,1,.05-.224Z" transform="translate(870.102 5181.783)" fill="#fafafa"/>
          <path id="Trazado_109465" d="M-837.922-5152.451a.256.256,0,0,0-.075-.215.3.3,0,0,0-.24,0,3.043,3.043,0,0,0-.464.141c-.182.074-.422.141-.712.232a1.057,1.057,0,0,1-1.126-.184,2,2,0,0,1-.389-1.432,3.337,3.337,0,0,1,.166-1.027,5.1,5.1,0,0,1,.455-1.019,4.752,4.752,0,0,1,.712-.911,4.078,4.078,0,0,1,.927-.712,2.489,2.489,0,0,1,.919-.348,1.48,1.48,0,0,1,.712.05.984.984,0,0,1,.489.389,1.234,1.234,0,0,1,.2.639.767.767,0,0,1-.075.33.554.554,0,0,1-.19.225l-1.143.662q-.112.062-.174,0l-.149-.075a.579.579,0,0,0-.232,0,1.134,1.134,0,0,0-.389.149,1.515,1.515,0,0,0-.373.314.6.6,0,0,0-.149.4.382.382,0,0,0,.05.231c0,.041.091.05.19,0l.4-.124.712-.231c.588-.184,1.01-.133,1.275.182a2.031,2.031,0,0,1,.4,1.35,3.381,3.381,0,0,1-.166,1.035,4.46,4.46,0,0,1-.48,1.052,5.838,5.838,0,0,1-.77.969,5.271,5.271,0,0,1-1.035.787,2.649,2.649,0,0,1-1.01.39,1.393,1.393,0,0,1-.712-.083.966.966,0,0,1-.455-.414,1.5,1.5,0,0,1-.182-.63.547.547,0,0,1,.075-.322.564.564,0,0,1,.182-.232l1.192-.712c.075-.041.124-.041.157,0a.407.407,0,0,0,.133.107.42.42,0,0,0,.224.042,1.144,1.144,0,0,0,.431-.166,1.976,1.976,0,0,0,.5-.406A.761.761,0,0,0-837.922-5152.451Z" transform="translate(869.356 5181.57)" fill="#fafafa"/>
          <path id="Trazado_109466" d="M-829.351-5154.247a2.041,2.041,0,0,0,.646-.629,1.725,1.725,0,0,0,.281-.944v-1.06c-.058.141-.116.29-.182.431a2.255,2.255,0,0,1-.248.431,3.5,3.5,0,0,1-.364.422,2.8,2.8,0,0,1-.538.389,1.828,1.828,0,0,1-.82.273.866.866,0,0,1-.671-.224,1.773,1.773,0,0,1-.472-.77,4.405,4.405,0,0,1-.19-1.351v-1.059a7.866,7.866,0,0,1,.19-1.59,6.185,6.185,0,0,1,.472-1.309,4.879,4.879,0,0,1,.671-1.011,3.38,3.38,0,0,1,.82-.712,1.871,1.871,0,0,1,.547-.232,1.043,1.043,0,0,1,.389,0,.7.7,0,0,1,.273.133,1.268,1.268,0,0,1,.174.19v-.3a.909.909,0,0,1,.075-.331.474.474,0,0,1,.182-.224l1.118-.646a.149.149,0,0,1,.182,0,.323.323,0,0,1,.075.241v7.245a6.049,6.049,0,0,1-.712,2.94,5.162,5.162,0,0,1-.828,1.109,4.7,4.7,0,0,1-1.068.82,2.5,2.5,0,0,1-1.226.422,1.071,1.071,0,0,1-.712-.264,1.4,1.4,0,0,1-.381-.638,2.969,2.969,0,0,1-.116-.712.55.55,0,0,1,.075-.323.553.553,0,0,1,.182-.232l1.259-.712c.133-.074.232-.033.29.124a.454.454,0,0,0,.207.224C-829.724-5154.081-829.575-5154.123-829.351-5154.247Zm-.853-4.926v.381a2.423,2.423,0,0,0,0,.347,1.217,1.217,0,0,0,.232.712c.141.141.348.133.638,0a1.434,1.434,0,0,0,.6-.712,3.186,3.186,0,0,0,.257-.911,5.882,5.882,0,0,0,0-.936.966.966,0,0,0-.248-.6c-.141-.132-.348-.132-.6,0a1.55,1.55,0,0,0-.629.713A2.771,2.771,0,0,0-830.2-5159.173Z" transform="translate(867.791 5182.68)" fill="#fafafa"/>
          <path id="Trazado_109467" d="M-819.335-5165.288v1.134a6.5,6.5,0,0,1-.207,1.433,6.774,6.774,0,0,1-.538,1.433,5.429,5.429,0,0,1-.812,1.209,4.207,4.207,0,0,1-1.068.878,2.236,2.236,0,0,1-1.093.348,1.243,1.243,0,0,1-.812-.265,1.844,1.844,0,0,1-.53-.787,3.8,3.8,0,0,1-.215-1.217v-1.143a6.044,6.044,0,0,1,.207-1.433,6.778,6.778,0,0,1,.538-1.433,5.588,5.588,0,0,1,.812-1.234,4.062,4.062,0,0,1,1.068-.886,2.12,2.12,0,0,1,1.068-.339,1.227,1.227,0,0,1,.82.273,1.687,1.687,0,0,1,.53.778A4.073,4.073,0,0,1-819.335-5165.288Zm-3.511,3.1a.945.945,0,0,0,.265.712.541.541,0,0,0,.621-.041,1.623,1.623,0,0,0,.621-.712,2.372,2.372,0,0,0,.265-1.035v-1.011a.946.946,0,0,0-.265-.712c-.157-.124-.364-.107-.621.042a1.568,1.568,0,0,0-.621.67,2.66,2.66,0,0,0-.265,1.035v.521a4.936,4.936,0,0,0,0,.5Z" transform="translate(866.536 5183.229)" fill="#fafafa"/>
          <path id="Trazado_109468" d="M-815.38-5167.061a.916.916,0,0,1-.075.331.479.479,0,0,1-.182.224l-1.217.712a.15.15,0,0,1-.182,0,.322.322,0,0,1-.075-.24v-6.426a.916.916,0,0,1,.075-.331.532.532,0,0,1,.182-.224l1.217-.712a.129.129,0,0,1,.182,0,.3.3,0,0,1,.075.232Zm0,3.2a.842.842,0,0,1-.075.324.5.5,0,0,1-.182.231l-1.217.712a.129.129,0,0,1-.182,0,.3.3,0,0,1-.075-.231v-1.507a.916.916,0,0,1,.075-.331.532.532,0,0,1,.182-.224l1.217-.712a.129.129,0,0,1,.182,0,.3.3,0,0,1,.075.231Z" transform="translate(865.247 5184.29)" fill="#fafafa"/>
        </g>
      </g>
    </g>
  </g>
</svg>
