<svg xmlns="http://www.w3.org/2000/svg" width="189" height="189" viewBox="0 0 189 189">
  <g id="Grupo_1054639" data-name="Grupo 1054639" transform="translate(-518 9476)">
    <circle id="Elipse_4177" data-name="Elipse 4177" cx="94.5" cy="94.5" r="94.5" transform="translate(518 -9476)" fill="#39a900"/>
    <circle id="Elipse_4178" data-name="Elipse 4178" cx="19" cy="19" r="19" transform="translate(518 -9467)" fill="#ffce40"/>
    <g id="Project-Innovation-Idea-Management-Control" transform="translate(568.721 -9436.4)">
      <path id="Trazado_110818" data-name="Trazado 110818" d="M267.66,220.651v-91.5a5.49,5.49,0,0,1,5.49-5.49h56.73v9.15a5.49,5.49,0,0,0,5.49,5.49h9.15v36.6h3.66V136.47a1.829,1.829,0,0,0-.536-1.294L333,120.536a1.83,1.83,0,0,0-1.294-.536H273.15a9.161,9.161,0,0,0-9.15,9.15v91.5a9.161,9.161,0,0,0,9.15,9.15h56.73v-3.66H273.15A5.49,5.49,0,0,1,267.66,220.651Zm65.881-87.841v-6.562l8.392,8.392h-6.562A1.83,1.83,0,0,1,333.541,132.81Z" transform="translate(-264 -120)" fill="#fff"/>
      <path id="Trazado_110819" data-name="Trazado 110819" d="M413.286,214.633a14.64,14.64,0,0,0-14.638-14.642l-.251,0a14.8,14.8,0,0,0-14.38,14.1,14.652,14.652,0,0,0,4.366,10.962,9.46,9.46,0,0,1,2.871,6.048h-3.589v3.66h3.66v3.66a3.66,3.66,0,0,0,3.66,3.66h7.32a3.66,3.66,0,0,0,3.66-3.66v-3.66h3.66V231.1h-3.592a9.113,9.113,0,0,1,2.745-5.913A14.484,14.484,0,0,0,413.286,214.633Zm-18.3,23.79v-3.66h7.32v3.66Zm7.338-7.32h-7.357a13.113,13.113,0,0,0-4.026-8.658,10.839,10.839,0,0,1-3.276-8.219,10.974,10.974,0,1,1,18.8,8.077q-.119.121-.242.239a12.825,12.825,0,0,0-3.9,8.561Z" transform="translate(-356.556 -181.693)" fill="#fff"/>
      <path id="Trazado_110820" data-name="Trazado 110820" d="M429.49,265.83a1.83,1.83,0,0,1-1.83-1.83H424a5.49,5.49,0,0,0,3.66,5.153v7.657h3.66v-7.657A5.49,5.49,0,0,0,434.98,264h-3.66A1.83,1.83,0,0,1,429.49,265.83Z" transform="translate(-387.4 -231.06)" fill="#fff"/>
      <path id="Trazado_110821" data-name="Trazado 110821" d="M440,168h3.66v3.66H440Z" transform="translate(-399.74 -157.02)" fill="#fff"/>
      <path id="Trazado_110822" data-name="Trazado 110822" d="M393.072,178.674l3.17-1.83,1.83,3.17-3.17,1.83Z" transform="translate(-363.547 -163.841)" fill="#fff"/>
      <path id="Trazado_110823" data-name="Trazado 110823" d="M360.86,212.261l1.83-3.17,3.17,1.83-1.83,3.17Z" transform="translate(-338.703 -188.711)" fill="#fff"/>
      <path id="Trazado_110824" data-name="Trazado 110824" d="M352,256h3.66v3.66H352Z" transform="translate(-331.87 -224.89)" fill="#fff"/>
      <path id="Trazado_110825" data-name="Trazado 110825" d="M360.861,298.882l3.17-1.83,1.83,3.17-3.17,1.83Z" transform="translate(-338.704 -256.551)" fill="#fff"/>
      <path id="Trazado_110826" data-name="Trazado 110826" d="M513.288,300.278l1.83-3.17,3.17,1.83-1.83,3.17Z" transform="translate(-456.263 -256.594)" fill="#fff"/>
      <path id="Trazado_110827" data-name="Trazado 110827" d="M528,256h3.66v3.66H528Z" transform="translate(-467.609 -224.89)" fill="#fff"/>
      <path id="Trazado_110828" data-name="Trazado 110828" d="M513.269,210.87l3.17-1.83,1.83,3.17-3.17,1.83Z" transform="translate(-456.248 -188.672)" fill="#fff"/>
      <path id="Trazado_110829" data-name="Trazado 110829" d="M481.084,180.058l1.83-3.17,3.17,1.83-1.83,3.17Z" transform="translate(-431.426 -163.875)" fill="#fff"/>
      <path id="Trazado_110830" data-name="Trazado 110830" d="M569.67,396.148l-4.908-.7a19.852,19.852,0,0,0-1.243-3l2.974-3.964a1.83,1.83,0,0,0-.17-2.392l-5.175-5.175a1.83,1.83,0,0,0-2.39-.17l-3.966,2.972a19.955,19.955,0,0,0-3-1.241l-.7-4.908A1.83,1.83,0,0,0,549.28,376h-7.32a1.83,1.83,0,0,0-1.812,1.57l-.7,4.908a19.866,19.866,0,0,0-3,1.241l-3.966-2.972a1.83,1.83,0,0,0-2.39.17l-5.175,5.175a1.83,1.83,0,0,0-.17,2.392l2.974,3.964a19.865,19.865,0,0,0-1.243,3l-4.908.7A1.83,1.83,0,0,0,520,397.96v7.32a1.83,1.83,0,0,0,1.57,1.812l4.908.7a19.863,19.863,0,0,0,1.243,3l-2.974,3.964a1.83,1.83,0,0,0,.17,2.392l5.175,5.175a1.83,1.83,0,0,0,2.39.17l3.966-2.972a19.866,19.866,0,0,0,3,1.241l.7,4.908a1.83,1.83,0,0,0,1.812,1.57h7.32a1.83,1.83,0,0,0,1.812-1.57l.7-4.908a19.958,19.958,0,0,0,3-1.241l3.966,2.972a1.83,1.83,0,0,0,2.39-.17l5.175-5.175a1.83,1.83,0,0,0,.17-2.392l-2.974-3.964a19.85,19.85,0,0,0,1.243-3l4.908-.7a1.83,1.83,0,0,0,1.57-1.812v-7.32A1.83,1.83,0,0,0,569.67,396.148Zm-2.09,7.545-4.507.644a1.831,1.831,0,0,0-1.513,1.358,16.32,16.32,0,0,1-1.788,4.313,1.83,1.83,0,0,0,.112,2.033l2.73,3.642-2.928,2.928-3.644-2.73a1.83,1.83,0,0,0-2.031-.11,16.215,16.215,0,0,1-4.312,1.784,1.83,1.83,0,0,0-1.362,1.515l-.644,4.509h-4.147l-.642-4.507a1.83,1.83,0,0,0-1.362-1.515,16.22,16.22,0,0,1-4.311-1.784,1.83,1.83,0,0,0-2.031.11l-3.644,2.73-2.928-2.928,2.73-3.642a1.83,1.83,0,0,0,.112-2.033,16.326,16.326,0,0,1-1.788-4.313,1.83,1.83,0,0,0-1.513-1.358l-4.509-.646v-4.147l4.507-.644a1.83,1.83,0,0,0,1.513-1.358,16.325,16.325,0,0,1,1.788-4.313,1.83,1.83,0,0,0-.112-2.033l-2.73-3.642,2.928-2.928,3.644,2.73a1.83,1.83,0,0,0,2.031.11,16.22,16.22,0,0,1,4.312-1.784,1.83,1.83,0,0,0,1.361-1.515l.644-4.509h4.147l.642,4.507a1.83,1.83,0,0,0,1.362,1.515,16.217,16.217,0,0,1,4.311,1.784,1.83,1.83,0,0,0,2.031-.11l3.644-2.73,2.928,2.928-2.73,3.642a1.83,1.83,0,0,0-.112,2.033,16.322,16.322,0,0,1,1.788,4.313,1.83,1.83,0,0,0,1.513,1.358l4.509.646Z" transform="translate(-461.44 -317.44)" fill="#fff"/>
      <path id="Trazado_110831" data-name="Trazado 110831" d="M594.98,440a10.98,10.98,0,1,0,10.98,10.98A10.98,10.98,0,0,0,594.98,440Zm0,18.3a7.32,7.32,0,1,1,7.32-7.32A7.32,7.32,0,0,1,594.98,458.3Z" transform="translate(-510.799 -366.8)" fill="#fff"/>
      <path id="Trazado_110832" data-name="Trazado 110832" d="M624,408h3.66v3.66H624Z" transform="translate(-541.649 -342.12)" fill="#fff"/>
      <path id="Trazado_110833" data-name="Trazado 110833" d="M569.707,428.284l2.588-2.588,2.588,2.588-2.588,2.588Z" transform="translate(-499.776 -355.768)" fill="#fff"/>
      <path id="Trazado_110834" data-name="Trazado 110834" d="M552,480h3.66v3.66H552Z" transform="translate(-486.119 -397.649)" fill="#fff"/>
      <path id="Trazado_110835" data-name="Trazado 110835" d="M569.7,530.178l2.588-2.588,2.588,2.588-2.588,2.588Z" transform="translate(-499.767 -434.353)" fill="#fff"/>
      <path id="Trazado_110836" data-name="Trazado 110836" d="M624,552h3.66v3.66H624Z" transform="translate(-541.649 -453.179)" fill="#fff"/>
      <path id="Trazado_110837" data-name="Trazado 110837" d="M671.51,530.084,674.1,527.5l2.588,2.588-2.588,2.588Z" transform="translate(-578.291 -434.281)" fill="#fff"/>
      <path id="Trazado_110838" data-name="Trazado 110838" d="M696,480h3.66v3.66H696Z" transform="translate(-597.179 -397.649)" fill="#fff"/>
      <path id="Trazado_110839" data-name="Trazado 110839" d="M671.529,428.47l2.588-2.588,2.588,2.588-2.588,2.588Z" transform="translate(-578.306 -355.911)" fill="#fff"/>
      <path id="Trazado_110840" data-name="Trazado 110840" d="M312,416h32.94v3.66H312Z" transform="translate(-301.02 -348.29)" fill="#fff"/>
      <path id="Trazado_110841" data-name="Trazado 110841" d="M472,416h7.32v3.66H472Z" transform="translate(-424.42 -348.29)" fill="#fff"/>
      <path id="Trazado_110842" data-name="Trazado 110842" d="M312,448h43.92v3.66H312Z" transform="translate(-301.02 -372.97)" fill="#fff"/>
      <path id="Trazado_110843" data-name="Trazado 110843" d="M312,480h3.66v3.66H312Z" transform="translate(-301.02 -397.649)" fill="#fff"/>
      <path id="Trazado_110844" data-name="Trazado 110844" d="M344,480h36.6v3.66H344Z" transform="translate(-325.7 -397.649)" fill="#fff"/>
      <path id="Trazado_110845" data-name="Trazado 110845" d="M312,512h43.92v3.66H312Z" transform="translate(-301.02 -422.329)" fill="#fff"/>
    </g>
  </g>
</svg>
