<svg xmlns="http://www.w3.org/2000/svg" width="189" height="189" viewBox="0 0 189 189">
  <g id="Grupo_1054641" data-name="Grupo 1054641" transform="translate(28 9230)">
    <circle id="Elipse_4181" data-name="Elipse 4181" cx="94.5" cy="94.5" r="94.5" transform="translate(-28 -9230)" fill="#39a900"/>
    <circle id="Elipse_4182" data-name="Elipse 4182" cx="19" cy="19" r="19" transform="translate(-28 -9221)" fill="#ffce40"/>
    <g id="Grupo_1054635" data-name="Grupo 1054635" transform="translate(15 -9184)">
      <path id="Trazado_110880" data-name="Trazado 110880" d="M154.274,200a18.274,18.274,0,1,0,18.274,18.274A18.3,18.3,0,0,0,154.274,200Zm0,33.226a14.952,14.952,0,1,1,14.952-14.952A14.968,14.968,0,0,1,154.274,233.226Z" transform="translate(-109.419 -160.129)" fill="#fff"/>
      <path id="Trazado_110881" data-name="Trazado 110881" d="M16.306,37.9h4.2l7.13,8.556a3.924,3.924,0,0,0,6.939-2.512V37.9h8.306A8.316,8.316,0,0,0,51.194,29.6V16.306A8.316,8.316,0,0,0,42.887,8H16.306A8.316,8.316,0,0,0,8,16.306V29.6A8.316,8.316,0,0,0,16.306,37.9Zm-4.984-21.6a4.99,4.99,0,0,1,4.984-4.984H42.887a4.99,4.99,0,0,1,4.984,4.984V29.6a4.99,4.99,0,0,1-4.984,4.984H31.258v9.366a.624.624,0,0,1-1.063.384l-8.125-9.75H16.306A4.99,4.99,0,0,1,11.323,29.6Z" transform="translate(-8 -8)" fill="#fff"/>
      <path id="Trazado_110882" data-name="Trazado 110882" d="M91.323,56.613h13.29a3.326,3.326,0,0,0,3.323-3.323V43.323A3.326,3.326,0,0,0,104.613,40H91.323A3.326,3.326,0,0,0,88,43.323V53.29A3.326,3.326,0,0,0,91.323,56.613Zm0-13.29h13.29V53.29H91.323Z" transform="translate(-71.387 -33.355)" fill="#fff"/>
      <path id="Trazado_110883" data-name="Trazado 110883" d="M40,40h6.645v3.323H40Z" transform="translate(-33.355 -33.355)" fill="#fff"/>
      <path id="Trazado_110884" data-name="Trazado 110884" d="M40,72h6.645v3.323H40Z" transform="translate(-33.355 -58.71)" fill="#fff"/>
      <path id="Trazado_110885" data-name="Trazado 110885" d="M40,104h6.645v3.323H40Z" transform="translate(-33.355 -84.065)" fill="#fff"/>
      <path id="Trazado_110886" data-name="Trazado 110886" d="M264,280h3.323v3.323H264Z" transform="translate(-210.839 -223.516)" fill="#fff"/>
      <path id="Trazado_110887" data-name="Trazado 110887" d="M232,280h3.323v3.323H232Z" transform="translate(-185.484 -223.516)" fill="#fff"/>
      <path id="Trazado_110888" data-name="Trazado 110888" d="M200,280h3.323v3.323H200Z" transform="translate(-160.129 -223.516)" fill="#fff"/>
      <path id="Trazado_110889" data-name="Trazado 110889" d="M168,280h3.323v3.323H168Z" transform="translate(-134.774 -223.516)" fill="#fff"/>
      <path id="Trazado_110890" data-name="Trazado 110890" d="M64.352,427.281l2.349-2.349,2.349,2.349L66.7,429.63Z" transform="translate(-52.65 -338.352)" fill="#fff"/>
      <path id="Trazado_110891" data-name="Trazado 110891" d="M42.3,449.794l2.23-2.23,2.349,2.349-2.23,2.231Z" transform="translate(-35.174 -356.284)" fill="#fff"/>
      <path id="Trazado_110892" data-name="Trazado 110892" d="M86.976,404.659l2.349-2.349,2.349,2.349-2.349,2.349Z" transform="translate(-70.576 -320.427)" fill="#fff"/>
      <path id="Trazado_110893" data-name="Trazado 110893" d="M358.645,365.29A6.645,6.645,0,1,0,352,358.645,6.652,6.652,0,0,0,358.645,365.29Zm0-9.968a3.323,3.323,0,1,1-3.323,3.323A3.326,3.326,0,0,1,358.645,355.323Z" transform="translate(-280.565 -280.565)" fill="#fff"/>
      <path id="Trazado_110894" data-name="Trazado 110894" d="M333.29,346.581A13.29,13.29,0,1,0,320,333.29,13.306,13.306,0,0,0,333.29,346.581Zm0-23.258a9.968,9.968,0,1,1-9.968,9.968A9.978,9.978,0,0,1,333.29,323.323Z" transform="translate(-255.21 -255.21)" fill="#fff"/>
      <path id="Trazado_110895" data-name="Trazado 110895" d="M111,54.516A23.288,23.288,0,0,0,94.975,32.424a13.29,13.29,0,1,0-14.488-.013,23.2,23.2,0,0,0-14.081,12.85,24.877,24.877,0,0,0-35.063,33.4L27.935,82.07l-1.661-1.661L10.55,96.133A8.709,8.709,0,0,0,22.867,108.45L38.591,92.726,36.93,91.065l3.407-3.407a24.6,24.6,0,0,0,20.824,1.954v2.756L65.8,93.508c.2.552.435,1.1.691,1.653l-2.479,4.1,8.891,8.891,4.1-2.479q.825.384,1.653.691l1.14,4.64H92.367l1.141-4.642q.827-.307,1.653-.691l4.1,2.479,8.891-8.891-2.479-4.1q.384-.825.691-1.653l4.64-1.14V79.794l-4.642-1.141q-.307-.827-.691-1.653l2.479-4.1-8.891-8.891-4.1,2.479q-.825-.384-1.653-.691l-1.14-4.64H79.794L78.653,65.8c-.3.113-.583.264-.882.39a.469.469,0,0,0,0-.048,24.773,24.773,0,0,0-1.454-8.306H111ZM77.774,21.29a9.968,9.968,0,1,1,9.968,9.968A9.978,9.978,0,0,1,77.774,21.29ZM20.518,106.1A5.387,5.387,0,0,1,12.9,98.482L26.274,85.107l7.619,7.619ZM34.581,88.715l-4.3-4.3,2.955-2.955a25.091,25.091,0,0,0,4.3,4.3Zm-3.323-22.57a21.6,21.6,0,1,1,21.6,21.6A21.622,21.622,0,0,1,31.258,66.145Zm46.426,3.716a18.1,18.1,0,0,1,2.866-1.2l.89-.281.959-3.9h7.363l.959,3.9.89.281a18.228,18.228,0,0,1,2.866,1.2l.827.43,3.446-2.085,5.2,5.2-2.085,3.446.43.827a18.1,18.1,0,0,1,1.2,2.866l.281.89,3.9.957v7.363l-3.9.959-.281.89a18.23,18.23,0,0,1-1.2,2.866l-.43.827,2.085,3.446-5.2,5.2L95.3,101.87l-.827.43a18.1,18.1,0,0,1-2.866,1.2l-.89.281-.957,3.9H82.4l-.959-3.9-.89-.281a18.229,18.229,0,0,1-2.866-1.2l-.827-.43-3.446,2.085-5.2-5.2L70.292,95.3l-.43-.827a18.038,18.038,0,0,1-1.2-2.869l-.282-.887-3.894-.957V88.169a24.956,24.956,0,0,0,12.966-18.2ZM74.877,54.516a25.055,25.055,0,0,0-5.725-7.178,19.931,19.931,0,0,1,38.525,7.178Z" transform="translate(-8 -8)" fill="#fff"/>
    </g>
  </g>
</svg>
