<svg xmlns="http://www.w3.org/2000/svg" width="189" height="189" viewBox="0 0 189 189">
  <g id="Grupo_1054642" data-name="Grupo 1054642" transform="translate(-277 9230)">
    <circle id="Elipse_4183" data-name="Elipse 4183" cx="94.5" cy="94.5" r="94.5" transform="translate(277 -9230)" fill="#39a900"/>
    <circle id="Elipse_4184" data-name="Elipse 4184" cx="19" cy="19" r="19" transform="translate(277 -9221)" fill="#ffce40"/>
    <g id="Grupo_1054636" data-name="Grupo 1054636" transform="translate(315.67 -9192.516)">
      <g id="Grupo_54904" data-name="Grupo 54904" transform="translate(0 0)">
        <path id="Trazado_110904" data-name="Trazado 110904" d="M492.764,375.146v38.819a5.131,5.131,0,0,0,5.125,5.125h30.349a5.131,5.131,0,0,0,5.125-5.125V375.146a5.131,5.131,0,0,0-5.125-5.125H497.889A5.131,5.131,0,0,0,492.764,375.146Zm31.564,40.673H501.8V404.408a5.1,5.1,0,0,1,5.094-5.095h12.339a5.1,5.1,0,0,1,5.094,5.095v11.411Zm-19.513-27.971a8.194,8.194,0,1,1,8.193,8.193A8.2,8.2,0,0,1,504.814,387.848Zm25.278-12.7v38.819a1.856,1.856,0,0,1-1.854,1.854H527.6V404.408a8.379,8.379,0,0,0-6.749-8.208,11.465,11.465,0,1,0-15.666.018,8.38,8.38,0,0,0-6.656,8.19v11.411h-.639a1.856,1.856,0,0,1-1.854-1.854V375.146a1.856,1.856,0,0,1,1.854-1.854h30.349a1.856,1.856,0,0,1,1.854,1.854Z" transform="translate(-483.22 -324.871)" fill="#fff"/>
        <path id="Trazado_110905" data-name="Trazado 110905" d="M727.694,425.065h38.422a1.636,1.636,0,1,0,0-3.271H727.694a1.636,1.636,0,0,0,0,3.271Z" transform="translate(-665.635 -365.353)" fill="#fff"/>
        <path id="Trazado_110906" data-name="Trazado 110906" d="M727.694,481.758h38.422a1.636,1.636,0,1,0,0-3.271H727.694a1.636,1.636,0,0,0,0,3.271Z" transform="translate(-665.635 -409.682)" fill="#fff"/>
        <path id="Trazado_110907" data-name="Trazado 110907" d="M727.694,538.451h38.422a1.636,1.636,0,1,0,0-3.271H727.694a1.636,1.636,0,0,0,0,3.271Z" transform="translate(-665.635 -454.011)" fill="#fff"/>
        <path id="Trazado_110908" data-name="Trazado 110908" d="M559.025,332.524a1.636,1.636,0,0,0-1.636,1.636v10.976a5.349,5.349,0,0,1-5.343,5.343H457.614a5.349,5.349,0,0,1-5.343-5.343V283.867a5.349,5.349,0,0,1,5.343-5.343h10.224a1.636,1.636,0,1,0,0-3.271H457.614A8.624,8.624,0,0,0,449,283.867v61.268a8.624,8.624,0,0,0,8.614,8.614h94.431a8.624,8.624,0,0,0,8.614-8.614V334.159A1.636,1.636,0,0,0,559.025,332.524Z" transform="translate(-449 -250.77)" fill="#fff"/>
        <path id="Trazado_110909" data-name="Trazado 110909" d="M641.092,187.475h-38c.626-5.613,1.13-11.877,1.323-19.559a4.8,4.8,0,0,0-4.806-4.924H588.144a4.8,4.8,0,0,0-4.806,4.924c.164,6.512.607,13.066,1.32,19.559h-20.14a1.636,1.636,0,1,0,0,3.271h20.523c.007.06.016.121.023.181.122.989.283,2.2.373,2.858H582.4a4.882,4.882,0,0,0,0,9.764H605.35a4.882,4.882,0,0,0,0-9.764h-3.035c.13-.983.241-1.785.394-3.039h38.382a5.349,5.349,0,0,1,5.343,5.343v42.659a1.636,1.636,0,1,0,3.271,0V196.089A8.624,8.624,0,0,0,641.092,187.475Zm-58.69,12.8a1.611,1.611,0,0,1,0-3.221h3.484l.443,3.221Zm15.72,0h-8.491c-1.02-7.428-1.15-8.292-1.489-11.157-.838-7.054-1.356-14.2-1.534-21.286a1.534,1.534,0,0,1,1.536-1.57h11.465a1.534,1.534,0,0,1,1.536,1.57c-.343,13.654-1.639,22.366-3.023,32.443Zm7.229-3.221a1.611,1.611,0,0,1,0,3.221h-3.926l.447-3.221Z" transform="translate(-538.046 -162.992)" fill="#fff"/>
      </g>
    </g>
  </g>
</svg>
