<svg xmlns="http://www.w3.org/2000/svg" xmlns:xlink="http://www.w3.org/1999/xlink" width="400.01" height="298.856" viewBox="0 0 400.01 298.856">
  <defs>
    <linearGradient id="linear-gradient" x1="-4.932" y1="14.396" x2="-4.932" y2="14.418" gradientUnits="objectBoundingBox">
      <stop offset="0" stop-color="#fff"/>
      <stop offset="0.622" stop-color="#fff"/>
      <stop offset="1" stop-color="#e1e1e1"/>
    </linearGradient>
  </defs>
  <g id="Pencil" transform="translate(-49.86 -127.014)">
    <path id="Trazado_771745" d="M229.54,418.91a66.246,66.246,0,0,1-38.52-120.18L322.2,205.17a66.247,66.247,0,0,1,92.4,15.46h0a66.243,66.243,0,0,1-15.46,92.39.01.01,0,0,0-.01.01L267.95,406.6A65.948,65.948,0,0,1,229.54,418.91Z" transform="translate(-7.76 -65.835)" fill="#f1cd41"/>
    <path id="Trazado_771745_00000163791809665486624840000015826685165025420426_" d="M154.29,425.87a46.558,46.558,0,0,1-27.07-84.46l92.19-65.75a46.552,46.552,0,0,1,64.93,10.87h0a46.552,46.552,0,0,1-10.87,64.93l-92.19,65.75A46.325,46.325,0,0,1,154.29,425.87Z" fill="#39a900"/>
    <path id="Trazado_110724" d="M154.07,149.08s-23.17-1.13-10.88,69.49c0,0,8.27,23.97-2.17,39.42H294.69V149.08Z" fill="#c2e6b0"/>
    <g id="Grupo_54877" transform="translate(1068.284 325.899)">
      <path id="Trazado_110736" d="M-806.2-144.52s-9.28,15.04-3.2,32.84l2.48-.75s-3.02-19.71,1.77-29.81S-806.2-144.52-806.2-144.52Z" fill="#6d87ce"/>
    </g>
    <rect id="Rectángulo_5918" width="160.44" height="209.24" transform="translate(163.81 190.88)" fill="#006f3a"/>
    <rect id="Rectángulo_5919" width="157.74" height="209.24" transform="translate(169.06 190.88)" fill="#fff"/>
    <path id="Trazado_110737" d="M326.8,193.35H169.05c.87-12.64-.44-21.81-2.55-28.41-4.05-12.69-11.02-15.87-11.02-15.87H304.25c12.7,0,22.54,8.1,25.22,18.86.1.4.19.81.27,1.21C332.3,181.45,326.91,193.13,326.8,193.35Z" fill="url(#linear-gradient)"/>
    <g id="Grupo_54878" transform="translate(990.139 367.208)">
      <path id="Trazado_110738" d="M-746.92-106.92a192.822,192.822,0,0,1-45.65-5.24c-12.28-3.11-18.9-8.2-18.9-12.72,0-4.09,5.39-7.85,15.59-10.88h0c-9.78,2.9-15,7.16-15,10.88,0,4.13,6.78,8.21,18.59,11.21,12.11,3.07,28.22,4.76,45.36,4.76s33.25-1.69,45.36-4.76c11.81-3,18.59-7.08,18.59-11.21,0-4.37-7.14-9.8-18.62-14.18-13.06-4.97-29.16-6.82-45.33-6.82-30.36,0-42.86,3.54-53.71,7.99h0c10.89-4.46,23.24-9.52,53.71-9.52,16.24,0,32.41,2.75,45.53,7.75,11.73,4.47,19.02,10.13,19.02,14.78,0,4.51-6.77,8.71-19.05,11.83C-713.58-109.97-729.74-106.92-746.92-106.92Z" fill="#ffcf2a"/>
    </g>
    <g id="Grupo_54881" transform="translate(1069.015 357.642)">
      <path id="Trazado_110739" d="M-721.44-57.07s-.57,5.5-1.19,6.54-3.26,4.37-4.39,5.02.69-4.38.46-5.36-.93,1.79-1.42,1.85-.37-2.42-.39-3.33,2.42-3.14,3.27-5.07S-721.44-57.07-721.44-57.07Z" fill="#e5928e"/>
      <path id="Trazado_110740" d="M-789.03-107.81l-1.26-2.39s.63-4.25-4.7-6.94a2.609,2.609,0,0,0-3.05.8c-1.01,1.46,1.93,1.2,1.77,3.7a4.607,4.607,0,0,0,2.68,4.79l1.37,1.58Z" fill="#e5928e"/>
      <path id="Trazado_110741" d="M-738.7-113.52s-4.57,22.45-29.74,29.79c-7.86,2.29-25.71-23.58-25.71-23.58s.63-2.39,4.56-1.84c0,0,17.38,11.51,19.57,12.76,1.94,1.11,14.71-14.26,20.53-16.74A14.889,14.889,0,0,1-738.7-113.52Z" fill="#c2e6b0"/>
      <g id="Grupo_54879" transform="translate(0 29.477)">
        <rect id="Rectángulo_5920" width="4.7" height="23.65" transform="matrix(0.152, -0.988, 0.988, 0.152, -806.378, -142.766)" fill="#2e684d"/>
        <path id="Trazado_110742" d="M-811.47-145.92l5.08,3.16.71-4.65Z" fill="#2e684d"/>
        <path id="Trazado_110743" d="M-779.82-141.85l-.22,1.47a1.668,1.668,0,0,1-1.89,1.39l-1.08-.17.71-4.65,1.18.18a1.562,1.562,0,0,1,1.3,1.78Z" fill="#2e684d"/>
      </g>
      <g id="Grupo_54880" transform="translate(46.158 84.706)">
        <path id="Trazado_110744" d="M-754.8-57.09s3.12,2.85,2.51,4.88-3.43,3.37-3.81,5.85-1.9,3.83-3.28,3.83h-6.54s-1.01-1.74,1.43-2.27,3.36-3.43,3.2-6.13a47.341,47.341,0,0,1,.23-6.3l5.18-1.2Z" fill="#33ab00"/>
        <path id="Trazado_110745" d="M-793.11-49.72s.56,6.48-.81,7.16l-17.55-.03s0-2.03,2.82-2.47,7.77-2.1,8.61-5.77S-793.11-49.72-793.11-49.72Z" fill="#33ab00"/>
        <path id="Trazado_110746" d="M-807.92-141.33s.93,11.37,2.01,25.03c1.48,18.56,3.26,41.36,3.43,45.68.3,7.5,1.52,19.5,1.52,19.5s2.89,2.85,8.68,1.65a192.891,192.891,0,0,0,6.63-35.25c.02-.3.05-.6.07-.9,1.37-18.45,3.5-57.3,3.5-57.3Z" fill="#006f3a"/>
        <path id="Trazado_110747" d="M-807.92-141.33s.93,11.37,2.01,25.03l20.27,31.58c.02-.3.05-.6.07-.9,1.37-18.45,3.5-57.3,3.5-57.3Z" fill="#15492f"/>
        <path id="Trazado_110748" d="M-803.7-139.98s16.68,41.17,27.65,60.52,14.4,24.75,14.4,24.75,6.28-2.47,6.85-4.16c0,0-4.19-37.35-11.54-46.46-4.15-5.15-9.03-20.59-9.25-25.99s-1.48-16.09-1.48-16.09Z" fill="#006f3a"/>
      </g>
      <path id="Trazado_110749" d="M-735.59-118.72s-11.29,5.45-17.79,3.42a15.291,15.291,0,0,1,4.4-3.52c-.22-1.31-.4-2.44-.5-3.4a31.022,31.022,0,0,1-.28-3.47l4.35-3.42,4.13-3.28C-741.6-123.18-735.59-118.72-735.59-118.72Z" fill="#eaab75"/>
      <path id="Trazado_110750" d="M-729.65-60.59c.03.69-1.45,1.48-2.1,1.77a46.277,46.277,0,0,1-14.44,4.09c-6.03.62-13.16-.74-15.61-.69a1.024,1.024,0,0,1-.68-.27c-.18-.12-.3-7.39-.18-16.53,0-.37,0-.74.03-1.11v-.12c.05-3.57.18-7.32.35-11.06.35-8.23,1-16.16,2.1-20.55a22.219,22.219,0,0,1,7.06-11.09l2.25-1.97a10.811,10.811,0,0,0,7.01-.84c2.6-1.26,5.4-2.61,5.86-2.27,3.4,2.49,5.7,8.08,6.93,15.23a79.849,79.849,0,0,1,1.03,13.55c0,1.77-.05,3.6-.15,5.4a170.23,170.23,0,0,0,.35,23.14C-729.75-62.49-729.67-61.38-729.65-60.59Z" fill="#c2e6b0"/>
      <path id="Trazado_110751" d="M-729.85-61.04c-39.52-.08-7.29-42.88-7.29-42.88l6.4-2.08A122.857,122.857,0,0,1-730-91.52c0,1.9-.04,3.84-.11,5.77C-730.53-75.33-730.1-66.28-729.85-61.04Z" fill="#d2edc3"/>
      <path id="Trazado_110752" d="M-741.2-128.87s-2.85,5.2-8.28,6.65a31.022,31.022,0,0,1-.28-3.47l4.35-3.42Z" fill="#dea374"/>
      <path id="Trazado_110753" d="M-751.74-125.84s10.77,1.76,11.78-4.86,3.08-10.85-3.75-12.25-8.56.92-9.44,3.05S-754.52-126.47-751.74-125.84Z" fill="#eaab75"/>
      <path id="Trazado_110754" d="M-736.05-143.75c.1-.11.32-.2.82-.23a2.071,2.071,0,0,0-.94-.26,2.526,2.526,0,0,0-1.68-2.23,1.475,1.475,0,0,1,.73,1.08c-1.39-1.43-4.37-2.47-12.62-1.82-10.87.86-7.29,7.82-5.88,8.65s4.95-1.45,7.57-1.24,3.12,4,4.01,4.52.54-.4,1.74-.94,1.32,1.45.97,2.75,1.31,3.01,1.31,3.01l1.67-1.8c1.67-1.8,3.25-9.42,2.49-11.05C-735.92-143.46-735.99-143.6-736.05-143.75Z" fill="#006f3a"/>
      <path id="Trazado_110755" d="M-738.01-121.28s6.81,3.23,10.08,8.18c5.07,7.69,10.94,35.73,11.05,38.32s-4.29,20.92-4.29,20.92-4.46-.29-5.61-2.54c0,0,.89-18.83.33-20.04s-18.58-25.26-16.56-30.39S-738.01-121.28-738.01-121.28Z" fill="#c2e6b0"/>
      <path id="Trazado_110756" d="M-790.32-110.31s.37-1.46-.64-2.12-1.95-2.45-2.38-2.2c-.89.5.48,2.06.23,4.01C-793.19-109.94-791.61-108.16-790.32-110.31Z" fill="#e5928e"/>
    </g>
    <path id="Rectángulo_5921" d="M49.89,399.61H449.84a.032.032,0,0,1,.03.03h0v.97a.032.032,0,0,1-.03.03H49.89a.032.032,0,0,1-.03-.03h0v-.97q.015-.03.03-.03Z" fill="#006f3a"/>
    <g id="Grupo_54889" transform="translate(1000.754 347.623)">
      <g id="Grupo_54883" transform="translate(0.245 34.985)">
        <path id="Rectángulo_5922" d="M-800.98-147.4h86.58a.1.1,0,0,1,.1.1v3.72a.1.1,0,0,1-.1.1h-86.58a.1.1,0,0,1-.1-.1v-3.72A.094.094,0,0,1-800.98-147.4Z" fill="#33ab00"/>
        <path id="Rectángulo_5923" d="M-800.98-140.8h53.87a.1.1,0,0,1,.1.1v3.72a.1.1,0,0,1-.1.1h-53.87a.1.1,0,0,1-.1-.1v-3.72A.094.094,0,0,1-800.98-140.8Z" fill="#33ab00"/>
        <g id="Grupo_54882">
          <path id="Trazado_110757" d="M-809.14-137.51v-8.01h-1.06c-.64,0-.96-.27-.96-.8,0-.38.25-.66.75-.82a5.63,5.63,0,0,1,1.23-.19q.84-.06,1.35-.06c.33,0,.54.07.62.2a2.358,2.358,0,0,1,.13,1.02v8.67h1.09c.7,0,1.06.3,1.06.91,0,.64-.35.96-1.06.96h-4.39a1.214,1.214,0,0,1-.78-.25.826.826,0,0,1-.31-.7c0-.62.36-.93,1.07-.93Z" fill="#33ab00"/>
        </g>
      </g>
      <g id="Grupo_54885" transform="translate(0.179 76.309)">
        <path id="Rectángulo_5924" d="M-800.92-147.4h86.58a.1.1,0,0,1,.1.1v3.72a.1.1,0,0,1-.1.1h-86.58a.1.1,0,0,1-.1-.1v-3.72A.1.1,0,0,1-800.92-147.4Z" fill="#33ab00"/>
        <path id="Rectángulo_5925" d="M-800.92-140.8h53.87a.1.1,0,0,1,.1.1v3.72a.1.1,0,0,1-.1.1h-53.87a.1.1,0,0,1-.1-.1v-3.72A.1.1,0,0,1-800.92-140.8Z" fill="#33ab00"/>
        <g id="Grupo_54884">
          <path id="Trazado_110758" d="M-804.69-137.68c0,.53-.37.8-1.12.8h-4.65c-.67,0-1.01-.27-1.01-.81a1.035,1.035,0,0,1,.27-.6c.27-.3.65-.76,1.16-1.36.77-.97,1.42-1.81,1.94-2.52.18-.24.43-.59.77-1.08a2.536,2.536,0,0,0,.41-1.22,1.268,1.268,0,0,0-.35-.91,1.236,1.236,0,0,0-.91-.36,1.413,1.413,0,0,0-.94.34,1.594,1.594,0,0,0-.42.85,7.261,7.261,0,0,1-.26.93.717.717,0,0,1-.69.45.825.825,0,0,1-.67-.31,1.064,1.064,0,0,1-.23-.71,3.184,3.184,0,0,1,.16-1.01,3.026,3.026,0,0,1,1.2-1.67,3.535,3.535,0,0,1,2-.55,3.089,3.089,0,0,1,2.15.78,2.705,2.705,0,0,1,.89,2.1,3.631,3.631,0,0,1-.64,1.96c-.24.37-.72,1.02-1.46,1.96-.38.48-.97,1.18-1.79,2.1h3.06C-805.06-138.51-804.69-138.23-804.69-137.68Z" fill="#33ab00"/>
        </g>
      </g>
      <g id="Grupo_54887" transform="translate(0 110.345)">
        <path id="Rectángulo_5926" d="M-800.74-146.97h86.58a.1.1,0,0,1,.1.1v3.72a.1.1,0,0,1-.1.1h-86.58a.1.1,0,0,1-.1-.1v-3.72A.107.107,0,0,1-800.74-146.97Z" fill="#33ab00"/>
        <path id="Rectángulo_5927" d="M-800.74-140.37h53.87a.1.1,0,0,1,.1.1v3.72a.1.1,0,0,1-.1.1h-53.87a.1.1,0,0,1-.1-.1v-3.72A.107.107,0,0,1-800.74-140.37Z" fill="#33ab00"/>
        <g id="Grupo_54886">
          <path id="Trazado_110759" d="M-804.52-139.73a3.054,3.054,0,0,1-1.06,2.42,3.768,3.768,0,0,1-2.53.87,3.641,3.641,0,0,1-2.03-.56,2.568,2.568,0,0,1-1.33-2.16.933.933,0,0,1,.23-.62.754.754,0,0,1,.59-.26.906.906,0,0,1,.71.51c.19.32.4.63.62.93a1.639,1.639,0,0,0,1.23.51,1.545,1.545,0,0,0,1.45-.75,2.124,2.124,0,0,0,.2-.96c0-.95-.56-1.47-1.67-1.58-.63-.06-.94-.32-.94-.8a.771.771,0,0,1,.55-.74c.68-.25,1.03-.38,1.04-.39a1.4,1.4,0,0,0,.55-1.26,1.135,1.135,0,0,0-.32-.85,1.166,1.166,0,0,0-.85-.31,1.569,1.569,0,0,0-1.04.32,2.055,2.055,0,0,0-.53.94.655.655,0,0,1-.66.51.684.684,0,0,1-.57-.3,1.078,1.078,0,0,1-.22-.67,1.767,1.767,0,0,1,.25-.9,2.8,2.8,0,0,1,1.24-1.17,3.637,3.637,0,0,1,1.68-.39,2.927,2.927,0,0,1,2.05.75,2.515,2.515,0,0,1,.82,1.96,2.7,2.7,0,0,1-1.22,2.32A2.581,2.581,0,0,1-804.52-139.73Z" fill="#33ab00"/>
        </g>
      </g>
      <g id="Grupo_54888" transform="translate(18.407)">
        <path id="Rectángulo_5928" d="M-797.39-147.4h55.12a.122.122,0,0,1,.12.12v4.32a.122.122,0,0,1-.12.12h-55.12a.122.122,0,0,1-.12-.12v-4.32A.116.116,0,0,1-797.39-147.4Z" fill="#33ab00"/>
        <path id="Rectángulo_5929" d="M-811.35-140.38h83.04a.122.122,0,0,1,.12.12v4.32a.122.122,0,0,1-.12.12h-83.04a.122.122,0,0,1-.12-.12v-4.32A.129.129,0,0,1-811.35-140.38Z" fill="#33ab00"/>
      </g>
      <path id="Trazado_110760" d="M-709.72,6.99h-97a1.182,1.182,0,0,1-1.18-1.18h0a1.182,1.182,0,0,1,1.18-1.18h97a1.182,1.182,0,0,1,1.18,1.18h0A1.182,1.182,0,0,1-709.72,6.99Z" fill="#33ab00"/>
      <path id="Trazado_110761" d="M-709.72,11.72h-97a1.182,1.182,0,0,1-1.18-1.18h0a1.182,1.182,0,0,1,1.18-1.18h97a1.182,1.182,0,0,1,1.18,1.18h0A1.182,1.182,0,0,1-709.72,11.72Z" fill="#33ab00"/>
      <path id="Trazado_110762" d="M-709.72,16.95h-97a1.182,1.182,0,0,1-1.18-1.18h0a1.182,1.182,0,0,1,1.18-1.18h97a1.182,1.182,0,0,1,1.18,1.18h0A1.182,1.182,0,0,1-709.72,16.95Z" fill="#33ab00"/>
      <path id="Rectángulo_5930" d="M-807.84,19.83h86.43a.064.064,0,0,1,.06.06v2.24a.065.065,0,0,1-.06.06h-86.43a.064.064,0,0,1-.06-.06V19.89A.065.065,0,0,1-807.84,19.83Z" fill="#33ab00"/>
    </g>
  </g>
</svg>
