<svg xmlns="http://www.w3.org/2000/svg" xmlns:xlink="http://www.w3.org/1999/xlink" width="279.487" height="331.888" viewBox="0 0 279.487 331.888">
  <defs>
    <clipPath id="clip-path">
      <path id="Trazado_772107" data-name="Trazado 772107" d="M749.64,547.832S778.017,685.372,780.859,687s12.36,52.305,17.881,53.109,63.487-27.352,63.487-27.352l-7.854-79.7,11.794-21.175s23.766,8.1,37.416-20.826,28.908-74.8,28.908-74.8l-70.262-38.94L807.766,462.39l-26.907,25.191Z" transform="translate(-749.64 -462.39)"/>
    </clipPath>
  </defs>
  <g id="attention_flat_style_illustration_vector_design_Convertido_" data-name="attention_flat_style_illustration_vector_design [Convertido]" transform="translate(-351.06 -316.344)">
    <g id="BACKGROUND" transform="translate(351.06 393.669)">
      <path id="Trazado_771745" d="M417.364,929.682A66.246,66.246,0,0,1,378.844,809.5l131.177-93.557a66.243,66.243,0,0,1,92.4,15.466h0a66.241,66.241,0,0,1-15.468,92.4L455.77,917.365A65.943,65.943,0,0,1,417.364,929.682Z" transform="translate(-351.06 -703.629)" fill="#ffcf2b"/>
      <path id="Trazado_771745_00000163791809665486624840000015826685165025420426_" d="M774.527,1409.954a35.511,35.511,0,0,1-20.649-64.421l70.317-50.152a35.509,35.509,0,0,1,49.529,8.29h0a35.511,35.511,0,0,1-8.292,49.529l-70.319,50.152A35.329,35.329,0,0,1,774.527,1409.954Z" transform="translate(-661.533 -1171.948)" fill="#33ab00"/>
    </g>
    <g id="DESIGN" transform="translate(397.124 316.344)">
      <g id="Grupo_1054590" data-name="Grupo 1054590" transform="translate(0 0)">
        <path id="Trazado_772059" data-name="Trazado 772059" d="M713.682,354.652l56.745,240.885c1.807,7.67-.5,15.624-5.251,17.78L695.553,644.9c-6.957,3.156-14.634-2.045-16.905-11.691L607.3,330.343c-2.271-9.643,2.751-15.7,10.954-13.572l82.1,21.352C705.953,339.581,711.875,346.98,713.682,354.652Z" transform="translate(-600.614 -316.344)" fill="#016f3a"/>
        <path id="Trazado_772060" data-name="Trazado 772060" d="M688.7,364.449l56.745,240.885c1.807,7.67-.5,15.624-5.251,17.78L670.573,654.7c-6.957,3.156-14.634-2.048-16.9-11.691L582.321,340.14c-2.271-9.644,2.751-15.705,10.954-13.572l82.093,21.352C680.973,349.381,686.895,356.78,688.7,364.449Z" transform="translate(-581.774 -323.733)" fill="#016f3a"/>
        <path id="Trazado_772061" data-name="Trazado 772061" d="M707.219,358.568l-77.556-19.476c-9.046-2.271-14.589,4.548-12.062,15.278l67.927,288.355c2.527,10.725,11.059,16.6,18.771,13.2l66.1-29.166c5.344-2.36,7.94-11.195,5.924-19.754l-54.2-230.084C720.1,368.356,713.493,360.143,707.219,358.568Zm68.131,248.815c1.814,7.7-.531,15.637-5.339,17.736l-66.167,28.869c-6.912,3.016-14.54-2.264-16.8-11.858l-67.7-287.384c-2.262-9.594,2.682-15.723,10.777-13.719L707.605,360.2c5.632,1.394,11.583,8.768,13.4,16.47Z" transform="translate(-608.333 -333.171)" fill="#fff"/>
        <path id="Trazado_772062" data-name="Trazado 772062" d="M726.546,382.785l54.348,230.708c1.814,7.7-.531,15.636-5.339,17.736L709.388,660.1c-6.912,3.016-14.54-2.264-16.8-11.858l-67.7-287.384c-2.262-9.594,2.682-15.723,10.777-13.719l77.484,19.179C718.78,367.708,724.729,375.083,726.546,382.785Z" transform="translate(-613.873 -339.281)" fill="#fff"/>
        <path id="Trazado_772063" data-name="Trazado 772063" d="M726.546,382.785l54.348,230.708c1.814,7.7-.531,15.636-5.339,17.736L709.388,660.1c-6.912,3.016-14.54-2.264-16.8-11.858l-67.7-287.384c-2.262-9.594,2.682-15.723,10.777-13.719l77.484,19.179C718.78,367.708,724.729,375.083,726.546,382.785Z" transform="translate(-613.873 -339.281)" fill="#c2e6b0"/>
        <path id="Trazado_772064" data-name="Trazado 772064" d="M696.192,338.233,614.1,316.891c-9.159-2.379-14.8,4.341-12.274,15.059l71.155,302.057c2.525,10.72,11.1,16.45,18.859,12.891L761.39,615c5.283-2.421,7.844-11.234,5.848-19.707L710.988,356.507C708.992,348.034,702.426,339.853,696.192,338.233Zm70.085,257.448c1.795,7.623-.519,15.541-5.27,17.7l-69.623,31.588c-6.957,3.156-14.621-2-16.88-11.585L603.59,332.346c-2.259-9.587,2.77-15.624,10.966-13.525l82.02,21.03c5.6,1.436,11.507,8.778,13.3,16.4Z" transform="translate(-596.442 -316.396)" fill="#33ab00"/>
      </g>
      <g id="Grupo_1054593" data-name="Grupo 1054593" transform="translate(22.118 25.704)">
        <g id="Grupo_1054592" data-name="Grupo 1054592">
          <g id="Grupo_1054591" data-name="Grupo 1054591">
            <path id="Trazado_772065" data-name="Trazado 772065" d="M783.165,568.728l-75.3,4.86Q689.808,497.25,671.75,420.91l82.179,17.866Q768.542,503.75,783.165,568.728Z" transform="translate(-671.75 -420.91)" fill="#f3f9ff"/>
            <path id="Trazado_772066" data-name="Trazado 772066" d="M792.625,571.366l-68.08,1.689q-14.9-63.137-29.805-126.274l73.2,15.236Q780.286,516.694,792.625,571.366Z" transform="translate(-689.089 -440.421)" fill="#ffcf2b"/>
            <path id="Trazado_772067" data-name="Trazado 772067" d="M834.823,979.922c-.922-2.124-1.259-2.633-2.6-2.512-.293.027-.369,1.133-.475,1.485-.268-.339-.9-1.453-1.293-1.475-.792-.044-1.335.538-1.241,2.719a9.232,9.232,0,0,0,3.321,6.4,6.37,6.37,0,0,0,.646.418c.216.152.406.3.565.438a5.4,5.4,0,0,1,.349-.487,4.083,4.083,0,0,1,.438-.474C835.941,985.18,835.742,982.045,834.823,979.922Z" transform="translate(-790.502 -840.599)" fill="#c59bd2"/>
            <path id="Trazado_772068" data-name="Trazado 772068" d="M870.486,980.621c.649,2.778.02,5.091-1.408,5.167s-3.12-2.136-3.778-4.943-.027-5.12,1.408-5.167S869.837,977.844,870.486,980.621Z" transform="translate(-817.525 -839.305)" fill="#c59bd2"/>
            <path id="Trazado_772069" data-name="Trazado 772069" d="M894.83,982.936c1.8-1.222,2.7-1.827,4.513-3.026-.246,3.409-.369,5.123-.6,8.569C897.18,986.274,896.4,985.166,894.83,982.936Z" transform="translate(-839.993 -842.498)" fill="#c59bd2"/>
            <path id="Trazado_772070" data-name="Trazado 772070" d="M1076.736,977.167c-1.5-1.649-2.249-2.48-3.756-4.149-.725,1.777-1.087,2.672-1.8,4.474q-1.317-5.808-2.635-11.615l5.6-.177Q1075.439,971.434,1076.736,977.167Z" transform="translate(-971.002 -831.781)" fill="#c59bd2"/>
          </g>
          <path id="Trazado_772071" data-name="Trazado 772071" d="M917.611,1065.407l-65.2,6.254-1.045-4.43,65.373-5.671C917.09,1063.1,917.264,1063.868,917.611,1065.407Z" transform="translate(-807.216 -904.076)" fill="#f3f9ff"/>
          <path id="Trazado_772072" data-name="Trazado 772072" d="M925.682,1096.437l-64.847,7.409-1.045-4.43q32.511-3.415,65.024-6.826C925.16,1094.129,925.335,1094.9,925.682,1096.437Z" transform="translate(-813.566 -927.479)" fill="#f3f9ff"/>
          <path id="Trazado_772073" data-name="Trazado 772073" d="M933.752,1127.457l-64.5,8.562-1.045-4.43,64.675-7.979C933.234,1125.149,933.406,1125.918,933.752,1127.457Z" transform="translate(-819.916 -950.874)" fill="#f3f9ff"/>
          <path id="Trazado_772074" data-name="Trazado 772074" d="M909.759,1177.367l-32.074,4.86c-.418-1.772-.627-2.657-1.045-4.429q16.08-2.282,32.163-4.567C909.186,1174.884,909.376,1175.71,909.759,1177.367Z" transform="translate(-826.274 -988.296)" fill="#f3f9ff"/>
        </g>
      </g>
      <g id="Grupo_1054595" data-name="Grupo 1054595" transform="translate(41.265 35.901)">
        <g id="Grupo_1054594" data-name="Grupo 1054594" clip-path="url(#clip-path)">
          <path id="Trazado_772075" data-name="Trazado 772075" d="M669.154,1888.29a15.714,15.714,0,0,0-4.53,4.963c-1.834,3.215-7.638,12.163-8.088,14.629s.465,19.663,1.323,20.366,15.855-10.58,17.527-12.925,6.015-17.05,6.413-18.539-.413-4.211-.413-4.211Z" transform="translate(-679.333 -1537.777)" fill="#222f49"/>
          <path id="Trazado_772076" data-name="Trazado 772076" d="M897.488,602.652c-.5,8.98.487,18.483-3.328,26.9a24.617,24.617,0,0,0,5.659-4.671,40.386,40.386,0,0,0,6.052-8.473c5.275-9.742,5.125-26.666,6.072-33.682s12.291-19.56,12.291-19.56l4.717-16.153.406-1.381s-6.379-9-13.645-7.026-16.394,13.859-18.277,23.267S897.985,593.673,897.488,602.652Z" transform="translate(-858.634 -519.662)" fill="#33ab00"/>
          <path id="Trazado_772077" data-name="Trazado 772077" d="M906.648,650.108a40.374,40.374,0,0,0,6.052-8.473c5.275-9.742,5.125-26.666,6.072-33.682s12.291-19.56,12.291-19.56l4.717-16.153c-1.527-.583-5.2-1.367-8.569,2.79-4.378,5.406-12.814,21.221-13.523,30.113s-3.872,39.437-9.5,45.978C902.044,653.6,903.708,652.495,906.648,650.108Z" transform="translate(-865.464 -544.883)" fill="#016f3a"/>
          <path id="Trazado_772078" data-name="Trazado 772078" d="M990.6,574.678c0,.747.01,1.49.017,2.22.128,8.07,1.023,15.155,6.994,20.668,6.512,6.013,10.787,7.293,15.6,11.406,3.973-1.146,9.105-2.453,13.459-4.722a17.22,17.22,0,0,0,7.473-6.706c3.223-5.887,5.58-11.064,6.062-18.427s-3.2-13.665-6.777-15.472c-1.819-.917-6.207-.516-7.323-3.569s-19.23-6.753-24.137-4.162S990.573,565.694,990.6,574.678Z" transform="translate(-931.367 -532.265)" fill="#33ab00"/>
          <path id="Trazado_772079" data-name="Trazado 772079" d="M990.67,602.236c.128,8.07,1.023,15.155,6.994,20.668,6.512,6.013,10.786,7.293,15.6,11.406,3.973-1.146,9.105-2.453,13.458-4.722a31.818,31.818,0,0,0,8.717-14.3c4.658-14.973-2.738-24.916-6.563-26.33s-13.289,2.067-16.62,6.6C1009.3,599.571,997.034,603.905,990.67,602.236Z" transform="translate(-931.42 -557.603)" fill="#016f3a"/>
          <path id="Trazado_772080" data-name="Trazado 772080" d="M692.27,1386.3l8.154,2.785,1.507.511s.782-1.01,2.475-3.515,6.654-16.3,8.348-21.73,13.205-26.31,18.237-35.422,6.315-19.609,6.669-21.118c.128-.529,1.75-4.088,4.012-8.867,1.163-2.458,2.5-5.238,3.882-8.09q.66-1.353,1.325-2.724c3.235-6.608,6.551-13.2,8.527-16.77,1.74-3.139,5.69-12.173,10.012-22.4,7.559-17.866,16.249-39.36,16.249-39.36l-15.049-3.041-19.39-3.916-9.415,19.87-4.388,33.736s-3.429,7.559-7.34,19.5c-.18.546-.354,1.089-.526,1.635-.725,2.3-1.379,4.6-1.964,6.817-2.316,8.729-3.623,16.31-4.26,19.007-.838,3.55-1.721,4.38-4.6,11.922s-10.155,34.351-11.866,40.157a99.123,99.123,0,0,1-5.978,14.582C695.267,1373.3,692.27,1386.3,692.27,1386.3Z" transform="translate(-706.373 -1020.673)" fill="#fbaea8"/>
          <path id="Trazado_772081" data-name="Trazado 772081" d="M696.164,1614.855a104.027,104.027,0,0,1,2.06-11.952c1.222-4.423,7.1-22.977,11.177-33.724s12.082-28.072,13.682-33.23a115.76,115.76,0,0,1,5.14-12.488,65.483,65.483,0,0,1,7.839,3.321,14.791,14.791,0,0,0,5.61,1.473c1.163-2.458,2.5-5.239,3.881-8.09q.66-1.353,1.325-2.724l-13.749-9.924-7.569-.818c-.725,2.3-1.379,4.6-1.964,6.816-2.316,8.729-3.623,16.31-4.26,19.007-.838,3.55-1.721,4.38-4.6,11.922s-10.155,34.351-11.866,40.157a99.092,99.092,0,0,1-5.978,14.582c-1.627,3.427-4.626,16.426-4.626,16.426l8.154,2.785C698.322,1616.962,696.083,1615.32,696.164,1614.855Z" transform="translate(-706.373 -1249.99)" fill="#e26889"/>
          <path id="Trazado_772082" data-name="Trazado 772082" d="M977.773,1195.89s-.061,2.084-.162,5.573c-.25,8.83-.769,26.647-1.2,42.4-.4,14.653-.73,27.524-.718,29.751.01,2.741.467,8.768.917,14.171.052.639.106,1.271.157,1.888.406,4.734.774,8.574.774,8.574s-4.816,10.521-5.356,27.957.482,39.911.482,39.911l.462,11.15,8.21,17.881,6.049-3.1,1.448-.747s-3.766-14.9-4.051-20.678,2.879-27.365,2.879-27.365L995,1301.275s.231-1.362.617-3.682c.349-2.075.821-4.914,1.369-8.223.541-3.265,1.15-6.984,1.785-10.88l.015-.078c.455-2.827.927-5.742,1.4-8.641a2.215,2.215,0,0,0,.034-.256c1.743-10.887,3.368-21.526,3.882-26.254.349-3.193.543-7.8.649-12.807.275-13.016-.076-28.645-.076-28.645Z" transform="translate(-917.361 -1015.582)" fill="#fbaea8"/>
          <path id="Trazado_772083" data-name="Trazado 772083" d="M976.758,1571.635c.406,4.734.774,8.574.774,8.574s-4.815,10.521-5.356,27.957.482,39.911.482,39.911l.462,11.15,8.21,17.881,6.05-3.1c-2.576-1.576-5.806-3.9-6.753-6.121-1.647-3.862-7.542-32.568-6.116-53.05s6.052-33.35,6.052-33.35l.2-3.8,14.843,1.866c.349-2.075.821-4.914,1.369-8.223l-20.373-1.583C976.652,1570.387,976.706,1571.018,976.758,1571.635Z" transform="translate(-917.353 -1297.541)" fill="#e26889"/>
          <path id="Trazado_772084" data-name="Trazado 772084" d="M817.97,1212.273a19.351,19.351,0,0,0,7.554,7.49,42.743,42.743,0,0,0,10.924,4.3,44.734,44.734,0,0,0,6.222,1.055c2.655.106,5.285-.081,7.6-.185a20.227,20.227,0,0,1,5.4.234c1.2.45,2.411.88,3.631,1.266a43.3,43.3,0,0,0,10.58,2.085,32.993,32.993,0,0,0,10.9-1.3c1.942-9.149,3.621-18.225,5.081-27.566.58-3.294,1-5.811,1.229-7.475.172-1.209.332-2.66.479-4.317l.047-.214-.015-.052c2.023-15.138,1.944-28.063,2.628-36.934.361-4.678.7-9.508.968-13.356.115-1.43-.487-3.631-1.281-6.14-.337-1.072-.715-2.2-1.084-3.356a19.042,19.042,0,0,1-.356-6.632l.288-1.531-1.438.049a15.017,15.017,0,0,1-3.69-.371,84.57,84.57,0,0,1-9.267-2.908c-3.655-1.278-8.39-2.932-14.548-4.8l-.017,0c-1.546-.469-3.178-.954-4.909-1.446l-.418-.118-.4.207-.032.022a53.108,53.108,0,0,0-17.473,22.281,106.08,106.08,0,0,0-8.326,37.708c-3.879,11.654-6.251,22.925-8.54,33.827C819.148,1206.787,818.572,1209.525,817.97,1212.273Z" transform="translate(-801.173 -950.843)" fill="#016f3a" fill-rule="evenodd"/>
          <path id="Trazado_772085" data-name="Trazado 772085" d="M817.97,1212.967a19.354,19.354,0,0,0,7.554,7.49,42.738,42.738,0,0,0,10.924,4.3c-4.7-1.617-9.366-3.8-11.4-5.909-4.454-4.607,4.84-20.258,6.873-26.195s6.165-32.9,10.405-44.591,9.231-12.426,12.232-12.4,7.03-3.817,9.341-5.41c1.851-1.276,19.211.747,26.025,1.608-.337-1.072-.715-2.2-1.084-3.355a19.041,19.041,0,0,1-.356-6.632l.288-1.532-1.438.049a15.009,15.009,0,0,1-3.69-.371,84.67,84.67,0,0,1-9.267-2.908c-3.655-1.278-8.39-2.932-14.547-4.8l-.017,0c-2.119-.492-4.073-.947-5.755-1.335a53.11,53.11,0,0,0-17.473,22.281,106.078,106.078,0,0,0-8.326,37.708c-3.879,11.654-6.251,22.925-8.54,33.827C819.148,1207.481,818.572,1210.219,817.97,1212.967Z" transform="translate(-801.173 -951.537)" fill="#33ab00"/>
          <path id="Trazado_772086" data-name="Trazado 772086" d="M1107.495,808.252s1.831,1.654,4.629,4.2c7.089,6.426,20.373,18.527,25.668,23.7a32.169,32.169,0,0,0,4.57,3.781c4.961,3.3,6.878,3.618,10.545,1.93,2.07-1.495,5.44-8.611-1.261-16.868-.811-1-1.883-2.254-3.142-3.687-6.276-7.166-17.2-18.822-23.429-25.42-2.829-3-4.693-4.956-4.693-4.956-1.551-1.637-9.181-4.511-13.355,2.038S1107.495,808.252,1107.495,808.252Z" transform="translate(-1017.862 -708.612)" fill="#33ab00"/>
          <path id="Trazado_772087" data-name="Trazado 772087" d="M1133.1,854.633c7.089,6.426,20.373,18.527,25.668,23.7a32.161,32.161,0,0,0,4.57,3.781c4.961,3.3,6.878,3.618,10.546,1.93,2.069-1.494,5.44-8.611-1.261-16.868-.811-1-1.883-2.254-3.142-3.687-3.309,2.561-9.887,7.343-11.836,6.453C1155,868.728,1140.8,844.8,1140.8,844.8Z" transform="translate(-1038.839 -750.796)" fill="#0c7151"/>
          <path id="Trazado_772088" data-name="Trazado 772088" d="M1245.138,849.463a6.9,6.9,0,0,0,.868,3.589c2.409,4.115,7.257,3.722,7.257,3.722a9.015,9.015,0,0,0,7.077-5.133c2.535-4.929,11.809-41.659,11.809-41.659s-4.516-.152-7.347,1.866-4.518,7.075-4.518,7.075l-1.03,1.873L1250,837.614,1247,842.806A15.9,15.9,0,0,0,1245.138,849.463Z" transform="translate(-1123.335 -724.535)" fill="#fbaea8"/>
          <path id="Trazado_772089" data-name="Trazado 772089" d="M1245.138,849.463a6.9,6.9,0,0,0,.868,3.589c2.409,4.115,7.257,3.722,7.257,3.722a9.015,9.015,0,0,0,7.077-5.133c2.535-4.929,11.809-41.659,11.809-41.659s-4.516-.152-7.347,1.866-4.518,7.075-4.518,7.075l-1.03,1.873c.958,1.318,2.264,2.938,3.129,4.145,1.635,2.274-3.228,20.022-5.774,24.99C1254.708,853.642,1248.268,854.433,1245.138,849.463Z" transform="translate(-1123.335 -724.535)" fill="#e26889"/>
          <path id="Trazado_772090" data-name="Trazado 772090" d="M1299.432,736.546s2.736,3.355,3.849,3.724a31.72,31.72,0,0,0,5.349.352s8.124-15.747,7.421-19.486-1.133.706-2.094,2.257-1.128,3.063-1.527,2.957,1.123-3.321,1.561-5.361.514-3.505.142-4.135-.538-.133-1.074.838-1.831,5.676-2.294,6.386-.295-1.013.108-2.709,2.163-6.212,1.765-6.608-1.241-1.357-2,.656-2.131,6.593-2.439,7.038-.216-1.018.3-3.146,1.763-6.249,1.256-6.386a1.514,1.514,0,0,0-2.107,1.113c-.526,1.529-2.119,7.793-2.527,8.886a61.106,61.106,0,0,1-2.608,6.19,10.6,10.6,0,0,1-2.891-.231c-.2-.118-1.1-1.785-1.868-2.645s-1.77-.5-1.824.162S1295.718,731.573,1299.432,736.546Z" transform="translate(-1161.631 -651.252)" fill="#e26889"/>
          <path id="Trazado_772091" data-name="Trazado 772091" d="M816.838,1022.835c1.323,4.7,14.732,28.945,19.171,36.907.887,1.6,1.418,2.54,1.418,2.54a20.82,20.82,0,0,0,1.453-1.809,15.284,15.284,0,0,0,2.734-5.789,10.425,10.425,0,0,0,.01-3.225,22.227,22.227,0,0,0-1.625-5.629l-5.5-21.964-.546-2.38-.882-3.842-14.56-4.484A11.307,11.307,0,0,0,816.838,1022.835Z" transform="translate(-799.992 -877.771)" fill="#fbaea8"/>
          <path id="Trazado_772092" data-name="Trazado 772092" d="M896.152,1167.978a4.631,4.631,0,0,0,.821,2.741c1.647,2.127,5.4.364,6.613-.194s6.266-5.165,6.492-5.174a20.647,20.647,0,0,1,2.962,1.086c1.138.479,3.023.841,3.439.593a.528.528,0,0,0,.165-.165,1.248,1.248,0,0,0-.219-1.389,32.865,32.865,0,0,0-4.452-2.124c-.275-.073.066-.256.526-.2s4.341,1.45,4.86,1.662.509.088.58-.283a1.176,1.176,0,0,0-.386-1.035c-.258-.224-1.721-1.131-2.217-1.433s-.369-.374-.3-.364a6.554,6.554,0,0,1,.964.293,22.293,22.293,0,0,0,2.176.713c.2.007.12-.772.019-1.079s-.8-.828-.8-.828,1.332.553.406-1-2.739-2.284-4.5-2.871-6.175.5-6.175.5-1.544-1.141-2.355-.617a34.565,34.565,0,0,0-3,2.884c-.919.946-1.681,1.755-1.681,1.755l-3.427,3.063s-.029.094-.081.266A12.1,12.1,0,0,0,896.152,1167.978Z" transform="translate(-860.135 -986.004)" fill="#fbaea8"/>
          <path id="Trazado_772093" data-name="Trazado 772093" d="M816.838,1022.835c1.323,4.7,14.732,28.945,19.171,36.907a4.631,4.631,0,0,0,.821,2.741c1.647,2.126,5.4.364,6.612-.194s6.266-5.165,6.492-5.175a20.7,20.7,0,0,1,2.962,1.086c1.138.479,3.023.841,3.439.592a.521.521,0,0,0,.165-.165c-1.856-.32-5.2-2.461-6.023-2.6-.986-.17-7.915,5.4-10.74,4.8a2.575,2.575,0,0,1-.858-.352c-.993-.622-1.686-1.949-2.446-3.928-.853-2.237-1.8-5.312-3.353-9.15-3.287-8.115-9.358-21.1-4.427-22.91a20.068,20.068,0,0,0,5.3-3l-.882-3.842-14.56-4.484A11.321,11.321,0,0,0,816.838,1022.835Z" transform="translate(-799.992 -877.771)" fill="#e26889"/>
          <path id="Trazado_772094" data-name="Trazado 772094" d="M934.066,1921.613c-.295-.234-.364-4.8.408-9.664s7.876-19.955,10.368-18.948,2.972,9.3,4.72,15.165a90.165,90.165,0,0,0,4.221,11.121l6.209-2.441s5.865,6.283,7.933,8.419,5.275,5.214,5.1,5.85-6.281-.005-11.276-1.394-13.793-4.193-14.233-4.629-1.844-13.687-2.173-14.776a2.013,2.013,0,0,0-2.908-.853c-.814.679-4.965,7.948-6.015,10.007S934.679,1922.1,934.066,1921.613Z" transform="translate(-888.575 -1541.295)" fill="#222f49"/>
          <path id="Trazado_772095" data-name="Trazado 772095" d="M1074.515,737.847l-8.52,13.481-13.4-23.109,3.265-18.938,12.829,9.882-.833,5.595-.656,4.42Z" transform="translate(-978.119 -648.59)" fill="#fbaea8"/>
          <path id="Trazado_772096" data-name="Trazado 772096" d="M932.166,798.736a74.027,74.027,0,0,0,2.532,10.612c2.886,9.978,7.178,22.709,7.173,23.682-.008.873-2.616,9.759-4.619,16.435,0,.022-.012.042-.015.057v0c-1.231,4.112-2.227,7.375-2.227,7.375a58.493,58.493,0,0,0,23.962,7.3c14,1.108,21.9-1.31,21.9-1.31l5.083-29.491s9.113-22.148,9.557-25.4-6.288-31.45-6.288-31.45l-6.023-2.814-6.514-.929-3.943,5.934-10.415-7.982-3.311-.477-5.752.066s-14.5,8.653-15.835,10.2S931.613,792.35,932.166,798.736Z" transform="translate(-887.262 -694.595)" fill="#33ab00"/>
          <path id="Trazado_772097" data-name="Trazado 772097" d="M945.152,915.048c-1.231,4.113-2.227,7.375-2.227,7.375a58.5,58.5,0,0,0,23.962,7.3c14,1.109,21.9-1.31,21.9-1.31l.29-1.677c-6.787-.147-24.771-.769-28.22-3.306-4.267-3.137-5.752-20.088,1.128-22.795s24.963-3.945,27.63-6.344-15.5-3.338-22.305-10.037-9.587-27.089-9.587-27.089L942.61,874.871c2.886,9.978,7.178,22.709,7.173,23.682-.007.873-2.615,9.759-4.619,16.435,0,.022-.012.042-.015.057Z" transform="translate(-895.174 -760.119)" fill="#0c7151"/>
          <path id="Trazado_772098" data-name="Trazado 772098" d="M1073.658,724.764a15.983,15.983,0,0,1-1.91,1.544c-.644.253-7.043-2.527-8.813-4.656a28.724,28.724,0,0,1-2.645-4.42l1.369-7.942,12.827,9.882Z" transform="translate(-983.927 -648.597)" fill="#e26889"/>
          <path id="Trazado_772099" data-name="Trazado 772099" d="M1028.449,626.756c.728,1.581,3.678,3.842,6.593,2.812,0,0,3.033,6.792,4.8,8.916s8.171,4.909,8.818,4.656a11.039,11.039,0,0,0,1.418-1.116s.01-.012.017-.015c2.443-2.1,7.131-6.517,7.945-7.979,1.069-1.915,3.4-12.372,3.869-16.227.405-3.373-2.1-11.406-5.649-13.839a4.325,4.325,0,0,0-.711-.406,3.394,3.394,0,0,0-.89-.27c-4.358-.679-10.14,5.759-11.839,8.237-1.583,2.306-5.75,10.558-6.308,11.674-.047.081-.066.123-.066.123s-1.792-4.314-5.01-4.653c-1.273-.135-2.126.863-2.64,2.212C1028.019,622.933,1028.007,625.8,1028.449,626.756Z" transform="translate(-959.692 -568.615)" fill="#fbaea8"/>
          <path id="Trazado_772100" data-name="Trazado 772100" d="M1055.03,772.2l3.39,16.017,7.025-8.033,6.495,6.465-2.552-12.4-3.923,5.818Z" transform="translate(-979.96 -696.043)" fill="#016f3a"/>
          <path id="Trazado_772101" data-name="Trazado 772101" d="M818.615,872.785a4.86,4.86,0,0,0,2.613,1.622c5,1.384,9.8.649,15.924-7.655s25.41-32.406,25.41-32.406,3.166-9.376-2.008-15.167-12.239-1.723-13.505.14c0,0-20.083,29.427-25.363,38.655C817.6,865.1,816.567,870.2,818.615,872.785Z" transform="translate(-800.889 -729.218)" fill="#33ab00"/>
          <path id="Trazado_772102" data-name="Trazado 772102" d="M1127.123,620.106c-.4,5.565-.9,13.087-2.81,16.3-1.283,2.166-4.762,5.735-6.883,7.829,2.443-2.1,7.131-6.517,7.945-7.979,1.069-1.915,3.4-12.372,3.869-16.226.405-3.373-2.1-11.406-5.649-13.839C1124.411,608.026,1127.467,615.283,1127.123,620.106Z" transform="translate(-1027.02 -570.841)" fill="#e26889"/>
          <path id="Trazado_772103" data-name="Trazado 772103" d="M1062.19,623.209c.883-1.642,10.324-18.849,19.036-19.641a3.4,3.4,0,0,0-.89-.27c-4.358-.678-10.14,5.76-11.839,8.237C1066.915,613.838,1062.745,622.093,1062.19,623.209Z" transform="translate(-985.359 -568.622)" fill="#e26889"/>
          <path id="Trazado_772104" data-name="Trazado 772104" d="M1028.45,680.885c.728,1.581,3.677,3.842,6.593,2.812-1.763.106-4.376-1.539-5.548-2.8-.8-.848-.784-3.965-.691-5.892C1028.02,677.063,1028.007,679.931,1028.45,680.885Z" transform="translate(-959.692 -622.744)" fill="#e26889"/>
          <path id="Trazado_772105" data-name="Trazado 772105" d="M821.75,881.966a4.86,4.86,0,0,0,2.613,1.622c5,1.384,9.8.649,15.924-7.655s25.41-32.406,25.41-32.406,3.166-9.376-2.008-15.167c0,0-1.927,11.288-6.217,18.363S833.412,877.87,830.55,880.53C828.542,882.4,824.176,882.231,821.75,881.966Z" transform="translate(-804.024 -738.398)" fill="#0c7151"/>
          <path id="Trazado_772106" data-name="Trazado 772106" d="M959.117,1450.019c-2.719,10.59-7.013,21.02-9.727,24.85a20.224,20.224,0,0,1,5.4.233c1.2.45,2.411.88,3.631,1.266-.494-5.961,4.189-19.462,4.872-27.165C964.107,1439.994,962.323,1437.5,959.117,1450.019Z" transform="translate(-900.288 -1200.781)" fill="#232047"/>
        </g>
      </g>
      <g id="Grupo_1054596" data-name="Grupo 1054596" transform="translate(162.379 68.401)">
        <path id="Trazado_772108" data-name="Trazado 772108" d="M1242.639,635a15.861,15.861,0,0,0,1.819,5.3,6.4,6.4,0,0,0,.391.573l2.564.344.956.13,56.452,7.579-8.461-48.2-50.644,26.425-.705.371-2.293,1.2a6.459,6.459,0,0,0-.172.674,10.353,10.353,0,0,0-.184,1.517A18.171,18.171,0,0,0,1242.639,635Z" transform="translate(-1242.339 -599.223)" fill="#016f3a"/>
        <path id="Trazado_772109" data-name="Trazado 772109" d="M1242.43,630.914l.148.6,35.25-13.326-19.548,5.256,37.554-19.282.971-1.278-.379-2.154-50.644,26.426-.706.371-2.293,1.2a6.4,6.4,0,0,0-.172.674A10.349,10.349,0,0,0,1242.43,630.914Z" transform="translate(-1242.407 -599.223)" fill="#c2e6b0"/>
        <ellipse id="Elipse_4173" data-name="Elipse 4173" cx="8.712" cy="24.466" rx="8.712" ry="24.466" transform="translate(45.424 3.013) rotate(-9.957)" fill="#33ab00"/>
        <ellipse id="Elipse_4174" data-name="Elipse 4174" cx="6.33" cy="17.778" rx="6.33" ry="17.778" transform="translate(48.926 9.188) rotate(-9.957)" fill="#016f3a"/>
        <path id="Trazado_772110" data-name="Trazado 772110" d="M1327.691,748.083s-4.449,6.1-3.8,11.659,3.958,12.225,2.284,13.014-6.632,2.812-8.137-.713-3.813-21.824-.622-25.474S1327.691,748.083,1327.691,748.083Z" transform="translate(-1297.75 -708.228)" fill="#016f3a"/>
        <path id="Trazado_772111" data-name="Trazado 772111" d="M1242.638,716.089a15.911,15.911,0,0,0,1.817,5.3,5.629,5.629,0,0,0,.393.573l2.564.347.954.13c-1.959-4.162-2.535-9.875-2.655-14.189l-.7.369-2.293,1.2a6.321,6.321,0,0,0-.175.674A15.96,15.96,0,0,0,1242.638,716.089Z" transform="translate(-1242.338 -680.313)" fill="#33ab00"/>
      </g>
      <g id="Grupo_1054597" data-name="Grupo 1054597" transform="translate(159.004 0.39)">
        <path id="Trazado_772112" data-name="Trazado 772112" d="M1229.8,364.783l24.513-42.458a8.791,8.791,0,0,1,15.226,0l24.513,42.458a8.791,8.791,0,0,1-7.613,13.186h-49.026A8.792,8.792,0,0,1,1229.8,364.783Z" transform="translate(-1228.609 -317.93)" fill="#33ab00"/>
        <path id="Trazado_772113" data-name="Trazado 772113" d="M1305.039,390.525a2.724,2.724,0,0,0,2.359-4.086l-24.513-42.458a2.726,2.726,0,0,0-4.72,0l-24.513,42.458a2.724,2.724,0,0,0,2.36,4.086Z" transform="translate(-1247.21 -336.551)" fill="#fff"/>
        <path id="Trazado_772114" data-name="Trazado 772114" d="M1354.036,386.309a14.9,14.9,0,0,1,.966,5.73,35.568,35.568,0,0,1-.595,6.15,41.114,41.114,0,0,1-1.617,6.3q-1.383,3.99-2.139,3.99-.774,0-2.043-3.119a33.43,33.43,0,0,1-1.787-6.286,35.33,35.33,0,0,1-.671-6.586,13.523,13.523,0,0,1,1.571-7.139,3.364,3.364,0,0,1,2.857-1.92Q1352.841,383.43,1354.036,386.309Zm-1,24.965a3.147,3.147,0,0,1,.922,2.3,3.382,3.382,0,1,1-5.8-2.357,3.106,3.106,0,0,1,2.328-1.015A3.37,3.37,0,0,1,1353.033,411.274Z" transform="translate(-1317.256 -367.329)" fill="#ffcf2b"/>
      </g>
    </g>
  </g>
</svg>
