<svg xmlns="http://www.w3.org/2000/svg" width="189" height="189" viewBox="0 0 189 189">
  <g id="Grupo_1054637" data-name="Grupo 1054637" transform="translate(4 9476)">
    <circle id="Elipse_4156" data-name="Elipse 4156" cx="94.5" cy="94.5" r="94.5" transform="translate(-4 -9476)" fill="#39a900"/>
    <circle id="Elipse_4157" data-name="Elipse 4157" cx="19" cy="19" r="19" transform="translate(-4 -9467)" fill="#ffce40"/>
    <g id="files-document-protection-insurance-pen" transform="translate(32 -9440)">
      <path id="Trazado_110770" data-name="Trazado 110770" d="M431.85,254.622h0Z" transform="translate(-323.907 -154.529)" fill="#fff"/>
      <path id="Trazado_110773" data-name="Trazado 110773" d="M443.925,254.622h0Z" transform="translate(-335.982 -154.529)" fill="#fff"/>
      <path id="Trazado_110781" data-name="Trazado 110781" d="M104.317,16h-62.8a5.906,5.906,0,0,0-5.888,5.888V63.1h-7.85a1.838,1.838,0,0,0-.726.137l-9.813,3.925A1.963,1.963,0,0,0,16,68.99V96.467a1.963,1.963,0,0,0,.883,1.629l5.907,3.925a1.9,1.9,0,0,0,1.079.334H35.626v25.514a5.906,5.906,0,0,0,5.888,5.888h62.8a5.906,5.906,0,0,0,5.888-5.888V21.888A5.906,5.906,0,0,0,104.317,16ZM35.43,78.8h.2V98.429H24.459l-4.534-3.022V70.325l8.223-3.3H51.327a3.925,3.925,0,0,1,0,7.85H33.663A1.963,1.963,0,0,0,31.7,76.841a5.906,5.906,0,0,1-5.888,5.888v3.925A9.831,9.831,0,0,0,35.43,78.8Zm70.85,49.065a1.963,1.963,0,0,1-1.963,1.963h-62.8a1.963,1.963,0,0,1-1.963-1.963V78.8H51.327a7.85,7.85,0,0,0,0-15.7H39.551V21.888a1.963,1.963,0,0,1,1.963-1.963h62.8a1.963,1.963,0,0,1,1.963,1.963Z" transform="translate(-16 -16)" fill="#fff"/>
      <path id="Trazado_110782" data-name="Trazado 110782" d="M226.652,115.541a1.962,1.962,0,0,0,1.388-.575l11.1-11.1-2.775-2.775-9.715,9.715-4.165-4.165-2.775,2.775,5.552,5.552a1.962,1.962,0,0,0,1.388.575Z" transform="translate(-169.736 -80.214)" fill="#fff"/>
      <path id="Trazado_110783" data-name="Trazado 110783" d="M206.094,56.027l-17.663-7.85a1.921,1.921,0,0,0-1.609,0l-17.663,7.85A1.937,1.937,0,0,0,168,57.813v12.58a17.622,17.622,0,0,0,5.927,13.189l12.4,11.03a1.963,1.963,0,0,0,2.591,0l12.4-11.03a17.622,17.622,0,0,0,5.927-13.189V57.813a1.937,1.937,0,0,0-1.158-1.786Zm-2.767,14.366a13.766,13.766,0,0,1-4.612,10.264L187.626,90.51l-11.089-9.852a13.766,13.766,0,0,1-4.612-10.264v-11.3l15.7-6.987,15.7,6.987Z" transform="translate(-130.71 -40.15)" fill="#fff"/>
      <path id="Trazado_110784" data-name="Trazado 110784" d="M433.663,139.776h-5.888v-5.888a5.888,5.888,0,0,0-11.776,0v66.728a1.94,1.94,0,0,0,.059.471l3.925,15.7a1.963,1.963,0,0,0,3.807,0l3.925-15.7a1.943,1.943,0,0,0,.059-.471V143.7H431.7v17.663h3.925V141.738a1.963,1.963,0,0,0-1.963-1.963Zm-11.776,68.456-1.413-5.652H423.3Zm1.963-9.577h-3.925V143.7h3.925Zm0-58.878h-3.925v-5.888a1.963,1.963,0,1,1,3.925,0Z" transform="translate(-317.87 -100.524)" fill="#fff"/>
      <path id="Trazado_110785" data-name="Trazado 110785" d="M144,304h7.85v3.925H144Z" transform="translate(-112.598 -233.346)" fill="#fff"/>
      <path id="Trazado_110786" data-name="Trazado 110786" d="M192,304h39.252v3.925H192Z" transform="translate(-148.823 -233.346)" fill="#fff"/>
      <path id="Trazado_110787" data-name="Trazado 110787" d="M144,352h7.85v3.925H144Z" transform="translate(-112.598 -269.571)" fill="#fff"/>
      <path id="Trazado_110788" data-name="Trazado 110788" d="M192,352h39.252v3.925H192Z" transform="translate(-148.823 -269.571)" fill="#fff"/>
      <path id="Trazado_110789" data-name="Trazado 110789" d="M144,400h7.85v3.925H144Z" transform="translate(-112.598 -305.795)" fill="#fff"/>
      <path id="Trazado_110790" data-name="Trazado 110790" d="M192,400h39.252v3.925H192Z" transform="translate(-148.823 -305.795)" fill="#fff"/>
      <path id="Trazado_110791" data-name="Trazado 110791" d="M144,448h7.85v3.925H144Z" transform="translate(-112.598 -342.019)" fill="#fff"/>
      <path id="Trazado_110792" data-name="Trazado 110792" d="M192,448h39.252v3.925H192Z" transform="translate(-148.823 -342.019)" fill="#fff"/>
    </g>
  </g>
</svg>
