<svg xmlns="http://www.w3.org/2000/svg" width="417.836" height="407.415" viewBox="0 0 417.836 407.415">
  <g id="_2" data-name="2" transform="translate(-39.69 -44.01)">
    <g id="Floor" transform="translate(39.69 233.137)">
      <path id="XMLID_17828_" d="M396.33,425.241c-81.584,42.626-213.868,42.626-295.452,0s-81.584-111.722,0-154.349,213.868-42.626,295.452,0S477.924,382.624,396.33,425.241Z" transform="translate(-39.69 -238.923)" fill="#f5f5f5"/>
    </g>
    <g id="Shadows" transform="translate(102.034 296.829)">
      <path id="XMLID_00000148631681434820214860000016127345132180382617_" d="M298.11,391.389c-21.978,10.479-57.617,10.479-79.6,0s-21.987-27.46,0-37.939,57.618-10.479,79.6,0S320.088,380.91,298.11,391.389Z" transform="translate(-106.852 -305.78)" fill="#ebebeb"/>
      <path id="XMLID_00000061454753465584570830000001640979298756459145_" d="M104.813,364.235,183.38,409.6a4.645,4.645,0,0,0,4.2,0l98.284-56.744a1.279,1.279,0,0,0,0-2.426L207.3,305.065a4.646,4.646,0,0,0-4.2,0l-98.274,56.744A1.277,1.277,0,0,0,104.813,364.235Z" transform="translate(-103.941 -304.563)" fill="#ebebeb"/>
    </g>
    <g id="Pencil" transform="translate(81.035 44.01)">
      <g id="XMLID_17799_">
        <g id="XMLID_17800_">
          <path id="XMLID_17836_" d="M82.3,107.656v20.833s8.568,4.007,24.287,4.007,24.268-4.017,24.268-4.017V108.054L114.476,61.7c.213,1.455-.64,2.94-2.562,4.046a10.027,10.027,0,0,1-9.441.592,8.489,8.489,0,0,1-1.232-.592c-2.038-1.174-2.872-2.785-2.5-4.308Z" transform="translate(-82.3 -44.527)" fill="#f5f5f5"/>
          <path id="XMLID_17835_" d="M82.3,107.656v20.833s8.568,4.007,24.287,4.007,24.268-4.017,24.268-4.017V108.054L114.476,61.7c.213,1.455-.64,2.94-2.562,4.046a10.027,10.027,0,0,1-9.441.592,8.489,8.489,0,0,1-1.232-.592c-2.038-1.174-2.872-2.785-2.5-4.308Z" transform="translate(-82.3 -44.527)" fill="#fff" opacity="0.5"/>
          <path id="XMLID_17834_" d="M84.183,259.4a16.518,16.518,0,0,0,5.24,4.5c9.49,5.473,24.86,5.473,34.349,0a16.64,16.64,0,0,0,5.24-4.5,9.35,9.35,0,0,0,1.863-5.007v10.819c-.165,3.454-2.533,6.88-7.093,9.519-9.49,5.473-24.86,5.473-34.349,0-4.745-2.736-7.112-6.326-7.112-9.917V254A9.028,9.028,0,0,0,84.183,259.4Z" transform="translate(-82.301 -50.243)" fill="#f5f5f5"/>
          <path id="XMLID_17833_" d="M84.183,248.255a16.517,16.517,0,0,0,5.24,4.5c.553.32,1.135.621,1.727.9,8.946,4.269,21.949,4.269,30.895,0,.592-.281,1.174-.582,1.727-.9a16.64,16.64,0,0,0,5.24-4.5,9.35,9.35,0,0,0,1.863-5.007v10.819a9.272,9.272,0,0,1-1.863,5.007,16.519,16.519,0,0,1-5.24,4.5c-9.49,5.473-24.86,5.473-34.349,0a16.639,16.639,0,0,1-5.24-4.5,9.171,9.171,0,0,1-1.873-5.4V242.85A9.105,9.105,0,0,0,84.183,248.255Z" transform="translate(-82.3 -49.912)" fill="#ebebeb"/>
          <path id="XMLID_17832_" d="M84.183,237.1a16.518,16.518,0,0,0,5.24,4.5c.553.32,1.135.621,1.727.9,8.946,4.269,21.949,4.269,30.895,0,.592-.281,1.174-.582,1.727-.9a16.641,16.641,0,0,0,5.24-4.5,9.35,9.35,0,0,0,1.863-5.007v10.819a9.272,9.272,0,0,1-1.863,5.007,16.518,16.518,0,0,1-5.24,4.5c-.553.32-1.135.621-1.727.9-8.946,4.269-21.949,4.269-30.895,0-.592-.281-1.174-.582-1.727-.9a16.64,16.64,0,0,1-5.24-4.5,9.171,9.171,0,0,1-1.873-5.4V231.7A9.084,9.084,0,0,0,84.183,237.1Z" transform="translate(-82.3 -49.581)" fill="#f5f5f5"/>
          <g id="XMLID_17824_" transform="translate(0.01 63.129)">
            <path id="XMLID_17831_" d="M131.855,109.49V228.47a9.272,9.272,0,0,1-1.863,5.007,16.658,16.658,0,0,1-5.24,4.512c-.553.32-1.135.621-1.727.9a32.05,32.05,0,0,1-7.355,2.406l4.4-125.394Z" transform="translate(-83.3 -109.082)" fill="#f5f5f5"/>
            <path id="XMLID_17830_" d="M94.1,115.882l4.4,125.394a31.817,31.817,0,0,1-7.345-2.406c-.592-.281-1.174-.582-1.727-.9a16.64,16.64,0,0,1-5.24-4.5,9.171,9.171,0,0,1-1.873-5.4V109.07Z" transform="translate(-82.31 -109.07)" fill="#f5f5f5"/>
            <path id="XMLID_17829_" d="M131.855,109.49V228.47a9.272,9.272,0,0,1-1.863,5.007,16.658,16.658,0,0,1-5.24,4.512c-.553.32-1.135.621-1.727.9a32.05,32.05,0,0,1-7.355,2.406l4.4-125.394Z" transform="translate(-83.3 -109.082)" fill="#e0e0e0"/>
            <path id="XMLID_17827_" d="M94.1,115.882l4.4,125.394a31.817,31.817,0,0,1-7.345-2.406c-.592-.281-1.174-.582-1.727-.9a16.64,16.64,0,0,1-5.24-4.5,9.171,9.171,0,0,1-1.873-5.4V109.07Z" transform="translate(-82.31 -109.07)" fill="#e0e0e0"/>
            <path id="XMLID_17825_" d="M119.436,116.09V240.271a34.782,34.782,0,0,1-4.4,1.2,40.655,40.655,0,0,1-8.092.8h0a40.654,40.654,0,0,1-8.092-.8,35.7,35.7,0,0,1-4.4-1.2V116.09Z" transform="translate(-82.671 -109.278)" fill="#ebebeb"/>
          </g>
          <path id="XMLID_17820_" d="M101.751,65.241a8.489,8.489,0,0,0,1.232.592,10.026,10.026,0,0,0,9.441-.592c1.921-1.106,2.775-2.6,2.562-4.046L109.4,45.543a2.443,2.443,0,0,0-2.3-1.533h-.01a2.465,2.465,0,0,0-2.309,1.533l-5.531,15.37a.034.034,0,0,1-.01.019C98.869,62.456,99.713,64.066,101.751,65.241Z" transform="translate(-82.8 -44.01)" fill="#e0e0e0"/>
          <path id="XMLID_17801_" d="M89.413,275.057c8.151,4.706,20.639,5.356,30.022,1.97q.786-.291,1.543-.611c.233-.1.475-.194.708-.3.718-.33,1.417-.679,2.086-1.067,4.57-2.639,6.928-6.064,7.093-9.519v29.449c.184,3.716-2.183,7.471-7.093,10.314-.582.34-1.193.66-1.824.951-.233.107-.485.2-.728.311-.4.175-.8.359-1.213.514-.32.126-.66.223-.98.34-.349.116-.689.252-1.048.359-.388.116-.8.223-1.193.32-.311.078-.611.175-.922.252-.456.107-.922.194-1.388.291-.262.048-.524.116-.786.155-.524.087-1.058.165-1.591.233-.213.029-.417.068-.631.087-.592.068-1.184.116-1.785.165-.155.01-.311.029-.466.039-.65.039-1.3.058-1.95.068-.1,0-.2.01-.3.01-.7.01-1.4-.01-2.1-.039h-.155c-.737-.029-1.475-.087-2.2-.155h-.039a33.361,33.361,0,0,1-12.391-3.551h0c-.213-.116-.437-.213-.65-.34-4.745-2.736-7.112-6.326-7.112-9.917V265.14C82.3,268.73,84.678,272.32,89.413,275.057Z" transform="translate(-82.301 -50.574)" fill="#e0e0e0"/>
        </g>
      </g>
    </g>
    <g id="Backpack" transform="translate(314.851 249.707)">
      <g id="XMLID_00000102524278732615071050000018071836023456099236_">
        <path id="XMLID_00000129192356270116242630000012727449280290572714_" d="M368.147,359.123c2.8-.708,17.776-9.228,19.3-10.266s4.541-3.183,4.541-6.87c0-3.28-.34-34.107-3.018-49.011a34.672,34.672,0,0,0-15.38-22.705c-9.315-5.773-18.669-9.955-26.567-6.676s-15.088,9.305-18.193,16.583-5.23,21.852-5.453,27.489,0,24.966,0,26.684.31,3.949,9.558,9.674,22.017,12.614,25.966,14.39A15.046,15.046,0,0,0,368.147,359.123Z" transform="translate(-323.268 -256.191)" fill="#37474f"/>
        <path id="XMLID_00000111185970056168337310000013099672294858242728_" d="M371.3,274.087c.854.495,3.318-.728,3.687-1.339s.466-5.9-1.378-8.82-13.352-8.3-16.195-7.908a7.877,7.877,0,0,0-5.279,3.377c-.349.757-.737,5.676,0,6.676s3.367-.543,3.6-.97-.864-4.017.99-4.774c1.688-.679,9.693,2.727,12.963,5.463,1.417,1.184,1.349,4.153,1.281,5.618S370.874,273.834,371.3,274.087Z" transform="translate(-324.112 -255.999)" fill="#455a64"/>
        <path id="XMLID_00000156556326021601171950000009901042328927103879_" d="M372.766,309.333c-1.65-16.03-4.628-25.374-20.3-32.35s-21.745-1.038-23.967,4.308c-2.93,7.491-4.92,21.269-5.133,26.713-.223,5.638,0,24.966,0,26.684s.31,3.949,9.558,9.674,22.017,12.614,25.966,14.39a15.076,15.076,0,0,0,9.257.708,12.324,12.324,0,0,0,1.8-.708C374.833,352.513,374.28,323.966,372.766,309.333Z" transform="translate(-323.268 -256.528)" fill="#455a64"/>
        <path id="XMLID_00000122705288239326917520000016936274330604592297_" d="M336.63,270.517c4.085-2.4,10.809-3.978,20.658.417,17.621,7.85,22.094,17.679,23.87,34.9.33,3.154.8,6.918,1,10.965l1.455-.883c-.2-4.366-.631-8.112-1-11.479-1.9-17.378-7.151-26.994-24-34.485-9.315-4.153-15.447-3.6-19.5-1.562C338.367,268.984,337.639,269.566,336.63,270.517Z" transform="translate(-323.664 -256.321)" fill="#006f3a"/>
        <path id="XMLID_00000179615350153630588360000009958474249237802145_" d="M336,270.98c4.085-2.4,10.809-3.978,20.658.417,17.621,7.85,22.094,17.679,23.87,34.9.33,3.154.8,6.918,1,10.974l1.456-.883c-.2-4.366-.631-8.112-1-11.479-1.9-17.378-7.151-26.994-24-34.485-9.315-4.153-15.612-3.464-19.668-1.417A25.934,25.934,0,0,0,336,270.98Z" transform="translate(-323.646 -256.337)" fill="#455a64"/>
        <g id="XMLID_00000181808710046933649500000002781780628200838307_" transform="translate(17.488 26.689)">
          <path id="XMLID_00000018235200849664521180000009740211341770420654_" d="M341.862,286.693l5.327-3.037a1.134,1.134,0,0,1,1.553.427l5.463,9.5a1.153,1.153,0,0,1-.417,1.562l-5.259,3.066a1.128,1.128,0,0,1-1.553-.408l-5.531-9.548A1.138,1.138,0,0,1,341.862,286.693Z" transform="translate(-341.29 -283.505)" fill="#006f3a"/>
          <path id="XMLID_00000103230080712311731210000011801790148224263817_" d="M347.607,297.143l-5.249-9.053a.563.563,0,0,1,.214-.776l4.832-2.756a.571.571,0,0,1,.776.214l5.181,9.014a.568.568,0,0,1-.2.776l-4.774,2.785A.568.568,0,0,1,347.607,297.143Z" transform="translate(-341.32 -283.534)" fill="#455a64"/>
          <g id="XMLID_00000136398439695437634230000006444994461293449137_" transform="translate(4.657 3.864)">
            <path id="XMLID_00000036233857769833403650000018350957865770718624_" d="M346.595,292.9h0a1.041,1.041,0,0,1-.5-.8v-4.328c0-.281.223-.378.5-.214h0a1.041,1.041,0,0,1,.5.8v4.328C347.1,292.972,346.876,293.06,346.595,292.9Z" transform="translate(-346.09 -287.487)" fill="#37474f"/>
            <path id="XMLID_00000052803564370476609490000008748070973493623228_" d="M349.495,294.584h0a1.041,1.041,0,0,1-.5-.8v-4.328c0-.281.223-.378.5-.213h0a1.041,1.041,0,0,1,.5.8v4.328C350,294.643,349.776,294.74,349.495,294.584Z" transform="translate(-346.176 -287.537)" fill="#37474f"/>
          </g>
        </g>
        <path id="XMLID_00000118363880290132154940000006838426895274854017_" d="M366.6,324.38s-2.639,2.174-4.541,10.363-3.047,18.5-.951,19.746,5.075-1.349,5.812-2.251C368.441,350.4,368.063,330.939,366.6,324.38Z" transform="translate(-324.358 -258.029)" fill="#006f3a"/>
        <path id="XMLID_00000121995107625608827270000016947803953820382593_" d="M365.593,323.813s-2.639,2.173-4.541,10.363-3.047,18.5-.951,19.746l-32.059-18.882c-2.1-1.232-2.61-12.071-.718-20.26,1.252-5.395,3.542-7.957,4.968-9.072a2.035,2.035,0,0,1,2.3-.146l31,18.252" transform="translate(-323.353 -257.462)" fill="#37474f"/>
        <path id="XMLID_00000149352860343393011530000000590915389201599935_" d="M333.014,306.983c-1.533.767-4.134,2.843-5.308,8.393a4.18,4.18,0,0,0,1.31,4.211c1.067.757,23.977,13.788,27.014,15.6,2.62,1.562,3.988-.514,4.561-1.814h0c.951-2.309,1.8-4.1,2.523-5.482a11.491,11.491,0,0,1,2.513-4.027L335.091,307.09A2.14,2.14,0,0,0,333.014,306.983Z" transform="translate(-323.396 -257.506)" fill="#006f3a"/>
        <g id="XMLID_00000173119723022336578400000006609448100522725778_" transform="translate(56.494 58.647)">
          <g id="XMLID_00000101088698150981127000000016263847934857084316_" transform="translate(0.124 2.95)">
            <path id="XMLID_00000055695348609637046290000009867136097052499623_" d="M382.484,319.752a27.245,27.245,0,0,0-.864,5.094c.01.349.466.534.611.534a6.154,6.154,0,0,0,2.969-1.553,29.338,29.338,0,0,0-.8-4.347Z" transform="translate(-381.617 -319.48)" fill="#006f3a"/>
          </g>
          <g id="XMLID_00000120556844791662218920000015189551505946201249_">
            <path id="XMLID_00000120540929828512551130000010389174225818290608_" d="M381.49,318.293a1.853,1.853,0,1,1,1.853,1.853A1.853,1.853,0,0,1,381.49,318.293Z" transform="translate(-381.49 -316.44)" fill="#006f3a"/>
          </g>
        </g>
        <path id="XMLID_00000041257347070290975900000006814853306865494716_" d="M357.455,260.368c-2.028-.194-3.939-.019-4.425,2.028s-.311,3.872,0,4.134a4.856,4.856,0,0,0,2.746-1.3c.233-.437-.864-4.017.99-4.774a1.722,1.722,0,0,1,.689-.087Z" transform="translate(-324.142 -256.127)" fill="#006f3a"/>
        <path id="XMLID_00000119827111833882566230000009794550641410271663_" d="M334.441,305.44a2.212,2.212,0,0,0-2.086-.1c-1.533.767-4.134,2.843-5.308,8.393a4.18,4.18,0,0,0,1.31,4.211c1.067.757,23.977,13.788,27.014,15.6,2.62,1.562,3.988-.514,4.56-1.815h0c3.163-6.637,5.686-7.927,5.686-7.927Z" transform="translate(-323.377 -257.458)" fill="#37474f"/>
      </g>
    </g>
    <g id="Cloud" transform="translate(329.99 69.052)">
      <path id="XMLID_17863_" d="M343.537,75.516l10.431,6.016a13.486,13.486,0,0,1-.087-1.378V77.136c0-5.376,3.775-7.559,8.432-4.871a16.358,16.358,0,0,1,5.026,4.832c.767-6.763,6.065-9.276,12.507-5.56,6.967,4.017,12.614,13.8,12.614,21.842V97.9a11.952,11.952,0,0,1-1.067,5.24l8.665,5a10.341,10.341,0,0,1,4.677,8.1c0,2.979-2.1,4.192-4.677,2.7L343.547,86.315a10.341,10.341,0,0,1-4.677-8.1C338.86,75.234,340.956,74.021,343.537,75.516Z" transform="translate(-338.87 -69.818)" fill="#f0f0f0"/>
    </g>
    <g id="Character" transform="translate(110.766 96.25)">
      <g id="XMLID_00000089540887659649751520000001735286112723802759_" transform="translate(0 0)">
        <g id="XMLID_00000109724076809864784000000008331728078400495551_" transform="translate(0 113.235)">
          <g id="XMLID_00000074421852513947246040000000876141193565283735_" transform="translate(2.921 60.034)">
            <g id="XMLID_00000077320082543708924830000012969679704853781151_">
              <g id="XMLID_00000150076552154751599650000006875677228697950099_">
                <g id="XMLID_00000093876446560045327640000003633112642978586533_" transform="translate(0 21.748)">
                  <path id="XMLID_00000006706857662704624680000000409071404889970868_" d="M120.312,355.058l1.9-1.087-1.378-.621a8.942,8.942,0,0,0-1.106.34,5.533,5.533,0,0,0,.078.747Z" transform="translate(-116.062 -300.448)" fill="#e0e0e0"/>
                  <g id="Grupo_1054605" data-name="Grupo 1054605" transform="translate(3.663 52.902)">
                    <path id="XMLID_00000151512787702985950180000013401461600643788211_" d="M120.312,355.058l1.9-1.087-1.378-.621a8.942,8.942,0,0,0-1.106.34,5.533,5.533,0,0,0,.078.747Z" transform="translate(-119.725 -353.35)" fill="#33ab00"/>
                    <path id="XMLID_00000002347020673065082100000005291415417680389250_" d="M120.312,355.058l1.9-1.087-1.378-.621a8.942,8.942,0,0,0-1.106.34,5.533,5.533,0,0,0,.078.747Z" transform="translate(-119.725 -353.35)" fill="#fff" opacity="0.1"/>
                  </g>
                  <g id="Grupo_1054606" data-name="Grupo 1054606" transform="translate(8.684)">
                    <path id="XMLID_00000095338397408492879430000016834649477629704581_" d="M192.677,389.817a6.125,6.125,0,0,1-5.541,0L124.9,353.886l93.17-53.794,2.174-1.261,62.236,35.931c1.523.883,1.523,2.329,0,3.2Z" transform="translate(-124.9 -298.83)" fill="#33ab00"/>
                    <path id="XMLID_00000037656982057877048720000017042129685695748237_" d="M192.677,389.817a6.125,6.125,0,0,1-5.541,0L124.9,353.886l93.17-53.794,2.174-1.261,62.236,35.931c1.523.883,1.523,2.329,0,3.2Z" transform="translate(-124.9 -298.83)" fill="#fff" opacity="0.8"/>
                  </g>
                  <path id="XMLID_00000052814030694851038940000004601779698265289120_" d="M169.066,322.64,147.36,335.128l-14.05-8.112-16.34,9.441v11.78c0,1.426,1.6,3.464,2.183,3.124a16.1,16.1,0,0,1,3.124,1.106,23.453,23.453,0,0,1,4.512,3.338l49.874-28.789Z" transform="translate(-115.98 -299.537)" fill="#e0e0e0"/>
                  <g id="Grupo_1054607" data-name="Grupo 1054607" transform="translate(0.99 23.103)">
                    <path id="XMLID_00000172436697266638300030000006072309111130276740_" d="M169.066,322.64,147.36,335.128l-14.05-8.112-16.34,9.441v11.78c0,1.426,1.6,3.464,2.183,3.124a16.1,16.1,0,0,1,3.124,1.106,23.453,23.453,0,0,1,4.512,3.338l49.874-28.789Z" transform="translate(-116.97 -322.64)" fill="#33ab00"/>
                    <path id="XMLID_00000150824861938277650780000014776331142035947187_" d="M169.066,322.64,147.36,335.128l-14.05-8.112-16.34,9.441v11.78c0,1.426,1.6,3.464,2.183,3.124a16.1,16.1,0,0,1,3.124,1.106,23.453,23.453,0,0,1,4.512,3.338l49.874-28.789Z" transform="translate(-116.97 -322.64)" fill="#fff" opacity="0.1"/>
                  </g>
                  <g id="Grupo_1054608" data-name="Grupo 1054608" transform="translate(0 47.157)">
                    <path id="XMLID_00000026853204532738464770000014788594886759633799_" d="M186.861,391.25l-3.755-2.174-56.346-32.535a3.617,3.617,0,0,0-.767-2.018,8.115,8.115,0,0,0-2.465-2.164,5.521,5.521,0,0,0-2.659-.834,2.836,2.836,0,0,0-1.747.572,9.743,9.743,0,0,1-1.038-4.667H115.95c0,2.94.97,5.9,2.164,6.579l1.077.631c.611.349,1.087.369,1.087.039v-.573c0-.64.97-.611,2.174.087s2.164,1.776,2.164,2.406v.573c0,.33.834,1.067,1.844,1.65l54.493,31.467,5.9,3.406a.009.009,0,0,1,.01.01,5.791,5.791,0,0,0,2.765.65V391.89A5.23,5.23,0,0,1,186.861,391.25Z" transform="translate(-115.95 -347.43)" fill="#33ab00"/>
                    <path id="XMLID_00000111884122978735120530000014491438375437936274_" d="M186.861,391.25l-3.755-2.174-56.346-32.535a3.617,3.617,0,0,0-.767-2.018,8.115,8.115,0,0,0-2.465-2.164,5.521,5.521,0,0,0-2.659-.834,2.836,2.836,0,0,0-1.747.572,9.743,9.743,0,0,1-1.038-4.667H115.95c0,2.94.97,5.9,2.164,6.579l1.077.631c.611.349,1.087.369,1.087.039v-.573c0-.64.97-.611,2.174.087s2.164,1.776,2.164,2.406v.573c0,.33.834,1.067,1.844,1.65l54.493,31.467,5.9,3.406a.009.009,0,0,1,.01.01,5.791,5.791,0,0,0,2.765.65V391.89A5.23,5.23,0,0,1,186.861,391.25Z" transform="translate(-115.95 -347.43)" fill="#fff" opacity="0.6"/>
                  </g>
                  <g id="Grupo_1054609" data-name="Grupo 1054609" transform="translate(73.696 37.493)">
                    <path id="XMLID_00000071533615058862910630000002609147993557837964_" d="M285.6,337.47v2.5a1.912,1.912,0,0,1-1.1,1.582l-.039.019-83.9,48.438-5.89,3.406v.01s-.01-.01-.01,0a5.791,5.791,0,0,1-2.765.65v-2.465a5.642,5.642,0,0,0,2.775-.66l3.745-2.164h.01l86.038-49.69A1.9,1.9,0,0,0,285.6,337.47Z" transform="translate(-191.9 -337.47)" fill="#33ab00"/>
                    <path id="XMLID_00000112596870833222210220000007075001223617039744_" d="M285.6,337.47v2.5a1.912,1.912,0,0,1-1.1,1.582l-.039.019-83.9,48.438-5.89,3.406v.01s-.01-.01-.01,0a5.791,5.791,0,0,1-2.765.65v-2.465a5.642,5.642,0,0,0,2.775-.66l3.745-2.164h.01l86.038-49.69A1.9,1.9,0,0,0,285.6,337.47Z" transform="translate(-191.9 -337.47)" fill="#fff" opacity="0.1"/>
                  </g>
                </g>
                <path id="XMLID_00000027589294243627863130000009139534330295437991_" d="M190.034,375.088v14.38a3.651,3.651,0,0,1-1.844-.437l-6.831-3.94-52-30.022-.01-15.021Z" transform="translate(-116.348 -278.306)" fill="#fff"/>
                <path id="XMLID_00000000943663993356886550000003446192713208935861_" d="M282.9,323.86v11.071a4.124,4.124,0,0,1-1.844,3.2l-80.5,46.478-6.821,3.939a3.676,3.676,0,0,1-1.844.437V376.131Z" transform="translate(-118.204 -277.825)" fill="#f0f0f0"/>
                <path id="XMLID_00000000220245449759927620000002384079689199587484_" d="M129.126,354.935a3.631,3.631,0,0,0-.776-2.018,8.115,8.115,0,0,0-2.465-2.164,5.521,5.521,0,0,0-2.659-.834,2.835,2.835,0,0,0-1.747.572V335.5l7.636,4.415Z" transform="translate(-116.114 -278.171)" fill="#455a64"/>
                <path id="XMLID_00000103960655811605737100000016803773335290742182_" d="M126.21,351.036a7.971,7.971,0,0,1,2.271,2.047,3.631,3.631,0,0,1,.776,2.018l-.01-14.322H126.21v10.256Z" transform="translate(-116.255 -278.327)" fill="#f5f5f5"/>
                <g id="XMLID_00000054252257871213068550000017324265067713660346_" transform="translate(0)">
                  <g id="Grupo_1054610" data-name="Grupo 1054610" transform="translate(4.221 1.788)">
                    <path id="XMLID_00000017486268547971676760000008941870522889858195_" d="M217.924,281.918l-93.17,53.794v1.252c0,.689-.97.951-2.164.252s-2.174-1.562-2.174-2.756l-.116-1.184,94.926-54.794.388-.223a1.269,1.269,0,0,1,.155.573v.572C215.77,280.1,216.73,281.219,217.924,281.918Z" transform="translate(-120.3 -278.26)" fill="#33ab00"/>
                    <path id="XMLID_00000103242816560617466650000015317486562922774168_" d="M217.924,281.918l-93.17,53.794v1.252c0,.689-.97.951-2.164.252s-2.174-1.562-2.174-2.756l-.116-1.184,94.926-54.794.388-.223a1.269,1.269,0,0,1,.155.573v.572C215.77,280.1,216.73,281.219,217.924,281.918Z" transform="translate(-120.3 -278.26)" fill="#fff" opacity="0.6"/>
                  </g>
                  <g id="Grupo_1054611" data-name="Grupo 1054611" transform="translate(8.277 4.652)">
                    <path id="XMLID_00000001656013496619503290000010812903771655544449_" d="M187.114,371.741l-60.858-35.135c-.776-.408-1.475-.728-1.776-.573l.4-.223,93.17-53.794s.543-.311,1.087-.631a3.493,3.493,0,0,1,2.94.437l60.383,34.864c1.523.883,1.523,2.329,0,3.2l-89.793,51.854A6.146,6.146,0,0,1,187.114,371.741Z" transform="translate(-124.48 -281.211)" fill="#33ab00"/>
                    <path id="XMLID_00000160881032585841919190000005649506041729173921_" d="M187.114,371.741l-60.858-35.135c-.776-.408-1.475-.728-1.776-.573l.4-.223,93.17-53.794s.543-.311,1.087-.631a3.493,3.493,0,0,1,2.94.437l60.383,34.864c1.523.883,1.523,2.329,0,3.2l-89.793,51.854A6.146,6.146,0,0,1,187.114,371.741Z" transform="translate(-124.48 -281.211)" fill="#fff" opacity="0.8"/>
                  </g>
                  <g id="Grupo_1054612" data-name="Grupo 1054612">
                    <path id="XMLID_00000124139995919711393070000017843759593309197220_" d="M215.476,278.205l-.388.223-94.926,54.794a.78.78,0,0,0-.2-.252c-.087-.048-.194-.107-.32-.184l-.679-.4c-.252-.146-.543-.32-.844-.495a.86.86,0,0,0-1.077.1.251.251,0,0,0-.107.1,1.833,1.833,0,0,0-.291.4,2.238,2.238,0,0,0-.243.534,5.807,5.807,0,0,0-.194.621c-.058.233-.1.466-.136.728-.029.136-.039.291-.058.437-.01.116-.019.223-.029.349-.019.262-.029.543-.029.834v-2.668a5.691,5.691,0,0,1,2.775-4.269l89.8-51.854a5.56,5.56,0,0,1,4.939-.349l1.135.66.039.019c.078.049.262.165.475.281a.009.009,0,0,1,.01.01A.916.916,0,0,1,215.476,278.205Z" transform="translate(-115.95 -276.417)" fill="#33ab00"/>
                    <path id="XMLID_00000047758339129994353930000001370407109934668941_" d="M215.476,278.205l-.388.223-94.926,54.794a.78.78,0,0,0-.2-.252c-.087-.048-.194-.107-.32-.184l-.679-.4c-.252-.146-.543-.32-.844-.495a.86.86,0,0,0-1.077.1.251.251,0,0,0-.107.1,1.833,1.833,0,0,0-.291.4,2.238,2.238,0,0,0-.243.534,5.807,5.807,0,0,0-.194.621c-.058.233-.1.466-.136.728-.029.136-.039.291-.058.437-.01.116-.019.223-.029.349-.019.262-.029.543-.029.834v-2.668a5.691,5.691,0,0,1,2.775-4.269l89.8-51.854a5.56,5.56,0,0,1,4.939-.349l1.135.66.039.019c.078.049.262.165.475.281a.009.009,0,0,1,.01.01A.916.916,0,0,1,215.476,278.205Z" transform="translate(-115.95 -276.417)" fill="#fff" opacity="0.8"/>
                  </g>
                  <g id="Grupo_1054613" data-name="Grupo 1054613" transform="translate(0.01 55.342)">
                    <path id="XMLID_00000139997284822219477630000016339719743460643212_" d="M186.881,373.3a.009.009,0,0,1-.01-.01l-3.765-2.173L139.82,346.142,126,338.156c-.98-.572-1.785-.776-1.834-.475a.036.036,0,0,0-.01.029v.631c0,.689-.97.689-2.164,0a2.883,2.883,0,0,1-1.708-2.173v-.679a1,1,0,0,0-.32-.815c-.087-.048-.2-.116-.32-.184-.194-.107-.427-.243-.679-.4s-.543-.32-.844-.495a.86.86,0,0,0-1.077.1.251.251,0,0,0-.107.1,1.246,1.246,0,0,0-.194.252.689.689,0,0,0-.1.136,2.239,2.239,0,0,0-.243.534,5.8,5.8,0,0,0-.194.621c-.058.233-.1.466-.136.728-.029.136-.039.291-.058.437-.01.116-.019.223-.029.349-.019.262-.029.543-.029.834v9.344h2.135v-9.344c0-.223.01-.446.019-.66l.049-.534a.087.087,0,0,1,.01-.048c.194,1.7,1.814,3.212,3.221,4.007a5.42,5.42,0,0,0,2.6.815,2.829,2.829,0,0,0,1.912-.708l.194.107c.126.078.243.146.369.223l54.493,31.467,5.9,3.406a.01.01,0,0,1,.01.01c.01.01.019.01.039.019a5.755,5.755,0,0,0,2.717.631v-2.465A5.713,5.713,0,0,1,186.881,373.3Z" transform="translate(-115.96 -333.451)" fill="#33ab00"/>
                    <path id="XMLID_00000165234363635359385610000008580502203999682455_" d="M186.881,373.3a.009.009,0,0,1-.01-.01l-3.765-2.173L139.82,346.142,126,338.156c-.98-.572-1.785-.776-1.834-.475a.036.036,0,0,0-.01.029v.631c0,.689-.97.689-2.164,0a2.883,2.883,0,0,1-1.708-2.173v-.679a1,1,0,0,0-.32-.815c-.087-.048-.2-.116-.32-.184-.194-.107-.427-.243-.679-.4s-.543-.32-.844-.495a.86.86,0,0,0-1.077.1.251.251,0,0,0-.107.1,1.246,1.246,0,0,0-.194.252.689.689,0,0,0-.1.136,2.239,2.239,0,0,0-.243.534,5.8,5.8,0,0,0-.194.621c-.058.233-.1.466-.136.728-.029.136-.039.291-.058.437-.01.116-.019.223-.029.349-.019.262-.029.543-.029.834v9.344h2.135v-9.344c0-.223.01-.446.019-.66l.049-.534a.087.087,0,0,1,.01-.048c.194,1.7,1.814,3.212,3.221,4.007a5.42,5.42,0,0,0,2.6.815,2.829,2.829,0,0,0,1.912-.708l.194.107c.126.078.243.146.369.223l54.493,31.467,5.9,3.406a.01.01,0,0,1,.01.01c.01.01.019.01.039.019a5.755,5.755,0,0,0,2.717.631v-2.465A5.713,5.713,0,0,1,186.881,373.3Z" transform="translate(-115.96 -333.451)" fill="#fff" opacity="0.6"/>
                  </g>
                  <g id="Grupo_1054614" data-name="Grupo 1054614" transform="translate(73.696 41.698)">
                    <path id="XMLID_00000047040065343135693800000008193544766483548820_" d="M285.6,319.39v2.5a1.912,1.912,0,0,1-1.1,1.582l-.039.019-83.9,48.438-5.89,3.406v.01s-.01-.01-.01,0a5.791,5.791,0,0,1-2.765.65v-2.465a5.643,5.643,0,0,0,2.775-.66l3.745-2.164h.01l86.038-49.69A1.923,1.923,0,0,0,285.6,319.39Z" transform="translate(-191.9 -319.39)" fill="#33ab00"/>
                    <path id="XMLID_00000166668855227285345300000014923570634711263369_" d="M285.6,319.39v2.5a1.912,1.912,0,0,1-1.1,1.582l-.039.019-83.9,48.438-5.89,3.406v.01s-.01-.01-.01,0a5.791,5.791,0,0,1-2.765.65v-2.465a5.643,5.643,0,0,0,2.775-.66l3.745-2.164h.01l86.038-49.69A1.923,1.923,0,0,0,285.6,319.39Z" transform="translate(-191.9 -319.39)" fill="#fff" opacity="0.1"/>
                  </g>
                </g>
              </g>
              <path id="XMLID_00000033370891083799364920000001570083440287919510_" d="M221.9,281.67a3.49,3.49,0,0,0-2.94-.437c-.543.31-1.087.631-1.087.631-1.2-.708-2.164-1.815-2.164-2.5v-.573a1.329,1.329,0,0,0-.155-.572.965.965,0,0,0-.34-.388.009.009,0,0,0-.01-.01,4.057,4.057,0,0,1-.475-.281l-.039-.019-1.135-.66a5.592,5.592,0,0,0-4.939.349l-89.8,51.854a.84.84,0,0,1-.1.068l63.449,36.63a4.05,4.05,0,0,0,3.687-.01l90.395-52.688Z" transform="translate(-116.032 -276.417)" fill="#006f3a"/>
            </g>
          </g>
          <g id="XMLID_00000088836836062617797730000010000969926196043182_" transform="translate(0 25.241)">
            <g id="XMLID_00000123424045097723706280000015054217994235541126_">
              <g id="Grupo_1054615" data-name="Grupo 1054615" transform="translate(63.924 117.211)">
                <path id="XMLID_00000151529074743411425240000000543326458873932937_" d="M178.868,362.98l2.406-1.378a3.914,3.914,0,0,0-2.018-.146C178.616,361.758,178.868,362.98,178.868,362.98Z" transform="translate(-178.819 -361.357)" fill="#33ab00"/>
                <path id="XMLID_00000147927372874325359520000002142486869740939434_" d="M178.868,362.98l2.406-1.378a3.914,3.914,0,0,0-2.018-.146C178.616,361.758,178.868,362.98,178.868,362.98Z" transform="translate(-178.819 -361.357)" opacity="0.7"/>
              </g>
              <g id="Grupo_1054616" data-name="Grupo 1054616" transform="translate(61.77 104.426)">
                <path id="XMLID_00000091713974210718846860000008845095975925586593_" d="M177.153,361.076a2.908,2.908,0,0,1,4.279,0c2.338,2.144,2.455,4.269,3.425,4.231s.951-17.126.951-17.126l-9.208,8.568Z" transform="translate(-176.6 -348.18)" fill="#33ab00"/>
                <path id="XMLID_00000140708284852643537140000004186533990422314137_" d="M177.153,361.076a2.908,2.908,0,0,1,4.279,0c2.338,2.144,2.455,4.269,3.425,4.231s.951-17.126.951-17.126l-9.208,8.568Z" transform="translate(-176.6 -348.18)" opacity="0.7"/>
              </g>
              <g id="Grupo_1054617" data-name="Grupo 1054617" transform="translate(0.006 17.553)">
                <path id="XMLID_00000067921898730306237070000003729861717891187080_" d="M271.733,296.269l.155-.087-1.485-.854L206.877,258.65,114.3,318.567c-1.533.883-1.8,2.154-.6,2.843l2.164,1.242,59.383,34.3.417-.311Z" transform="translate(-112.946 -258.65)" fill="#33ab00"/>
                <path id="XMLID_00000073718089227044004750000016648693575753065636_" d="M271.733,296.269l.155-.087-1.485-.854L206.877,258.65,114.3,318.567c-1.533.883-1.8,2.154-.6,2.843l2.164,1.242,59.383,34.3.417-.311Z" transform="translate(-112.946 -258.65)" opacity="0.5"/>
              </g>
              <path id="XMLID_00000092447861177788218030000012581933687816719256_" d="M185.179,339.821l-4.6-.951v18.417c2.775,1.174,4.541,2.29,4.832,4.609Z" transform="translate(-114.948 -243.478)" fill="#455a64"/>
              <path id="XMLID_00000021800568586186953380000007284088280007236517_" d="M176.634,356.408,117.8,322.447a4.083,4.083,0,0,1-1.844-3.2V301.09l59.393,34.592a5.443,5.443,0,0,0,2.814,3.377c2.106.815.5,1.62.5,1.62v15.477C176.847,355.952,176.634,356.408,176.634,356.408Z" transform="translate(-113.03 -242.357)" fill="#f0f0f0"/>
              <g id="Grupo_1054618" data-name="Grupo 1054618" transform="translate(61.751 36.678)">
                <path id="XMLID_00000122691729438399954580000014353216610935557514_" d="M183.857,337.394c-.611-.349-1.087-.378-1.087-.039v.572c0,.64-.97.611-2.174-.087s-2.183-1.766-2.183-2.406v-.582c0-.33-.815-1.067-1.834-1.65L272.3,278.36l1.485.864a1.363,1.363,0,0,1,.369.8v.572c0,.64.97,1.717,2.164,2.416s2.173.728,2.173.087v-.572c0-.33.475-.31,1.087.039Z" transform="translate(-176.58 -278.36)" fill="#33ab00"/>
                <path id="XMLID_00000176740211379908451040000002096172447372749747_" d="M183.857,337.394c-.611-.349-1.087-.378-1.087-.039v.572c0,.64-.97.611-2.174-.087s-2.183-1.766-2.183-2.406v-.582c0-.33-.815-1.067-1.834-1.65L272.3,278.36l1.485.864a1.363,1.363,0,0,1,.369.8v.572c0,.64.97,1.717,2.164,2.416s2.173.728,2.173.087v-.572c0-.33.475-.31,1.087.039Z" transform="translate(-176.58 -278.36)" opacity="0.6"/>
              </g>
              <g id="Grupo_1054619" data-name="Grupo 1054619" transform="translate(0.006)">
                <path id="XMLID_00000030471978229977160090000007844798887342195852_" d="M271.733,278.179l.155-.087-1.485-.854L206.877,240.56,114.3,294.015c-1.533.883-1.8,2.154-.6,2.843l2.164,1.242,59.393,35.776Z" transform="translate(-112.946 -240.56)" fill="#33ab00"/>
                <path id="XMLID_00000173855892698699492050000008763011259235573692_" d="M271.733,278.179l.155-.087-1.485-.854L206.877,240.56,114.3,294.015c-1.533.883-1.8,2.154-.6,2.843l2.164,1.242,59.393,35.776Z" transform="translate(-112.946 -240.56)" opacity="0.5"/>
              </g>
              <g id="Grupo_1054620" data-name="Grupo 1054620" transform="translate(68.029 40.268)">
                <path id="XMLID_00000103969741870507797830000011178033245314917528_" d="M278.694,282.06,183.05,337.281l3.348,2.62,95.334-55.036a3.775,3.775,0,0,0-1.271-1.776Z" transform="translate(-183.05 -282.06)" fill="#33ab00"/>
                <path id="XMLID_00000169536050623183239090000004461981439440568237_" d="M278.694,282.06,183.05,337.281l3.348,2.62,95.334-55.036a3.775,3.775,0,0,0-1.271-1.776Z" transform="translate(-183.05 -282.06)" opacity="0.5"/>
              </g>
              <g id="XMLID_00000109029783002614775480000015501334116353780876_" transform="translate(70.979 43.063)">
                <g id="Grupo_1054621" data-name="Grupo 1054621">
                  <path id="XMLID_00000102522835868173673900000009274644074475023522_" d="M281.453,309.673a1.983,1.983,0,0,0,.175-.126.252.252,0,0,0,.107-.1,1.246,1.246,0,0,0,.194-.252.689.689,0,0,0,.1-.136,2.236,2.236,0,0,0,.243-.534,5.8,5.8,0,0,0,.194-.621c.048-.233.1-.466.136-.728a3.157,3.157,0,0,0,.048-.437c.01-.116.019-.223.029-.349.019-.262.029-.543.029-.834V289.753a13.1,13.1,0,0,0-.883-4.813l-95.334,55.046-.4,24.753,95.334-55.046Z" transform="translate(-186.09 -284.94)" fill="#33ab00"/>
                  <path id="XMLID_00000121268990726486582770000011468830654327661712_" d="M281.453,309.673a1.983,1.983,0,0,0,.175-.126.252.252,0,0,0,.107-.1,1.246,1.246,0,0,0,.194-.252.689.689,0,0,0,.1-.136,2.236,2.236,0,0,0,.243-.534,5.8,5.8,0,0,0,.194-.621c.048-.233.1-.466.136-.728a3.157,3.157,0,0,0,.048-.437c.01-.116.019-.223.029-.349.019-.262.029-.543.029-.834V289.753a13.1,13.1,0,0,0-.883-4.813l-95.334,55.046-.4,24.753,95.334-55.046Z" transform="translate(-186.09 -284.94)" opacity="0.7"/>
                </g>
                <path id="XMLID_00000109710140294978514290000016346674850417373095_" d="M186.5,339.976h0s75.083-35.135,81.914-38.357c4.512-2.125,6.724,2.339,5.657,6.957-.932,4.037-4.92,8.2-4.92,8.2h0l12.275-7.093.029-.019a1.961,1.961,0,0,0,.175-.126.251.251,0,0,0,.107-.1,1.246,1.246,0,0,0,.194-.252.689.689,0,0,0,.1-.136,2.238,2.238,0,0,0,.243-.534,5.807,5.807,0,0,0,.194-.621c.049-.233.1-.466.136-.728a3.162,3.162,0,0,0,.049-.437c.01-.116.019-.223.029-.349.019-.262.029-.543.029-.834v-15.8a13.1,13.1,0,0,0-.883-4.813Z" transform="translate(-186.102 -284.94)" fill="#006f3a" opacity="0.79"/>
              </g>
              <g id="Grupo_1054623" data-name="Grupo 1054623" transform="translate(0 55.172)">
                <g id="XMLID_00000111169294815943058220000011250574789599752353_">
                  <g id="Grupo_1054622" data-name="Grupo 1054622">
                    <g id="XMLID_00000029037388979778588130000005439686355644648615_">
                      <path id="XMLID_00000117650874027659595110000013613276139115607192_" d="M185.2,345.169h-2.135a9.66,9.66,0,0,0-1.038-4.667,2.835,2.835,0,0,1-1.747.573,5.555,5.555,0,0,1-2.659-.834,8.248,8.248,0,0,1-2.465-2.164,2.2,2.2,0,0,1-.126-.194,3.431,3.431,0,0,1-.64-1.824l-56.346-32.535-1.912-1.106-2.445-1.407a1.283,1.283,0,0,1-.747-1.1V297.42a1.327,1.327,0,0,0,.747,1.135l.029.019,6.462,3.726,54.493,31.467c1.009.582,1.844,1.32,1.844,1.65v.573a1.727,1.727,0,0,0,.5,1.009,6.075,6.075,0,0,0,1.669,1.4c1.2.689,2.174.728,2.174.087v-.573c0-.33.475-.311,1.087.039l1.077.631C184.229,339.27,185.2,342.229,185.2,345.169Z" transform="translate(-112.94 -297.42)" fill="#33ab00"/>
                    </g>
                    <g id="XMLID_00000143587878409798192890000014181322898521014674_" transform="translate(0.01 23.996)">
                      <path id="XMLID_00000068656755406203656140000004079181345123713201_" d="M183.065,345.9v15.8c0,.223-.01.446-.019.66l-.058.534a.088.088,0,0,1-.01.049c-.194-1.7-1.814-3.212-3.221-4.007a5.421,5.421,0,0,0-2.6-.815,2.829,2.829,0,0,0-1.912.708l-.194-.107c-.126-.078-.243-.146-.369-.223l-54.493-31.467-3.124-1.8c-.291-.175-.6-.34-.893-.524-.922-.534-1.844-1.067-2.639-1.523a1.256,1.256,0,0,1-.582-1.029v2.494a1.218,1.218,0,0,0,.543.961c0,.01.01.01.019.019.311.184.64.359.97.563l.611.349c.359.2.718.417,1.048.611.233.136.446.272.65.369.175.1.32.194.456.262.495.291.8.466.8.466L161.33,353.22l13.817,7.976c.98.572,1.785.776,1.834.475a.476.476,0,0,0,.01-.107V361c0-.689.97-.689,2.164,0a2.882,2.882,0,0,1,1.708,2.174v.679a1,1,0,0,0,.32.815c.087.058.2.116.32.184.194.107.427.243.679.4s.543.32.844.495a.86.86,0,0,0,1.077-.1.251.251,0,0,0,.107-.1,1.245,1.245,0,0,0,.194-.252v-.01a.623.623,0,0,0,.1-.126,2.426,2.426,0,0,0,.243-.534,5.8,5.8,0,0,0,.194-.621c.049-.233.1-.466.136-.728.029-.136.039-.291.058-.437.01-.116.019-.223.029-.349.019-.262.029-.543.029-.835v-15.8h-2.125Z" transform="translate(-112.95 -322.15)" fill="#33ab00"/>
                    </g>
                  </g>
                </g>
                <g id="XMLID_00000021803042010708464290000002940529883930400134_" opacity="0.6">
                  <g id="XMLID_00000103241089958987445310000000524184057263453369_">
                    <path id="XMLID_00000175300009292203595700000017212367490076384439_" d="M185.2,345.169h-2.135a9.66,9.66,0,0,0-1.038-4.667,2.835,2.835,0,0,1-1.747.573,5.555,5.555,0,0,1-2.659-.834,8.248,8.248,0,0,1-2.465-2.164,2.2,2.2,0,0,1-.126-.194,3.431,3.431,0,0,1-.64-1.824l-56.346-32.535-1.912-1.106-2.445-1.407a1.283,1.283,0,0,1-.747-1.1V297.42a1.327,1.327,0,0,0,.747,1.135l.029.019,6.462,3.726,54.493,31.467c1.009.582,1.844,1.32,1.844,1.65v.573a1.727,1.727,0,0,0,.5,1.009,6.075,6.075,0,0,0,1.669,1.4c1.2.689,2.174.728,2.174.087v-.573c0-.33.475-.311,1.087.039l1.077.631C184.229,339.27,185.2,342.229,185.2,345.169Z" transform="translate(-112.94 -297.42)"/>
                  </g>
                  <g id="XMLID_00000118374275376491617610000009849082532869787526_" transform="translate(0.01 23.996)">
                    <path id="XMLID_00000097465951533590027780000015675323515937764232_" d="M183.065,345.9v15.8c0,.223-.01.446-.019.66l-.058.534a.088.088,0,0,1-.01.049c-.194-1.7-1.814-3.212-3.221-4.007a5.421,5.421,0,0,0-2.6-.815,2.829,2.829,0,0,0-1.912.708l-.194-.107c-.126-.078-.243-.146-.369-.223l-54.493-31.467-3.124-1.8c-.291-.175-.6-.34-.893-.524-.922-.534-1.844-1.067-2.639-1.523a1.256,1.256,0,0,1-.582-1.029v2.494a1.218,1.218,0,0,0,.543.961c0,.01.01.01.019.019.311.184.64.359.97.563l.611.349c.359.2.718.417,1.048.611.233.136.446.272.65.369.175.1.32.194.456.262.495.291.8.466.8.466L161.33,353.22l13.817,7.976c.98.572,1.785.776,1.834.475a.476.476,0,0,0,.01-.107V361c0-.689.97-.689,2.164,0a2.882,2.882,0,0,1,1.708,2.174v.679a1,1,0,0,0,.32.815c.087.058.2.116.32.184.194.107.427.243.679.4s.543.32.844.495a.86.86,0,0,0,1.077-.1.251.251,0,0,0,.107-.1,1.245,1.245,0,0,0,.194-.252v-.01a.623.623,0,0,0,.1-.126,2.426,2.426,0,0,0,.243-.534,5.8,5.8,0,0,0,.194-.621c.049-.233.1-.466.136-.728.029-.136.039-.291.058-.437.01-.116.019-.223.029-.349.019-.262.029-.543.029-.835v-15.8h-2.125Z" transform="translate(-112.95 -322.15)"/>
                  </g>
                </g>
              </g>
            </g>
            <path id="XMLID_00000111186742381397013760000013542007672642624411_" d="M279.86,283.672l-90.608,52.31-68.485-39.54a1.124,1.124,0,0,1,0-2.135l89.657-51.766,60.189,34.747h.01l1.485.864a1.379,1.379,0,0,1,.359.786v.572c0,.64.97,1.717,2.164,2.406a1.821,1.821,0,0,0,.194.1l2-1.155.951.543a.546.546,0,0,1,.126.068l-.01.01.708.408A3.923,3.923,0,0,1,279.86,283.672Z" transform="translate(-113.149 -240.619)" fill="#006f3a"/>
          </g>
          <g id="XMLID_00000177474439448202835050000006407362027809156776_" transform="translate(8.481)">
            <path id="XMLID_00000165234568154472302200000004605901271641889195_" d="M126.044,298.437l2.727-1.456-2.484-.592A1.854,1.854,0,0,0,126.044,298.437Z" transform="translate(-121.804 -216.976)" fill="#e0e0e0"/>
            <path id="XMLID_00000080207429923965899250000015749031478148985731_" d="M126.044,298.437l2.727-1.456-2.484-.592A1.854,1.854,0,0,0,126.044,298.437Z" transform="translate(-121.804 -216.976)" fill="#e0e0e0" opacity="0.5"/>
            <g id="XMLID_00000034057843028144994040000001923635509755190971_" transform="translate(0.99 21.748)">
              <path id="XMLID_00000137101048136250944190000006205940669298841019_" d="M198.4,333.051a6.125,6.125,0,0,1-5.541,0L130.62,297.12l93.17-58.9,2.174-1.261L288.2,277.995c1.523.883,1.523,2.329,0,3.2Z" transform="translate(-122.935 -236.96)" fill="#33ab00"/>
              <g id="Grupo_1054624" data-name="Grupo 1054624" transform="translate(0 23.103)">
                <path id="XMLID_00000183239329951280588120000007921563125142052497_" d="M174.8,260.77l-47.022,31.865,25.316-19.377-14.05-8.112-16.34,9.441v16.884c0,1.426,1.6,3.464,2.183,3.124a16.1,16.1,0,0,1,3.124,1.106,23.455,23.455,0,0,1,4.512,3.338l49.874-33.893Z" transform="translate(-122.7 -260.77)" fill="#33ab00"/>
                <path id="XMLID_00000164515656959019443230000004873090436892465802_" d="M174.8,260.77l-47.022,31.865,25.316-19.377-14.05-8.112-16.34,9.441v16.884c0,1.426,1.6,3.464,2.183,3.124a16.1,16.1,0,0,1,3.124,1.106,23.455,23.455,0,0,1,4.512,3.338l49.874-33.893Z" transform="translate(-122.7 -260.77)" opacity="0.2"/>
              </g>
            </g>
            <path id="XMLID_00000132083231318354688080000003731027216951440544_" d="M195.764,313.218V332.7a3.65,3.65,0,0,1-1.844-.437l-6.831-3.939-52-30.022-.01-20.124Z" transform="translate(-122.078 -216.436)" fill="#fff"/>
            <path id="XMLID_00000005233783973259465330000002484848501454124932_" d="M288.626,261.99v16.175a4.125,4.125,0,0,1-1.844,3.2l-80.5,46.478-6.821,3.939a3.675,3.675,0,0,1-1.844.437V314.261Z" transform="translate(-123.934 -215.955)" fill="#f0f0f0"/>
            <path id="XMLID_00000091738312190304793080000006647220614054045570_" d="M134.846,298.17a3.631,3.631,0,0,0-.776-2.018,8.115,8.115,0,0,0-2.465-2.164,5.521,5.521,0,0,0-2.659-.834,2.7,2.7,0,0,0-1.747.417V273.64l7.636,4.415Z" transform="translate(-121.844 -216.301)" fill="#455a64"/>
            <path id="XMLID_00000183941902074872697310000008104540583363710110_" d="M131.94,294.26a7.971,7.971,0,0,1,2.271,2.047,3.631,3.631,0,0,1,.776,2.018l-.01-19.416H131.94Z" transform="translate(-121.985 -216.457)" fill="#f5f5f5"/>
            <g id="XMLID_00000121257460066306624770000016312520495083934599_">
              <g id="Grupo_1054625" data-name="Grupo 1054625" transform="translate(4.211 1.788)">
                <path id="XMLID_00000005230154595235814100000008599829741692585917_" d="M223.644,220.048l-93.17,53.794v1.252c0,.689-.97.951-2.164.252s-2.174-1.562-2.174-2.756l-.116-1.184,94.926-54.794.388-.223a1.269,1.269,0,0,1,.155.572v.572C221.49,218.234,222.45,219.349,223.644,220.048Z" transform="translate(-126.02 -216.39)" fill="#33ab00"/>
                <path id="XMLID_00000101803057034521876850000005664884434337800627_" d="M223.644,220.048l-93.17,53.794v1.252c0,.689-.97.951-2.164.252s-2.174-1.562-2.174-2.756l-.116-1.184,94.926-54.794.388-.223a1.269,1.269,0,0,1,.155.572v.572C221.49,218.234,222.45,219.349,223.644,220.048Z" transform="translate(-126.02 -216.39)" opacity="0.2"/>
              </g>
              <path id="XMLID_00000103243741161641315990000015612717452432758197_" d="M192.844,309.871l-60.858-35.135c-.776-.408-1.475-.728-1.776-.572l.4-.223,93.17-53.794s.543-.311,1.087-.631a3.493,3.493,0,0,1,2.94.437l60.383,34.864c1.523.883,1.523,2.329,0,3.2l-89.793,51.854A6.146,6.146,0,0,1,192.844,309.871Z" transform="translate(-121.933 -214.689)" fill="#33ab00"/>
              <path id="XMLID_00000045590543032692789170000013576416101091672719_" d="M221.206,216.335l-.388.223-94.926,54.794a.78.78,0,0,0-.2-.252c-.087-.049-.194-.107-.32-.184l-.679-.4c-.252-.146-.543-.32-.844-.495a.86.86,0,0,0-1.077.1.251.251,0,0,0-.107.1,1.835,1.835,0,0,0-.291.4,2.239,2.239,0,0,0-.243.534,5.806,5.806,0,0,0-.194.621c-.058.233-.1.466-.136.728a3.165,3.165,0,0,0-.049.437c-.01.116-.019.223-.029.349-.019.262-.029.543-.029.834v-2.668a5.691,5.691,0,0,1,2.775-4.269l89.8-51.854a5.56,5.56,0,0,1,4.939-.349l1.135.66.039.019a5.126,5.126,0,0,0,.475.281.01.01,0,0,1,.01.01A1.036,1.036,0,0,1,221.206,216.335Z" transform="translate(-121.68 -214.547)" fill="#33ab00"/>
              <g id="Grupo_1054626" data-name="Grupo 1054626" transform="translate(0 74.009)">
                <path id="XMLID_00000063610643363095523850000012203274356640256435_" d="M192.591,334.64l-3.755-2.174-56.346-32.535a3.618,3.618,0,0,0-.767-2.018,8.115,8.115,0,0,0-2.465-2.164,5.521,5.521,0,0,0-2.659-.834,2.835,2.835,0,0,0-1.747.573,9.743,9.743,0,0,1-1.038-4.667H121.68c0,2.94.97,5.9,2.164,6.579l1.077.631c.611.349,1.087.369,1.087.039V297.5c0-.64.97-.611,2.174.087s2.164,1.776,2.164,2.416v.572c0,.33.835,1.067,1.844,1.65l54.493,31.467,5.9,3.406a.009.009,0,0,1,.01.01,5.791,5.791,0,0,0,2.765.65V335.29A5.5,5.5,0,0,1,192.591,334.64Z" transform="translate(-121.68 -290.82)" fill="#33ab00"/>
                <path id="XMLID_00000163758747084949216060000006736238943763456647_" d="M192.591,334.64l-3.755-2.174-56.346-32.535a3.618,3.618,0,0,0-.767-2.018,8.115,8.115,0,0,0-2.465-2.164,5.521,5.521,0,0,0-2.659-.834,2.835,2.835,0,0,0-1.747.573,9.743,9.743,0,0,1-1.038-4.667H121.68c0,2.94.97,5.9,2.164,6.579l1.077.631c.611.349,1.087.369,1.087.039V297.5c0-.64.97-.611,2.174.087s2.164,1.776,2.164,2.416v.572c0,.33.835,1.067,1.844,1.65l54.493,31.467,5.9,3.406a.009.009,0,0,1,.01.01,5.791,5.791,0,0,0,2.765.65V335.29A5.5,5.5,0,0,1,192.591,334.64Z" transform="translate(-121.68 -290.82)" opacity="0.4"/>
              </g>
              <g id="Grupo_1054627" data-name="Grupo 1054627" transform="translate(0.019 55.342)">
                <path id="XMLID_00000129190226036604924780000003732469005756601262_" d="M192.611,311.431a.034.034,0,0,0-.019-.01l-3.755-2.173L145.55,284.272l-13.817-7.986c-.98-.572-1.785-.776-1.834-.475a.036.036,0,0,0-.01.029v.631c0,.689-.97.689-2.164,0a2.883,2.883,0,0,1-1.708-2.173v-.679a1,1,0,0,0-.32-.815c-.087-.048-.2-.116-.32-.184-.194-.107-.427-.243-.679-.4s-.543-.32-.844-.495a.86.86,0,0,0-1.077.1.251.251,0,0,0-.107.1,1.244,1.244,0,0,0-.194.252.689.689,0,0,0-.1.136,2.238,2.238,0,0,0-.243.534,5.808,5.808,0,0,0-.194.621c-.058.233-.1.466-.136.728a3.163,3.163,0,0,0-.049.437c-.01.116-.019.223-.029.349-.019.262-.029.543-.029.834v14.448h2.135V275.811c0-.223.01-.446.019-.66l.049-.534a.087.087,0,0,1,.01-.049c.194,1.7,1.814,3.212,3.221,4.007a5.42,5.42,0,0,0,2.6.815,2.829,2.829,0,0,0,1.912-.708l.194.107c.126.078.243.146.369.223L186.7,310.48l5.9,3.406a.01.01,0,0,1,.01.01c.01.01.019.01.039.019a5.755,5.755,0,0,0,2.717.631v-2.465A5.725,5.725,0,0,1,192.611,311.431Z" transform="translate(-121.7 -271.581)" fill="#33ab00"/>
                <path id="XMLID_00000088115683337778078630000006450242218021265555_" d="M192.611,311.431a.034.034,0,0,0-.019-.01l-3.755-2.173L145.55,284.272l-13.817-7.986c-.98-.572-1.785-.776-1.834-.475a.036.036,0,0,0-.01.029v.631c0,.689-.97.689-2.164,0a2.883,2.883,0,0,1-1.708-2.173v-.679a1,1,0,0,0-.32-.815c-.087-.048-.2-.116-.32-.184-.194-.107-.427-.243-.679-.4s-.543-.32-.844-.495a.86.86,0,0,0-1.077.1.251.251,0,0,0-.107.1,1.244,1.244,0,0,0-.194.252.689.689,0,0,0-.1.136,2.238,2.238,0,0,0-.243.534,5.808,5.808,0,0,0-.194.621c-.058.233-.1.466-.136.728a3.163,3.163,0,0,0-.049.437c-.01.116-.019.223-.029.349-.019.262-.029.543-.029.834v14.448h2.135V275.811c0-.223.01-.446.019-.66l.049-.534a.087.087,0,0,1,.01-.049c.194,1.7,1.814,3.212,3.221,4.007a5.42,5.42,0,0,0,2.6.815,2.829,2.829,0,0,0,1.912-.708l.194.107c.126.078.243.146.369.223L186.7,310.48l5.9,3.406a.01.01,0,0,1,.01.01c.01.01.019.01.039.019a5.755,5.755,0,0,0,2.717.631v-2.465A5.725,5.725,0,0,1,192.611,311.431Z" transform="translate(-121.7 -271.581)" opacity="0.4"/>
              </g>
              <g id="Grupo_1054628" data-name="Grupo 1054628" transform="translate(73.686 41.698)">
                <path id="XMLID_00000005247503081133128070000011157268947671186824_" d="M291.324,257.52v2.5a1.912,1.912,0,0,1-1.1,1.582l-.039.019-83.9,48.438-5.89,3.406v.01s-.01-.01-.01,0a5.79,5.79,0,0,1-2.765.65v-2.465A5.643,5.643,0,0,0,200.4,311l3.745-2.164h.01l86.038-49.69A1.886,1.886,0,0,0,291.324,257.52Z" transform="translate(-197.62 -257.52)" fill="#33ab00"/>
                <path id="XMLID_00000165210851763278721010000017921183726835898241_" d="M291.324,257.52v2.5a1.912,1.912,0,0,1-1.1,1.582l-.039.019-83.9,48.438-5.89,3.406v.01s-.01-.01-.01,0a5.79,5.79,0,0,1-2.765.65v-2.465A5.643,5.643,0,0,0,200.4,311l3.745-2.164h.01l86.038-49.69A1.886,1.886,0,0,0,291.324,257.52Z" transform="translate(-197.62 -257.52)" opacity="0.2"/>
              </g>
              <g id="Grupo_1054629" data-name="Grupo 1054629" transform="translate(73.686 64.345)">
                <path id="XMLID_00000046321256521843665900000015252485114155216260_" d="M291.324,280.86v2.5a1.912,1.912,0,0,1-1.1,1.582l-.039.019-83.9,48.438-5.89,3.406v.01s-.01-.01-.01,0a5.791,5.791,0,0,1-2.765.65V335a5.643,5.643,0,0,0,2.775-.66l3.745-2.164h.01l86.038-49.69A1.886,1.886,0,0,0,291.324,280.86Z" transform="translate(-197.62 -280.86)" fill="#33ab00"/>
                <path id="XMLID_00000099658978782632528370000010367494640545423285_" d="M291.324,280.86v2.5a1.912,1.912,0,0,1-1.1,1.582l-.039.019-83.9,48.438-5.89,3.406v.01s-.01-.01-.01,0a5.791,5.791,0,0,1-2.765.65V335a5.643,5.643,0,0,0,2.775-.66l3.745-2.164h.01l86.038-49.69A1.886,1.886,0,0,0,291.324,280.86Z" transform="translate(-197.62 -280.86)" opacity="0.2"/>
              </g>
            </g>
          </g>
        </g>
        <g id="XMLID_00000033370343722881278730000014917980714206798225_" transform="translate(56.822)">
          <g id="XMLID_00000125600995423048700410000002165808283159504800_" transform="translate(14.914)">
            <path id="XMLID_00000093882475390886632410000004498489563898405801_" d="M253.836,190.13,262.744,206l-12.983,6.909-9.451-14.07Z" transform="translate(-188.456 -100.587)" fill="#ffa8a7"/>
            <path id="XMLID_00000066484682335088254110000007760109351810990745_" d="M221.68,153.268c4.949-.844,12.44-1.067,17.32,7.287s15.37,28.974,15.37,28.974-6.132,7.937-15.011,9.383L224.853,175.9Z" transform="translate(-187.903 -99.481)" fill="#33ab00"/>
            <rect id="XMLID_00000089574907513843894770000004317922137965762740_" width="11.081" height="18.97" transform="translate(56.543 267.166) rotate(180)" fill="#ffa8a7"/>
            <path id="XMLID_00000180356270306054694220000003313309325538693263_" d="M266.8,348.266l11.071.378.553-20.076-11.071-.378Z" transform="translate(-189.243 -104.685)" fill="#ffa8a7"/>
            <path id="XMLID_00000175288145573409062960000014789354073537486473_" d="M244.734,367.5V365.92c1.058.466,3.522,9.858,7.918,13.866,3.493,3.192,8.267,6.87,9.48,10.421,1.261,3.7-6.637,5.735-9.907,5.162-3.794-.669-10.373-3.348-12.022-5.822s-2.426-6.132-3.765-7.947-4.434-3.842-5.162-5.938c-.4-1.155.078-3.677.631-5.812.514-1.96,1.067-4.114,1.737-3.93v1.2c.805.893,3.027,1.776,5.541,1.873C240.814,369.064,244.744,368.743,244.734,367.5Z" transform="translate(-188.184 -105.805)" fill="#006f3a"/>
            <path id="XMLID_00000140730594650633033150000006736364899511260306_" d="M277.886,345.73c.572.019,1.048.834,2.309,2.2a24.1,24.1,0,0,0,6.521,4.687c4.153,2.076,12.216,5.269,15.865,6.918,2.28,1.029,2.173,3.784-.184,5.346s-8.054,2.7-14.885,1.164c-3.726-.834-8.568-4.269-11.634-4.085s-8.811.146-11.071-1.417-1.358-4.89-.718-7.763c.7-3.124,1.7-7.908,2.736-7.695l-.029.98c1.329,2.018,8.112,2.843,11.042,1.358Z" transform="translate(-189.14 -105.187)" fill="#006f3a"/>
            <path id="XMLID_00000114785877592684721920000015814879619671219115_" d="M187.708,234.372c-2.426,17.126.844,20.406,17.116,36.814,8.752,8.82,22.851,21.755,22.851,21.755s-.2,5.463-.32,17.728c-.1,10.8,4.415,45.945,4.415,45.945s7.355,3.1,12.4-.116c0,0,2.28-26.15,3.513-39.773,1.669-18.475,2.542-27.732,1.6-31.71-.834-3.5-17.4-24.413-21.221-30.284l35.2,20.445a120.146,120.146,0,0,0-1.029,15.632c.388,14.661,2.183,43.946,2.183,43.946s8.063,3.61,12.061.495c0,0,10.14-64.041,10.14-69.3,0-7.986-34.689-31.826-41.248-37.377-3.745-3.173-7.928-6.55-7.928-6.55Z" transform="translate(-186.874 -101.534)" fill="#455a64"/>
            <path id="XMLID_00000116229276012006017490000001018756343520341147_" d="M229.32,255.4a25.385,25.385,0,0,0,8.044-11.469,57.538,57.538,0,0,1-1.252,8.723c-.951,3.8,28.411,23.191,28.411,23.191Z" transform="translate(-188.13 -102.184)" fill="#37474f"/>
            <circle id="XMLID_00000181769268442614557830000002311232788455342511_" cx="15.729" cy="15.729" r="15.729" transform="matrix(0.974, -0.228, 0.228, 0.974, 18.035, 7.83)" fill="#006f3a"/>
            <path id="XMLID_00000146466274197170513850000005986739738709355952_" d="M190.761,162.809s-3.891,3.183-3.891,13.235V197.75l.553,36.5c7.772,8.451,42.723,5.249,51.34-13.187,0,0-.068-38.541-.068-47.167s-4.813-19.853-18.048-20.619l-17.1,3.978Z" transform="translate(-186.87 -99.493)" fill="#006f3a"/>
            <g id="XMLID_00000099630407072204830690000000608487378717454519_" transform="translate(4.918)">
              <g id="XMLID_00000095334171182902140030000005164305673109916290_">
                <path id="XMLID_00000147921156052132551000000012053515946050609283_" d="M196.92,129.54s2.552,11.974,3.571,13.943a5.385,5.385,0,0,0,3.134,2.523l-.175-8.422Z" transform="translate(-192.086 -98.789)" fill="#006f3a"/>
                <path id="XMLID_00000049188621758245859690000006627877039218728848_" d="M200.037,111.859a5.894,5.894,0,0,0-4.89,1.717c-2.1,2.144-.922,8.859,1.688,15.438l4.8.553Z" transform="translate(-192.002 -98.263)" fill="#006f3a"/>
                <path id="XMLID_00000100342782198096909910000000175118609389951637_" d="M203.011,129.342c-.961.572-2.338-1.271-3.522-2.513s-5.065-2.94-7,1.135c-1.97,4.153,1.708,9.635,4.755,10.6,5.259,1.65,6.045-1.727,6.045-1.727l.4,18.97c4.531,5.065,20.027,3.852,17.107-.5l-.019-5.773a32.647,32.647,0,0,0,7.093.359c3.872-.6,6.3-3.648,7.471-7.84,1.882-6.724,2.6-12.148,1-25.374-1.756-14.5-18.611-14.642-27.712-8.917C199.538,113.5,203.011,129.342,203.011,129.342Z" transform="translate(-191.938 -98.038)" fill="#ffa8a7"/>
                <g id="XMLID_00000001665455741773776000000011205577700987474567_" transform="translate(8.181 23.891)">
                  <g id="XMLID_00000066507878750723945360000005092285831869469091_" transform="translate(10.926)">
                    <path id="Trazado_772116" data-name="Trazado 772116" d="M211.63,127.836A5.371,5.371,0,0,1,217,122.47h.825a5.366,5.366,0,0,1,0,10.732H217A5.371,5.371,0,0,1,211.63,127.836ZM217,123.372a4.463,4.463,0,0,0,0,8.927h.825a4.463,4.463,0,0,0,0-8.927Z" transform="translate(-211.63 -122.47)" fill="#006f3a"/>
                  </g>
                  <g id="XMLID_00000023269794535055684890000011599163913240143515_" transform="translate(27.285)">
                    <path id="Trazado_772117" data-name="Trazado 772117" d="M228.49,127.836a5.371,5.371,0,0,1,5.366-5.366h.825a5.366,5.366,0,0,1,0,10.732h-.825A5.371,5.371,0,0,1,228.49,127.836Zm5.366-4.463a4.463,4.463,0,0,0,0,8.927h.825a4.463,4.463,0,0,0,0-8.927Z" transform="translate(-228.49 -122.47)" fill="#006f3a"/>
                  </g>
                  <g id="XMLID_00000163755568990220857540000004867466514593453453_" transform="translate(21.638 1.954)">
                    <path id="Trazado_772118" data-name="Trazado 772118" d="M223.446,126.838a3.556,3.556,0,0,1,2.833-1.446,2.868,2.868,0,0,1,2.474.932l.718-.543a3.717,3.717,0,0,0-3.241-1.291,4.4,4.4,0,0,0-3.561,1.873Z" transform="translate(-222.67 -124.483)" fill="#006f3a"/>
                  </g>
                  <g id="XMLID_00000088811829364664191790000008048129578114732186_" transform="translate(0 4.269)">
                    <rect id="Rectngulo_362080" data-name="Rectngulo 362080" width="11.411" height="0.902" fill="#006f3a"/>
                  </g>
                </g>
                <path id="XMLID_00000138561573016420482670000009185971472054914744_" d="M203.223,130.773c-.485.01-2.329-3.047-3.522-4.134-1.659-1.514.485-15.2.485-15.2s-1.591-3.406,1.6-6.918c2.271-2.5,6.074-2.785,12.566-3.8,3.406-.534,8.568-1.485,11.974-2.125,4.066-.757,7.423-1.553,10.3.941a7.2,7.2,0,0,1,1.989,8.063,6.591,6.591,0,0,1-1.155,1.717,6.743,6.743,0,0,1-2.921,2.009s-1.776,1.572-7.927,2.319-15.758-.146-17.068-.32c-1.785-.243-2.164,1.485-3.134,6.22C205.552,123.709,204.853,130.744,203.223,130.773Z" transform="translate(-192.15 -97.848)" fill="#006f3a"/>
                <path id="XMLID_00000053531244332901943940000004086698837511698350_" d="M200.052,112.808l-5.822-3.124a3.2,3.2,0,0,1,4.405-1.455A3.474,3.474,0,0,1,200.052,112.808Z" transform="translate(-192.006 -98.145)" fill="#006f3a"/>
                <path id="XMLID_00000119804082322946923780000011192124863539354812_" d="M221.2,150.681s-8.636-1.737-11.654-3.348a9.945,9.945,0,0,1-4.172-4.124,13.58,13.58,0,0,0,2.368,4.871c2.2,2.824,13.449,4.9,13.449,4.9Z" transform="translate(-192.337 -99.195)" fill="#f28f8f"/>
              </g>
              <g id="XMLID_00000062184962617677695630000005128487807116415623_" transform="translate(20.065 20.024)">
                <path id="XMLID_00000142168591066144131290000002533547885484176060_" d="M219.434,127.835a1.729,1.729,0,1,1-1.727-1.8A1.765,1.765,0,0,1,219.434,127.835Z" transform="translate(-212.717 -118.708)" fill="#006f3a"/>
                <path id="XMLID_00000165920584757586223700000006625193341438450616_" d="M216.559,120.474l-3.7,2.047a2.226,2.226,0,0,1,.864-2.95A2.051,2.051,0,0,1,216.559,120.474Z" transform="translate(-212.617 -118.509)" fill="#006f3a"/>
                <path id="XMLID_00000079457258256211842670000000153854289585534653_" d="M220.866,140.2l3.949,1.485a2.067,2.067,0,0,1-2.678,1.31A2.211,2.211,0,0,1,220.866,140.2Z" transform="translate(-212.858 -119.129)" fill="#f28f8f"/>
                <path id="XMLID_00000155144659857187127480000001184359471362055071_" d="M235.8,121.964l-3.377-2.6a2.037,2.037,0,0,1,2.93-.446A2.236,2.236,0,0,1,235.8,121.964Z" transform="translate(-213.205 -118.484)" fill="#006f3a"/>
                <path id="XMLID_00000016766269887303562220000016285076346933122695_" d="M234.264,127.325a1.729,1.729,0,1,1-1.727-1.8A1.765,1.765,0,0,1,234.264,127.325Z" transform="translate(-213.157 -118.693)" fill="#006f3a"/>
                <path id="XMLID_00000052078715286104143110000013254057627065161113_" d="M225.56,125.95l.194,10.489,6.21-1.368Z" transform="translate(-213.001 -118.706)" fill="#f28f8f"/>
              </g>
            </g>
          </g>
          <g id="XMLID_00000136391260771505616720000006280389918740736137_" transform="translate(63.046 65.77)">
            <g id="XMLID_00000060745093366444361080000006207328336023304851_">
              <g id="XMLID_00000041278709711418772440000011536293931830227864_">
                <g id="Grupo_1054630" data-name="Grupo 1054630" transform="translate(0.005 35.979)">
                  <path id="XMLID_00000041254432118262303660000012874687315922175675_" d="M236.48,215.431v1a2.84,2.84,0,0,0,1.407,2.445l26.946,15.506a2.823,2.823,0,0,0,2.824,0l49.438-28.537a2.828,2.828,0,0,0,1.417-2.445v-.689l-52.261,30.167Z" transform="translate(-236.48 -202.71)" fill="#33ab00"/>
                  <path id="XMLID_00000065769483850412041930000014073897162824768169_" d="M236.48,215.431v1a2.84,2.84,0,0,0,1.407,2.445l26.946,15.506a2.823,2.823,0,0,0,2.824,0l49.438-28.537a2.828,2.828,0,0,0,1.417-2.445v-.689l-52.261,30.167Z" transform="translate(-236.48 -202.71)" opacity="0.6"/>
                </g>
                <g id="Grupo_1054631" data-name="Grupo 1054631" transform="translate(0 18.831)">
                  <path id="XMLID_00000181807820074239148200000014606457964757414785_" d="M318.52,202.185l-29.313-16.922a1.692,1.692,0,0,0-1.688,0l-50.854,29.362a.374.374,0,0,0,0,.65l29.585,17.087Z" transform="translate(-236.475 -185.038)" fill="#33ab00"/>
                  <path id="XMLID_00000160164269695770554760000004174780413100636607_" d="M318.52,202.185l-29.313-16.922a1.692,1.692,0,0,0-1.688,0l-50.854,29.362a.374.374,0,0,0,0,.65l29.585,17.087Z" transform="translate(-236.475 -185.038)" opacity="0.5"/>
                </g>
                <path id="XMLID_00000138538442619744150190000000789542534986401454_" d="M266.407,230.145,250.6,221.024l46.226-26.684,15.884,9.072Z" transform="translate(-236.894 -166.482)" fill="#006f3a"/>
                <path id="XMLID_00000152234256086850344870000012887926983189014929_" d="M258.88,204.852l.291.165,7.753,4.473,13.779-7.957.281-.165-8.034-4.638Z" transform="translate(-237.14 -166.553)" fill="#006f3a"/>
                <path id="XMLID_00000054260778009133701500000015275394264251490961_" d="M259.18,205.027l7.753,4.473,13.779-7.957-7.753-4.473Z" transform="translate(-237.149 -166.563)" fill="#006f3a"/>
                <path id="XMLID_00000042005253244972059890000001060403815220216451_" d="M267.17,232.877v1.882a2.81,2.81,0,0,0,1.407-.378l49.438-28.537a2.828,2.828,0,0,0,1.417-2.445v-.689Z" transform="translate(-237.386 -166.731)" opacity="0.7"/>
                <g id="Grupo_1054632" data-name="Grupo 1054632" transform="translate(30.58 0.534)">
                  <path id="XMLID_00000018199171638177822500000017396588479637287073_" d="M267.99,232.21a3.349,3.349,0,0,0,2.882-.223l49.215-28.411a3.393,3.393,0,0,0,1.63-2.338L327.1,169.11a3.548,3.548,0,0,0,.048-.553,3.348,3.348,0,0,0-.99-2.377l-51.145,29.536a2.492,2.492,0,0,0-1.2,1.727Z" transform="translate(-267.99 -166.18)" fill="#33ab00"/>
                  <path id="XMLID_00000109712133811808164540000018178703237674497946_" d="M267.99,232.21a3.349,3.349,0,0,0,2.882-.223l49.215-28.411a3.393,3.393,0,0,0,1.63-2.338L327.1,169.11a3.548,3.548,0,0,0,.048-.553,3.348,3.348,0,0,0-.99-2.377l-51.145,29.536a2.492,2.492,0,0,0-1.2,1.727Z" transform="translate(-267.99 -166.18)" opacity="0.5"/>
                </g>
                <path id="XMLID_00000086694174423133405520000005428970682102100111_" d="M267.17,231.777l.34.194a3.964,3.964,0,0,0,.456.223l5.822-34.776a2.472,2.472,0,0,1,1.2-1.727l51.145-29.536a3.711,3.711,0,0,0-.679-.524L274.2,195.215a2.492,2.492,0,0,0-1.2,1.727Z" transform="translate(-237.386 -165.63)" fill="#e0e0e0"/>
                <path id="XMLID_00000086693838372011369620000014102093484552074130_" d="M296.558,203.442c.359-2.154,2.581-5.007,4.958-6.385s4.017-.747,3.658,1.407-2.581,5.007-4.958,6.385S296.19,205.6,296.558,203.442Z" transform="translate(-238.257 -166.541)" fill="#33ab00"/>
              </g>
            </g>
            <path id="XMLID_00000096778663171582340110000018188196950705715647_" d="M285.928,224.694a17.956,17.956,0,0,1,.825-4.124c.757-2.377,3.008-11.537,8.151-12.915a3.644,3.644,0,0,1,1.882-.058c1.426.388,2.077,1.873,2.358,3.2a22.385,22.385,0,0,1,.029,5.919,11.726,11.726,0,0,1,2.736-2.3,5.477,5.477,0,0,1,3.154-1.126.958.958,0,0,1,.825.388,1.02,1.02,0,0,1-.291,1.067c-.514.621-1.145,1.145-1.65,1.766a14.93,14.93,0,0,0-1.116,1.688c-.65,1.048-1.378,2.038-2.106,3.027a21.087,21.087,0,0,1-5.181,5.356,19.533,19.533,0,0,1-7.763,3.1c-3.755.466-7.4.417-9.771-.417Z" transform="translate(-237.708 -166.873)" fill="#ffa8a7"/>
          </g>
          <g id="XMLID_00000106111184228493693820000006244523796960462992_" transform="translate(0 62.092)">
            <path id="XMLID_00000148646108968311267810000017167480171406471089_" d="M191.333,163.382c3.474-1.776,8.529,5.288,6.918,12.682s-9.548,33.389-9.548,33.389,35.853,3.212,38.9,3.58c2.125.262,4.5-.825,6.472-1.475,2.688-.893,5.385-1.514,8.025-2.484a3.393,3.393,0,0,1,1.465-.3,1.155,1.155,0,0,1,1.077.893,1.536,1.536,0,0,1-.223.864,11.335,11.335,0,0,1-3.7,4.308,15.11,15.11,0,0,0-2.174,1.572c-.427.417-1.339,1.572-1,2.2l14.254,8.2s-3.289,2.853-15.156-.475a77.813,77.813,0,0,1-12.478-4.434s-42.257,1.756-49.884-.563c-2.7-.815-3.678-2.727-1.853-11.43,2.115-10.1,8.1-28.479,9.461-33.3C184.861,166.079,185.589,166.322,191.333,163.382Z" transform="translate(-171.5 -161.878)" fill="#ffa8a7"/>
            <path id="XMLID_00000015329489721279263780000016740423373891605686_" d="M193.162,161.84s-5.715,1.611-8.18,4.832c-2.377,3.105-12.013,34.611-12.013,34.611a22.3,22.3,0,0,0,18.106,4.861s7.646-21.687,8.461-27.479C201.012,169.68,196.626,162.616,193.162,161.84Z" transform="translate(-171.544 -161.84)" fill="#33ab00"/>
          </g>
          <g id="XMLID_00000108294030121844544630000003852804113423192708_" transform="translate(35.782 79.97)">
            <path id="XMLID_00000124157863395706611940000015505263566084966071_" d="M225.361,183.423c.456-2.426-1.058-3.726-3.386-2.921a8.57,8.57,0,0,0-5.055,5.861C216.463,188.789,224.905,185.849,225.361,183.423Z" transform="translate(-208.63 -180.264)" fill="#33ab00"/>
            <path id="XMLID_00000058562903113634106680000005971449087361690810_" d="M208.535,192.593c1.048.8,3.823,1.582,11.091-.961s10.7-5.473,12.187-7.122c.534-.592.524-1.32-.029-1.31l-6,.078c-.349,1.863-3.124,3.445-5.376,4.24s-4.774,1.048-4.425-.815l-6.889,4.376C208.477,191.467,208.166,192.311,208.535,192.593Z" transform="translate(-208.377 -180.351)" fill="#33ab00"/>
          </g>
        </g>
      </g>
    </g>
  </g>
</svg>
