<svg xmlns="http://www.w3.org/2000/svg" width="189" height="189" viewBox="0 0 189 189">
  <g id="Grupo_1054638" data-name="Grupo 1054638" transform="translate(-289 9476)">
    <circle id="Elipse_4175" data-name="Elipse 4175" cx="94.5" cy="94.5" r="94.5" transform="translate(289 -9476)" fill="#39a900"/>
    <circle id="Elipse_4176" data-name="Elipse 4176" cx="19" cy="19" r="19" transform="translate(289 -9467)" fill="#ffce40"/>
    <g id="Grupo_1054633" data-name="Grupo 1054633" transform="translate(327 -9439.999)">
      <g id="Grupo_54898" data-name="Grupo 54898" transform="translate(0 0)">
        <path id="Trazado_110797" data-name="Trazado 110797" d="M334.783,483.242a8.339,8.339,0,0,0-8.33,8.33c.419,11.035,16.24,11.034,16.657,0A8.338,8.338,0,0,0,334.783,483.242Zm0,12.008a3.676,3.676,0,1,1,3.675-3.678A3.682,3.682,0,0,1,334.783,495.25Z" transform="translate(-313.554 -395.938)" fill="#fff"/>
        <path id="Trazado_110798" data-name="Trazado 110798" d="M311.95,443.747a5.362,5.362,0,0,0,.793-6.393l-2.713-4.7a5.364,5.364,0,0,0-5.933-2.509l-2.48.624a.691.691,0,0,1-.836-.481l-.7-2.458a5.363,5.363,0,0,0-5.141-3.886h-5.427a5.368,5.368,0,0,0-5.14,3.883l-.7,2.46a.69.69,0,0,1-.836.482l-2.478-.623a5.36,5.36,0,0,0-5.933,2.509l-2.715,4.7a5.363,5.363,0,0,0,.791,6.393l1.783,1.838a.687.687,0,0,1,0,.962l-1.781,1.836a5.363,5.363,0,0,0-.792,6.394l2.713,4.7a5.359,5.359,0,0,0,5.933,2.512l2.48-.623a.69.69,0,0,1,.836.481l.7,2.458a5.362,5.362,0,0,0,5.141,3.884h5.427a5.361,5.361,0,0,0,5.14-3.881l.7-2.46a.69.69,0,0,1,.836-.482l2.478.623a5.366,5.366,0,0,0,5.936-2.51l2.712-4.7a5.362,5.362,0,0,0-.79-6.392l-1.779-1.837h0a.688.688,0,0,1,0-.963Zm-5.119,6.037,1.782,1.84a.693.693,0,0,1,.1.827l-2.712,4.7a.7.7,0,0,1-.771.324l-2.479-.623a5.322,5.322,0,0,0-6.445,3.72l-.7,2.464a.692.692,0,0,1-.665.5h-5.427a.693.693,0,0,1-.666-.5l-.7-2.462a5.377,5.377,0,0,0-6.445-3.719l-2.481.624a.691.691,0,0,1-.766-.325l-2.715-4.7a.694.694,0,0,1,.1-.828l1.781-1.837a5.317,5.317,0,0,0,0-7.44l-1.783-1.839a.693.693,0,0,1-.1-.826l2.716-4.7a.689.689,0,0,1,.766-.321l2.479.623a5.321,5.321,0,0,0,6.445-3.72l.7-2.46a.7.7,0,0,1,.666-.5h5.427a.694.694,0,0,1,.666.5l.7,2.462a5.321,5.321,0,0,0,6.445,3.719l2.481-.624a.7.7,0,0,1,.768.324l2.713,4.7a.694.694,0,0,1-.1.829l-1.778,1.836a5.318,5.318,0,0,0,0,7.439Z" transform="translate(-271 -350.43)" fill="#fff"/>
        <path id="Trazado_110799" data-name="Trazado 110799" d="M500.044,491.766a2.349,2.349,0,0,0-.185-3.078l-6.379-6.38a2.326,2.326,0,1,0-3.289,3.29l2.408,2.409H480.9a2.326,2.326,0,1,0,0,4.652H492.6l-2.408,2.408a2.326,2.326,0,0,0,3.289,3.29l6.379-6.379A2.3,2.3,0,0,0,500.044,491.766Z" transform="translate(-430.294 -394.698)" fill="#fff"/>
        <path id="Trazado_110800" data-name="Trazado 110800" d="M500.505,171.35a2.337,2.337,0,0,0-.645-1.246l-6.379-6.38a2.326,2.326,0,0,0-3.289,3.29l2.408,2.408h-11.7a2.326,2.326,0,0,0,0,4.652H492.6l-2.408,2.408a2.326,2.326,0,0,0,3.289,3.29l6.379-6.379a2.342,2.342,0,0,0,.645-2.044Z" transform="translate(-430.295 -150.218)" fill="#fff"/>
        <path id="Trazado_110801" data-name="Trazado 110801" d="M335.01,317.334a2.326,2.326,0,0,0-2.326,2.326v9.655l-2.408-2.408a2.326,2.326,0,0,0-3.29,3.29l6.379,6.379a2.353,2.353,0,0,0,3.289,0l6.379-6.379a2.326,2.326,0,0,0-3.29-3.29l-2.409,2.409V319.66a2.325,2.325,0,0,0-2.326-2.326Z" transform="translate(-313.44 -268.62)" fill="#fff"/>
        <path id="Trazado_110802" data-name="Trazado 110802" d="M659.348,317.334a2.326,2.326,0,0,0-2.326,2.326v9.655l-2.408-2.408a2.326,2.326,0,0,0-3.29,3.29l6.379,6.379a2.353,2.353,0,0,0,3.289,0l6.379-6.379a2.326,2.326,0,0,0-3.29-3.29l-2.408,2.409V319.66a2.326,2.326,0,0,0-2.326-2.326Z" transform="translate(-562.336 -268.62)" fill="#fff"/>
        <path id="Trazado_110803" data-name="Trazado 110803" d="M630.263,429.621H602.178a7.916,7.916,0,0,0-7.907,7.907v25.791a7.916,7.916,0,0,0,7.907,7.907H622.92a2.326,2.326,0,0,0,0-4.652H602.178a3.258,3.258,0,0,1-3.255-3.255V437.528a3.258,3.258,0,0,1,3.255-3.255h28.086a3.258,3.258,0,0,1,3.254,3.255v18.6a2.326,2.326,0,0,0,4.652,0v-18.6a7.916,7.916,0,0,0-7.907-7.907Z" transform="translate(-519.077 -354.789)" fill="#fff"/>
        <path id="Trazado_110804" data-name="Trazado 110804" d="M273.983,151.58h37.5a2.326,2.326,0,0,0,2.326-2.326V142.29a14.625,14.625,0,0,0-12.189-14.4,11.05,11.05,0,0,0,2.224-6.661v-2.284c-.56-14.722-21.664-14.71-22.219,0v2.284a11.053,11.053,0,0,0,2.224,6.661,14.625,14.625,0,0,0-12.189,14.4v6.964a2.326,2.326,0,0,0,2.326,2.326Zm12.291-32.636c.326-8.557,12.592-8.55,12.914,0v2.284c-.326,8.557-12.592,8.55-12.914,0ZM276.31,142.29a9.963,9.963,0,0,1,9.952-9.952H299.2a9.963,9.963,0,0,1,9.952,9.952v4.638h-4.68V141.9a2.326,2.326,0,0,0-4.652,0v5.024H285.706V141.9a2.326,2.326,0,0,0-4.652,0v5.024H276.31Z" transform="translate(-271.504 -107.907)" fill="#fff"/>
        <path id="Trazado_110805" data-name="Trazado 110805" d="M619.865,151a21.494,21.494,0,0,0,21.47-21.47c-1.079-28.444-41.865-28.436-42.94,0A21.494,21.494,0,0,0,619.865,151Zm0-38.288a16.837,16.837,0,0,1,16.818,16.818c-.846,22.28-32.793,22.274-33.635,0a16.837,16.837,0,0,1,16.818-16.818Z" transform="translate(-522.242 -108.131)" fill="#fff"/>
        <path id="Trazado_110806" data-name="Trazado 110806" d="M654.312,182.468a2.327,2.327,0,0,0,3.29,0l9.918-9.918a2.326,2.326,0,0,0-3.29-3.29l-8.273,8.273-3.154-3.154a2.326,2.326,0,0,0-3.29,3.29Z" transform="translate(-560.946 -154.466)" fill="#fff"/>
        <path id="Trazado_110807" data-name="Trazado 110807" d="M660.843,482.762H644.587a2.326,2.326,0,0,0,0,4.652h16.256A2.326,2.326,0,0,0,660.843,482.762Z" transform="translate(-555.915 -395.569)" fill="#fff"/>
        <path id="Trazado_110808" data-name="Trazado 110808" d="M644.587,533.726a2.326,2.326,0,0,0,0,4.652h8.472a2.326,2.326,0,0,0,0-4.652Z" transform="translate(-555.915 -434.679)" fill="#fff"/>
        <path id="Trazado_110809" data-name="Trazado 110809" d="M760.033,583.4a2.325,2.325,0,1,0-1,2.912A2.343,2.343,0,0,0,760.033,583.4Z" transform="translate(-642.849 -471.718)" fill="#fff"/>
      </g>
    </g>
  </g>
</svg>
