<svg xmlns="http://www.w3.org/2000/svg" width="189" height="189" viewBox="0 0 189 189">
  <g id="Grupo_1054640" data-name="Grupo 1054640" transform="translate(-790 9476)">
    <circle id="Elipse_4179" data-name="Elipse 4179" cx="94.5" cy="94.5" r="94.5" transform="translate(790 -9476)" fill="#39a900"/>
    <circle id="Elipse_4180" data-name="Elipse 4180" cx="19" cy="19" r="19" transform="translate(790 -9467)" fill="#ffce40"/>
    <g id="Grupo_1054634" data-name="Grupo 1054634" transform="translate(829.36 -9440)">
      <path id="Trazado_110871" data-name="Trazado 110871" d="M575.664,89.078H564.356V73.723a4.846,4.846,0,0,0-1.615-9.415h-19.6V60.8a4.845,4.845,0,0,0-.045-9.152,21,21,0,0,0-41.911,0,4.845,4.845,0,0,0-.045,9.152v3.509h-19.6a4.846,4.846,0,0,0-1.615,9.416V89.078H468.615A1.615,1.615,0,0,0,467,90.694v49.97a1.615,1.615,0,0,0,1.615,1.615H575.664a1.615,1.615,0,0,0,1.615-1.615V90.694A1.615,1.615,0,0,0,575.664,89.078Zm-1.615,43.509h-3.231v-4.846a1.615,1.615,0,0,0-1.615-1.615H557.894V92.309h16.154Zm-22.616-6.462V102h3.231v24.124Zm-22.616,0H515.463V108.463h13.354Zm1.615-20.893H513.847a1.615,1.615,0,0,0-1.615,1.615v19.277H509V102h26.277v24.124h-3.231V106.848A1.615,1.615,0,0,0,530.432,105.232ZM499.308,102v24.124h-3.231V102Zm3.231,0h3.231v24.124h-3.231Zm35.97,0h3.231v24.124h-3.231Zm6.462,0H548.2v24.124h-3.231Zm9.693-9.693v6.462H489.616V92.309Zm-57.08-3.231,24.556-8.521L546.7,89.078ZM489.616,102h3.231v24.124h-3.231Zm77.971,27.354v3.231H476.693v-3.231ZM522.14,35.231a17.792,17.792,0,0,1,17.693,16.154H504.447A17.792,17.792,0,0,1,522.14,35.231ZM502.755,54.616h38.77a1.615,1.615,0,1,1,0,3.231h-38.77a1.615,1.615,0,1,1,0-3.231Zm1.615,6.462h35.539v3.231H504.37ZM481.539,70.77a1.615,1.615,0,1,1,0-3.231h81.2a1.615,1.615,0,0,1,0,3.231H488A1.615,1.615,0,1,0,488,74h73.125V89.078h-4.574L522.669,77.321a1.614,1.614,0,0,0-1.059,0L487.728,89.078h-4.574V72.385a1.615,1.615,0,0,0-1.615-1.615Zm4.846,21.539v33.816H475.077a1.615,1.615,0,0,0-1.615,1.615v4.846h-3.231V92.309Zm-16.154,46.739v-3.231H574.048v3.231Z" transform="translate(-467 -32)" fill="#fff"/>
    </g>
  </g>
</svg>
